<svg width="20" height="20" viewBox="0 0 20 20" fill="currentColor" xmlns="http://www.w3.org/2000/svg"> <path d="M18.1632 6.28829L8.16325 16.2883C8.07615 16.3757 7.97266 16.445 7.8587 16.4924C7.74475 16.5397 7.62257 16.564 7.49918 16.564C7.3758 16.564 7.25362 16.5397 7.13967 16.4924C7.02571 16.445 6.92222 16.3757 6.83512 16.2883L2.46012 11.9133C2.37292 11.8261 2.30374 11.7226 2.25655 11.6086C2.20935 11.4947 2.18506 11.3726 2.18506 11.2492C2.18506 11.1259 2.20935 11.0038 2.25655 10.8898C2.30374 10.7759 2.37292 10.6724 2.46012 10.5852C2.54733 10.498 2.65086 10.4288 2.7648 10.3816C2.87874 10.3344 3.00086 10.3101 3.12418 10.3101C3.24751 10.3101 3.36963 10.3344 3.48357 10.3816C3.59751 10.4288 3.70104 10.498 3.78825 10.5852L7.49997 14.2969L16.8367 4.96172C17.0128 4.7856 17.2517 4.68666 17.5007 4.68666C17.7498 4.68666 17.9887 4.7856 18.1648 4.96172C18.3409 5.13784 18.4399 5.37672 18.4399 5.62579C18.4399 5.87486 18.3409 6.11373 18.1648 6.28985L18.1632 6.28829Z" fill="currentColor" /> </svg> 