<svg width="24" height="24" viewBox="0 0 24 24" fill="currentColor" xmlns="http://www.w3.org/2000/svg"> <path d="M5.625 13.5H4.125C3.92609 13.5 3.73532 13.579 3.59467 13.7197C3.45402 13.8603 3.375 14.0511 3.375 14.25V19.5C3.375 19.6989 3.45402 19.8897 3.59467 20.0303C3.73532 20.171 3.92609 20.25 4.125 20.25C4.32391 20.25 4.51468 20.171 4.65533 20.0303C4.79598 19.8897 4.875 19.6989 4.875 19.5V18.75H5.625C6.32119 18.75 6.98887 18.4734 7.48116 17.9812C7.97344 17.4889 8.25 16.8212 8.25 16.125C8.25 15.4288 7.97344 14.7611 7.48116 14.2688C6.98887 13.7766 6.32119 13.5 5.625 13.5ZM5.625 17.25H4.875V15H5.625C5.92337 15 6.20952 15.1185 6.4205 15.3295C6.63147 15.5405 6.75 15.8266 6.75 16.125C6.75 16.4234 6.63147 16.7095 6.4205 16.9205C6.20952 17.1315 5.92337 17.25 5.625 17.25ZM21 18.8316C21 19.0247 20.9254 19.2104 20.7919 19.35C20.5307 19.6311 20.2149 19.8559 19.8638 20.0107C19.5127 20.1655 19.1337 20.2469 18.75 20.25C17.0953 20.25 15.75 18.7359 15.75 16.875C15.75 15.0141 17.0953 13.5 18.75 13.5C19.3013 13.5019 19.8394 13.6687 20.295 13.9791C20.46 14.091 20.5737 14.2638 20.6113 14.4596C20.6488 14.6553 20.607 14.858 20.4952 15.023C20.3833 15.1879 20.2104 15.3017 20.0147 15.3392C19.8189 15.3768 19.6162 15.335 19.4513 15.2231C19.2455 15.0794 19.001 15.0016 18.75 15C17.9231 15 17.25 15.8438 17.25 16.875C17.25 17.9062 17.9231 18.75 18.75 18.75C19.0208 18.747 19.2835 18.6577 19.5 18.495V18C19.3011 18 19.1103 17.921 18.9697 17.7803C18.829 17.6397 18.75 17.4489 18.75 17.25C18.75 17.0511 18.829 16.8603 18.9697 16.7197C19.1103 16.579 19.3011 16.5 19.5 16.5H20.25C20.4489 16.5 20.6397 16.579 20.7803 16.7197C20.921 16.8603 21 17.0511 21 17.25V18.8316ZM14.625 14.25V19.5C14.625 19.6589 14.5745 19.8138 14.4809 19.9422C14.3872 20.0706 14.2551 20.1659 14.1038 20.2144C14.0298 20.2382 13.9526 20.2502 13.875 20.25C13.7556 20.25 13.638 20.2215 13.5318 20.1669C13.4257 20.1123 13.3341 20.0331 13.2647 19.9359L10.875 16.5938V19.5C10.875 19.6989 10.796 19.8897 10.6553 20.0303C10.5147 20.171 10.3239 20.25 10.125 20.25C9.92609 20.25 9.73532 20.171 9.59467 20.0303C9.45402 19.8897 9.375 19.6989 9.375 19.5V14.25C9.37499 14.0911 9.42546 13.9363 9.51912 13.8079C9.61278 13.6796 9.74479 13.5842 9.89611 13.5358C10.0474 13.4873 10.2103 13.4881 10.3611 13.5381C10.5119 13.5881 10.643 13.6848 10.7353 13.8141L13.125 17.1562V14.25C13.125 14.0511 13.204 13.8603 13.3447 13.7197C13.4853 13.579 13.6761 13.5 13.875 13.5C14.0739 13.5 14.2647 13.579 14.4053 13.7197C14.546 13.8603 14.625 14.0511 14.625 14.25ZM4.5 11.25C4.69891 11.25 4.88968 11.171 5.03033 11.0303C5.17098 10.8897 5.25 10.6989 5.25 10.5V3.75H13.5V8.25C13.5 8.44891 13.579 8.63968 13.7197 8.78033C13.8603 8.92098 14.0511 9 14.25 9H18.75V10.5C18.75 10.6989 18.829 10.8897 18.9697 11.0303C19.1103 11.171 19.3011 11.25 19.5 11.25C19.6989 11.25 19.8897 11.171 20.0303 11.0303C20.171 10.8897 20.25 10.6989 20.25 10.5V8.25C20.2501 8.15148 20.2307 8.05391 20.1931 7.96286C20.1555 7.87182 20.1003 7.78908 20.0306 7.71938L14.7806 2.46938C14.7109 2.39975 14.6282 2.34454 14.5371 2.3069C14.4461 2.26926 14.3485 2.24992 14.25 2.25H5.25C4.85218 2.25 4.47064 2.40804 4.18934 2.68934C3.90804 2.97064 3.75 3.35218 3.75 3.75V10.5C3.75 10.6989 3.82902 10.8897 3.96967 11.0303C4.11032 11.171 4.30109 11.25 4.5 11.25ZM15 4.81031L17.6897 7.5H15V4.81031Z" fill="currentColor" />
</svg> 