<svg width="20" height="20" viewBox="0 0 20 20" fill="currentColor" xmlns="http://www.w3.org/2000/svg"> <path id="Shape" fill-rule="evenodd" clip-rule="evenodd" d="M18.2051 0C19.1795 0 20 0.820513 20 1.79487V18.2051C20 19.1795 19.1795 20 18.2051 20H1.79487C0.820513 20 0 19.1795 0 18.2051V1.79487C0 0.820513 0.820513 0 1.79487 0H18.2051ZM15.842 9.01475C15.5776 8.69901 15.0489 8.64639 14.7316 8.96213L5.26729 17.3818L5.21441 17.4344C4.73855 17.908 5.10867 18.75 5.79602 18.75H18.0098C18.4328 18.6974 18.75 18.3816 18.75 17.9607V13.1193C18.75 12.9615 18.6971 12.8562 18.5914 12.751L15.8948 9.06738L15.842 9.01475ZM3.75 5.625C3.75 4.59375 4.59375 3.75 5.625 3.75C6.65625 3.75 7.5 4.59375 7.5 5.625C7.5 6.65625 6.65625 7.5 5.625 7.5C4.59375 7.5 3.75 6.65625 3.75 5.625Z" fill="currentColor" />
</svg> 