<svg width="24" height="24" viewBox="0 0 24 24" fill="currentColor" xmlns="http://www.w3.org/2000/svg"> <path d="M4.09 8.08C4.04 8.38 4 8.68 4 9C4 8.69 4.04 8.38 4.09 8.08ZM4 15C4 15.32 4.04 15.62 4.09 15.92C4.04 15.62 4 15.31 4 15ZM8.09 19.91C8.38 19.96 8.69 20 9 20C8.69 20 8.39 19.96 8.09 19.91ZM8.09 4.09C8.39 4.04 8.69 4 9 4C8.69 4 8.38 4.04 8.09 4.09ZM15.92 4.09C15.62 4.04 15.32 4 15 4C15.31 4 15.62 4.04 15.92 4.09ZM19.91 8.08C19.96 8.38 20 8.69 20 9C20 8.68 19.96 8.38 19.91 8.08Z" fill="currentColor" /> <path d="M20.9038 9.41392C19.4925 9.41392 18.683 8.70013 18.683 7.65045C18.683 7.23057 18.8075 6.74772 19.0981 6.24387C19.6792 5.23617 19.3264 3.93456 18.3302 3.36772L16.4415 2.25506C15.5698 1.73021 14.4491 2.04512 13.9302 2.92686L13.8057 3.13679C12.8094 4.87927 11.1906 4.87927 10.1943 3.13679L10.0698 2.92686C9.5717 2.04512 8.43019 1.73021 7.57925 2.25506L5.66981 3.36772C5.00566 3.74561 4.61132 4.4594 4.61132 5.19418C4.61132 5.55107 4.71509 5.90797 4.90189 6.24387C5.19245 6.74772 5.33774 7.23057 5.33774 7.65045C5.33774 8.70013 4.50755 9.41392 3.09623 9.41392C1.95472 9.41392 1 10.3586 1 11.5133V13.4867C1 14.6414 1.95472 15.5861 3.09623 15.5861C4.50755 15.5861 5.33774 16.2999 5.33774 17.3496C5.33774 17.7694 5.19245 18.2523 4.90189 18.7561C4.32075 19.7638 4.67358 21.0654 5.66981 21.6323L7.57925 22.7449C8.43019 23.2698 9.5717 22.9549 10.0698 22.0731L10.1943 21.8632C11.1906 20.1207 12.8094 20.1207 13.8057 21.8632L13.9302 22.0731C14.4491 22.9549 15.5698 23.2698 16.4415 22.7449L18.3302 21.6323C18.9943 21.2544 19.3887 20.5406 19.3887 19.8058C19.3887 19.4489 19.2849 19.092 19.0981 18.7561C18.8075 18.2523 18.683 17.7694 18.683 17.3496C18.683 16.2999 19.4925 15.5861 20.9038 15.5861C22.066 15.5861 23 14.6414 23 13.4867V11.5133C23 10.3586 22.066 9.41392 20.9038 9.41392ZM12 16.1109C10.0283 16.1109 8.43019 14.4944 8.43019 12.5C8.43019 10.5056 10.0283 8.88908 12 8.88908C13.9717 8.88908 15.5698 10.5056 15.5698 12.5C15.5698 14.4944 13.9717 16.1109 12 16.1109Z" fill="currentColor" /> </svg> 