<svg width="24" height="24" viewBox="0 0 24 24" fill="currentColor" xmlns="http://www.w3.org/2000/svg">
  <path
    d="M21 0C22.6569 0 24 1.34315 24 3V15C24 16.6569 22.6569 18 21 18H13.5L8.61035 23.3789C8.0532 23.9918 7.10421 24.0374 6.49121 23.4805C6.17851 23.1962 6.00001 22.7927 6 22.3701V18H3C1.34315 18 0 16.6569 0 15V3C1.28851e-07 1.34315 1.34315 0 3 0H21ZM3 1.5C2.23075 1.5 1.59641 2.07919 1.50977 2.8252L1.5 3V15C1.5 15.7693 2.07919 16.4036 2.8252 16.4902L3 16.5H6C6.76925 16.5 7.40359 17.0792 7.49023 17.8252L7.5 18V22.3701L12.3896 16.9912C12.6333 16.7232 12.9646 16.5536 13.3203 16.5107L13.5 16.5H21C21.7693 16.5 22.4036 15.9208 22.4902 15.1748L22.5 15V3C22.5 2.23075 21.9208 1.59641 21.1748 1.50977L21 1.5H3Z"
    fill="currentColor" />
</svg>
  