<?xml version="1.0" encoding="UTF-8"?> <svg width="48" height="48" viewBox="0 0 48 48" fill="currentColor" xmlns="http://www.w3.org/2000/svg" > <path d="M24 20H34V16H24V20ZM24 32H34V28H24V32ZM18 22C19.1 22 20.0417 21.6083 20.825 20.825C21.6083 20.0417 22 19.1 22 18C22 16.9 21.6083 15.9583 20.825 15.175C20.0417 14.3917 19.1 14 18 14C16.9 14 15.9583 14.3917 15.175 15.175C14.3917 15.9583 14 16.9 14 18C14 19.1 14.3917 20.0417 15.175 20.825C15.9583 21.6083 16.9 22 18 22ZM18 34C19.1 34 20.0417 33.6083 20.825 32.825C21.6083 32.0417 22 31.1 22 30C22 28.9 21.6083 27.9583 20.825 27.175C20.0417 26.3917 19.1 26 18 26C16.9 26 15.9583 26.3917 15.175 27.175C14.3917 27.9583 14 28.9 14 30C14 31.1 14.3917 32.0417 15.175 32.825C15.9583 33.6083 16.9 34 18 34ZM10 42C8.9 42 7.95833 41.6083 7.175 40.825C6.39167 40.0417 6 39.1 6 38V10C6 8.9 6.39167 7.95833 7.175 7.175C7.95833 6.39167 8.9 6 10 6H38C39.1 6 40.0417 6.39167 40.825 7.175C41.6083 7.95833 42 8.9 42 10V38C42 39.1 41.6083 40.0417 40.825 40.825C40.0417 41.6083 39.1 42 38 42H10ZM10 38H38V10H10V38Z" fill="currentColor" /> </svg>