<svg width="24" height="24" viewBox="0 0 24 24" fill="currentColor" xmlns="http://www.w3.org/2000/svg"> <g clip-path="url(#clip0_2997_1062)"> <path d="M23.3898 8.15771L23.3895 8.15394C23.3809 7.97531 23.3536 7.79808 23.308 7.62515L23.304 7.6106C23.2613 7.4511 23.2016 7.29662 23.1261 7.14978C22.5042 5.95473 20.88 5.41464 18.7094 5.49015C16.9343 3.55031 14.3827 2.33368 11.5463 2.33368C6.18458 2.33368 1.83807 6.68019 1.83807 12.0419C1.83807 12.7473 1.91533 13.4344 2.05806 14.0969C0.845697 15.6727 0.299592 17.1758 0.637991 18.3468L0.636235 18.3473C0.638995 18.3573 0.643008 18.3666 0.646019 18.3767C0.661321 18.4266 0.677375 18.476 0.695687 18.5249C0.725288 18.6054 0.758149 18.6845 0.797282 18.761C0.79954 18.7652 0.800543 18.7695 0.802801 18.7738C0.841181 18.8473 0.884579 18.9175 0.930234 18.9862C0.942024 19.0038 0.954315 19.0208 0.966607 19.0382C1.00499 19.0923 1.04563 19.1448 1.08852 19.1957C1.10006 19.2097 1.11135 19.2238 1.12339 19.2376C1.17808 19.2995 1.23577 19.359 1.29748 19.4162C1.30877 19.4265 1.32106 19.4363 1.3326 19.4465C1.40334 19.51 1.47745 19.5696 1.5546 19.6251C1.61456 19.6685 1.67652 19.7102 1.74099 19.7501C1.75202 19.7571 1.76281 19.7646 1.7746 19.7716C1.84986 19.8168 1.92862 19.8592 2.0099 19.8996C2.03373 19.9116 2.05857 19.9229 2.0829 19.9344C2.14486 19.9635 2.20832 19.9916 2.27355 20.0182C2.30089 20.0295 2.32773 20.0408 2.35582 20.0516C2.44312 20.0855 2.53217 20.1173 2.62474 20.1467L2.68369 20.1637C2.79767 20.1982 2.91279 20.2287 3.02886 20.2553C3.0991 20.2716 3.17059 20.2866 3.24334 20.3009C3.27846 20.3077 3.31257 20.3152 3.34819 20.3215C3.44828 20.3391 3.55088 20.3551 3.65524 20.3687C3.69713 20.3742 3.74028 20.3787 3.78292 20.3837C3.90402 20.3975 4.02537 20.4088 4.14691 20.4178C4.29264 20.4281 4.43859 20.4347 4.58464 20.4379C4.66993 20.4402 4.75598 20.4414 4.84352 20.4414C4.97174 20.4405 5.09993 20.438 5.22808 20.4336C5.29029 20.4314 5.352 20.4294 5.41496 20.4264C5.51229 20.4214 5.61088 20.4151 5.71047 20.4078C5.79425 20.4018 5.87904 20.394 5.96408 20.3862C6.1054 20.3737 6.24649 20.3587 6.38727 20.3411L6.48635 20.328C8.00919 21.2607 9.76077 21.7531 11.5465 21.7504C16.7246 21.7504 20.9545 17.6963 21.2387 12.5893C21.3079 12.5117 21.3772 12.4342 21.4431 12.3567L21.5051 12.283C21.603 12.1669 21.6989 12.0491 21.7928 11.9298C21.8523 11.8543 21.9102 11.7788 21.9664 11.7037C21.9877 11.6754 22.0096 11.6468 22.0304 11.6185C22.1059 11.5161 22.1786 11.414 22.2481 11.3124L22.279 11.2658C22.3392 11.177 22.3969 11.0884 22.4523 11.0001L22.4997 10.9236C22.5557 10.833 22.6094 10.7427 22.66 10.6529L22.6798 10.6188C22.739 10.5132 22.7945 10.4083 22.8467 10.3042C22.8517 10.2947 22.8557 10.2852 22.8607 10.2756C22.9071 10.1818 22.95 10.0888 22.9909 9.99645L23.0117 9.94904C23.1 9.74309 23.1738 9.54065 23.232 9.34248L23.237 9.32467C23.2643 9.22985 23.2882 9.13628 23.3085 9.04321L23.3137 9.02039C23.3556 8.82297 23.3815 8.63056 23.39 8.44368L23.3905 8.43038C23.3943 8.33757 23.3943 8.24676 23.3898 8.15771ZM11.5463 4.08964C13.3795 4.08964 15.068 4.71477 16.4146 5.76057H16.4143C16.6997 5.98203 16.9698 6.22247 17.2228 6.48026L17.2326 6.4908C17.3467 6.60719 17.4566 6.72785 17.5632 6.85152C17.5793 6.87033 17.5958 6.88865 17.6116 6.90771C18.7942 8.29816 19.4593 10.0549 19.4943 11.8798V11.8801C18.1617 13.2477 16.2051 14.7604 13.6055 16.114C11.0672 17.436 8.75706 18.1672 6.89499 18.4868C5.53383 17.503 4.51767 16.1149 3.99113 14.5201C3.88161 14.1864 3.79446 13.8458 3.73024 13.5006L3.72196 13.4549C3.6921 13.2904 3.6675 13.1249 3.64821 12.9588L3.6452 12.9347C3.62484 12.7544 3.6107 12.5736 3.60281 12.3923C3.59779 12.2762 3.59403 12.1598 3.59403 12.0424C3.59403 7.65701 7.16139 4.08964 11.5463 4.08964ZM4.43313 18.6772C4.33276 18.6731 4.23249 18.6671 4.13236 18.6591L4.10727 18.6571C4.00986 18.649 3.91267 18.6384 3.81578 18.6255L3.81026 18.6248C3.6324 18.6016 3.45613 18.5675 3.28247 18.5227L3.26592 18.5176C3.20038 18.5002 3.13546 18.4805 3.07125 18.4587C3.05194 18.4519 3.03413 18.4446 3.01531 18.4379C2.94985 18.4136 2.88556 18.3863 2.82266 18.3561C2.76823 18.3294 2.71523 18.3 2.66387 18.2678C2.63603 18.2498 2.609 18.2307 2.58285 18.2103C2.56654 18.1978 2.54948 18.1853 2.53468 18.1725C2.51147 18.1521 2.48944 18.1304 2.46871 18.1075C2.45717 18.095 2.44387 18.0829 2.43359 18.0704C2.40915 18.0404 2.38749 18.0082 2.36887 17.9743C2.36661 17.97 2.36335 17.9665 2.36109 17.9623C2.33644 17.9122 2.31823 17.8593 2.30691 17.8047H2.30666C2.22212 17.4382 2.37464 16.8728 2.76597 16.1835C3.1989 17.0983 3.77206 17.94 4.46474 18.6779H4.45947C4.45019 18.6779 4.44166 18.6777 4.43313 18.6772ZM11.5463 19.9942C10.8065 19.9942 10.0908 19.8906 9.41078 19.7007C11.0085 19.2363 12.7087 18.56 14.4165 17.6708C16.1705 16.7574 17.7388 15.7226 19.057 14.6498C17.9751 17.7573 15.0178 19.9942 11.5463 19.9942ZM21.6416 8.43991C21.6372 8.50066 21.629 8.56106 21.617 8.62078C21.609 8.66342 21.5989 8.70732 21.5876 8.75223C21.5824 8.7733 21.5771 8.79437 21.5711 8.81594C21.557 8.86536 21.5405 8.91653 21.5227 8.96871C21.5164 8.98752 21.5106 9.00584 21.5036 9.02515C21.4803 9.08912 21.4539 9.15534 21.4251 9.22282C21.4213 9.2311 21.4188 9.23913 21.415 9.24741C21.3397 9.41834 21.2553 9.58514 21.1622 9.7471C21.1557 9.75889 21.1479 9.77094 21.1411 9.78273C21.1062 9.84318 21.0686 9.90464 21.0302 9.9666C20.8255 9.02669 20.4812 8.12272 20.0088 7.28474C20.7044 7.36577 21.1988 7.54864 21.4459 7.79899C21.4697 7.82282 21.4916 7.8469 21.5111 7.87199C21.5332 7.90083 21.5533 7.93018 21.5691 7.96054C21.5886 7.99791 21.6042 8.03905 21.6162 8.08295C21.6195 8.09399 21.621 8.10653 21.6235 8.11807C21.631 8.15169 21.6381 8.1863 21.6416 8.22318C21.6433 8.23923 21.6436 8.25654 21.6443 8.2731C21.6463 8.30822 21.6473 8.34384 21.6458 8.38147C21.6451 8.40053 21.6433 8.42035 21.6416 8.43991Z" fill="currentColor" /> <path d="M11.4729 8.69703C11.4729 8.92079 11.5169 9.14236 11.6025 9.3491C11.6881 9.55584 11.8136 9.74368 11.9719 9.90191C12.1301 10.0601 12.3179 10.1857 12.5246 10.2713C12.7314 10.3569 12.9529 10.401 13.1767 10.401C13.4004 10.401 13.622 10.3569 13.8287 10.2713C14.0355 10.1857 14.2233 10.0601 14.3815 9.90191C14.5397 9.74368 14.6652 9.55584 14.7508 9.3491C14.8364 9.14236 14.8805 8.92079 14.8805 8.69703C14.8805 8.47327 14.8364 8.25169 14.7508 8.04496C14.6652 7.83822 14.5397 7.65037 14.3815 7.49214C14.2233 7.33391 14.0355 7.20839 13.8287 7.12275C13.622 7.03712 13.4004 6.99304 13.1767 6.99304C12.9529 6.99304 12.7314 7.03712 12.5246 7.12275C12.3179 7.20839 12.1301 7.33391 11.9719 7.49214C11.8136 7.65037 11.6881 7.83822 11.6025 8.04496C11.5169 8.25169 11.4729 8.47327 11.4729 8.69703Z" fill="currentColor" /> </g> <defs> <clipPath id="clip0_2997_1062"> <rect width="24" height="24" fill="currentColor" /> </clipPath> </defs>
</svg> 