<svg width="24" height="24" viewBox="0 0 24 24" fill="currentColor" xmlns="http://www.w3.org/2000/svg"> <path d="M17.7243 9.42953H20.0808C20.7315 9.42953 21.259 9.95706 21.259 10.6078L21.259 19.2121C21.259 20.3166 20.3636 21.2121 19.259 21.2121L10.6548 21.2121C10.004 21.2121 9.4765 20.6845 9.4765 20.0338V17.6773M11.833 2.36002L4.76349 2.36002C3.46203 2.36002 2.40698 3.41506 2.40698 4.71652L2.40698 11.786C2.40698 13.0875 3.46203 14.1425 4.76349 14.1425L11.833 14.1425C13.1345 14.1425 14.1895 13.0875 14.1895 11.786L14.1895 4.71652C14.1895 3.41506 13.1345 2.36002 11.833 2.36002Z" stroke="currentColor" />
</svg> 