<svg width="24" height="24" viewBox="0 0 24 24" fill="currentColor" xmlns="http://www.w3.org/2000/svg">
  <path
    d="M20.4499 3.15C20.1499 2.9 19.7499 2.75 19.2999 2.75H4.6499C3.6999 2.75 2.8999 3.55 2.8999 4.5C2.8999 4.9 3.0499 5.3 3.2999 5.65L9.2999 12.75V18.65C9.2999 18.95 9.4499 19.2 9.6999 19.3L13.4999 21.2C13.5999 21.25 13.6999 21.3 13.8499 21.3C13.9999 21.3 14.0999 21.25 14.2499 21.2C14.4499 21.05 14.5999 20.8 14.5999 20.55V12.7L20.5999 5.6C20.8999 5.25 21.0499 4.8 20.9999 4.35C21.0499 3.9 20.8499 3.45 20.4499 3.15ZM19.5499 4.65L13.3499 11.95C13.2499 12.1 13.1499 12.25 13.1499 12.45V19.3L10.8499 18.15V12.45C10.8499 12.25 10.7999 12.1 10.6499 11.95L4.4499 4.65C4.4499 4.6 4.3999 4.55 4.3999 4.5C4.3999 4.35 4.4999 4.25 4.6499 4.25H19.2999C19.3499 4.25 19.3999 4.25 19.4499 4.3C19.4999 4.35 19.5499 4.45 19.5499 4.45C19.5999 4.5 19.5999 4.6 19.5499 4.65Z"
    fill="currentColor" />
</svg>
  