<?xml version="1.0" encoding="UTF-8"?> <svg width="48" height="48" viewBox="0 0 48 48" fill="currentColor" xmlns="http://www.w3.org/2000/svg" > <path d="M12.2425 43.3531V30.5896H8.91014C7.27965 30.5896 5.88699 30.0123 4.73216 28.8575C3.57739 27.7026 3 26.31 3 24.6795V19.6496C3 18.0191 3.57739 16.6264 4.73216 15.4716C5.88699 14.3168 7.27965 13.7395 8.91014 13.7395H21.5479L36.1975 5V39.3291L21.5479 30.5896H17.1466V43.3531H12.2425ZM31.2934 30.6149V13.7142L22.9059 18.6436H8.91014C8.65866 18.6436 8.42811 18.7484 8.21848 18.9579C8.00891 19.1676 7.90412 19.3981 7.90412 19.6496V24.6795C7.90412 24.931 8.00891 25.1615 8.21848 25.3712C8.42811 25.5807 8.65866 25.6855 8.91014 25.6855H22.9059L31.2934 30.6149ZM40.7245 32.3628V11.9663C42.0072 13.1274 43.0404 14.5903 43.8242 16.3549C44.6081 18.1196 45 20.0562 45 22.1645C45 24.2729 44.6081 26.2094 43.8242 27.9741C43.0404 29.7388 42.0072 31.2017 40.7245 32.3628Z" fill="currentColor" /> </svg>