<?xml version="1.0" encoding="UTF-8"?> <svg width="48" height="48" viewBox="0 0 48 48" fill="currentColor" xmlns="http://www.w3.org/2000/svg" > <path d="M16 45C14.9 45 13.9583 44.6083 13.175 43.825C12.3917 43.0417 12 42.1 12 41C12 39.9 12.3917 38.9583 13.175 38.175C13.9583 37.3917 14.9 37 16 37C17.1 37 18.0417 37.3917 18.825 38.175C19.6083 38.9583 20 39.9 20 41C20 42.1 19.6083 43.0417 18.825 43.825C18.0417 44.6083 17.1 45 16 45ZM36 45C34.9 45 33.9583 44.6083 33.175 43.825C32.3917 43.0417 32 42.1 32 41C32 39.9 32.3917 38.9583 33.175 38.175C33.9583 37.3917 34.9 37 36 37C37.1 37 38.0417 37.3917 38.825 38.175C39.6083 38.9583 40 39.9 40 41C40 42.1 39.6083 43.0417 38.825 43.825C38.0417 44.6083 37.1 45 36 45ZM14.3 13L19.1 23H33.1L38.6 13H14.3ZM12.4 9H41.9C42.6667 9 43.25 9.34167 43.65 10.025C44.05 10.7083 44.0667 11.4 43.7 12.1L36.6 24.9C36.2333 25.5667 35.7417 26.0833 35.125 26.45C34.5083 26.8167 33.8333 27 33.1 27H18.2L16 31H40V35H16C14.5 35 13.3667 34.3417 12.6 33.025C11.8333 31.7083 11.8 30.4 12.5 29.1L15.2 24.2L8 9H4V5H10.5L12.4 9Z" fill="currentColor" /> </svg>