<?xml version="1.0" encoding="UTF-8"?> <svg width="38" height="38" viewBox="0 0 38 37" fill="currentColor" xmlns="http://www.w3.org/2000/svg" > <path fill-rule="evenodd" clip-rule="evenodd" d="M17.418 23.1257H11.0846C10.2138 23.1257 9.5013 22.4319 9.5013 21.584C9.5013 20.7361 10.2138 20.0423 11.0846 20.0423H17.418C18.2888 20.0423 19.0013 20.7361 19.0013 21.584C19.0013 22.4319 18.2888 23.1257 17.418 23.1257ZM26.918 23.1257H23.7513C22.8805 23.1257 22.168 22.4319 22.168 21.584C22.168 20.7361 22.8805 20.0423 23.7513 20.0423H26.918C27.7888 20.0423 28.5013 20.7361 28.5013 21.584C28.5013 22.4319 27.7888 23.1257 26.918 23.1257ZM31.668 24.6673C31.668 25.5168 30.9586 26.209 30.0846 26.209H7.91797C7.04397 26.209 6.33464 25.5168 6.33464 24.6673V16.959H31.668V24.6673ZM6.33464 12.334C6.33464 11.4845 7.04397 10.7923 7.91797 10.7923H30.0846C30.9586 10.7923 31.668 11.4845 31.668 12.334V13.8757H6.33464V12.334ZM30.0846 7.70898H7.91797C5.29914 7.70898 3.16797 9.78407 3.16797 12.334V24.6673C3.16797 27.2172 5.29914 29.2923 7.91797 29.2923H30.0846C32.7035 29.2923 34.8346 27.2172 34.8346 24.6673V12.334C34.8346 9.78407 32.7035 7.70898 30.0846 7.70898Z" fill="currentColor" /> </svg>