<?xml version="1.0" encoding="UTF-8"?>
<svg width="48" height="48" viewBox="0 0 48 48" fill="currentColor" xmlns="http://www.w3.org/2000/svg" > <path d="M37 31.5C37 34.9667 35.7833 37.9167 33.35 40.35C30.9167 42.7833 27.9667 44 24.5 44C21.0333 44 18.0833 42.7833 15.65 40.35C13.2167 37.9167 12 34.9667 12 31.5V13C12 10.5 12.875 8.375 14.625 6.625C16.375 4.875 18.5 4 21 4C23.5 4 25.625 4.875 27.375 6.625C29.125 8.375 30 10.5 30 13V30.5C30 32.0333 29.4667 33.3333 28.4 34.4C27.3333 35.4667 26.0333 36 24.5 36C22.9667 36 21.6667 35.4667 20.6 34.4C19.5333 33.3333 19 32.0333 19 30.5V12H23V30.5C23 30.9333 23.1417 31.2917 23.425 31.575C23.7083 31.8583 24.0667 32 24.5 32C24.9333 32 25.2917 31.8583 25.575 31.575C25.8583 31.2917 26 30.9333 26 30.5V13C25.9667 11.6 25.475 10.4167 24.525 9.45C23.575 8.48333 22.4 8 21 8C19.6 8 18.4167 8.48333 17.45 9.45C16.4833 10.4167 16 11.6 16 13V31.5C15.9667 33.8667 16.7833 35.875 18.45 37.525C20.1167 39.175 22.1333 40 24.5 40C26.8333 40 28.8167 39.175 30.45 37.525C32.0833 35.875 32.9333 33.8667 33 31.5V12H37V31.5Z" fill="currentColor" /> </svg>