<?xml version="1.0" encoding="UTF-8"?>
<svg width="89" height="89" viewBox="0 0 89 89" fill="currentColor" xmlns="http://www.w3.org/2000/svg" > <circle cx="44.5" cy="44.5" r="44" stroke="currentColor" /> <path d="M44.5569 58.2363C41.8357 58.2363 39.5547 60.491 39.5547 63.1808C39.5547 65.8706 41.8357 68.1252 44.5569 68.1252C47.178 68.1252 49.5591 65.8706 49.439 63.2994C49.5591 60.4712 47.2981 58.2363 44.5569 58.2363Z" fill="currentColor" /> <path d="M43.334 21.0183C41.0037 21.6992 39.5547 23.8621 39.5547 26.4857C39.6722 28.0678 39.7701 29.67 39.8876 31.2521C40.2205 37.2803 40.5534 43.1882 40.8863 49.2164C41.0037 51.2591 42.5507 52.7411 44.5481 52.7411C46.5454 52.7411 48.112 51.159 48.2099 49.0962C48.2099 47.8545 48.2099 46.713 48.3274 45.4513C48.5428 41.5861 48.7778 37.7209 48.9932 33.8556C49.1107 31.3523 49.3261 28.8489 49.4436 26.3455C49.4436 25.4443 49.3261 24.6432 48.9932 23.8421C47.9945 21.5991 45.6643 20.4575 43.334 21.0183Z" fill="currentColor" /> </svg>