<?xml version="1.0" encoding="UTF-8"?> <svg width="40" height="40" viewBox="0 0 40 40" fill="currentColor" xmlns="http://www.w3.org/2000/svg"> <path d="M38.333 30c0 1.25-.35 2.433-.966 3.433-.35.6-.8 1.133-1.317 1.567a6.508 6.508 0 0 1-4.383 1.666 6.57 6.57 0 0 1-5.05-2.35c-.034-.05-.084-.083-.117-.133a4.708 4.708 0 0 1-.533-.75A6.534 6.534 0 0 1 25 30c0-2.1.967-3.984 2.5-5.2a6.671 6.671 0 0 1 4.167-1.467c1.666 0 3.166.6 4.333 1.617.2.15.383.333.55.516 1.1 1.2 1.783 2.784 1.783 4.534zM34.15 29.967h-4.967M31.667 27.533v4.983" stroke="currentColor" stroke-miterlimit="10"/> <path d="M5.283 12.4 20 20.915l14.617-8.467M20 36.016V20.9" fill="none" stroke="currentColor" stroke-width="1.5" stroke-linecap="round" stroke-linejoin="round" /> <path d="M36.017 15.283v9.433c0 .084 0 .15-.017.234a6.535 6.535 0 0 0-4.333-1.617c-1.567 0-3.017.55-4.167 1.467A6.618 6.618 0 0 0 25 30c0 1.25.35 2.433.967 3.433.15.267.333.517.533.75l-3.05 1.683c-1.9 1.067-5 1.067-6.9 0l-8.9-4.933c-2.017-1.117-3.667-3.917-3.667-6.217v-9.433c0-2.3 1.65-5.1 3.667-6.217l8.9-4.933c1.9-1.067 5-1.067 6.9 0l8.9 4.933c2.017 1.117 3.667 3.917 3.667 6.217z" stroke="currentColor"/> </svg> 