<?xml version="1.0" encoding="UTF-8"?>
<svg width="24" height="24" viewBox="0 0 24 25" fill="currentColor" xmlns="http://www.w3.org/2000/svg" > <path d="M21.3325 5.50481H17.1485C16.7368 5.50481 16.3672 5.25248 16.2172 4.86905L15.7592 3.69795C15.6625 3.44826 15.4924 3.23349 15.2711 3.08177C15.0499 2.93005 14.7878 2.84845 14.5192 2.84766H9.47919C9.20946 2.84711 8.94591 2.92808 8.72333 3.07989C8.50076 3.2317 8.32962 3.4472 8.23252 3.69795L7.77998 4.86606C7.63082 5.25106 7.26039 5.50481 6.84751 5.50481H2.66585C2.31223 5.50481 1.97309 5.64479 1.72304 5.89394C1.473 6.1431 1.33252 6.48103 1.33252 6.83339V20.1192C1.33252 20.4715 1.473 20.8094 1.72304 21.0586C1.97309 21.3078 2.31223 21.4477 2.66585 21.4477H21.3325C21.6861 21.4477 22.0253 21.3078 22.2753 21.0586C22.5254 20.8094 22.6658 20.4715 22.6658 20.1192V6.83339C22.6658 6.48103 22.5254 6.1431 22.2753 5.89394C22.0253 5.64479 21.6861 5.50481 21.3325 5.50481ZM21.3325 19.1192C21.3325 19.6714 20.8848 20.1192 20.3325 20.1192H3.66585C3.11357 20.1192 2.66585 19.6714 2.66585 19.1191V7.83339C2.66585 7.2811 3.11357 6.83339 3.66585 6.83339H7.76178C8.1742 6.83339 8.54431 6.5802 8.69379 6.19583L9.23125 4.81379C9.38073 4.42942 9.75084 4.17624 10.1633 4.17624H13.8351C14.2475 4.17624 14.6176 4.42942 14.7671 4.81379L15.3046 6.19583C15.4541 6.5802 15.8242 6.83339 16.2366 6.83339H20.3325C20.8848 6.83339 21.3325 7.2811 21.3325 7.83339V19.1192Z" fill="currentColor" /> <path d="M5.99902 12.8126C5.99902 13.995 6.35092 15.1509 7.01021 16.1341C7.66949 17.1173 8.60657 17.8836 9.70292 18.3361C10.7993 18.7886 12.0057 18.907 13.1696 18.6763C14.3335 18.4456 15.4025 17.8762 16.2417 17.0401C17.0808 16.204 17.6522 15.1387 17.8837 13.9789C18.1152 12.8192 17.9964 11.6171 17.5423 10.5247C17.0882 9.43222 16.3191 8.49849 15.3324 7.84156C14.3457 7.18462 13.1857 6.83398 11.999 6.83398C10.4077 6.83398 8.8816 7.46387 7.75638 8.58507C6.63116 9.70628 5.99902 11.227 5.99902 12.8126ZM16.9324 12.8126C16.9324 13.7848 16.643 14.7352 16.1009 15.5436C15.5589 16.352 14.7884 16.9821 13.8869 17.3541C12.9855 17.7262 11.9936 17.8235 11.0366 17.6339C10.0796 17.4442 9.20057 16.976 8.51063 16.2885C7.82069 15.601 7.35084 14.7251 7.16048 13.7716C6.97013 12.818 7.06783 11.8296 7.44122 10.9314C7.81461 10.0332 8.44693 9.26544 9.25821 8.7253C10.0695 8.18515 11.0233 7.89685 11.999 7.89685C13.3069 7.8986 14.5607 8.41707 15.4855 9.33857C16.4103 10.2601 16.9306 11.5094 16.9324 12.8126Z" fill="currentColor" /> <path d="M6.24577 8.71502C6.24577 8.57408 6.18958 8.43891 6.08956 8.33925C5.98954 8.23958 5.85388 8.18359 5.71243 8.18359H4.11244C3.97099 8.18359 3.83533 8.23958 3.73531 8.33925C3.63529 8.43891 3.5791 8.57408 3.5791 8.71502C3.5791 8.85597 3.63529 8.99114 3.73531 9.0908C3.83533 9.19046 3.97099 9.24645 4.11244 9.24645H5.71243C5.85388 9.24645 5.98954 9.19046 6.08956 9.0908C6.18958 8.99114 6.24577 8.85597 6.24577 8.71502Z" fill="currentColor" /> <path d="M8.22568 12.8137C8.23318 13.5144 8.44016 14.1984 8.82254 14.7864C9.12489 15.2514 9.52709 15.6411 9.99795 15.9287C10.2123 16.0597 10.4852 15.9754 10.618 15.7621C10.7885 15.4882 10.655 15.1271 10.3815 14.956C10.221 14.8557 10.0712 14.7382 9.93491 14.6054C9.64706 14.325 9.42666 13.9833 9.29025 13.6058C9.15384 13.2284 9.10496 12.8251 9.14728 12.4262C9.18959 12.0273 9.322 11.6431 9.53458 11.3024C9.74715 10.9618 10.0344 10.6735 10.3747 10.4592C10.715 10.2449 11.0996 10.1102 11.4997 10.0652C11.8997 10.0201 12.3048 10.0659 12.6845 10.1991C12.8636 10.2619 13.0348 10.3433 13.1955 10.4417C13.4722 10.6112 13.8568 10.5712 14.0289 10.2961C14.164 10.08 14.1183 9.7936 13.9021 9.65849C13.437 9.36772 12.9111 9.18253 12.362 9.11866C11.6643 9.03751 10.9579 9.15557 10.3249 9.45908C9.69196 9.76259 9.15858 10.2391 8.78693 10.833C8.41527 11.4269 8.22063 12.1138 8.22568 12.8137Z" fill="currentColor" /> </svg>