<?xml version="1.0" encoding="UTF-8"?> <svg xmlns="http://www.w3.org/2000/svg" width="52" height="52" viewBox="0 0 52 48" fill="currentColor" > <path d="M4.23221 25.8123C4.32345 25.4793 4.12349 25.0163 3.93266 24.6825C3.8735 24.5828 3.80903 24.4864 3.73954 24.3936C2.10281 21.9114 1.23044 19.0035 1.23055 16.0303C1.20318 7.4959 8.28005 0.570312 17.0311 0.570312C24.663 0.570312 31.0343 5.85745 32.5222 12.8758C32.7455 13.9163 32.8584 14.9775 32.859 16.0417C32.859 24.5883 26.0551 31.6226 17.3041 31.6226C15.9119 31.6226 14.0348 31.2728 13.0106 30.9862C11.9865 30.6996 10.9639 30.3194 10.7001 30.2175C10.43 30.1138 10.1432 30.0605 9.85387 30.0602C9.53839 30.059 9.22595 30.1219 8.93543 30.2449L3.77755 32.1061C3.66484 32.1548 3.54537 32.1861 3.42325 32.1989C3.32666 32.1986 3.23108 32.1791 3.14205 32.1417C3.05302 32.1042 2.9723 32.0495 2.90456 31.9806C2.83683 31.9117 2.78342 31.8301 2.74743 31.7405C2.71144 31.6508 2.69358 31.5549 2.69489 31.4583C2.70123 31.3736 2.71652 31.2897 2.7405 31.2082L4.23221 25.8123Z" stroke="currentColor" stroke-miterlimit="10" /> <path d="M9.42726 19.3127C10.7203 19.3127 11.7686 18.2637 11.7686 16.9698C11.7686 15.6759 10.7203 14.627 9.42726 14.627C8.13418 14.627 7.08594 15.6759 7.08594 16.9698C7.08594 18.2637 8.13418 19.3127 9.42726 19.3127Z" fill="currentColor" /> <path d="M16.4507 19.3127C17.7438 19.3127 18.792 18.2637 18.792 16.9698C18.792 15.6759 17.7438 14.627 16.4507 14.627C15.1576 14.627 14.1094 15.6759 14.1094 16.9698C14.1094 18.2637 15.1576 19.3127 16.4507 19.3127Z" fill="currentColor" /> <path d="M23.4859 19.3127C24.7789 19.3127 25.8272 18.2637 25.8272 16.9698C25.8272 15.6759 24.7789 14.627 23.4859 14.627C22.1928 14.627 21.1445 15.6759 21.1445 16.9698C21.1445 18.2637 22.1928 19.3127 23.4859 19.3127Z" fill="currentColor" /> <path d="M46.1978 39.2728C46.1237 39.0023 46.2861 38.626 46.4412 38.3549C46.4893 38.2739 46.5416 38.1955 46.5981 38.1201C47.9279 36.1033 48.6367 33.7407 48.6367 31.3249C48.6589 24.3907 42.9089 18.7637 35.7987 18.7637C29.5977 18.7637 24.421 23.0595 23.2121 28.7619C23.0307 29.6073 22.9389 30.4695 22.9384 31.3342C22.9384 38.2783 28.4666 43.9936 35.5769 43.9936C36.708 43.9936 38.2332 43.7095 39.0653 43.4766C39.8974 43.2437 40.7283 42.9348 40.9426 42.852C41.1621 42.7678 41.3951 42.7244 41.6302 42.7242C41.8865 42.7233 42.1404 42.7743 42.3764 42.8743L46.5672 44.3865C46.6588 44.4261 46.7559 44.4515 46.8551 44.4619C46.9336 44.4616 47.0112 44.4459 47.0836 44.4154C47.1559 44.385 47.2215 44.3405 47.2765 44.2845C47.3316 44.2286 47.3749 44.1623 47.4042 44.0894C47.4334 44.0166 47.4479 43.9387 47.4469 43.8602C47.4417 43.7913 47.4293 43.7232 47.4098 43.657L46.1978 39.2728Z" fill="currentColor" stroke="currentColor" stroke-miterlimit="10" /> <path d="M41.2512 33.3991C40.2984 33.3991 39.5259 32.6111 39.5259 31.639C39.5259 30.6669 40.2984 29.8789 41.2512 29.8789C42.2041 29.8789 42.9766 30.6669 42.9766 31.639C42.9766 32.6111 42.2041 33.3991 41.2512 33.3991Z" fill="currentColor" /> <path d="M35.5012 33.3991C34.5484 33.3991 33.7759 32.6111 33.7759 31.639C33.7759 30.6669 34.5484 29.8789 35.5012 29.8789C36.4541 29.8789 37.2266 30.6669 37.2266 31.639C37.2266 32.6111 36.4541 33.3991 35.5012 33.3991Z" fill="currentColor" /> <path d="M29.7473 33.3991C28.7945 33.3991 28.022 32.6111 28.022 31.639C28.022 30.6669 28.7945 29.8789 29.7473 29.8789C30.7002 29.8789 31.4727 30.6669 31.4727 31.639C31.4727 32.6111 30.7002 33.3991 29.7473 33.3991Z" fill="currentColor" /> </svg>