<?xml version="1.0" encoding="UTF-8"?>
<svg width="40" height="40" viewBox="0 0 40 40" fill="currentColor" xmlns="http://www.w3.org/2000/svg"> <path d="M15 36.666h10c8.333 0 11.667-3.333 11.667-11.666V15c0-8.334-3.334-11.667-11.667-11.667H15C6.667 3.333 3.333 6.666 3.333 15v10c0 8.333 3.334 11.666 11.667 11.666z" stroke="currentColor"/> <path d="M3.333 21.667H9.6c1.267 0 2.417.717 2.983 1.85l1.484 2.983c.933 1.834 2.6 1.834 3 1.834h5.883a3.333 3.333 0 0 0 2.983-1.85l1.484-2.984a3.333 3.333 0 0 1 2.983-1.85h6.233M17.233 11.667h5.55M15.833 16.667h8.334" fill="none" stroke="currentColor" stroke-width="1.5" stroke-linecap="round" stroke-linejoin="round" /> </svg> 