<?xml version="1.0" encoding="UTF-8"?>
<svg viewBox="0 0 21 21" xmlns="http://www.w3.org/2000/svg" > <path fill-rule="evenodd" clip-rule="evenodd" d="M8.43766 14.7618C8.43766 15.3118 7.98766 15.7618 7.43766 15.7618C6.88766 15.7618 6.43766 15.3118 6.43766 14.7618V10.7618C6.43766 10.2118 6.88766 9.76176 7.43766 9.76176C7.98766 9.76176 8.43766 10.2118 8.43766 10.7618V14.7618ZM14.4373 14.7618C14.4373 15.3118 13.9873 15.7618 13.4373 15.7618C12.8873 15.7618 12.4373 15.3118 12.4373 14.7618V10.7618C12.4373 10.2118 12.8873 9.7618 13.4373 9.7618C13.9873 9.7618 14.4373 10.2118 14.4373 10.7618V14.7618ZM16.4373 17.7617C16.4373 18.3127 15.9893 18.7617 15.4373 18.7617H5.43734C4.88534 18.7617 4.43734 18.3127 4.43734 17.7617V6.76168H16.4373V17.7617ZM8.43758 3.08964C8.43758 2.93464 8.65158 2.76164 8.93758 2.76164H11.9376C12.2236 2.76164 12.4376 2.93464 12.4376 3.08964V4.76164H8.43758V3.08964ZM19.4375 4.76172H18.4375H14.4375V3.08972C14.4375 1.80572 13.3165 0.761719 11.9375 0.761719H8.9375C7.5585 0.761719 6.4375 1.80572 6.4375 3.08972V4.76172H2.4375H1.4375C0.8875 4.76172 0.4375 5.21172 0.4375 5.76172C0.4375 6.31172 0.8875 6.76172 1.4375 6.76172H2.4375V17.7617C2.4375 19.4157 3.7835 20.7617 5.4375 20.7617H15.4375C17.0915 20.7617 18.4375 19.4157 18.4375 17.7617V6.76172H19.4375C19.9875 6.76172 20.4375 6.31172 20.4375 5.76172C20.4375 5.21172 19.9875 4.76172 19.4375 4.76172Z" /> </svg>