<?xml version="1.0" encoding="UTF-8"?> <svg width="22" height="22" viewBox="0 0 22 22" fill="currentColor" xmlns="http://www.w3.org/2000/svg" > <path d="M12.4286 2C10.1553 2 7.97511 2.90306 6.36766 4.51051C4.7602 6.11797 3.85714 8.29814 3.85714 10.5714H1L4.70476 14.2762L4.77143 14.4095L8.61905 10.5714H5.7619C5.7619 6.88571 8.74286 3.90476 12.4286 3.90476C16.1143 3.90476 19.0952 6.88571 19.0952 10.5714C19.0952 14.2571 16.1143 17.2381 12.4286 17.2381C10.5905 17.2381 8.92381 16.4857 7.72381 15.2762L6.37143 16.6286C7.16503 17.4268 8.10889 18.06 9.14851 18.4916C10.1881 18.9231 11.3029 19.1445 12.4286 19.1429C14.7019 19.1429 16.882 18.2398 18.4895 16.6323C20.0969 15.0249 21 12.8447 21 10.5714C21 8.29814 20.0969 6.11797 18.4895 4.51051C16.882 2.90306 14.7019 2 12.4286 2ZM11.4762 6.7619V11.5238L15.5238 13.9238L16.2571 12.7048L12.9048 10.7143V6.7619H11.4762Z" fill="currentColor" /> </svg>