<?xml version="1.0" encoding="UTF-8"?>
<svg width="19" height="19" viewBox="0 0 19 19" fill="currentColor" xmlns="http://www.w3.org/2000/svg"> <path d="M18.6484 2.74609C18.8594 2.95703 19 3.23828 19 3.55469V11.5C19 12.7656 17.9805 13.75 16.75 13.75H10C8.73438 13.75 7.75 12.7656 7.71484 11.5V2.5C7.71484 1.26953 8.69922 0.25 9.96484 0.25H15.6953C16.0117 0.25 16.293 0.390625 16.5039 0.601562L18.6484 2.74609ZM17.3125 11.5H17.2773V4.75H15.625C14.9922 4.75 14.5 4.25781 14.5 3.625L14.4648 1.97266H9.96484C9.64844 1.97266 9.40234 2.21875 9.40234 2.53516V11.5C9.40234 11.8164 9.64844 12.0625 9.96484 12.0625H16.75C17.0312 12.0625 17.3125 11.8164 17.3125 11.5ZM10.5625 16V14.875H12.25V16C12.25 17.2656 11.2305 18.25 10 18.25H3.25C1.98438 18.25 1 17.2656 1 16L0.964844 7C0.964844 5.76953 1.98438 4.75 3.21484 4.75H6.625V6.47266H3.21484C2.93359 6.47266 2.65234 6.71875 2.65234 7.03516V16C2.65234 16.3164 2.89844 16.5625 3.21484 16.5625H10C10.2812 16.5625 10.5625 16.3164 10.5625 16Z" fill="currentColor" /> </svg>