<?xml version="1.0" encoding="UTF-8"?> <svg width="22" height="22" viewBox="0 0 22 22" fill="currentColor" xmlns="http://www.w3.org/2000/svg" > <path d="M10.9997 1.83203C5.93283 1.83203 1.83301 5.93222 1.83301 10.9987C1.83301 16.0655 5.93319 20.1654 10.9997 20.1654C16.0665 20.1654 20.1663 16.0652 20.1663 10.9987C20.1663 5.93186 16.0661 1.83203 10.9997 1.83203ZM10.9997 18.7331C6.72453 18.7331 3.2653 15.2736 3.2653 10.9987C3.2653 6.72356 6.72482 3.26432 10.9997 3.26432C15.2748 3.26432 18.734 6.72384 18.734 10.9987C18.734 15.2738 15.2745 18.7331 10.9997 18.7331Z" fill="currentColor" /> <path d="M11.0003 9.50781C10.6048 9.50781 10.2842 9.82843 10.2842 10.224V14.8357C10.2842 15.2312 10.6048 15.5518 11.0003 15.5518C11.3959 15.5518 11.7165 15.2312 11.7165 14.8357V10.224C11.7165 9.82843 11.3959 9.50781 11.0003 9.50781Z" fill="currentColor" /> <path d="M11 8.63281C11.5339 8.63281 11.9668 8.19996 11.9668 7.66602C11.9668 7.13207 11.5339 6.69922 11 6.69922C10.4661 6.69922 10.0332 7.13207 10.0332 7.66602C10.0332 8.19996 10.4661 8.63281 11 8.63281Z" fill="currentColor" /> </svg>