<?xml version="1.0" encoding="UTF-8"?> <svg width="48" height="48" viewBox="0 0 48 48" fill="currentColor" xmlns="http://www.w3.org/2000/svg" > <path d="M18.0455 38.7727C14.8939 37.3182 12.3333 35.1212 10.3636 32.1818C8.39394 29.2424 7.40909 25.9242 7.40909 22.2273C7.40909 21.4394 7.44697 20.6667 7.52273 19.9091C7.59848 19.1515 7.72727 18.4091 7.90909 17.6818L5.81818 18.9091L4 15.7727L12.6818 10.7727L17.6818 19.4091L14.5 21.2273L12.0455 16.9545C11.7121 17.7727 11.4621 18.6212 11.2955 19.5C11.1288 20.3788 11.0455 21.2879 11.0455 22.2273C11.0455 25.1667 11.8485 27.8409 13.4545 30.25C15.0606 32.6591 17.197 34.4394 19.8636 35.5909L18.0455 38.7727ZM31.9545 16.7273V13.0909H36.9091C35.5152 11.3636 33.8333 10.0227 31.8636 9.06818C29.8939 8.11364 27.803 7.63636 25.5909 7.63636C23.9242 7.63636 22.3485 7.89394 20.8636 8.40909C19.3788 8.92424 18.0152 9.65152 16.7727 10.5909L14.9545 7.40909C16.4697 6.34848 18.1212 5.51515 19.9091 4.90909C21.697 4.30303 23.5909 4 25.5909 4C27.9848 4 30.2727 4.44697 32.4545 5.34091C34.6364 6.23485 36.5909 7.5303 38.3182 9.22727V6.72727H41.9545V16.7273H31.9545ZM30.7727 44L22.0909 39L27.0909 30.3636L30.2273 32.1818L27.6364 36.6364C31.2121 36.1212 34.1894 34.5 36.5682 31.7727C38.947 29.0455 40.1364 25.8485 40.1364 22.1818C40.1364 21.8485 40.1288 21.5379 40.1136 21.25C40.0985 20.9621 40.0606 20.6667 40 20.3636H43.6818C43.7121 20.6667 43.7348 20.9621 43.75 21.25C43.7652 21.5379 43.7727 21.8485 43.7727 22.1818C43.7727 26.2727 42.553 29.9318 40.1136 33.1591C37.6742 36.3864 34.5 38.5606 30.5909 39.6818L32.5909 40.8636L30.7727 44Z" fill="currentColor" /> </svg>