<?xml version="1.0" encoding="UTF-8"?> <svg width="142" height="142" viewBox="0 0 142 142" fill="currentColor" xmlns="http://www.w3.org/2000/svg" > <circle cx="71" cy="71" r="71" stroke="currentColor" /> <path fill-rule="evenodd" clip-rule="evenodd" d="M70.9982 117.27C96.5522 117.27 117.268 96.5542 117.268 71.0001C117.268 45.4461 96.5522 24.7305 70.9982 24.7305C45.4441 24.7305 24.7285 45.4461 24.7285 71.0001C24.7285 96.5542 45.4441 117.27 70.9982 117.27ZM80.4718 58.0415C84.3148 55.8151 88.2376 54.3798 92.0866 53.7918C93.4342 53.5859 93.9654 53.4981 93.979 53.5488C93.9887 53.5851 93.7343 53.6921 93.3246 53.8774C91.8476 54.5453 88.5683 56.4582 86.8421 57.6589C82.2547 60.8497 78.4874 64.5904 74.6523 69.7627C74.112 70.4912 73.67 71.1259 73.67 71.173C73.67 71.22 73.5308 71.4351 73.3606 71.6509C72.8585 72.2873 70.7815 75.5849 69.3169 78.0705C66.4348 82.9619 65.6238 84.2168 64.2208 85.9567C63.1879 87.2378 61.4475 88.7733 61.0283 88.7733C60.7702 88.7733 59.9157 88.0652 59.2606 87.3087C58.7328 86.6991 57.7545 84.7705 57.0151 82.8818C56.1642 80.7086 55.2706 78.6535 54.9097 78.0401C54.3631 77.1109 53.209 75.733 52.651 75.3434C51.6042 74.6127 50.1307 74.1274 48.9585 74.1274C48.6087 74.1274 48.3225 74.083 48.3225 74.0287C48.3225 73.6712 49.1035 72.5377 49.7467 71.9619C50.6474 71.1554 51.4359 70.7895 52.4917 70.6878C55.0158 70.4448 57.7693 71.8684 59.7982 74.4654C60.6323 75.5329 61.3441 77.0882 61.7319 78.6901L61.8137 79.0281L62.0119 78.5775C63.7216 74.6888 66.7091 70.164 69.8151 66.7587C71.7988 64.5837 74.8437 61.7831 76.4199 60.6839C76.8794 60.3634 77.5923 59.8617 78.0041 59.5692C78.4159 59.2767 79.5263 58.5892 80.4718 58.0415Z" fill="currentColor" /> </svg>