<?xml version="1.0" encoding="UTF-8"?> <svg width="14" height="14" viewBox="0 0 14 14" fill="currentColor" xmlns="http://www.w3.org/2000/svg" > <path fill="currentColor" d="M5.25 3.5V8.75C5.25 8.98206 5.34219 9.20462 5.50628 9.36872C5.67038 9.53281 5.89294 9.625 6.125 9.625H9.625C9.85706 9.625 10.0796 9.53281 10.2437 9.36872C10.4078 9.20462 10.5 8.98206 10.5 8.75V4.91838C10.5 4.80181 10.4767 4.68642 10.4315 4.57898C10.3862 4.47155 10.32 4.37423 10.2366 4.29275L8.78631 2.87437C8.62285 2.71454 8.40331 2.62503 8.17469 2.625H6.125C5.89294 2.625 5.67038 2.71719 5.50628 2.88128C5.34219 3.04538 5.25 3.26794 5.25 3.5V3.5Z" /> <path d="M8.75 9.625V10.5C8.75 10.7321 8.65781 10.9546 8.49372 11.1187C8.32962 11.2828 8.10706 11.375 7.875 11.375H4.375C4.14294 11.375 3.92038 11.2828 3.75628 11.1187C3.59219 10.9546 3.5 10.7321 3.5 10.5V5.6875C3.5 5.45544 3.59219 5.23288 3.75628 5.06878C3.92038 4.90469 4.14294 4.8125 4.375 4.8125H5.25" fill="none" stroke="currentColor" stroke-width="1.5" stroke-linecap="round" stroke-linejoin="round" /> </svg>