<?xml version="1.0" encoding="UTF-8"?> <svg width="66" height="66" viewBox="0 0 66 65" fill="currentColor" xmlns="http://www.w3.org/2000/svg" > <circle cx="33" cy="32.5" r="32.5" stroke="currentColor" /> <path fill-rule="evenodd" clip-rule="evenodd" d="M31.6305 17.9157C29.8913 18.114 28.436 18.5347 27.1462 19.212C23.9728 20.8787 21.2777 24.3606 20.3524 27.9894C20.0861 29.0338 20 29.7643 20 30.9807C20 32.9357 20.3874 34.7393 21.2374 36.7417C22.6599 40.0925 25.2874 42.5299 28.7662 43.7257C29.6253 44.021 30.115 44.1396 31.3691 44.356C31.9909 44.4634 32.5107 44.5627 32.5243 44.5767C32.5379 44.5907 32.6226 44.9942 32.7125 45.4733C32.8923 46.4313 33.0203 46.74 33.3161 46.9285C33.5583 47.083 33.9514 47.0518 34.2263 46.8564C34.3336 46.7802 35.335 45.886 36.4517 44.8694C37.8429 43.6029 38.5121 42.956 38.5776 42.8142C38.7804 42.3755 38.6537 41.8868 38.2754 41.649C38.1727 41.5844 37.1868 41.208 36.0844 40.8125C34.9821 40.417 33.788 39.9872 33.4309 39.8575C32.6453 39.5721 32.4278 39.58 32.089 39.9067C31.7618 40.2221 31.751 40.3702 31.971 41.5293C32.0747 42.0749 32.1594 42.5273 32.1594 42.5348C32.1594 42.6107 30.5321 42.3301 29.8813 42.1419C26.3867 41.1319 23.5634 38.3641 22.4217 34.8288C21.9596 33.3981 21.8318 32.4594 21.8759 30.8182C21.9114 29.4967 22.0406 28.7136 22.4128 27.5634C23.6765 23.6583 26.8746 20.768 30.9067 19.8867C31.5781 19.74 31.7251 19.7285 32.9388 19.7277C33.9734 19.727 34.3578 19.7486 34.7761 19.831C35.6802 20.0091 35.9421 20.0138 36.1666 19.8565C36.6115 19.5447 36.7394 19.0357 36.4872 18.58C36.3212 18.2803 36.065 18.1544 35.3454 18.0194C34.6612 17.891 32.4006 17.8279 31.6305 17.9157ZM39.3611 19.7481C39.1601 19.8423 39.0781 19.9461 38.7279 20.5503C38.2545 21.367 38.1964 21.6164 38.4056 21.934C38.7019 22.384 39.2503 22.4007 39.564 21.9693C39.61 21.9062 39.8042 21.5829 39.9955 21.251C40.2904 20.7394 40.3435 20.6061 40.3435 20.3766C40.3435 20.0428 40.1565 19.7839 39.8528 19.6969C39.5975 19.6238 39.6348 19.6199 39.3611 19.7481ZM42.4313 22.7495C42.2273 22.8678 41.2635 23.7294 41.1651 23.8814C40.9631 24.193 41.0866 24.7248 41.3994 24.8917C41.5932 24.9951 41.9171 25.005 42.087 24.9129C42.3039 24.7951 43.2071 24.0003 43.336 23.8137C43.4202 23.6917 43.4612 23.5497 43.4612 23.3799C43.4612 23.1632 43.4306 23.0959 43.2451 22.9044C43.059 22.7125 42.9951 22.6817 42.7858 22.6832C42.652 22.6842 42.4925 22.714 42.4313 22.7495ZM36.7247 25.7668C36.6175 25.8212 35.9536 26.4486 35.2493 27.1612C34.0158 28.4091 33.2762 29.1061 33.0663 29.2184C33.0115 29.2477 32.7877 29.2842 32.569 29.2996C31.7146 29.3598 31.1138 29.9103 30.9367 30.7957C30.7791 31.5837 31.2348 32.458 31.9856 32.8079C32.3519 32.9787 33.0355 32.9792 33.394 32.8089C34.0409 32.5017 34.4518 31.8461 34.4518 31.1213C34.4518 30.7492 34.4683 30.6966 34.7168 30.2745C35.1606 29.5209 36.137 28.176 37.1944 26.8621C37.5414 26.431 37.5868 26.1649 37.3573 25.908C37.1554 25.682 36.9723 25.6412 36.7247 25.7668ZM43.8788 26.8386C43.0973 27.1503 43.0323 27.1882 42.9017 27.4091C42.7639 27.6422 42.7639 27.9472 42.9015 28.1626C43.15 28.5515 43.498 28.5754 44.3135 28.2594C44.6299 28.1368 44.9681 27.9941 45.0649 27.9425C45.5173 27.7012 45.5252 26.9129 45.0776 26.6741C44.8204 26.537 44.5378 26.5757 43.8788 26.8386ZM43.6233 31.083C43.1222 31.4314 43.1982 32.138 43.7608 32.3596C44.1144 32.4989 45.4153 32.4358 45.6857 32.2662C46.0664 32.0273 46.1082 31.4887 45.7729 31.1428L45.588 30.952H44.6999C43.8676 30.952 43.7999 30.9602 43.6233 31.083ZM42.9276 34.8817C42.6523 35.0054 42.5148 35.2314 42.5148 35.5603C42.5148 35.9984 42.703 36.1579 43.5726 36.4565C44.3263 36.7153 44.5475 36.7426 44.7992 36.6083C45.1068 36.4442 45.2261 35.9596 45.0468 35.6019C44.9412 35.3913 44.7146 35.2717 43.9215 35.008C43.2292 34.7778 43.1744 34.7709 42.9276 34.8817ZM40.8375 38.2855C40.5077 38.4966 40.4141 38.9619 40.6292 39.321C40.7114 39.4582 40.7786 39.5109 40.8477 39.4922C40.9098 39.4755 40.9379 39.4913 40.922 39.5341C40.891 39.6173 41.7133 40.2862 41.9967 40.4083C42.2581 40.521 42.5117 40.4707 42.6931 40.27C43.1493 39.7654 43.0455 39.442 42.2122 38.7722C41.904 38.5244 41.5971 38.2918 41.5302 38.2552C41.357 38.1605 41.0089 38.1757 40.8375 38.2855Z" fill="currentColor" /> </svg>