<?xml version="1.0" encoding="UTF-8"?>
<svg viewBox="0 0 16 20" xmlns="http://www.w3.org/2000/svg" > <path fill-rule="evenodd" clip-rule="evenodd" d="M7.98314 5.32428L2.36614 10.9413L2.10214 13.8973L5.07914 13.6263L10.6791 8.02028L7.98314 5.32428ZM13.9661 4.73028L11.2711 2.03628L9.32314 3.98428L12.0181 6.68028L13.9661 4.73028ZM1.09114 15.9973C1.06014 16.0003 1.03014 16.0013 1.00014 16.0013C0.736142 16.0013 0.481142 15.8973 0.293142 15.7083C0.0831418 15.4983 -0.0228583 15.2063 0.00414175 14.9113L0.383142 10.7403C0.425142 10.2833 0.627142 9.85228 0.952142 9.52728L9.94814 0.530279C10.6501 -0.173721 11.9241 -0.138721 12.6641 0.600279L15.4021 3.33828H15.4031C16.1691 4.10528 16.1991 5.32228 15.4711 6.05228L6.47414 15.0493C6.14914 15.3753 5.71914 15.5763 5.26114 15.6183L1.09114 15.9973ZM1 18.0014H15C15.55 18.0014 16 18.4514 16 19.0014C16 19.5514 15.55 20.0014 15 20.0014H1C0.45 20.0014 0 19.5514 0 19.0014C0 18.4514 0.45 18.0014 1 18.0014Z" /> </svg>