<?xml version="1.0" encoding="UTF-8"?> <svg width="48" height="48" viewBox="0 0 48 48" fill="currentColor" xmlns="http://www.w3.org/2000/svg" > <path d="M11.8 36.1846C10.3 34.6846 9.125 32.9513 8.275 30.9846C7.425 29.0179 7 26.9846 7 24.8846C7 22.7846 7.4 20.7096 8.2 18.6596C9 16.6096 10.3 14.6846 12.1 12.8846C13.2667 11.7179 14.7083 10.7179 16.425 9.88462C18.1417 9.05128 20.175 8.39295 22.525 7.90962C24.875 7.42628 27.5583 7.13462 30.575 7.03462C33.5917 6.93462 36.9667 7.05128 40.7 7.38462C40.9667 10.9179 41.05 14.1679 40.95 17.1346C40.85 20.1013 40.575 22.7763 40.125 25.1596C39.675 27.5429 39.0417 29.6263 38.225 31.4096C37.4083 33.1929 36.4 34.6846 35.2 35.8846C33.4333 37.6513 31.5583 38.9429 29.575 39.7596C27.5917 40.5763 25.5667 40.9846 23.5 40.9846C21.3333 40.9846 19.2167 40.5596 17.15 39.7096C15.0833 38.8596 13.3 37.6846 11.8 36.1846ZM17.4 35.3846C18.3667 35.9513 19.3583 36.3596 20.375 36.6096C21.3917 36.8596 22.4333 36.9846 23.5 36.9846C25.0333 36.9846 26.55 36.6763 28.05 36.0596C29.55 35.4429 30.9833 34.4513 32.35 33.0846C32.95 32.4846 33.5583 31.6429 34.175 30.5596C34.7917 29.4763 35.325 28.0596 35.775 26.3096C36.225 24.5596 36.5667 22.4429 36.8 19.9596C37.0333 17.4763 37.0667 14.5179 36.9 11.0846C35.2667 11.0179 33.425 10.9929 31.375 11.0096C29.325 11.0263 27.2833 11.1846 25.25 11.4846C23.2167 11.7846 21.2833 12.2679 19.45 12.9346C17.6167 13.6013 16.1167 14.5179 14.95 15.6846C13.45 17.1846 12.4167 18.6679 11.85 20.1346C11.2833 21.6013 11 23.0179 11 24.3846C11 26.3513 11.375 28.0763 12.125 29.5596C12.875 31.0429 13.5333 32.0846 14.1 32.6846C15.5 30.0179 17.35 27.4596 19.65 25.0096C21.95 22.5596 24.6333 20.5513 27.7 18.9846C25.3 21.0846 23.2083 23.4596 21.425 26.1096C19.6417 28.7596 18.3 31.8513 17.4 35.3846Z" fill="currentColor" /> </svg>