<?xml version="1.0" encoding="UTF-8"?><svg width="16" height="16" viewBox="0 0 16 16" fill="currentColor" xmlns="http://www.w3.org/2000/svg" ><mask id="mask0_6605_86643" mask="alpha" maskUnits="userSpaceOnUse" x="1" y="1" width="14" height="14" ><path fill-rule="evenodd" clip-rule="evenodd" d="M8.00016 1.33398C4.32016 1.33398 1.3335 4.32065 1.3335 8.00065C1.3335 11.6807 4.32016 14.6673 8.00016 14.6673C11.6802 14.6673 14.6668 11.6807 14.6668 8.00065C14.6668 4.32065 11.6802 1.33398 8.00016 1.33398ZM8.00016 8.66732C7.6335 8.66732 7.3335 8.36732 7.3335 8.00065V5.33398C7.3335 4.96732 7.6335 4.66732 8.00016 4.66732C8.36683 4.66732 8.66683 4.96732 8.66683 5.33398V8.00065C8.66683 8.36732 8.36683 8.66732 8.00016 8.66732ZM7.3335 10.0007V11.334H8.66683V10.0007H7.3335Z" fill="currentColor" /></mask><g mask="url(#mask0_6605_86643)"><rect width="16" height="16" fill="currentColor" /></g></svg>