<?xml version="1.0" encoding="UTF-8"?><svg width="48" height="48" viewBox="0 0 48 48" fill="currentColor" xmlns="http://www.w3.org/2000/svg" ><rect width="48" height="48" rx="24" fill="currentColor" /><path d="M32.4 13.1992H15.6C14.274 13.1992 13.2 14.2732 13.2 15.5992V32.3992C13.2 33.7252 14.274 34.7992 15.6 34.7992H32.4C33.726 34.7992 34.8 33.7252 34.8 32.3992V15.5992C34.8 14.2732 33.726 13.1992 32.4 13.1992ZM20.4 29.9992H17.3724V21.5992H20.4V29.9992ZM18.8328 20.0596C17.9076 20.0596 17.2896 19.4428 17.2896 18.6196C17.2896 17.7964 17.9064 17.1796 18.9348 17.1796C19.86 17.1796 20.478 17.7964 20.478 18.6196C20.478 19.4428 19.8612 20.0596 18.8328 20.0596ZM31.2 29.9992H28.2696V25.408C28.2696 24.1384 27.4884 23.8456 27.1956 23.8456C26.9028 23.8456 25.926 24.0412 25.926 25.408C25.926 25.6036 25.926 29.9992 25.926 29.9992H22.8984V21.5992H25.926V22.7716C26.316 22.0876 27.0972 21.5992 28.5624 21.5992C30.0276 21.5992 31.2 22.7716 31.2 25.408V29.9992Z" fill="currentColor" /></svg>