<?xml version="1.0" encoding="UTF-8"?><svg width="48" height="48" viewBox="0 0 48 48" fill="currentColor" xmlns="http://www.w3.org/2000/svg" ><rect width="48" height="48" rx="24" fill="currentColor" /><path d="M19.2 13.1992C15.8868 13.1992 13.2 15.886 13.2 19.1992V28.7992C13.2 32.1124 15.8868 34.7992 19.2 34.7992H28.8C32.1132 34.7992 34.8 32.1124 34.8 28.7992V19.1992C34.8 15.886 32.1132 13.1992 28.8 13.1992H19.2ZM31.2 15.5992C31.8624 15.5992 32.4 16.1368 32.4 16.7992C32.4 17.4616 31.8624 17.9992 31.2 17.9992C30.5376 17.9992 30 17.4616 30 16.7992C30 16.1368 30.5376 15.5992 31.2 15.5992ZM24 17.9992C27.3132 17.9992 30 20.686 30 23.9992C30 27.3124 27.3132 29.9992 24 29.9992C20.6868 29.9992 18 27.3124 18 23.9992C18 20.686 20.6868 17.9992 24 17.9992ZM24 20.3992C22.0117 20.3992 20.4 22.011 20.4 23.9992C20.4 25.9874 22.0117 27.5992 24 27.5992C25.9882 27.5992 27.6 25.9874 27.6 23.9992C27.6 22.011 25.9882 20.3992 24 20.3992Z" fill="currentColor" /></svg>