<?xml version="1.0" encoding="UTF-8"?> <svg width="18" height="18" viewBox="0 0 18 18" fill="currentColor" xmlns="http://www.w3.org/2000/svg" > <path d="M9 1.5C4.8544 1.5 1.5 4.8547 1.5 9C1.5 13.1456 4.8547 16.5 9 16.5C13.1456 16.5 16.5 13.1453 16.5 9C16.5 4.8544 13.1453 1.5 9 1.5ZM9 15.3281C5.50216 15.3281 2.67188 12.4976 2.67188 9C2.67188 5.50216 5.50239 2.67188 9 2.67188C12.4978 2.67188 15.3281 5.50239 15.3281 9C15.3281 12.4978 12.4976 15.3281 9 15.3281Z" fill="currentColor" /> <path d="M9 7.7793C8.67639 7.7793 8.41406 8.04162 8.41406 8.36523V12.1385C8.41406 12.4621 8.67639 12.7244 9 12.7244C9.32361 12.7244 9.58594 12.4621 9.58594 12.1384V8.36523C9.58594 8.04162 9.32361 7.7793 9 7.7793Z" fill="currentColor" /> <path d="M9 7.0625C9.43687 7.0625 9.79102 6.70835 9.79102 6.27148C9.79102 5.83462 9.43687 5.48047 9 5.48047C8.56313 5.48047 8.20898 5.83462 8.20898 6.27148C8.20898 6.70835 8.56313 7.0625 9 7.0625Z" fill="currentColor" /> </svg>