<?xml version="1.0" encoding="UTF-8"?> <svg width="16" height="16" viewBox="0 0 16 16" fill="currentColor" xmlns="http://www.w3.org/2000/svg" > <path fill-rule="evenodd" clip-rule="evenodd" d="M7.33707 7.33831C7.33689 6.97031 7.6354 6.67149 8.0034 6.67131C8.3714 6.67112 8.67022 6.96964 8.6704 7.33764L8.67207 10.671C8.67226 11.039 8.37374 11.3378 8.00574 11.338C7.63774 11.3382 7.33892 11.0396 7.33874 10.6716L7.33707 7.33831ZM8.0024 4.67131C8.3704 4.67112 8.66922 4.96964 8.6694 5.33764C8.66959 5.70564 8.37107 6.00445 8.00307 6.00464C7.63507 6.00482 7.33625 5.7063 7.33607 5.3383C7.33589 4.97031 7.6344 4.67149 8.0024 4.67131ZM8.00741 14.6713C11.6894 14.6695 14.6726 11.6833 14.6707 8.0013C14.6689 4.3193 11.6827 1.33613 8.00074 1.33797C4.31874 1.33981 1.33556 4.32597 1.3374 8.00797C1.33925 11.69 4.32541 14.6731 8.00741 14.6713Z" fill="currentColor" /> </svg>