<?xml version="1.0" encoding="UTF-8"?> <svg width="21" height="20" viewBox="0 0 21 20" fill="currentColor" xmlns="http://www.w3.org/2000/svg" > <g clip-path="url(#clip0_19896_206212)"> <rect x="2.7012" y="1.79971" width="15.6" height="8.39999" stroke="currentColor" /> <path d="M12.2512 5.99765C12.2512 6.96415 11.4677 7.74765 10.5012 7.74765C9.5347 7.74765 8.7512 6.96415 8.7512 5.99765C8.7512 5.03116 9.5347 4.24766 10.5012 4.24766C11.4677 4.24766 12.2512 5.03116 12.2512 5.99765Z" stroke="currentColor" /> <mask id="path-3-inside-1_19896_206212" fill="currentColor"> <path fill="currentColor" d="M5.7 1.19765C5.7 1.67041 5.60688 2.13854 5.42597 2.57531C5.24505 3.01208 4.97988 3.40894 4.64558 3.74323C4.31129 4.07752 3.91443 4.3427 3.47766 4.52361C3.04089 4.70453 2.57276 4.79765 2.1 4.79765L2.1 1.19765H5.7Z" /> </mask> <path d="M5.7 1.19765C5.7 1.67041 5.60688 2.13854 5.42597 2.57531C5.24505 3.01208 4.97988 3.40894 4.64558 3.74323C4.31129 4.07752 3.91443 4.3427 3.47766 4.52361C3.04089 4.70453 2.57276 4.79765 2.1 4.79765L2.1 1.19765H5.7Z" stroke="currentColor" mask="url(#path-3-inside-1_19896_206212)" /> <mask id="path-4-inside-2_19896_206212" fill="currentColor"> <path fill="currentColor" d="M5.7 10.7975C5.7 10.3247 5.60688 9.85658 5.42597 9.41981C5.24505 8.98303 4.97988 8.58617 4.64558 8.25188C4.31129 7.91759 3.91443 7.65242 3.47766 7.4715C3.04089 7.29059 2.57276 7.19747 2.1 7.19747L2.1 10.7975H5.7Z" /> </mask> <path d="M5.7 10.7975C5.7 10.3247 5.60688 9.85658 5.42597 9.41981C5.24505 8.98303 4.97988 8.58617 4.64558 8.25188C4.31129 7.91759 3.91443 7.65242 3.47766 7.4715C3.04089 7.29059 2.57276 7.19747 2.1 7.19747L2.1 10.7975H5.7Z" stroke="currentColor" mask="url(#path-4-inside-2_19896_206212)" /> <mask id="path-5-inside-3_19896_206212" fill="currentColor"> <path fill="currentColor" d="M15.3 1.19765C15.3 1.67041 15.3931 2.13854 15.574 2.57531C15.755 3.01208 16.0201 3.40894 16.3544 3.74323C16.6887 4.07752 17.0856 4.3427 17.5223 4.52361C17.9591 4.70453 18.4272 4.79765 18.9 4.79765L18.9 1.19765H15.3Z" /> </mask> <path d="M15.3 1.19765C15.3 1.67041 15.3931 2.13854 15.574 2.57531C15.755 3.01208 16.0201 3.40894 16.3544 3.74323C16.6887 4.07752 17.0856 4.3427 17.5223 4.52361C17.9591 4.70453 18.4272 4.79765 18.9 4.79765L18.9 1.19765H15.3Z" stroke="currentColor" mask="url(#path-5-inside-3_19896_206212)" /> <mask id="path-6-inside-4_19896_206212" fill="currentColor"> <path fill="currentColor" d="M15.3 10.7975C15.3 10.3247 15.3931 9.85658 15.574 9.41981C15.755 8.98303 16.0201 8.58617 16.3544 8.25188C16.6887 7.91759 17.0856 7.65242 17.5223 7.4715C17.9591 7.29059 18.4272 7.19747 18.9 7.19747L18.9 10.7975H15.3Z" /> </mask> <path d="M15.3 10.7975C15.3 10.3247 15.3931 9.85658 15.574 9.41981C15.755 8.98303 16.0201 8.58617 16.3544 8.25188C16.6887 7.91759 17.0856 7.65242 17.5223 7.4715C17.9591 7.29059 18.4272 7.19747 18.9 7.19747L18.9 10.7975H15.3Z" stroke="currentColor" mask="url(#path-6-inside-4_19896_206212)" /> <path d="M10.0625 17.3266L10.0625 12L10.9375 12L10.9375 17.3266L13.3875 14.8766L14 15.5L10.5 19L7 15.5L7.6125 14.8766L10.0625 17.3266Z" fill="currentColor" /> </g> <defs> <clipPath id="clip0_19896_206212"> <rect width="20" height="20" fill="currentColor" transform="translate(0.5)" /> </clipPath> </defs> </svg>