<?xml version="1.0" encoding="UTF-8"?>
<svg width="96" height="96" viewBox="0 0 96 96" fill="currentColor" xmlns="http://www.w3.org/2000/svg" > <path d="M78 50C78 44.48 82.48 40 88 40V36C88 20 84 16 68 16H28C12 16 8 20 8 36V38C13.52 38 18 42.48 18 48C18 53.52 13.52 58 8 58V60C8 76 12 80 28 80H68C84 80 88 76 88 60C82.48 60 78 55.52 78 50Z" stroke="currentColor" /> <path stroke-dasharray="7.56 7.56" d="M40 16L40 80" fill="none" stroke="currentColor" stroke-width="1.5" stroke-linecap="round" stroke-linejoin="round" /> <circle cx="60.1958" cy="49.5434" r="5.53953" stroke="currentColor" /> <path d="M66.2617 42.3359L54.1303 57.3354" fill="none" stroke="currentColor" stroke-width="1.5" stroke-linecap="round" stroke-linejoin="round" /> </svg>