<?xml version="1.0" encoding="UTF-8"?>
<svg xmlns="http://www.w3.org/2000/svg" width="20" height="20" viewBox="0 0 20 20" fill="currentColor" > <path d="M10 2.88235C9.62921 2.88235 9.26205 2.95539 8.91948 3.09728C8.57692 3.23918 8.26565 3.44716 8.00346 3.70935C7.74127 3.97153 7.53329 4.2828 7.3914 4.62536C7.2495 4.96793 7.17647 5.33509 7.17647 5.70588C7.17647 6.07667 7.2495 6.44383 7.3914 6.7864C7.53329 7.12897 7.74127 7.44023 8.00346 7.70242C8.26565 7.96461 8.57692 8.17259 8.91948 8.31448C9.26205 8.45638 9.62921 8.52941 10 8.52941C10.7488 8.52941 11.467 8.23193 11.9965 7.70242C12.5261 7.17291 12.8235 6.45473 12.8235 5.70588C12.8235 4.95704 12.5261 4.23886 11.9965 3.70935C11.467 3.17983 10.7488 2.88235 10 2.88235ZM5.29412 5.70588C5.29412 4.4578 5.78991 3.26085 6.67244 2.37832C7.55496 1.4958 8.75192 1 10 1C11.2481 1 12.445 1.4958 13.3276 2.37832C14.2101 3.26085 14.7059 4.4578 14.7059 5.70588C14.7059 6.95396 14.2101 8.15092 13.3276 9.03344C12.445 9.91597 11.2481 10.4118 10 10.4118C8.75192 10.4118 7.55496 9.91597 6.67244 9.03344C5.78991 8.15092 5.29412 6.95396 5.29412 5.70588ZM2 17C2 15.7519 2.4958 14.555 3.37832 13.6724C4.26085 12.7899 5.4578 12.2941 6.70588 12.2941H13.2941C13.9121 12.2941 14.524 12.4158 15.095 12.6523C15.6659 12.8888 16.1847 13.2355 16.6217 13.6724C17.0587 14.1094 17.4053 14.6282 17.6418 15.1991C17.8783 15.7701 18 16.382 18 17V18.8824H16.1176V17C16.1176 16.2512 15.8202 15.533 15.2907 15.0035C14.7611 14.4739 14.043 14.1765 13.2941 14.1765H6.70588C5.95704 14.1765 5.23886 14.4739 4.70935 15.0035C4.17983 15.533 3.88235 16.2512 3.88235 17V18.8824H2V17Z" fill="currentColor" /> </svg>