<?xml version="1.0" encoding="UTF-8"?>
<svg width="48" height="48" viewBox="0 0 48 48" fill="currentColor" xmlns="http://www.w3.org/2000/svg" > <path d="M14 46C12.9 46 11.9583 45.6083 11.175 44.825C10.3917 44.0417 10 43.1 10 42V6C10 4.9 10.3917 3.95833 11.175 3.175C11.9583 2.39167 12.9 2 14 2H34C35.1 2 36.0417 2.39167 36.825 3.175C37.6083 3.95833 38 4.9 38 6V42C38 43.1 37.6083 44.0417 36.825 44.825C36.0417 45.6083 35.1 46 34 46H14ZM14 40V42H34V40H14ZM14 36H34V12H14V36ZM14 8H34V6H14V8Z" fill="currentColor" /> </svg>