<?xml version="1.0" encoding="UTF-8"?> <svg width="20" height="20" viewBox="0 0 20 20" fill="currentColor" xmlns="http://www.w3.org/2000/svg"> <path d="M14.167 17.5H5.833c-3.333 0-4.166-.833-4.166-4.167V6.667c0-3.334.833-4.167 4.166-4.167h8.334c3.333 0 4.166.833 4.166 4.167v6.666c0 3.334-.833 4.167-4.166 4.167zM11.667 6.667h4.166M12.5 10h3.333M14.167 13.333h1.666" stroke="currentColor"/> <path d="M7.083 9.408a1.508 1.508 0 1 0 0-3.016 1.508 1.508 0 0 0 0 3.016zM10 13.608a2.517 2.517 0 0 0-2.283-2.266 6.428 6.428 0 0 0-1.267 0 2.524 2.524 0 0 0-2.283 2.266" stroke="currentColor"/> </svg> 