<?xml version="1.0" encoding="UTF-8"?>
<svg width="10" height="10" viewBox="0 0 10 10" fill="currentColor" xmlns="http://www.w3.org/2000/svg" > <rect width="10" height="10" rx="5" fill="currentColor" /> <path fill-rule="evenodd" clip-rule="evenodd" d="M5.47131 5L6.90225 3.56906C7.03258 3.43873 7.03258 3.22807 6.90225 3.09775C6.77193 2.96742 6.56127 2.96742 6.43094 3.09775L5 4.52869L3.56906 3.09775C3.43873 2.96742 3.22807 2.96742 3.09775 3.09775C2.96742 3.22807 2.96742 3.43873 3.09775 3.56906L4.52869 5L3.09775 6.43094C2.96742 6.56127 2.96742 6.77193 3.09775 6.90225C3.16274 6.96725 3.24807 6.99992 3.3334 6.99992C3.41873 6.99992 3.50406 6.96725 3.56906 6.90225L5 5.47131L6.43094 6.90225C6.49594 6.96725 6.58127 6.99992 6.6666 6.99992C6.75193 6.99992 6.83726 6.96725 6.90225 6.90225C7.03258 6.77193 7.03258 6.56127 6.90225 6.43094L5.47131 5Z" fill="currentColor" /> </svg>