<?xml version="1.0" encoding="UTF-8"?> <svg width="48" height="48" viewBox="0 0 48 48" fill="currentColor" xmlns="http://www.w3.org/2000/svg" > <path d="M24 44C21.2333 44 18.6333 43.475 16.2 42.425C13.7667 41.375 11.65 39.95 9.85 38.15C8.05 36.35 6.625 34.2333 5.575 31.8C4.525 29.3667 4 26.7667 4 24C4 21.2333 4.525 18.6333 5.575 16.2C6.625 13.7667 8.05 11.65 9.85 9.85C11.65 8.05 13.7667 6.625 16.2 5.575C18.6333 4.525 21.2333 4 24 4C26.7667 4 29.3667 4.525 31.8 5.575C34.2333 6.625 36.35 8.05 38.15 9.85C39.95 11.65 41.375 13.7667 42.425 16.2C43.475 18.6333 44 21.2333 44 24C44 26.7667 43.475 29.3667 42.425 31.8C41.375 34.2333 39.95 36.35 38.15 38.15C36.35 39.95 34.2333 41.375 31.8 42.425C29.3667 43.475 26.7667 44 24 44ZM34 19L36.7 18.1L37.5 15.4C36.4333 13.8 35.15 12.425 33.65 11.275C32.15 10.125 30.5 9.26667 28.7 8.7L26 10.6V13.4L34 19ZM14 19L22 13.4V10.6L19.3 8.7C17.5 9.26667 15.85 10.125 14.35 11.275C12.85 12.425 11.5667 13.8 10.5 15.4L11.3 18.1L14 19ZM11.9 34.4L14.2 34.2L15.7 31.5L12.8 22.8L10 21.8L8 23.3C8 25.4667 8.3 27.4417 8.9 29.225C9.5 31.0083 10.5 32.7333 11.9 34.4ZM24 40C24.8667 40 25.7167 39.9333 26.55 39.8C27.3833 39.6667 28.2 39.4667 29 39.2L30.4 36.2L29.1 34H18.9L17.6 36.2L19 39.2C19.8 39.4667 20.6167 39.6667 21.45 39.8C22.2833 39.9333 23.1333 40 24 40ZM19.5 30H28.5L31.3 22L24 16.9L16.8 22L19.5 30ZM36.1 34.4C37.5 32.7333 38.5 31.0083 39.1 29.225C39.7 27.4417 40 25.4667 40 23.3L38 21.9L35.2 22.8L32.3 31.5L33.8 34.2L36.1 34.4Z" fill="currentColor" /> </svg>