<?xml version="1.0" encoding="UTF-8"?> <svg width="48" height="48" viewBox="0 0 48 48" fill="currentColor" xmlns="http://www.w3.org/2000/svg" > <path d="M21.2001 31C21.2001 28.3 21.4418 26.3583 21.9251 25.175C22.4084 23.9917 23.4334 22.7 25.0001 21.3C26.3668 20.1 27.4084 19.0583 28.1251 18.175C28.8418 17.2917 29.2001 16.2833 29.2001 15.15C29.2001 13.7833 28.7418 12.65 27.8251 11.75C26.9084 10.85 25.6334 10.4 24.0001 10.4C22.3001 10.4 21.0084 10.9167 20.1251 11.95C19.2418 12.9833 18.6168 14.0333 18.2501 15.1L13.1001 12.9C13.8001 10.7667 15.0834 8.91667 16.9501 7.35C18.8168 5.78333 21.1668 5 24.0001 5C27.5001 5 30.1918 5.975 32.0751 7.925C33.9584 9.875 34.9001 12.2167 34.9001 14.95C34.9001 16.6167 34.5418 18.0417 33.8251 19.225C33.1084 20.4083 31.9834 21.75 30.4501 23.25C28.8168 24.8167 27.8251 26.0083 27.4751 26.825C27.1251 27.6417 26.9501 29.0333 26.9501 31H21.2001ZM24.0001 43C22.9001 43 21.9584 42.6083 21.1751 41.825C20.3918 41.0417 20.0001 40.1 20.0001 39C20.0001 37.9 20.3918 36.9583 21.1751 36.175C21.9584 35.3917 22.9001 35 24.0001 35C25.1001 35 26.0418 35.3917 26.8251 36.175C27.6084 36.9583 28.0001 37.9 28.0001 39C28.0001 40.1 27.6084 41.0417 26.8251 41.825C26.0418 42.6083 25.1001 43 24.0001 43Z" fill="currentColor" /> </svg>