<?xml version="1.0" encoding="UTF-8"?>
<svg width="48" height="48" viewBox="0 0 48 48" fill="currentColor" xmlns="http://www.w3.org/2000/svg" > <path d="M4 14V4H14V8H8V14H4ZM4 44V34H8V40H14V44H4ZM34 44V40H40V34H44V44H34ZM40 14V8H34V4H44V14H40ZM35 35H38V38H35V35ZM35 29H38V32H35V29ZM32 32H35V35H32V32ZM29 35H32V38H29V35ZM26 32H29V35H26V32ZM32 26H35V29H32V26ZM29 29H32V32H29V29ZM26 26H29V29H26V26ZM38 10V22H26V10H38ZM22 26V38H10V26H22ZM22 10V22H10V10H22ZM19 35V29H13V35H19ZM19 19V13H13V19H19ZM35 19V13H29V19H35Z" fill="currentColor" /> </svg>