<?xml version="1.0" encoding="UTF-8"?> <svg width="40" height="40" viewBox="0 0 40 40" fill="currentColor" xmlns="http://www.w3.org/2000/svg"> <path d="M5.017 18.7v7.483c0 7.484 3 10.484 10.483 10.484h8.983c7.484 0 10.484-3 10.484-10.484V18.7" fill="none" stroke="currentColor" stroke-width="1.5" stroke-linecap="round" stroke-linejoin="round" /> <path d="M20 20c3.05 0 5.3-2.484 5-5.534L23.9 3.333h-7.783L15 14.466C14.7 17.516 16.95 20 20 20z" stroke="currentColor"/> <path d="M30.517 20c3.366 0 5.833-2.734 5.5-6.084l-.467-4.583c-.6-4.333-2.267-6-6.633-6h-5.084L25 15.016c.283 2.75 2.767 4.984 5.517 4.984zM9.4 20c2.75 0 5.233-2.234 5.5-4.984l.367-3.683.8-8h-5.084c-4.366 0-6.033 1.667-6.633 6l-.45 4.583C3.567 17.266 6.033 20 9.4 20zM20 28.333c-2.783 0-4.167 1.383-4.167 4.167v4.166h8.334V32.5c0-2.784-1.384-4.167-4.167-4.167z" stroke="currentColor"/> </svg> 