<?xml version="1.0" encoding="UTF-8"?> <svg width="48" height="48" viewBox="0 0 48 48" fill="currentColor" xmlns="http://www.w3.org/2000/svg" > <path d="M33 26L24.7 17.9C23.6667 16.9 22.7917 15.7917 22.075 14.575C21.3583 13.3583 21 12.0333 21 10.6C21 8.76667 21.6417 7.20833 22.925 5.925C24.2083 4.64167 25.7667 4 27.6 4C28.6667 4 29.6667 4.225 30.6 4.675C31.5333 5.125 32.3333 5.73333 33 6.5C33.6667 5.73333 34.4667 5.125 35.4 4.675C36.3333 4.225 37.3333 4 38.4 4C40.2333 4 41.7917 4.64167 43.075 5.925C44.3583 7.20833 45 8.76667 45 10.6C45 12.0333 44.65 13.3583 43.95 14.575C43.25 15.7917 42.3833 16.9 41.35 17.9L33 26ZM33 20.4L38.45 15.05C39.0833 14.4167 39.6667 13.7417 40.2 13.025C40.7333 12.3083 41 11.5 41 10.6C41 9.86667 40.75 9.25 40.25 8.75C39.75 8.25 39.1333 8 38.4 8C37.9333 8 37.4917 8.09167 37.075 8.275C36.6583 8.45833 36.3 8.73333 36 9.1L33 12.7L30 9.1C29.7 8.73333 29.3417 8.45833 28.925 8.275C28.5083 8.09167 28.0667 8 27.6 8C26.8667 8 26.25 8.25 25.75 8.75C25.25 9.25 25 9.86667 25 10.6C25 11.5 25.2667 12.3083 25.8 13.025C26.3333 13.7417 26.9167 14.4167 27.55 15.05L33 20.4ZM15 37L28.9 40.8L40.8 37.1C40.6333 36.8 40.3917 36.5417 40.075 36.325C39.7583 36.1083 39.4 36 39 36H28.9C28 36 27.2833 35.9667 26.75 35.9C26.2167 35.8333 25.6667 35.7 25.1 35.5L20.45 33.95L21.55 30.05L25.6 31.4C26.1667 31.5667 26.8333 31.7 27.6 31.8C28.3667 31.9 29.5 31.9667 31 32C31 31.6333 30.8917 31.2833 30.675 30.95C30.4583 30.6167 30.2 30.4 29.9 30.3L18.2 26H15V37ZM3 44V22H18.2C18.4333 22 18.6667 22.025 18.9 22.075C19.1333 22.125 19.35 22.1833 19.55 22.25L31.3 26.6C32.4 27 33.2917 27.7 33.975 28.7C34.6583 29.7 35 30.8 35 32H39C40.6667 32 42.0833 32.55 43.25 33.65C44.4167 34.75 45 36.2 45 38V40L29 45L15 41.1V44H3ZM7 40H11V26H7V40Z" fill="currentColor" /> </svg>