<?xml version="1.0" encoding="UTF-8"?> <svg width="48" height="32" viewBox="0 0 48 32" fill="currentColor" xmlns="http://www.w3.org/2000/svg" > <path d="M5.75 0.5C2.79688 0.5 0.5 2.87891 0.5 5.75V12.3125C2.63281 12.3125 4.4375 14.1172 4.4375 16.25C4.4375 18.4648 2.63281 20.1875 0.5 20.1875V26.75C0.5 29.7031 2.79688 32 5.75 32H42.5C45.3711 32 47.75 29.7031 47.75 26.75V20.1875C45.5352 20.1875 43.8125 18.4648 43.8125 16.25C43.8125 14.1172 45.5352 12.3125 47.75 12.3125V5.75C47.75 2.87891 45.3711 0.5 42.5 0.5H5.75ZM11 8.375V24.125H37.25V8.375H11ZM8.375 8.375C8.375 6.98047 9.52344 5.75 11 5.75H37.25C38.6445 5.75 39.875 6.98047 39.875 8.375V24.125C39.875 25.6016 38.6445 26.75 37.25 26.75H11C9.52344 26.75 8.375 25.6016 8.375 24.125V8.375Z" fill="currentColor" /> </svg>