<?xml version="1.0" encoding="UTF-8"?> <svg width="40" height="40" viewBox="0 0 40 40" fill="currentColor" xmlns="http://www.w3.org/2000/svg"> <path d="M20 23.333h1.667C23.5 23.333 25 21.833 25 20V3.333H10A6.66 6.66 0 0 0 4.183 6.75" fill="none" stroke="currentColor" stroke-width="1.5" stroke-linecap="round" stroke-linejoin="round" /> <path d="M3.333 28.333c0 2.767 2.234 5 5 5H10C10 31.5 11.5 30 13.333 30c1.834 0 3.334 1.5 3.334 3.333h6.666c0-1.833 1.5-3.333 3.334-3.333C28.5 30 30 31.5 30 33.333h1.667c2.766 0 5-2.233 5-5v-5h-5c-.917 0-1.667-.75-1.667-1.667v-5c0-.916.75-1.666 1.667-1.666h2.15l-2.85-4.984a3.36 3.36 0 0 0-2.9-1.683H25V20c0 1.833-1.5 3.333-3.333 3.333H20" fill="none" stroke="currentColor" stroke-width="1.5" stroke-linecap="round" stroke-linejoin="round" /> <path d="M13.333 36.667a3.333 3.333 0 1 0 0-6.667 3.333 3.333 0 0 0 0 6.667zM26.667 36.667a3.333 3.333 0 1 0 0-6.667 3.333 3.333 0 0 0 0 6.667zM36.667 20v3.333h-5c-.917 0-1.667-.75-1.667-1.666v-5c0-.917.75-1.667 1.667-1.667h2.15l2.85 5zM3.333 13.333h10M3.333 18.333H10M3.333 23.333h3.334" stroke="currentColor"/> </svg> 