<?xml version="1.0" encoding="UTF-8"?>
<svg width="48" height="48" viewBox="0 0 48 48" fill="currentColor" xmlns="http://www.w3.org/2000/svg" > <path d="M24 34C24.5667 34 25.0417 33.8083 25.425 33.425C25.8083 33.0417 26 32.5667 26 32C26 31.4333 25.8083 30.9583 25.425 30.575C25.0417 30.1917 24.5667 30 24 30C23.4333 30 22.9583 30.1917 22.575 30.575C22.1917 30.9583 22 31.4333 22 32C22 32.5667 22.1917 33.0417 22.575 33.425C22.9583 33.8083 23.4333 34 24 34ZM24 26C24.5667 26 25.0417 25.8083 25.425 25.425C25.8083 25.0417 26 24.5667 26 24C26 23.4333 25.8083 22.9583 25.425 22.575C25.0417 22.1917 24.5667 22 24 22C23.4333 22 22.9583 22.1917 22.575 22.575C22.1917 22.9583 22 23.4333 22 24C22 24.5667 22.1917 25.0417 22.575 25.425C22.9583 25.8083 23.4333 26 24 26ZM24 18C24.5667 18 25.0417 17.8083 25.425 17.425C25.8083 17.0417 26 16.5667 26 16C26 15.4333 25.8083 14.9583 25.425 14.575C25.0417 14.1917 24.5667 14 24 14C23.4333 14 22.9583 14.1917 22.575 14.575C22.1917 14.9583 22 15.4333 22 16C22 16.5667 22.1917 17.0417 22.575 17.425C22.9583 17.8083 23.4333 18 24 18ZM40 40H8C6.9 40 5.95833 39.6083 5.175 38.825C4.39167 38.0417 4 37.1 4 36V28C5.1 28 6.04167 27.6083 6.825 26.825C7.60833 26.0417 8 25.1 8 24C8 22.9 7.60833 21.9583 6.825 21.175C6.04167 20.3917 5.1 20 4 20V12C4 10.9 4.39167 9.95833 5.175 9.175C5.95833 8.39167 6.9 8 8 8H40C41.1 8 42.0417 8.39167 42.825 9.175C43.6083 9.95833 44 10.9 44 12V20C42.9 20 41.9583 20.3917 41.175 21.175C40.3917 21.9583 40 22.9 40 24C40 25.1 40.3917 26.0417 41.175 26.825C41.9583 27.6083 42.9 28 44 28V36C44 37.1 43.6083 38.0417 42.825 38.825C42.0417 39.6083 41.1 40 40 40ZM40 36V30.9C38.7667 30.1667 37.7917 29.1917 37.075 27.975C36.3583 26.7583 36 25.4333 36 24C36 22.5667 36.3583 21.2417 37.075 20.025C37.7917 18.8083 38.7667 17.8333 40 17.1V12H8V17.1C9.23333 17.8333 10.2083 18.8083 10.925 20.025C11.6417 21.2417 12 22.5667 12 24C12 25.4333 11.6417 26.7583 10.925 27.975C10.2083 29.1917 9.23333 30.1667 8 30.9V36H40Z" fill="currentColor" /> </svg>