<?xml version="1.0" encoding="UTF-8"?>
<svg width="52" height="52" viewBox="0 0 52 52" fill="currentColor" xmlns="http://www.w3.org/2000/svg" > <rect width="52" height="52" rx="8.66667" fill="currentColor" /> <path d="M14.4521 32.628C13.3427 32.628 12.4681 32.308 11.8281 31.668C11.1881 31.028 10.8681 30.1533 10.8681 29.044H12.7081C12.7081 29.6413 12.8627 30.116 13.1721 30.468C13.4921 30.8093 13.9294 30.98 14.4841 30.98H16.2601C16.7827 30.98 17.2041 30.868 17.5241 30.644C17.8441 30.4093 18.0041 30.1053 18.0041 29.732V29.028C18.0041 28.74 17.8921 28.5 17.6681 28.308C17.4441 28.116 17.1241 27.9827 16.7081 27.908L13.7961 27.412C12.8894 27.2627 12.1907 26.964 11.7001 26.516C11.2201 26.068 10.9801 25.4973 10.9801 24.804V23.924C10.9801 23.38 11.1241 22.9 11.4121 22.484C11.7107 22.068 12.1267 21.748 12.6601 21.524C13.1934 21.2893 13.8121 21.172 14.5161 21.172H16.3241C16.9854 21.172 17.5667 21.3107 18.0681 21.588C18.5801 21.8547 18.9747 22.2387 19.2521 22.74C19.5294 23.2413 19.6681 23.8173 19.6681 24.468H17.8441C17.8441 23.9773 17.7001 23.5827 17.4121 23.284C17.1347 22.9747 16.7721 22.82 16.3241 22.82H14.5161C14.0147 22.82 13.6094 22.932 13.3001 23.156C13.0014 23.3693 12.8521 23.6627 12.8521 24.036V24.612C12.8521 24.9107 12.9587 25.1613 13.1721 25.364C13.3854 25.556 13.6947 25.684 14.1001 25.748L17.0121 26.26C17.9294 26.42 18.6334 26.7187 19.1241 27.156C19.6254 27.5827 19.8761 28.132 19.8761 28.804V29.844C19.8761 30.388 19.7267 30.8733 19.4281 31.3C19.1294 31.716 18.7081 32.0413 18.1641 32.276C17.6201 32.5107 16.9961 32.628 16.2921 32.628H14.4521ZM25.5821 32.5C25.0487 32.5 24.6594 32.1907 24.4141 31.572L20.5741 21.3H22.5101L25.6461 30.164H25.6621L28.8141 21.3H30.7341L26.4781 32.5H25.5821ZM35.3539 32.628C34.5539 32.628 33.8499 32.4573 33.2419 32.116C32.6446 31.764 32.1806 31.2733 31.8499 30.644C31.5193 30.004 31.3539 29.268 31.3539 28.436V25.364C31.3539 24.532 31.5193 23.8013 31.8499 23.172C32.1913 22.532 32.6659 22.0413 33.2739 21.7C33.8926 21.348 34.6019 21.172 35.4019 21.172H37.1619C37.9299 21.172 38.6073 21.332 39.1939 21.652C39.7806 21.9613 40.2339 22.404 40.5539 22.98C40.8739 23.5453 41.0339 24.2013 41.0339 24.948H39.1939C39.1939 24.308 39.0073 23.796 38.6339 23.412C38.2606 23.0173 37.7699 22.82 37.1619 22.82H35.4019C34.7513 22.82 34.2233 23.06 33.8179 23.54C33.4233 24.0093 33.2259 24.6387 33.2259 25.428V28.372C33.2259 29.1613 33.4179 29.796 33.8019 30.276C34.1966 30.7453 34.7139 30.98 35.3539 30.98H37.1779C37.7966 30.98 38.3033 30.7613 38.6979 30.324C39.0926 29.8867 39.2899 29.3267 39.2899 28.644V28.1H36.1859V26.468H41.1299V28.644C41.1299 29.4227 40.9646 30.116 40.6339 30.724C40.3033 31.3213 39.8393 31.7907 39.2419 32.132C38.6446 32.4627 37.9566 32.628 37.1779 32.628H35.3539Z" fill="currentColor" /> </svg>