<?xml version="1.0" encoding="UTF-8"?>
<svg width="24" height="24" viewBox="0 0 24 24" fill="currentColor" xmlns="http://www.w3.org/2000/svg" > <rect width="24" height="24" fill="currentColor" /> <path fill-rule="evenodd" clip-rule="evenodd" d="M11.9895 3.5C12.1905 3.5 12.3915 3.561 12.5645 3.68199L16.5645 6.49586C17.0165 6.81385 17.1255 7.43782 16.8075 7.8888C16.4895 8.34078 15.8665 8.44978 15.4145 8.13179L13.0008 6.43389C13.0022 6.45568 13.0029 6.47766 13.0029 6.49981V14.4995C13.0029 15.0514 12.5559 15.4994 12.0029 15.4994C11.4499 15.4994 11.0029 15.0514 11.0029 14.4995V6.49981C11.0029 6.49653 11.0029 6.49324 11.003 6.48996L8.58953 8.29978C8.14753 8.63277 7.52053 8.54177 7.18953 8.09979C6.85753 7.65781 6.94753 7.03084 7.38953 6.69986L11.3895 3.69999C11.5665 3.567 11.7785 3.5 11.9895 3.5ZM6 17.5001V18.5H18V17.5001C18 16.9501 18.45 16.5002 19 16.5002C19.55 16.5002 20 16.9501 20 17.5001V19.5V19.5C20 19.5688 19.993 19.6359 19.9796 19.7009C19.9653 19.7703 19.9437 19.8371 19.9158 19.9005L19.9112 19.9109L19.9064 19.9212C19.7467 20.2623 19.3998 20.5 19 20.5L18.9915 20.5H5.00855L5 20.5C4.45 20.5 4 20.05 4 19.5V19.5V17.5001C4 16.9501 4.45 16.5002 5 16.5002C5.55 16.5002 6 16.9501 6 17.5001Z" fill="currentColor" /> </svg>