<?xml version="1.0" encoding="UTF-8"?>
<svg width="40" height="40" viewBox="0 0 40 40" fill="currentColor" xmlns="http://www.w3.org/2000/svg"> <path d="M36.667 20v8.334c0 5-3.334 8.333-8.334 8.333H11.667c-5 0-8.334-3.333-8.334-8.333V20c0-4.533 2.734-7.7 6.984-8.233.433-.067.883-.1 1.35-.1h16.666c.434 0 .85.017 1.25.083 4.3.5 7.084 3.684 7.084 8.25z" stroke="currentColor"/> <path d="M29.586 11.75a7.618 7.618 0 0 0-1.25-.084H11.669c-.467 0-.917.034-1.35.1.233-.466.567-.9.967-1.3l5.416-5.433a5.875 5.875 0 0 1 8.267 0l2.917 2.95a5.623 5.623 0 0 1 1.7 3.767zM36.667 20.833h-5a3.343 3.343 0 0 0-3.334 3.333c0 1.834 1.5 3.334 3.334 3.334h5" stroke="currentColor"/> </svg> 