<?xml version="1.0" encoding="UTF-8"?> <svg width="52" height="52" viewBox="0 0 52 52" fill="currentColor" xmlns="http://www.w3.org/2000/svg" > <rect width="52" height="52" rx="8.66667" fill="currentColor" /> <path d="M15.3043 26.788L11.5443 21.3H13.6563L16.3763 25.252L19.0963 21.3H21.1923L17.4323 26.788L21.3523 32.5H19.2403L16.3763 28.308L13.4963 32.5H11.3843L15.3043 26.788ZM23.7843 32.5C23.3576 32.5 23.0216 32.3773 22.7763 32.132C22.531 31.8867 22.4083 31.5613 22.4083 31.156V21.3H24.2803V30.868H30.3603V32.5H23.7843ZM34.6239 32.628C33.5146 32.628 32.6399 32.308 31.9999 31.668C31.3599 31.028 31.0399 30.1533 31.0399 29.044H32.8799C32.8799 29.6413 33.0346 30.116 33.3439 30.468C33.6639 30.8093 34.1013 30.98 34.6559 30.98H36.4319C36.9546 30.98 37.3759 30.868 37.6959 30.644C38.0159 30.4093 38.1759 30.1053 38.1759 29.732V29.028C38.1759 28.74 38.0639 28.5 37.8399 28.308C37.6159 28.116 37.2959 27.9827 36.8799 27.908L33.9679 27.412C33.0613 27.2627 32.3626 26.964 31.8719 26.516C31.3919 26.068 31.1519 25.4973 31.1519 24.804V23.924C31.1519 23.38 31.2959 22.9 31.5839 22.484C31.8826 22.068 32.2986 21.748 32.8319 21.524C33.3653 21.2893 33.9839 21.172 34.6879 21.172H36.4959C37.1573 21.172 37.7386 21.3107 38.2399 21.588C38.7519 21.8547 39.1466 22.2387 39.4239 22.74C39.7013 23.2413 39.8399 23.8173 39.8399 24.468H38.0159C38.0159 23.9773 37.8719 23.5827 37.5839 23.284C37.3066 22.9747 36.9439 22.82 36.4959 22.82H34.6879C34.1866 22.82 33.7813 22.932 33.4719 23.156C33.1733 23.3693 33.0239 23.6627 33.0239 24.036V24.612C33.0239 24.9107 33.1306 25.1613 33.3439 25.364C33.5573 25.556 33.8666 25.684 34.2719 25.748L37.1839 26.26C38.1013 26.42 38.8053 26.7187 39.2959 27.156C39.7973 27.5827 40.0479 28.132 40.0479 28.804V29.844C40.0479 30.388 39.8986 30.8733 39.5999 31.3C39.3013 31.716 38.8799 32.0413 38.3359 32.276C37.7919 32.5107 37.1679 32.628 36.4639 32.628H34.6239Z" fill="currentColor" /> </svg>