<?xml version="1.0" encoding="UTF-8"?> <svg width="25" height="25" viewBox="0 0 25 24" fill="currentColor" xmlns="http://www.w3.org/2000/svg" > <path fill-rule="evenodd" clip-rule="evenodd" d="M11.6504 9C11.6504 8.448 12.0984 8 12.6504 8C13.2024 8 13.6504 8.448 13.6504 9V13C13.6504 13.552 13.2024 14 12.6504 14C12.0984 14 11.6504 13.552 11.6504 13V9ZM11.6504 16C11.6504 15.448 12.0984 15 12.6504 15C13.2024 15 13.6504 15.448 13.6504 16C13.6504 16.552 13.2024 17 12.6504 17C12.0984 17 11.6504 16.552 11.6504 16ZM21.5151 18.353C21.2861 18.758 20.8401 19 20.3221 19H4.97809C4.46009 19 4.01409 18.758 3.78609 18.353C3.67809 18.163 3.53609 17.776 3.80309 17.336L11.4741 4.618C11.9411 3.844 13.3591 3.844 13.8261 4.618L21.4981 17.336C21.7641 17.776 21.6231 18.163 21.5151 18.353ZM23.2111 16.303L15.5391 3.584C14.9401 2.592 13.8601 2 12.6501 2C11.4401 2 10.3601 2.592 9.76209 3.584L2.09009 16.303C1.52109 17.246 1.50409 18.38 2.04409 19.336C2.62309 20.363 3.74809 21 4.97809 21H20.3221C21.5531 21 22.6771 20.363 23.2571 19.336C23.7971 18.38 23.7801 17.246 23.2111 16.303Z" fill="currentColor" /> </svg>