<svg width="22" height="22" viewBox="0 0 22 22" fill="currentColor" xmlns="http://www.w3.org/2000/svg"> <path d="M20.6222 12.9967L19.7271 13.8918L17.8946 12.1023L18.832 11.1649C18.9456 11.0513 19.0592 10.9945 19.1729 10.9945C19.2865 10.9945 19.4144 11.0513 19.5567 11.1649L20.7074 12.3579C20.7642 12.4715 20.7856 12.5852 20.7715 12.6988C20.7574 12.8124 20.7076 12.9119 20.6222 12.9974V12.9967ZM11.8027 18.1096V19.9844H13.7204L19.2594 14.4454L17.4699 12.6558L11.8027 18.1096ZM19.0883 4.56032C19.0883 4.04902 18.9108 3.6159 18.5559 3.26094C18.2009 2.90599 17.7678 2.72852 17.2565 2.72852H4.55934C4.04805 2.72852 3.61492 2.90599 3.25997 3.26094C2.90502 3.6159 2.72754 4.04902 2.72754 4.56032V17.2575C2.72754 17.7688 2.90502 18.2019 3.25997 18.5569C3.61492 18.9118 4.04805 19.0893 4.55934 19.0893H10.0132V17.342L10.9935 16.3617H4.55934L7.71233 12.2713L10.0132 14.9982L13.1662 10.9079L14.6148 12.8256L19.089 8.26619V4.55895L19.0883 4.56032Z" fill="currentColor"/> </svg> 