<?xml version="1.0" encoding="UTF-8"?><svg width="48" height="48" viewBox="0 0 48 48" fill="currentColor" xmlns="http://www.w3.org/2000/svg" ><rect width="48" height="48" rx="24" fill="currentColor" /><path d="M35.4984 17.0236C35.2224 15.9916 34.4088 15.178 33.3768 14.902C31.5048 14.4004 24 14.4004 24 14.4004C24 14.4004 16.4952 14.4004 14.6232 14.902C13.5912 15.178 12.7776 15.9916 12.5016 17.0236C12 18.8956 12 24.0004 12 24.0004C12 24.0004 12 29.1052 12.5016 30.9772C12.7776 32.0092 13.5912 32.8228 14.6232 33.0988C16.4952 33.6004 24 33.6004 24 33.6004C24 33.6004 31.5048 33.6004 33.3768 33.0988C34.41 32.8228 35.2224 32.0092 35.4984 30.9772C36 29.1052 36 24.0004 36 24.0004C36 24.0004 36 18.8956 35.4984 17.0236ZM21.6 28.1572V19.8436L28.8 24.0004L21.6 28.1572Z" fill="currentColor" /></svg>