<svg width="21" height="21" viewBox="0 0 21 21" fill="currentColor" xmlns="http://www.w3.org/2000/svg"> <g clip-path="url(#clip0_3410_807)"> <path d="M20.125 16.1875H0.875C0.633063 16.1875 0.4375 15.9919 0.4375 15.75L0.4375 3.5C0.4375 3.2585 0.633062 3.0625 0.875 3.0625H20.125C20.3669 3.0625 20.5625 3.2585 20.5625 3.5V15.75C20.5625 15.9919 20.3669 16.1875 20.125 16.1875ZM19.6875 3.9375H1.3125V15.3125H19.6875V3.9375ZM9.1875 7C9.28113 7 9.3625 7.03588 9.43381 7.08575L12.8336 9.21725C13.0025 9.27719 13.125 9.43512 13.125 9.625C13.125 9.76719 13.0528 9.88794 12.9478 9.96756L9.45919 12.1467C9.38394 12.208 9.29163 12.25 9.1875 12.25C8.94556 12.25 8.75 12.0544 8.75 11.8125V7.4375C8.75 7.196 8.94556 7 9.1875 7ZM6.5625 17.0625H14.4375C14.6794 17.0625 14.875 17.2581 14.875 17.5C14.875 17.7419 14.6794 17.9375 14.4375 17.9375H6.5625C6.32056 17.9375 6.125 17.7419 6.125 17.5C6.125 17.2581 6.32056 17.0625 6.5625 17.0625Z" fill="currentColor" /> </g> <defs> <clipPath id="clip0_3410_807"> <rect width="21" height="21" fill="currentColor" /> </clipPath> </defs>
</svg> 