<svg width="20" height="20" viewBox="0 0 20 20" fill="currentColor" xmlns="http://www.w3.org/2000/svg"> <path d="M18.3334 10H13.3334L11.6667 12.5H8.33342L6.66675 10H1.66675" fill="none" stroke="currentColor" stroke-width="1.5" stroke-linecap="round" stroke-linejoin="round" /> <path d="M4.54175 4.25833L1.66675 10V15C1.66675 15.442 1.84234 15.866 2.1549 16.1785C2.46746 16.4911 2.89139 16.6667 3.33341 16.6667H16.6667C17.1088 16.6667 17.5327 16.4911 17.8453 16.1785C18.1578 15.866 18.3334 15.442 18.3334 15V10L15.4584 4.25833C15.3204 3.98066 15.1077 3.74698 14.8442 3.58357C14.5807 3.42016 14.2768 3.3335 13.9667 3.33333H6.03341C5.72334 3.3335 5.41947 3.42016 5.15595 3.58357C4.89244 3.74698 4.67973 3.98066 4.54175 4.25833Z" stroke="currentColor"/> </svg> 