<svg width="22" height="23" viewBox="0 0 22 23" fill="currentColor" xmlns="http://www.w3.org/2000/svg"> <path d="M18.0985 10.0895H16.5366V6.81465C16.5366 5.41309 15.9802 4.09912 14.9704 3.11533C13.98 2.14727 12.6673 1.61719 11.2729 1.61719H10.8433C9.45107 1.61719 8.13623 2.14951 7.1458 3.11533C6.13604 4.09912 5.57959 5.41309 5.57959 6.81465V10.0895H4.01768C3.19482 10.0895 2.52881 10.7857 2.52881 11.646V19.9341C2.52881 20.7943 3.19482 21.4906 4.01768 21.4906H18.0985C18.9214 21.4906 19.5874 20.7943 19.5874 19.9341V11.646C19.5874 10.7857 18.9214 10.0895 18.0985 10.0895ZM7.51318 6.81465C7.51318 5.06269 9.00635 3.63867 10.8433 3.63867H11.2729C13.1099 3.63867 14.603 5.06269 14.603 6.81465V10.0895H7.51318V6.81465Z" fill="currentColor"/> </svg> 