<svg width="24" height="24" viewBox="0 0 24 24" fill="currentColor" xmlns="http://www.w3.org/2000/svg"> <g clip-path="url(#clip0_4439_1601)"> <path d="M0 12C0 18.6278 5.37225 24 12 24C18.6278 24 24 18.6278 24 12C24 5.37225 18.6278 0 12 0C5.37225 0 0 5.37225 0 12ZM21 12C21 13.7168 20.5192 15.321 19.6852 16.6852L7.31475 4.31475C8.679 3.48075 10.2832 3 12 3C16.9702 3 21 7.02975 21 12ZM3 12C3 10.2832 3.48075 8.67975 4.31475 7.31475L16.6852 19.6852C15.3202 20.5192 13.7168 21 12 21C7.02975 21 3 16.9702 3 12Z" fill="currentColor"/> </g> <defs> <clipPath id="clip0_4439_1601"> <rect width="24" height="24" fill="currentColor"/> </clipPath> </defs> </svg> 