<svg width="24" height="24" viewBox="0 0 24 24" fill="currentColor" xmlns="http://www.w3.org/2000/svg"> <path d="M15.4418 14.8743C15.7038 14.9617 15.9869 14.8201 16.0742 14.5581C16.1616 14.2961 16.02 14.013 15.758 13.9257L15.5999 14.4L15.4418 14.8743ZM11.9999 13.2H11.4999C11.4999 13.4152 11.6376 13.6063 11.8418 13.6743L11.9999 13.2ZM12.4999 8.18226C12.4999 7.90612 12.276 7.68226 11.9999 7.68226C11.7238 7.68226 11.4999 7.90612 11.4999 8.18226H11.9999H12.4999ZM15.5999 14.4L15.758 13.9257L12.158 12.7257L11.9999 13.2L11.8418 13.6743L15.4418 14.8743L15.5999 14.4ZM11.9999 13.2H12.4999V8.18226H11.9999H11.4999V13.2H11.9999ZM21.5999 12H21.0999C21.0999 17.0258 17.0257 21.1 11.9999 21.1V21.6V22.1C17.578 22.1 22.0999 17.5781 22.0999 12H21.5999ZM11.9999 21.6V21.1C6.97411 21.1 2.8999 17.0258 2.8999 12H2.3999H1.8999C1.8999 17.5781 6.42183 22.1 11.9999 22.1V21.6ZM2.3999 12H2.8999C2.8999 6.97421 6.97411 2.9 11.9999 2.9V2.4V1.9C6.42183 1.9 1.8999 6.42192 1.8999 12H2.3999ZM11.9999 2.4V2.9C17.0257 2.9 21.0999 6.97421 21.0999 12H21.5999H22.0999C22.0999 6.42192 17.578 1.9 11.9999 1.9V2.4Z" fill="currentColor"/> </svg> 