<svg width="24" height="24" viewBox="0 0 24 24" fill="currentColor" xmlns="http://www.w3.org/2000/svg"> <path d="M18.0001 8.016V6H6.00011V8.016H18.0001ZM14.0161 14.016V12H6.00011V14.016H14.0161ZM6.00011 9V11.016H18.0001V9H6.00011ZM20.0161 2.016C20.5474 2.016 21.0084 2.21133 21.3991 2.602C21.7898 2.99267 21.9851 3.45367 21.9851 3.985V15.985C21.9851 16.5163 21.7898 16.985 21.3991 17.391C21.0084 17.797 20.5474 18 20.0161 18H6.00011L2.01611 21.984V3.984C2.01611 3.45267 2.21145 2.99167 2.60211 2.601C2.99278 2.21033 3.45378 2.015 3.98511 2.015H20.0161V2.016Z" fill="currentColor"/> </svg> 