<svg width="24" height="24" viewBox="0 0 24 24" fill="currentColor" xmlns="http://www.w3.org/2000/svg"> <path d="M20.5 4.25C20.8978 4.25 21.2794 4.40804 21.5607 4.68934C21.842 4.97064 22 5.35218 22 5.75V14.25C22 14.6478 21.842 15.0294 21.5607 15.3107C21.2794 15.592 20.8978 15.75 20.5 15.75H12.75V18.75H15.75C15.9489 18.75 16.1397 18.829 16.2803 18.9697C16.421 19.1103 16.5 19.3011 16.5 19.5C16.5 19.6989 16.421 19.8897 16.2803 20.0303C16.1397 20.171 15.9489 20.25 15.75 20.25H8.25C8.05109 20.25 7.86032 20.171 7.71967 20.0303C7.57902 19.8897 7.5 19.6989 7.5 19.5C7.5 19.3011 7.57902 19.1103 7.71967 18.9697C7.86032 18.829 8.05109 18.75 8.25 18.75H11.25V15.75H3.5C3.10217 15.75 2.72064 15.592 2.43934 15.3107C2.15804 15.0294 2 14.6478 2 14.25V5.75C2 5.35218 2.15804 4.97064 2.43934 4.68934C2.72064 4.40804 3.10217 4.25 3.5 4.25H20.5Z" fill="currentColor"/> </svg> 