<svg width="22" height="22" viewBox="0 0 22 22" fill="currentColor" xmlns="http://www.w3.org/2000/svg"> <path d="M22 11C22 17.0751 17.0751 22 11 22C4.92487 22 0 17.0751 0 11C0 4.92487 4.92487 0 11 0C17.0751 0 22 4.92487 22 11Z" fill="currentColor"/> <path fill-rule="evenodd" clip-rule="evenodd" d="M6.5 11C6.5 10.7238 6.72386 10.5 7 10.5H15C15.2761 10.5 15.5 10.7238 15.5 11C15.5 11.2761 15.2761 11.5 15 11.5H7C6.72386 11.5 6.5 11.2761 6.5 11Z" fill="currentColor"/> <path fill-rule="evenodd" clip-rule="evenodd" d="M11 6.50003C11.2761 6.50003 11.5 6.72389 11.5 7.00003V15C11.5 15.2762 11.2761 15.5 11 15.5C10.7239 15.5 10.5 15.2762 10.5 15V7.00003C10.5 6.72389 10.7239 6.50003 11 6.50003Z" fill="currentColor"/> </svg> 