<svg width="24" height="24" viewBox="0 0 24 24" fill="currentColor" xmlns="http://www.w3.org/2000/svg"> <path d="M20.2 3.85C18.15 1.8 14.8 1.75 12.7 3.8L11.1 5.4C10.8 5.7 10.8 6.15 11.1 6.45C11.4 6.75 11.85 6.75 12.15 6.45L13.75 4.85C15.25 3.4 17.65 3.4 19.15 4.9C20.65 6.4 20.65 8.85 19.2 10.35L16.45 13.15C15.65 13.95 14.55 14.35 13.45 14.3C12.35 14.2 11.3 13.65 10.65 12.75C10.4 12.4 9.94995 12.35 9.59995 12.6C9.24995 12.85 9.19995 13.3 9.44995 13.65C10.4 14.9 11.8 15.7 13.35 15.8H13.75C15.15 15.8 16.55 15.25 17.55 14.2L20.3 11.4C22.25 9.3 22.25 5.9 20.2 3.85Z" fill="currentColor"/> <path d="M11.85 17.6L10.3 19.2C8.79996 20.65 6.39996 20.65 4.89996 19.15C3.39996 17.65 3.39996 15.2 4.84996 13.7L7.59996 10.9C8.39996 10.1 9.49996 9.7 10.6 9.75C11.7 9.85 12.75 10.4 13.4 11.3C13.65 11.65 14.1 11.7 14.45 11.45C14.8 11.2 14.85 10.75 14.6 10.4C13.65 9.15 12.25 8.35 10.7 8.25C9.14996 8.15 7.64996 8.7 6.54996 9.8L3.79996 12.6C1.79996 14.7 1.79996 18.1 3.84996 20.15C4.89996 21.2 6.24996 21.7 7.64996 21.7C8.99996 21.7 10.35 21.2 11.4 20.2L12.95 18.6C13.25 18.3 13.25 17.85 12.95 17.55C12.6 17.3 12.15 17.3 11.85 17.6Z" fill="currentColor"/> </svg> 