<svg width="24" height="24" viewBox="0 0 24 24" fill="currentColor" xmlns="http://www.w3.org/2000/svg"> <g clip-path="url(#clip0_5194_1747)"> <path d="M13.2268 16.5648H14.7403C14.8033 16.5648 14.8657 16.5524 14.924 16.5283C14.9822 16.5041 15.0351 16.4688 15.0797 16.4242C15.1243 16.3796 15.1596 16.3267 15.1837 16.2685C15.2079 16.2103 15.2203 16.1478 15.2203 16.0848V14.8445C15.2203 14.7172 15.1697 14.5951 15.0797 14.5051C14.9897 14.4151 14.8676 14.3645 14.7403 14.3645H13.2268V13.3018C15.1718 12.7848 16.5998 11.0683 16.5998 9.03072C16.5998 6.58368 14.5406 4.60032 12 4.60032C9.45932 4.60032 7.40012 6.58368 7.40012 9.03072C7.40012 11.0683 8.82812 12.7848 10.7731 13.3018V20.1192C10.7731 20.772 11.3227 21.301 12 21.301C12.6772 21.301 13.2268 20.772 13.2268 20.1192V19.8725H14.7369C14.8642 19.8725 14.9863 19.8219 15.0763 19.7319C15.1663 19.6419 15.2169 19.5198 15.2169 19.3925V18.1469C15.2169 18.0196 15.1663 17.8975 15.0763 17.8075C14.9863 17.7175 14.8642 17.6669 14.7369 17.6669H13.2268V16.5648ZM0.959961 6.00336V5.23344C5.20412 3.60528 8.72876 1.95984 11.5344 0.29904L12 0L12.4656 0.29904C15.3648 1.99728 18.8894 3.64224 23.04 5.23344V5.97552C23.04 16.3176 21.2654 21.0298 12.012 23.9198C2.71772 20.9798 0.959961 16.4558 0.959961 6.00336ZM12 10.1198C11.512 10.1198 11.044 9.926 10.699 9.58096C10.354 9.23593 10.1601 8.76796 10.1601 8.28C10.1601 7.79204 10.354 7.32407 10.699 6.97904C11.044 6.634 11.512 6.44016 12 6.44016C12.4879 6.44016 12.9559 6.634 13.3009 6.97904C13.646 7.32407 13.8398 7.79204 13.8398 8.28C13.8398 8.76796 13.646 9.23593 13.3009 9.58096C12.9559 9.926 12.4879 10.1198 12 10.1198Z" fill="currentColor"/> </g> <defs> <clipPath id="clip0_5194_1747"> <rect width="24" height="24" fill="currentColor"/> </clipPath> </defs> </svg> 