<svg width="24" height="24" viewBox="0 0 24 24" fill="currentColor" xmlns="http://www.w3.org/2000/svg"> <g clip-path="url(#clip0_4439_1151)"> <path d="M12 24C12 24 22 20.5565 22 10.226V1.826L12 0L2 1.826V10.226C2 20.452 12 24 12 24ZM4 3.494V10.226C4 14.5985 6.11 17.531 8.3095 19.436C9.42844 20.3988 10.673 21.2052 12.009 21.833C13.3406 21.219 14.5812 20.4242 15.6955 19.471C17.885 17.586 20 14.656 20 10.2265V3.494L12 2.033L4 3.494Z" fill="currentColor"/> <path d="M11.8564 15.588L17.3549 6.518L17.3249 6.5H15.0274L11.4434 12.412L9.71891 10.75H6.83691L11.8569 15.588H11.8564Z" fill="currentColor"/> </g> <defs> <clipPath id="clip0_4439_1151"> <rect width="24" height="24" fill="currentColor"/> </clipPath> </defs> </svg> 