<svg width="24" height="24" viewBox="0 0 24 24" fill="currentColor" xmlns="http://www.w3.org/2000/svg"> <g clip-path="url(#clip0_4488_2053)"> <path d="M12 24C8.8174 24 5.76516 22.7357 3.51472 20.4853C1.26428 18.2348 0 15.1826 0 12C0 8.8174 1.26428 5.76516 3.51472 3.51472C5.76516 1.26428 8.8174 0 12 0C15.1826 0 18.2348 1.26428 20.4853 3.51472C22.7357 5.76516 24 8.8174 24 12C24 15.1826 22.7357 18.2348 20.4853 20.4853C18.2348 22.7357 15.1826 24 12 24ZM4.5 10.5V13.5H19.5V10.5H4.5Z" fill="currentColor"/> </g> <defs> <clipPath id="clip0_4488_2053"> <rect width="24" height="24" fill="currentColor"/> </clipPath> </defs> </svg> 