<svg width="22" height="22" viewBox="0 0 22 22" fill="currentColor" xmlns="http://www.w3.org/2000/svg" > <path d="M12.4221 0.899994C8.84326 0.899994 5.94214 3.80111 5.94214 7.37999C5.94214 10.9589 8.84326 13.86 12.4221 13.86C16.001 13.86 18.9021 10.9589 18.9021 7.37999C18.9021 3.80111 16.001 0.899994 12.4221 0.899994ZM12.4221 12.18C9.77542 12.18 7.62214 10.0267 7.62214 7.37999C7.62214 4.73327 9.77542 2.57999 12.4221 2.57999C15.0689 2.57999 17.2221 4.73327 17.2221 7.37999C17.2221 10.0267 15.0689 12.18 12.4221 12.18Z" fill="currentColor" /> <path d="M2.15837 21.029C2.13917 21.0994 2.12573 21.1721 2.12573 21.2482C2.12573 21.4709 2.21423 21.6846 2.37176 21.8421C2.52929 21.9997 2.74295 22.0882 2.96573 22.0882C3.18851 22.0882 3.40217 21.9997 3.5597 21.8421C3.71723 21.6846 3.80573 21.4709 3.80573 21.2482H3.81941C4.44797 17.0645 8.06597 13.8463 12.4222 13.8463V12.1663C7.20509 12.1663 2.89325 16.0162 2.15837 21.029ZM21.6423 17.9674C21.6423 18.1901 21.5538 18.4038 21.3963 18.5613C21.2387 18.7189 21.0251 18.8074 20.8023 18.8074H14.0823C13.972 18.8074 13.8628 18.7856 13.7608 18.7434C13.6589 18.7012 13.5663 18.6393 13.4883 18.5613C13.4103 18.4833 13.3484 18.3907 13.3062 18.2888C13.264 18.1869 13.2423 18.0777 13.2423 17.9674C13.2423 17.857 13.264 17.7478 13.3062 17.6459C13.3484 17.544 13.4103 17.4514 13.4883 17.3734C13.5663 17.2954 13.6589 17.2335 13.7608 17.1913C13.8628 17.1491 13.972 17.1274 14.0823 17.1274H20.8023C21.266 17.1274 21.6423 17.5037 21.6423 17.9674Z" fill="currentColor" /> </svg>