<svg width="24" height="24" viewBox="0 0 24 24" fill="currentColor" xmlns="http://www.w3.org/2000/svg"> <path d="M21.1125 18.375H2.8875C2.1375 18.375 1.5 17.775 1.5 16.9875V5.5125C1.5 4.7625 2.1 4.125 2.8875 4.125H21.15C21.9 4.125 22.5375 4.725 22.5375 5.5125V17.025C22.5 17.775 21.9 18.375 21.1125 18.375ZM2.8875 4.875C2.5125 4.875 2.25 5.1375 2.25 5.5125V17.025C2.25 17.3625 2.5125 17.625 2.8875 17.625H21.15C21.4875 17.625 21.7875 17.3625 21.7875 16.9875V5.5125C21.7875 5.175 21.525 4.875 21.15 4.875H2.8875ZM17.625 20.625H17.5875L12.3 19.875L7.0125 20.625C6.825 20.6625 6.6 20.5125 6.6 20.2875C6.5625 20.1 6.7125 19.875 6.9375 19.875L12.2625 19.125H12.375L17.7 19.875C17.8875 19.9125 18.0375 20.1 18.0375 20.2875C17.9625 20.475 17.8125 20.625 17.625 20.625Z" fill="currentColor"/> <path d="M12.375 19.875C12.15 19.875 12 19.725 12 19.5V18.375C12 18.15 12.15 18 12.375 18C12.6 18 12.75 18.15 12.75 18.375V19.5C12.75 19.725 12.6 19.875 12.375 19.875Z" fill="currentColor"/> </svg> 