<svg width="24" height="24" viewBox="0 0 24 24" fill="currentColor" xmlns="http://www.w3.org/2000/svg"> <path d="M21.0921 4.03314C21.1587 4.25102 21.1587 4.48384 21.0921 4.70171L16.2178 20.6263C16.16 20.8149 16.0545 20.9853 15.9113 21.121C15.7682 21.2566 15.5924 21.353 15.401 21.4006C15.2097 21.4482 15.0092 21.4455 14.8192 21.3928C14.6292 21.34 14.456 21.2389 14.3166 21.0994L10.7881 17.5709L8.53092 19.8286C8.45098 19.9083 8.34922 19.9625 8.23849 19.9844C8.12775 20.0063 8.01301 19.995 7.90872 19.9518C7.80444 19.9086 7.71529 19.8354 7.65253 19.7416C7.58977 19.6478 7.5562 19.5375 7.55607 19.4246V14.3863L14.0206 8.68228L5.68692 12.4697L3.26692 10.0503C3.12758 9.91079 3.02669 9.73762 2.97407 9.5476C2.92145 9.35758 2.91888 9.15718 2.96662 8.96588C3.01436 8.77458 3.11078 8.59888 3.24651 8.45586C3.38224 8.31285 3.55266 8.20738 3.74121 8.14971L19.6641 3.27428C19.8076 3.23034 19.9583 3.21509 20.1078 3.22942C20.2572 3.24374 20.4023 3.28736 20.5348 3.35777C20.6674 3.42819 20.7848 3.52402 20.8803 3.6398C20.9758 3.75559 21.0476 3.88905 21.0915 4.03257L21.0921 4.03314Z" fill="currentColor"/> </svg> 