<svg width="24" height="24" viewBox="0 0 24 24" fill="currentColor" xmlns="http://www.w3.org/2000/svg"> <path d="M12 0.959999C5.90842 0.959999 0.959961 5.90846 0.959961 12C0.959961 18.0915 5.90842 23.04 12 23.04C18.0915 23.04 23.04 18.0915 23.04 12C23.04 5.90846 18.0915 0.959999 12 0.959999ZM12 1.92C17.5727 1.92 22.08 6.42728 22.08 12C22.08 17.5727 17.5727 22.08 12 22.08C6.42725 22.08 1.91996 17.5727 1.91996 12C1.91996 6.42728 6.42725 1.92 12 1.92ZM12.1387 6.00375C10.3483 6.00375 9.16118 7.08861 8.90246 8.74125C8.88566 8.84493 8.93659 8.91334 9.04027 8.93062L10.125 9.12094C10.2286 9.13822 10.2971 9.08632 10.3143 8.98312C10.5207 7.93288 11.1402 7.34719 12.104 7.34719C13.0856 7.34719 13.7737 7.96732 13.7737 8.94844C13.7737 9.53404 13.5675 9.92986 12.9656 10.7559L11.8115 12.3394C11.4501 12.8391 11.2959 13.2007 11.2959 13.89V14.595C11.2959 14.6982 11.3643 14.7675 11.4675 14.7656H12.6037C12.7069 14.7656 12.7753 14.6973 12.7753 14.5941V14.0437C12.7753 13.4586 12.8792 13.2175 13.2234 12.7528L14.3765 11.1684C14.9621 10.3592 15.254 9.75718 15.254 8.93062C15.254 7.22614 13.9973 6.00375 12.1387 6.00375ZM11.3821 16.0762C11.2785 16.0762 11.2096 16.1455 11.2096 16.2487V17.7291C11.2096 17.8323 11.278 17.9006 11.3821 17.9006H12.6909C12.7936 17.9006 12.8625 17.8327 12.8625 17.7291V16.2487C12.8625 16.146 12.7941 16.0762 12.6909 16.0762H11.3821Z" fill="currentColor"/> </svg> 