<svg width="20" height="20" viewBox="0 0 20 20" fill="currentColor" xmlns="http://www.w3.org/2000/svg"> <path d="M10 17.68C12.1734 17.6267 13.9834 16.8767 15.43 15.43C16.8767 13.9834 17.6267 12.1734 17.68 10C17.6267 7.8267 16.8767 6.0167 15.43 4.57004C13.9834 3.12338 12.1734 2.37338 10 2.32004C7.8267 2.37338 6.0167 3.12338 4.57004 4.57004C3.12338 6.0167 2.37338 7.8267 2.32004 10C2.37338 12.1734 3.12338 13.9834 4.57004 15.43C6.0167 16.8767 7.8267 17.6267 10 17.68ZM10 18.96C7.4667 18.8934 5.3567 18.0167 3.67004 16.33C1.98338 14.6434 1.1067 12.5334 1.04004 10C1.1067 7.4667 1.98338 5.3567 3.67004 3.67004C5.3567 1.98338 7.4667 1.1067 10 1.04004C12.5334 1.1067 14.6434 1.98338 16.33 3.67004C18.0167 5.3567 18.8934 7.4667 18.96 10C18.8934 12.5334 18.0167 14.6434 16.33 16.33C14.6434 18.0167 12.5334 18.8934 10 18.96ZM14.28 6.06004C13.2934 8.34004 12.2434 10.0334 11.13 11.14C10.0167 12.2467 8.3267 13.2934 6.06004 14.28C5.95338 14.32 5.86004 14.3 5.78004 14.22C5.70004 14.14 5.68004 14.0467 5.72004 13.94C6.7067 11.6734 7.75338 9.9867 8.86004 8.88004C9.9667 7.77338 11.66 6.72004 13.94 5.72004C14.0467 5.68004 14.14 5.70004 14.22 5.78004C14.3 5.86004 14.32 5.95338 14.28 6.06004Z" fill="currentColor" /> </svg> 