<svg width="24" height="24" viewBox="0 0 24 24" fill="currentColor" xmlns="http://www.w3.org/2000/svg"> <path d="M5.05078 6.92969C4.51402 6.90358 4 7.32144 4 7.92969V16.0703C4 16.8813 4.91317 17.3547 5.57617 16.8867L11.3438 12.8164C11.9078 12.4184 11.9078 11.5816 11.3438 11.1836L5.57617 7.11328C5.41042 6.99628 5.2297 6.93839 5.05078 6.92969ZM14.0508 6.92969C13.514 6.90358 13 7.32144 13 7.92969V16.0703C13 16.8813 13.9132 17.3547 14.5762 16.8867L20.3438 12.8164C20.9077 12.4184 20.9077 11.5816 20.3438 11.1836L14.5762 7.11328C14.4104 6.99628 14.2297 6.93839 14.0508 6.92969Z" fill="currentColor"/> </svg> 