<svg width="24" height="24" viewBox="0 0 24 24" fill="currentColor" xmlns="http://www.w3.org/2000/svg"> <path d="M18.4 9.75H16.95V6.9C16.95 4.35 14.8 2.25 12.2 2.25C9.6 2.25 7.45 4.35 7.45 6.9V9.75H5.6C4.3 9.75 3.25 10.8 3.25 12.1V19.4C3.25 20.7 4.3 21.75 5.6 21.75H18.4C19.7 21.75 20.75 20.7 20.75 19.4V12.1C20.75 10.8 19.7 9.75 18.4 9.75ZM8.95 6.9C8.95 5.15 10.4 3.75 12.2 3.75C14 3.75 15.45 5.15 15.45 6.9V9.75H8.95V6.9ZM19.25 19.4C19.25 19.85 18.85 20.25 18.4 20.25H5.6C5.15 20.25 4.75 19.85 4.75 19.4V12.1C4.75 11.65 5.15 11.25 5.6 11.25H18.4C18.85 11.25 19.25 11.65 19.25 12.1V19.4Z" fill="currentColor"/> <path d="M12 12.75C11.6 12.75 11.25 13.1 11.25 13.5V16C11.25 16.4 11.6 16.75 12 16.75C12.4 16.75 12.75 16.4 12.75 16V13.5C12.75 13.1 12.4 12.75 12 12.75Z" fill="currentColor"/> </svg> 