<svg width="23" height="23" viewBox="0 0 23 23" fill="currentColor" xmlns="http://www.w3.org/2000/svg"> <g clip-path="url(#clip0_8836_7997)"> <path d="M5.92217 0.11499L7.18717 4.91049L11.2237 6.35949L7.21017 7.86599L6.00267 12.673L4.72617 7.87749L0.701172 6.42849L4.71467 4.93349L5.92217 0.11499ZM14.3287 1.51799L15.9157 4.69199L18.9402 5.12899L16.3412 6.76199L16.1802 10.304L14.6162 7.12999L11.5917 6.69299L14.1907 5.05999L14.3287 1.51799ZM6.38217 12.9375L7.09517 14.95L8.87767 15.433L7.21017 16.2265L6.85367 18.331L6.14067 16.3185L4.35817 15.824L6.02567 15.042L6.38217 12.9375ZM12.5117 8.44099L17.0197 12.972L12.7877 17.204L8.31417 12.6615L12.5117 8.44099ZM17.8592 13.8115L13.6272 18.0435L18.1927 22.609L21.5162 19.3085C22.0337 18.791 22.4362 18.3655 22.4362 18.3655L17.8592 13.8115ZM9.68267 12.8685L12.6727 15.8585L15.6627 12.8685L12.6727 9.87849L9.68267 12.8685Z" fill="currentColor"/> </g> <defs> <clipPath id="clip0_8836_7997"> <rect width="23" height="23" fill="currentColor"/> </clipPath> </defs> </svg> 