<?xml version="1.0" standalone="no"?><!DOCTYPE svg PUBLIC "-//W3C//DTD SVG 1.1//EN" "http://www.w3.org/Graphics/SVG/1.1/DTD/svg11.dtd"><svg class="icon" width="200px" height="200.00px" viewBox="0 0 1024 1024" version="1.1" xmlns="http://www.w3.org/2000/svg"><path fill="currentColor" d="M852.954074 270.411852l-177.114074-175.217778a135.205926 135.205926 0 0 0-94.435556-38.305185H266.998519a136.912593 136.912593 0 0 0-136.533334 136.533333v637.155556c0 75.093333 61.44 136.533333 136.533334 136.533333h490.002962c75.093333 0 136.533333-61.44 136.533334-136.533333V367.122963a139.188148 139.188148 0 0 0-40.580741-96.711111z m-450.180741-1.782519h186.671408a37.925926 37.925926 0 1 1 0 75.851852H402.773333a37.925926 37.925926 0 1 1 0-75.851852z m225.28 518.371556a94.890667 94.890667 0 0 1-94.814814-94.814815c0-52.148148 42.363259-94.814815 94.814814-94.814815 52.148148 0 94.814815 42.666667 94.814815 94.814815s-42.666667 94.814815-94.814815 94.814815z m75.662223-287.630222H320.284444a37.925926 37.925926 0 1 1 0-75.851852h383.431112a37.925926 37.925926 0 1 1 0 75.851852z" /></svg>