<?xml version="1.0" standalone="no"?><!DOCTYPE svg PUBLIC "-//W3C//DTD SVG 1.1//EN" "http://www.w3.org/Graphics/SVG/1.1/DTD/svg11.dtd"><svg class="icon" width="200px" height="200.00px" viewBox="0 0 1024 1024" version="1.1" xmlns="http://www.w3.org/2000/svg"><path fill="currentColor" d="M819.2 277.077333h-156.672V212.352c0-34.133333-27.648-61.781333-61.781333-61.781333H423.253333c-34.133333 0-61.781333 27.648-61.781333 61.781333v64.725333H204.8c-56.661333 0-102.4 46.08-102.4 102.4v391.509334c0 56.32 45.738667 102.4 102.4 102.4h614.4c56.661333 0 102.4-46.08 102.4-102.4V379.477333c0-56.32-45.738667-102.4-102.4-102.4zM429.738667 218.88h164.522666v58.026667h-164.522666V218.88z m33.109333 497.194667H242.005333a35.882667 35.882667 0 0 1-33.450666-48.469334A154.581333 154.581333 0 0 1 315.733333 572.672a74.453333 74.453333 0 0 1-37.205333-64.170667 74.24 74.24 0 0 1 74.069333-74.069333c40.618667 0 73.728 33.450667 73.728 74.069333 0 27.306667-15.018667 51.2-37.205333 64.170667a153.173333 153.173333 0 0 1 107.178667 94.890667 35.797333 35.797333 0 0 1-33.450667 48.469333z m333.824 0h-168.277333c-19.114667 0-34.133333-15.36-34.133334-34.133334 0-18.773333 15.018667-34.133333 34.133334-34.133333h168.277333c18.773333 0 34.133333 15.36 34.133333 34.133333 0 18.773333-15.36 34.133333-34.133333 34.133334z m0-138.24h-168.277333c-19.114667 0-34.133333-15.36-34.133334-34.133334 0-18.773333 15.018667-34.133333 34.133334-34.133333h168.277333c18.773333 0 34.133333 15.36 34.133333 34.133333 0 18.773333-15.36 34.133333-34.133333 34.133334z" /></svg>