<?xml version="1.0" standalone="no"?><!DOCTYPE svg PUBLIC "-//W3C//DTD SVG 1.1//EN" "http://www.w3.org/Graphics/SVG/1.1/DTD/svg11.dtd"><svg class="icon" width="200px" height="200.00px" viewBox="0 0 1024 1024" version="1.1" xmlns="http://www.w3.org/2000/svg"><path d="M682.666667 716.8l228.352 116.053333a513.024 513.024 0 0 1-228.317867 161.9968L682.666667 716.8zM331.6736 716.8v274.5344a513.262933 513.262933 0 0 1-221.525333-161.9968L331.707733 716.8zM914.773333 195.857067L682.666667 317.8496l0.034133-288.699733A513.092267 513.092267 0 0 1 914.773333 195.857067zM338.773333 30.037333v287.812267L108.475733 196.8128A513.160533 513.160533 0 0 1 338.773333 30.037333z" fill="currentColor" /><path d="M512 0c35.089067 0 69.290667 3.515733 102.4 10.24V409.6h399.36c6.724267 33.109333 10.24 67.345067 10.24 102.4 0 35.089067-3.515733 69.290667-10.24 102.4H614.4v399.36c-33.109333 6.724267-67.310933 10.24-102.4 10.24-35.054933 0-69.290667-3.515733-102.4-10.24V614.4H10.24C3.515733 581.290667 0 547.054933 0 512c0-35.089067 3.515733-69.290667 10.24-102.4l399.36-0.034133V10.205867C442.709333 3.549867 476.9792 0 512 0zM307.473067 682.666667l-219.2384 116.804266a511.556267 511.556267 0 0 1-35.498667-60.928L156.091733 682.666667h151.381334z m560.4352 0l103.355733 55.9104c-10.4448 21.162667-22.357333 41.506133-35.498667 60.893866L716.526933 682.666667h151.381334z m68.608-457.0112c13.1072 19.421867 24.917333 39.765333 35.328 60.962133l-103.936 56.2176h-151.381334l219.989334-117.179733z m-849.032534 0l219.989334 117.179733H156.091733L52.1216 286.651733c10.410667-21.1968 22.254933-41.5744 35.362133-60.996266z" fill="currentColor" /></svg>