<svg width="24" height="24" viewBox="0 0 24 24" xmlns="http://www.w3.org/2000/svg"> <path fill="currentColor" d="M4 6.5C4 5.12 5.12 4 6.5 4h6.2c.4 0 .78.08 1.12.22L12.9 6H6.5c-.28 0-.5.22-.5.5v9c0 .28.22.5.5.5H16c.28 0 .5-.22.5-.5V12.1l2 2V15.5c0 1.38-1.12 2.5-2.5 2.5H6.5C5.12 18 4 16.88 4 15.5v-9Z"/> <path fill="currentColor" d="M17.5 8.1 21 6.2v11.6l-1.9-1.03-1.6-.87v-3.2l-2-2V13l2 2v.76l1.5.82v-8.2l-1.5.82v1.1l-2-2v-.2Z"/> <path fill="currentColor" d="M3.2 2.7a1 1 0 0 1 1.4 0l16.7 16.7a1 1 0 1 1-1.4 1.4L3.2 4.1a1 1 0 0 1 0-1.4Z"/>
</svg>
