<?xml version="1.0" standalone="no"?><!DOCTYPE svg PUBLIC "-//W3C//DTD SVG 1.1//EN" "http://www.w3.org/Graphics/SVG/1.1/DTD/svg11.dtd"><svg class="icon" width="200px" height="200.00px" viewBox="0 0 1024 1024" version="1.1" xmlns="http://www.w3.org/2000/svg"><path fill="currentColor" d="M153.6 477.866667C204.8 477.866667 238.933333 518.826667 238.933333 580.266667c0 37.546667 47.786667 68.266667 85.333334 68.266666h375.466666c37.546667 0 68.266667-30.72 68.266667-68.266666 0-58.026667 44.373333-102.4 102.4-102.4H1024c-3.413333-20.48-10.24-40.96-23.893333-61.44l-160.426667-215.04C808.96 160.426667 764.586667 136.533333 716.8 136.533333H324.266667c-71.68 0-129.706667 30.72-157.013334 85.333334l-136.533333 208.213333c-13.653333 10.24-23.893333 27.306667-27.306667 51.2h150.186667z" /><path fill="currentColor" d="M870.4 512c-37.546667 0-68.266667 30.72-68.266667 68.266667 0 58.026667-44.373333 102.4-102.4 102.4h-375.466666C269.653333 682.666667 204.8 638.293333 204.8 580.266667c0-20.48-3.413333-68.266667-51.2-68.266667H0v273.066667c0 58.026667 44.373333 102.4 102.4 102.4h819.2c58.026667 0 102.4-44.373333 102.4-102.4v-273.066667h-153.6z" /></svg>