<?xml version="1.0" standalone="no"?><!DOCTYPE svg PUBLIC "-//W3C//DTD SVG 1.1//EN" "http://www.w3.org/Graphics/SVG/1.1/DTD/svg11.dtd"><svg class="icon" width="200px" height="200.00px" viewBox="0 0 1024 1024" version="1.1" xmlns="http://www.w3.org/2000/svg"><path fill="currentColor" d="M733.866667 1024h-512c-58.026667 0-102.4-47.786667-102.4-102.4V102.4c0-58.026667 44.373333-102.4 102.4-102.4h512c58.026667 0 102.4 47.786667 102.4 102.4v129.706667c0 10.24-6.826667 17.066667-17.066667 17.066666s-17.066667-6.826667-17.066667-17.066666V102.4c0-37.546667-30.72-68.266667-68.266666-68.266667h-512c-37.546667 0-68.266667 30.72-68.266667 68.266667v819.2c0 37.546667 30.72 68.266667 68.266667 68.266667h512c37.546667 0 68.266667-30.72 68.266666-68.266667v-119.466667c0-10.24 6.826667-17.066667 17.066667-17.066666s17.066667 6.826667 17.066667 17.066666V921.6c0 54.613333-44.373333 102.4-102.4 102.4z" /><path fill="currentColor" d="M819.2 853.333333H136.533333c-10.24 0-17.066667-6.826667-17.066666-17.066666s6.826667-17.066667 17.066666-17.066667h682.666667c10.24 0 17.066667 6.826667 17.066667 17.066667s-6.826667 17.066667-17.066667 17.066666zM512 921.6h-102.4c-10.24 0-17.066667-6.826667-17.066667-17.066667s6.826667-17.066667 17.066667-17.066666h102.4c10.24 0 17.066667 6.826667 17.066667 17.066666s-6.826667 17.066667-17.066667 17.066667zM512 648.533333c-6.826667 0-13.653333-3.413333-17.066667-13.653333L395.946667 273.066667H341.333333c-10.24 0-17.066667-6.826667-17.066666-17.066667s6.826667-17.066667 17.066666-17.066667h68.266667c6.826667 0 13.653333 6.826667 17.066667 13.653334l102.4 375.466666c3.413333 10.24-3.413333 17.066667-13.653334 20.48H512z" /><path fill="currentColor" d="M488.106667 542.72c-10.24 0-17.066667-6.826667-17.066667-13.653333 0-10.24 6.826667-17.066667 13.653333-17.066667l361.813334-37.546667 20.48-129.706666H443.733333c-10.24 0-17.066667-6.826667-17.066666-17.066667s6.826667-20.48 17.066666-20.48h443.733334c3.413333 0 10.24 3.413333 13.653333 6.826667 3.413333 3.413333 3.413333 10.24 3.413333 13.653333l-23.893333 163.84c0 6.826667-6.826667 13.653333-13.653333 13.653333l-378.88 37.546667c3.413333 0 3.413333 0 0 0zM580.266667 716.8c-27.306667 0-51.2-23.893333-51.2-51.2S552.96 614.4 580.266667 614.4s51.2 23.893333 51.2 51.2S607.573333 716.8 580.266667 716.8z m0-68.266667c-10.24 0-17.066667 6.826667-17.066667 17.066667s6.826667 17.066667 17.066667 17.066667 17.066667-6.826667 17.066666-17.066667-6.826667-17.066667-17.066666-17.066667zM750.933333 716.8c-27.306667 0-51.2-23.893333-51.2-51.2S723.626667 614.4 750.933333 614.4s51.2 23.893333 51.2 51.2S778.24 716.8 750.933333 716.8z m0-68.266667c-10.24 0-17.066667 6.826667-17.066666 17.066667s6.826667 17.066667 17.066666 17.066667 17.066667-6.826667 17.066667-17.066667-6.826667-17.066667-17.066667-17.066667z" /><path fill="currentColor" d="M238.933333 119.466667m-17.066666 0a17.066667 17.066667 0 1 0 34.133333 0 17.066667 17.066667 0 1 0-34.133333 0Z" /></svg>