<?xml version="1.0" standalone="no"?><!DOCTYPE svg PUBLIC "-//W3C//DTD SVG 1.1//EN" "http://www.w3.org/Graphics/SVG/1.1/DTD/svg11.dtd"><svg class="icon" width="200px" height="200.00px" viewBox="0 0 1024 1024" version="1.1" xmlns="http://www.w3.org/2000/svg"><path d="M307.201382 819.194266h409.592013v-102.398004H307.201382v102.398004m0-204.796007h409.592013v-102.398003H307.201382v102.398003m-102.398003 409.592013c-28.159451 0-52.222982-10.035004-72.344189-30.053814A98.609277 98.609277 0 0 1 102.405376 921.592269V102.408243C102.405376 74.248792 112.44038 50.185261 132.510389 30.064054A98.609277 98.609277 0 0 1 204.803379 0.01024h409.592013l307.19401 307.19401v614.388019c0 28.159451-10.035004 52.222982-30.105013 72.344189A98.609277 98.609277 0 0 1 819.191399 1023.990272H204.803379M563.196391 358.403251V102.408243H204.803379v819.184026h614.38802V358.403251H563.196391M204.803379 102.408243v255.995008-255.995008 819.184026V102.408243" fill="none" stroke="currentColor" stroke-width="1.5" stroke-linecap="round" stroke-linejoin="round" /></svg>