<?xml version="1.0" standalone="no"?><!DOCTYPE svg PUBLIC "-//W3C//DTD SVG 1.1//EN" "http://www.w3.org/Graphics/SVG/1.1/DTD/svg11.dtd"><svg class="icon" width="200px" height="200.00px" viewBox="0 0 1024 1024" version="1.1" xmlns="http://www.w3.org/2000/svg"><path d="M462.336 752.213333l300.8-300.8-59.733333-59.733333-241.066667 241.066667-121.6-121.6-59.733333 59.733333 181.333333 181.333333m-238.933333 211.2c-23.466667 0-43.52-8.405333-60.245334-25.088a82.176 82.176 0 0 1-25.088-60.288v-597.333333c0-23.466667 8.362667-43.52 25.088-60.245333a82.176 82.176 0 0 1 60.245334-25.088h179.2c9.258667-25.6 24.746667-46.208 46.421333-61.866667a121.898667 121.898667 0 0 1 73.045333-23.466667c27.050667 0 51.370667 7.808 73.088 23.466667 21.674667 15.658667 37.12 36.266667 46.378667 61.866667h179.2c23.466667 0 43.562667 8.362667 60.288 25.088 16.725333 16.682667 25.045333 36.778667 25.045333 60.245333v597.333333c0 23.466667-8.32 43.52-25.045333 60.288a82.176 82.176 0 0 1-60.288 25.045334h-597.333333m0-85.333334h597.333333v-597.333333h-597.333333v597.333333m298.666666-629.333333a31.061333 31.061333 0 0 0 32-32 31.061333 31.061333 0 0 0-32-32 31.104 31.104 0 0 0-32 32 31.104 31.104 0 0 0 32 32m-298.666666 629.333333v-597.333333 597.333333" fill="none" stroke="currentColor" stroke-width="1.5" stroke-linecap="round" stroke-linejoin="round" /></svg>