<?xml version="1.0" standalone="no"?><!DOCTYPE svg PUBLIC "-//W3C//DTD SVG 1.1//EN" "http://www.w3.org/Graphics/SVG/1.1/DTD/svg11.dtd"><svg class="icon" width="200px" height="200.00px" viewBox="0 0 1024 1024" version="1.1" xmlns="http://www.w3.org/2000/svg"><path fill="currentColor" d="M853.333333 704c-35.413333 0-64-28.586667-64-64v-106.666667c0-35.413333 28.586667-64 64-64s64 28.586667 64 64V640c0 35.413333-28.586667 64-64 64z m-21.333333 149.333333h42.666667v-65.706666c72.106667-10.24 128-72.533333 128-147.626667h-42.666667a106.666667 106.666667 0 0 1-213.333333 0h-42.666667c0 75.093333 55.893333 137.386667 128 147.626667V853.333333z m-469.333333-341.333333c-94.293333 0-170.666667-76.373333-170.666667-170.666667a170.624 170.624 0 0 1 227.84-160.853333A253.354667 253.354667 0 0 0 362.666667 341.333333c0 61.013333 21.333333 116.906667 57.173333 160.853334-17.92 6.4-37.12 9.813333-57.173333 9.813333z m-80.64 48.213333a211.84 211.84 0 0 0-90.026667 174.506667V853.333333h-170.666667v-118.613333c0-47.786667 26.026667-91.733333 68.693334-113.493333 52.906667-27.306667 117.76-50.773333 192-61.013334zM448 341.333333c0-94.293333 76.373333-170.666667 170.666667-170.666666s170.666667 76.373333 170.666666 170.666666-76.373333 170.666667-170.666666 170.666667-170.666667-76.373333-170.666667-170.666667z m85.333333 0c0 46.933333 38.4 85.333333 85.333334 85.333334s85.333333-38.4 85.333333-85.333334-38.4-85.333333-85.333333-85.333333-85.333333 38.4-85.333334 85.333333z m85.333334 298.666667c-101.12 0-183.04 31.146667-233.813334 57.173333-13.653333 6.826667-22.186667 21.333333-22.186666 37.546667V768h305.92c21.333333 36.693333 53.333333 66.56 91.733333 85.333333H277.333333v-118.613333c0-47.786667 26.026667-91.733333 68.693334-113.493333C417.706667 584.533333 510.72 554.666667 618.666667 554.666667c16.64 0 32.853333 0.853333 48.64 2.133333-14.08 25.173333-23.466667 53.76-26.453334 83.626667-7.253333-0.426667-14.506667-0.426667-22.186666-0.426667z" /></svg>
