<?xml version="1.0" standalone="no"?><!DOCTYPE svg PUBLIC "-//W3C//DTD SVG 1.1//EN" "http://www.w3.org/Graphics/SVG/1.1/DTD/svg11.dtd"><svg class="icon" width="200px" height="200.00px" viewBox="0 0 1024 1024" version="1.1" xmlns="http://www.w3.org/2000/svg"><path d="M512 0c282.760533 0 512 229.239467 512 512 0 282.760533-229.239467 512-512 512-282.760533 0-512-229.239467-512-512C0 229.239467 229.239467 0 512 0z m-70.417067 256a256 256 0 1 0 216.4736 392.738133 204.8 204.8 0 1 1 0-273.476266A255.829333 255.829333 0 0 0 441.617067 256z m288.904534 146.397867l-18.2272 77.2096-73.9328 28.7744 67.822933 41.198933 4.539733 79.189333 60.074667-51.780266 76.765867 20.206933-30.685867-73.181867 42.9056-66.730666-79.0528 6.519466L730.453333 402.432z" fill="currentColor" /></svg>