<?xml version="1.0" standalone="no"?><!DOCTYPE svg PUBLIC "-//W3C//DTD SVG 1.1//EN" "http://www.w3.org/Graphics/SVG/1.1/DTD/svg11.dtd"><svg class="icon" width="200px" height="200.00px" viewBox="0 0 1024 1024" version="1.1" xmlns="http://www.w3.org/2000/svg"><path fill="currentColor" d="M465.92 557.8752H65.28c-8.0896 0-16.2304 0-23.7568-0.6144-20.3264-2.304-33.1264-13.9264-38.912-33.0752-5.7856-18.5344 1.1776-34.2528 14.4896-47.0016 5.8368-5.2224 13.3632-8.704 20.3264-12.1856C340.48 313.4464 642.9184 161.9968 945.9712 10.4448c17.9712-9.216 35.9936-15.6672 55.7056-4.608 23.1936 13.312 28.4672 39.424 13.9264 68.5056-54.5792 109.1072-109.1072 217.6512-163.6864 326.8096l-292.5568 585.1136c-15.104 30.208-32.512 41.216-56.8832 35.9936-24.9856-5.7856-36.608-24.3712-36.608-59.2384v-376.1152-29.0304z" /></svg>