<svg class="icon" width="200" height="200" viewBox="0 0 1024 1024" xmlns="http://www.w3.org/2000/svg"><path fill="currentColor" d="M725.333333 490.666667a234.666667 234.666667 0 1 0-469.333333 0 234.666667 234.666667 0 0 0 469.333333 0z m-256 96v-1.109334a21.333333 21.333333 0 0 1 42.666667 0v1.109334a21.333333 21.333333 0 0 1-42.666667 0z m0-96v-128a21.333333 21.333333 0 0 1 42.666667 0v128a21.333333 21.333333 0 0 1-42.666667 0z m298.666667 0a277.333333 277.333333 0 1 1-554.666667 0 277.333333 277.333333 0 0 1 554.666667 0z" /></svg> 