<?xml version="1.0" standalone="no"?><!DOCTYPE svg PUBLIC "-//W3C//DTD SVG 1.1//EN" "http://www.w3.org/Graphics/SVG/1.1/DTD/svg11.dtd"><svg class="icon" width="200px" height="200.00px" viewBox="0 0 1024 1024" version="1.1" xmlns="http://www.w3.org/2000/svg"><path fill="currentColor" d="M812.032 543.146667a300.074667 300.074667 0 1 0-600.149333 0 300.074667 300.074667 0 0 0 600.149333 0zM469.333333 402.986667a42.666667 42.666667 0 0 1 85.333334 0v122.538666l65.365333 65.408a42.666667 42.666667 0 1 1-60.330667 60.330667l-68.736-68.736A73.856 73.856 0 0 1 469.333333 530.261333V402.944zM189.738667 92.373333A42.666667 42.666667 0 0 1 250.069333 152.746667L128.426667 274.432a42.666667 42.666667 0 0 1-60.330667-60.330667l121.685333-121.728z m584.192 0a42.666667 42.666667 0 0 1 60.330666 0l121.685334 121.728a42.666667 42.666667 0 0 1-60.330667 60.330667L773.973333 152.704a42.666667 42.666667 0 0 1 0-60.330667z m123.434666 450.816a383.573333 383.573333 0 0 1-84.48 240.512l87.594667 87.552a42.666667 42.666667 0 0 1-60.330667 60.373334l-87.552-87.552A383.658667 383.658667 0 0 1 512 928.554667a383.658667 383.658667 0 0 1-240.64-84.48l-87.466667 87.552a42.666667 42.666667 0 0 1-60.330666-60.373334l87.466666-87.552a385.408 385.408 0 1 1 686.336-240.554666z" /></svg>