<?xml version="1.0" standalone="no"?><!DOCTYPE svg PUBLIC "-//W3C//DTD SVG 1.1//EN" "http://www.w3.org/Graphics/SVG/1.1/DTD/svg11.dtd"><svg class="icon" width="200px" height="200.00px" viewBox="0 0 1024 1024" version="1.1" xmlns="http://www.w3.org/2000/svg"><path fill="currentColor" d="M160 160h128v128H160V160zM96 64a32 32 0 0 0-32 32v256a32 32 0 0 0 32 32h256a32 32 0 0 0 32-32V96a32 32 0 0 0-32-32H96z m0-64h256a96 96 0 0 1 96 96v256a96 96 0 0 1-96 96H96a96 96 0 0 1-96-96V96A96 96 0 0 1 96 0z m0 640a32 32 0 0 0-32 32v256a32 32 0 0 0 32 32h256a32 32 0 0 0 32-32V672a32 32 0 0 0-32-32H96z m0-64h256a96 96 0 0 1 96 96v256a96 96 0 0 1-96 96H96a96 96 0 0 1-96-96V672a96 96 0 0 1 96-96zM672 64a32 32 0 0 0-32 32v256a32 32 0 0 0 32 32h256a32 32 0 0 0 32-32V96a32 32 0 0 0-32-32H672z m0-64h256a96 96 0 0 1 96 96v256a96 96 0 0 1-96 96H672a96 96 0 0 1-96-96V96a96 96 0 0 1 96-96z m-32 963.456a32 32 0 0 1-64 0V672a96 96 0 0 1 96-96h288.64a32 32 0 1 1 0 64H672a32 32 0 0 0-32 32v291.456zM768 736h64v256h-64V736zM928 736h64v256h-64V736z" /></svg>