<?xml version="1.0" standalone="no"?><!DOCTYPE svg PUBLIC "-//W3C//DTD SVG 1.1//EN" "http://www.w3.org/Graphics/SVG/1.1/DTD/svg11.dtd"><svg class="icon" width="200px" height="200.00px" viewBox="0 0 1024 1024" version="1.1" xmlns="http://www.w3.org/2000/svg"><path fill="currentColor" d="M564.565333 102.826667l346.624 275.456c15.658667 12.458667 27.477333 37.12 27.477334 57.429333v37.376a43.093333 43.093333 0 0 1-42.538667 43.477333H836.693333c-6.826667 0-12.373333 5.674667-12.373333 12.586667v257.962667c0 60.032-47.786667 108.885333-106.538667 108.885333H597.333333v-169.642667C597.333333 678.741333 572.8 640 512 640s-85.333333 38.741333-85.333333 86.357333V896H306.218667C247.466667 896 199.68 847.146667 199.68 787.114667v-257.962667a12.501333 12.501333 0 0 0-12.373333-12.586667H127.872c-23.466667 0-42.538667-19.498667-42.538667-43.477333v-37.376c0-20.266667 11.818667-44.970667 27.477334-57.429333l346.624-275.498667C473.6 91.562667 492.245333 85.333333 512 85.333333c19.754667 0 38.4 6.229333 52.565333 17.493334z" /></svg>