<?xml version="1.0" standalone="no"?><!DOCTYPE svg PUBLIC "-//W3C//DTD SVG 1.1//EN" "http://www.w3.org/Graphics/SVG/1.1/DTD/svg11.dtd"><svg class="icon" width="200px" height="200.00px" viewBox="0 0 1024 1024" version="1.1" xmlns="http://www.w3.org/2000/svg"><path d="M512 106.666667a64 64 0 0 1 64 64v230.485333L775.68 285.866667a64 64 0 0 1 64 110.848L640 512l199.68 115.2a64 64 0 0 1-64 110.933333L576 622.933333V853.333333a64 64 0 1 1-128 0V622.848L248.405333 738.133333a64 64 0 1 1-64-110.848L384 512 184.405333 396.8a64 64 0 0 1 64-110.933333L448 401.066667V170.666667A64 64 0 0 1 512 106.666667z" fill="currentColor" /></svg>