<?xml version="1.0" standalone="no"?><!DOCTYPE svg PUBLIC "-//W3C//DTD SVG 1.1//EN" "http://www.w3.org/Graphics/SVG/1.1/DTD/svg11.dtd"><svg class="icon" width="200px" height="200.00px" viewBox="0 0 1024 1024" version="1.1" xmlns="http://www.w3.org/2000/svg"><path fill="currentColor" d="M535.04 193.877333a108.416 108.416 0 0 0-114.858667 11.52L340.48 266.965333a24.405333 24.405333 0 0 1-12.8 3.712H237.397333a123.434667 123.434667 0 0 0-123.392 123.306667v236.288a123.52 123.52 0 0 0 123.392 123.434667h89.898667c4.821333 0 9.386667 1.28 13.482667 3.84l79.530666 61.226666a108.586667 108.586667 0 0 0 114.688 11.52 108.373333 108.373333 0 0 0 60.885334-97.92V291.882667c0-41.898667-23.296-79.488-60.885334-98.005334z m-7.125333 538.197334a40.405333 40.405333 0 0 1-23.04 36.906666 40.192 40.192 0 0 1-43.178667-4.266666l-81.408-62.72-0.853333-0.597334a93.098667 93.098667 0 0 0-52.138667-15.786666H237.397333a55.466667 55.466667 0 0 1-55.381333-55.424V393.984a55.466667 55.466667 0 0 1 55.381333-55.381333H327.68c18.432 0 36.224-5.418667 51.498667-15.701334l0.938666-0.597333 81.664-63.018667a40.192 40.192 0 0 1 43.221334-4.266666c14.378667 7.082667 22.997333 20.906667 22.997333 36.864v440.192h-0.085333zM875.946667 477.866667h-153.770667a33.962667 33.962667 0 1 0 0 68.010666h153.770667a33.962667 33.962667 0 1 0 0-68.010666z m-153.770667-70.101334a33.536 33.536 0 0 0 23.978667-9.984l108.8-108.714666a33.962667 33.962667 0 1 0-48.085334-48.085334l-108.8 108.8a33.962667 33.962667 0 0 0 24.106667 58.026667z m23.978667 218.24a33.962667 33.962667 0 1 0-48.085334 48.085334l108.8 108.8a33.962667 33.962667 0 1 0 48-48.128l-108.714666-108.8z" /></svg>