<?xml version="1.0" standalone="no"?><!DOCTYPE svg PUBLIC "-//W3C//DTD SVG 1.1//EN" "http://www.w3.org/Graphics/SVG/1.1/DTD/svg11.dtd"><svg class="icon" width="200px" height="200.00px" viewBox="0 0 1024 1024" version="1.1" xmlns="http://www.w3.org/2000/svg"><path d="M672.684973 706.919784V662.555676h-44.336432a24.077838 24.077838 0 1 1 0-48.155676h44.336432v-44.336432a24.077838 24.077838 0 0 1 48.155676 0v44.364108h44.336432l2.463135 0.138378a24.077838 24.077838 0 0 1 0 47.878919l-2.490811 0.110703h-44.281081v44.364108a24.077838 24.077838 0 0 1-48.183351 0zM254.616216 699.281297c0-63.654054 51.642811-115.269189 115.324541-115.269189h167.188757l2.49081 0.138378a24.077838 24.077838 0 0 1 0 47.878919l-2.49081 0.138379h-167.216433a67.141189 67.141189 0 0 0-67.113513 67.113513 24.077838 24.077838 0 0 1-48.155676 0z m304.072649-304.017297a67.141189 67.141189 0 1 0-134.310054 0.027676 67.141189 67.141189 0 0 0 134.310054-0.027676z m48.128 0a115.296865 115.296865 0 1 1-230.566054-0.027676 115.296865 115.296865 0 0 1 230.566054 0.027676z" fill="currentColor" /></svg>