<?xml version="1.0" standalone="no"?><!DOCTYPE svg PUBLIC "-//W3C//DTD SVG 1.1//EN" "http://www.w3.org/Graphics/SVG/1.1/DTD/svg11.dtd"><svg class="icon" width="200px" height="200.00px" viewBox="0 0 1024 1024" version="1.1" xmlns="http://www.w3.org/2000/svg"><path fill="currentColor" d="M842.922667 269.568a92.501333 92.501333 0 0 1 92.458666 92.501333v480.853334a92.501333 92.501333 0 0 1-92.458666 92.458666H140.117333a92.501333 92.501333 0 0 1-92.501333-92.458666V362.069333a92.458667 92.458667 0 0 1 92.501333-92.501333h702.805334z m-346.794667 166.442667h-9.216a23.082667 23.082667 0 0 0-23.125333 23.125333v115.626667H348.16a23.125333 23.125333 0 0 0-23.082667 23.082666v9.258667a23.04 23.04 0 0 0 23.082667 23.125333h115.626667v115.626667a23.125333 23.125333 0 0 0 23.125333 23.082667h9.216a23.125333 23.125333 0 0 0 23.125333-23.125334v-115.626666h115.626667a23.125333 23.125333 0 0 0 23.082667-23.04v-9.301334a23.04 23.04 0 0 0-23.125334-23.125333H519.253333v-115.584a23.125333 23.125333 0 0 0-23.125333-23.125333z m300.544-277.418667a27.733333 27.733333 0 1 1 0 55.466667H186.368a27.733333 27.733333 0 1 1 0-55.466667h610.304z m-110.933333-110.933333a27.733333 27.733333 0 0 1 0 55.466666H297.258667a27.733333 27.733333 0 1 1 0-55.466666h388.394666z" /></svg>