<?xml version="1.0" standalone="no"?><!DOCTYPE svg PUBLIC "-//W3C//DTD SVG 1.1//EN" "http://www.w3.org/Graphics/SVG/1.1/DTD/svg11.dtd"><svg class="icon" width="200px" height="200.00px" viewBox="0 0 1024 1024" version="1.1" xmlns="http://www.w3.org/2000/svg"><path d="M436.650667 963.626667v-298.666667h-85.333334v-256c0-23.466667 8.362667-43.52 25.045334-60.288a82.176 82.176 0 0 1 60.288-25.045333h170.666666c23.466667 0 43.52 8.362667 60.245334 25.045333 16.725333 16.725333 25.088 36.821333 25.088 60.288v256h-85.333334v298.666667h-170.666666m85.333333-682.666667c-23.466667 0-43.52-8.362667-60.288-25.088a82.176 82.176 0 0 1-25.045333-60.245333c0-23.466667 8.362667-43.52 25.045333-60.288a82.176 82.176 0 0 1 60.288-25.045334c23.466667 0 43.52 8.362667 60.245333 25.045334 16.725333 16.725333 25.088 36.821333 25.088 60.288s-8.362667 43.52-25.088 60.245333a82.176 82.176 0 0 1-60.245333 25.088" fill="none" stroke="currentColor" stroke-width="1.5" stroke-linecap="round" stroke-linejoin="round" /></svg>