<?xml version="1.0" standalone="no"?><!DOCTYPE svg PUBLIC "-//W3C//DTD SVG 1.1//EN" "http://www.w3.org/Graphics/SVG/1.1/DTD/svg11.dtd"><svg class="icon" width="200px" height="200.00px" viewBox="0 0 1024 1024" version="1.1" xmlns="http://www.w3.org/2000/svg"><path fill="currentColor" d="M256 81.066667a21.333333 21.333333 0 0 1 21.333333 21.333333v767.701333l117.205334-117.205333a21.333333 21.333333 0 0 1 30.165333 30.165333l-153.6 153.6a21.333333 21.333333 0 0 1-30.165333 0l-153.6-153.6a21.333333 21.333333 0 0 1 30.165333-30.165333L234.666667 870.101333V102.4a21.333333 21.333333 0 0 1 21.333333-21.333333z m512 0a21.333333 21.333333 0 0 1 15.104 6.229333l153.6 153.6a21.333333 21.333333 0 1 1-30.165333 30.165333L789.333333 153.898667V921.6a21.333333 21.333333 0 0 1-42.666666 0V153.898667l-117.162667 117.162666a21.333333 21.333333 0 1 1-30.165333-30.165333l153.6-153.6A21.333333 21.333333 0 0 1 768 81.066667z" /></svg>