<?xml version="1.0" standalone="no"?><!DOCTYPE svg PUBLIC "-//W3C//DTD SVG 1.1//EN" "http://www.w3.org/Graphics/SVG/1.1/DTD/svg11.dtd"><svg class="icon" width="200px" height="200.00px" viewBox="0 0 1024 1024" version="1.1" xmlns="http://www.w3.org/2000/svg"><path fill="currentColor" d="M768 448v195.669333a42.666667 42.666667 0 0 0 12.501333 30.165334l64 64a30.165333 30.165333 0 0 1-21.333333 51.498666H200.832a30.165333 30.165333 0 0 1-21.333333-51.498666l64-64A42.666667 42.666667 0 0 0 256 643.669333V448c0-121.130667 59.050667-223.36 164.181333-261.376 16-5.802667 27.818667-20.266667 27.818667-37.290667 0-35.413333 28.586667-64 64-64s64 28.586667 64 64c0 17.024 11.818667 31.530667 27.818667 37.333334C708.608 224.725333 768 327.253333 768 448z m-213.333333 384c23.552 0 43.52 20.266667 32.170666 40.874667a85.205333 85.205333 0 1 1-149.76 0c-11.306667-20.608 8.704-40.874667 32.256-40.874667h85.333334z" /></svg>