<?xml version="1.0" standalone="no"?><!DOCTYPE svg PUBLIC "-//W3C//DTD SVG 1.1//EN" "http://www.w3.org/Graphics/SVG/1.1/DTD/svg11.dtd"><svg class="icon" width="200px" height="200.00px" viewBox="0 0 1024 1024" version="1.1" xmlns="http://www.w3.org/2000/svg"><path d="M512 332.8a51.2 51.2 0 0 0 51.2-51.2c0-9.728-2.56-18.705067-7.441067-26.350933L512 179.2l-43.793067 76.049067a48.7424 48.7424 0 0 0-7.406933 26.350933c0 28.16 23.04 51.2 51.2 51.2z m117.76 255.726933l-27.374933-27.374933-27.648 27.374933c-33.314133 33.314133-91.682133 33.553067-125.201067 0l-27.409067-27.374933-27.886933 27.374933A87.927467 87.927467 0 0 1 331.776 614.4c-18.705067 0-35.84-5.870933-50.176-15.598933V716.8c0 14.097067 11.537067 25.6 25.6 25.6h409.6c14.097067 0 25.6-11.502933 25.6-25.6v-117.998933c-14.336 9.728-31.470933 15.598933-50.176 15.598933-23.552 0-45.841067-9.216-62.464-25.873067zM537.6 409.6h128a76.322133 76.322133 0 0 1 76.526933 76.8v39.424c0 27.648-22.528 50.176-50.176 50.176-13.312 0-25.838933-5.12-35.293866-14.574933L602.112 506.88l-54.784 54.545067c-18.944 18.944-51.985067 18.944-70.929067 0L421.888 506.88l-54.784 54.545067a49.152 49.152 0 0 1-35.328 14.574933c-27.648 0-50.176-22.528-50.176-50.176V486.4A76.6976 76.6976 0 0 1 358.4 409.6h128v-51.2h51.2V409.6z" fill="currentColor" /></svg>