<?xml version="1.0" standalone="no"?><!DOCTYPE svg PUBLIC "-//W3C//DTD SVG 1.1//EN" "http://www.w3.org/Graphics/SVG/1.1/DTD/svg11.dtd"><svg class="icon" width="200px" height="200.00px" viewBox="0 0 1024 1024" version="1.1" xmlns="http://www.w3.org/2000/svg"><path d="M515.072 153.6m-153.6 0a153.6 153.6 0 1 0 307.2 0 153.6 153.6 0 1 0-307.2 0Z" fill="currentColor" /><path d="M773.632 338.944H250.368a46.08 46.08 0 0 0-45.568 46.592v325.632a46.08 46.08 0 0 0 45.568 46.592h102.4v219.648a46.08 46.08 0 0 0 45.568 46.592h228.864a46.08 46.08 0 0 0 45.568-46.592V757.76h102.4a46.08 46.08 0 0 0 45.568-46.592V385.536a46.08 46.08 0 0 0-47.104-46.592z" fill="currentColor" /></svg>