<?xml version="1.0" standalone="no"?><!DOCTYPE svg PUBLIC "-//W3C//DTD SVG 1.1//EN" "http://www.w3.org/Graphics/SVG/1.1/DTD/svg11.dtd"><svg class="icon" width="200px" height="200.00px" viewBox="0 0 1024 1024" version="1.1" xmlns="http://www.w3.org/2000/svg"><path fill="currentColor" d="M943.530667 504.704c-29.226667-29.269333-65.834667-43.904-109.696-43.904h-21.930667v-14.634667c0-14.634667-14.634667-29.269333-29.269333-29.269333H146.304c-14.634667 0-29.269333 14.634667-29.269333 29.269333v226.730667c0 80.469333 29.269333 160.938667 87.765333 212.138667 7.296 7.296 21.930667 14.634667 29.269333 21.930666H146.304c-14.634667 0-29.269333 14.634667-29.269333 29.269334s14.634667 29.269333 29.269333 29.269333H775.253333c14.634667 0 29.269333-14.634667 29.269334-29.269333s-14.634667-29.269333-29.269334-29.269334h-80.426666c7.296-7.296 21.930667-14.634667 29.226666-21.930666 29.269333-29.269333 58.538667-73.130667 73.173334-117.034667h43.861333c43.904 0 80.469333-14.634667 109.738667-43.904 29.226667-29.226667 43.861333-65.792 43.861333-109.653333-7.296-36.608-21.930667-80.512-51.2-109.738667z m-270.634667 336.426667c-43.861333 43.904-102.4 73.173333-168.192 73.173333H416.853333c-65.792 0-124.330667-21.973333-168.192-73.173333-43.904-43.861333-73.173333-102.4-73.173333-168.192v-197.546667h570.538667V665.6c0 73.130667-29.269333 131.669333-73.173334 175.530667z m256-226.730667c0 21.930667-7.296 51.2-29.226667 65.834667-14.634667 14.634667-43.904 29.269333-65.834666 29.269333h-29.269334v-182.869333h21.930667c21.973333 0 51.2 7.296 65.834667 29.269333 21.973333 14.592 36.565333 36.565333 36.565333 58.496zM285.269333 343.765333c14.634667-7.296 21.930667-29.269333 14.634667-43.861333C292.565333 285.269333 292.565333 256 307.2 241.365333c29.269333-36.565333 29.269333-87.765333 14.634667-131.669333-14.634667-14.592-29.269333-21.930667-43.904-14.592C256 102.4 256 124.330667 263.296 138.965333c7.338667 21.930667 7.338667 43.904-7.296 58.538667-29.269333 43.861333-36.565333 87.765333-14.634667 131.626667 7.338667 14.634667 29.269333 21.973333 43.904 14.634666z m365.696 0c14.634667-7.296 21.930667-29.269333 7.338667-43.861333-7.338667-14.634667-7.338667-43.904 7.296-58.538667 29.269333-36.565333 29.269333-87.765333 14.634667-131.669333-7.338667-14.592-29.269333-21.930667-43.904-14.592-14.634667 7.296-21.930667 29.226667-14.634667 43.861333 7.338667 21.930667 7.338667 43.904-7.296 58.538667-29.269333 43.861333-29.269333 87.765333-7.296 131.626667 7.296 14.634667 21.930667 21.973333 43.861333 14.634666zM468.096 299.946667c14.634667-7.338667 21.973333-29.269333 14.634667-43.904-14.634667-21.930667-7.296-43.904 7.338666-58.496 21.930667-36.608 29.226667-87.808 7.296-131.669334-7.296-14.634667-29.269333-21.930667-43.861333-14.634666-14.634667 7.296-21.973333 29.269333-14.634667 43.904 14.634667 21.930667 7.296 43.861333 0 58.496-29.269333 43.904-36.565333 87.765333-14.634666 131.669333 7.296 14.634667 29.269333 21.930667 43.861333 14.634667z" /></svg>