<?xml version="1.0" standalone="no"?><!DOCTYPE svg PUBLIC "-//W3C//DTD SVG 1.1//EN" "http://www.w3.org/Graphics/SVG/1.1/DTD/svg11.dtd"><svg class="icon" width="200px" height="200.00px" viewBox="0 0 1024 1024" version="1.1" xmlns="http://www.w3.org/2000/svg"><path fill="currentColor" d="M524.8 302.848a83.541333 83.541333 0 0 0 83.626667-83.541333c0-15.872-4.181333-30.506667-12.117334-43.093334L524.8 52.181333l-71.466667 124.117334a79.530667 79.530667 0 0 0-12.117333 43.050666c0 45.952 37.632 83.541333 83.584 83.541334z m192.256 417.493333l-44.714667-44.714666-45.141333 44.672c-54.314667 54.357333-149.589333 54.784-204.330667 0l-44.714666-44.672-45.525334 44.672a143.530667 143.530667 0 0 1-101.973333 42.24 145.194667 145.194667 0 0 1-81.92-25.514667v192.64c0 22.997333 18.816 41.813333 41.813333 41.813333h668.586667c22.954667 0 41.813333-18.816 41.813333-41.813333v-192.64a145.194667 145.194667 0 0 1-81.92 25.514667 143.530667 143.530667 0 0 1-101.973333-42.24z m-150.442667-292.096h208.938667a124.586667 124.586667 0 0 1 124.928 125.354667v64.341333c0 45.141333-36.736 81.92-81.92 81.92-21.674667 0-42.154667-8.362667-57.6-23.808l-89.045333-89.045333-89.429334 89.045333c-30.890667 30.890667-84.821333 30.890667-115.754666 0l-89.002667-89.045333-89.429333 89.045333a80.213333 80.213333 0 0 1-57.642667 23.808 82.048 82.048 0 0 1-81.92-81.92v-64.341333a125.184 125.184 0 0 1 125.354667-125.354667h208.938666V344.661333h83.626667v83.584z" /></svg>