<?xml version="1.0" standalone="no"?><!DOCTYPE svg PUBLIC "-//W3C//DTD SVG 1.1//EN" "http://www.w3.org/Graphics/SVG/1.1/DTD/svg11.dtd"><svg class="icon" width="200px" height="200.00px" viewBox="0 0 1024 1024" version="1.1" xmlns="http://www.w3.org/2000/svg"><path fill="currentColor" d="M512 209.454545c37.236364 0 69.818182-32.581818 69.818182-69.818181 0-13.963636-4.654545-23.272727-9.309091-37.236364L512 0l-60.509091 102.4c-4.654545 9.309091-9.309091 23.272727-9.309091 37.236364 0 37.236364 32.581818 69.818182 69.818182 69.818181z m302.545455 116.363637H558.545455v-69.818182h-93.09091v69.818182H209.454545C93.090909 325.818182 0 418.909091 0 535.272727c0 74.472727 37.236364 134.981818 93.090909 172.218182V1024h837.818182V707.490909c55.854545-37.234538 93.090909-102.4 93.090909-172.218182 0-116.363636-93.090909-209.454545-209.454545-209.454545z m0 325.818182c-32.581818 0-60.509091-13.963636-83.781819-32.581819L660.945455 549.236364l-69.818182 69.818181c-18.618182 18.618182-46.545455 32.581818-79.127273 32.581819s-60.509091-13.963636-83.781818-32.581819l-69.818182-69.818181-69.818182 69.818181c-18.618182 18.618182-46.545455 32.581818-79.127273 32.581819C144.290909 651.636364 93.090909 600.436364 93.090909 535.272727s51.2-116.363636 116.363636-116.363636h605.09091c65.163636 0 116.363636 51.2 116.363636 116.363636S879.709091 651.636364 814.545455 651.636364z" /></svg>