<?xml version="1.0" standalone="no"?><!DOCTYPE svg PUBLIC "-//W3C//DTD SVG 1.1//EN" "http://www.w3.org/Graphics/SVG/1.1/DTD/svg11.dtd"><svg class="icon" width="200px" height="200.00px" viewBox="0 0 1024 1024" version="1.1" xmlns="http://www.w3.org/2000/svg"><path fill="currentColor" d="M872.192 251.648l-131.2 131.157333C597.461333 239.274667 396.586667 191.146667 216.362667 250.752c181.162667-180.650667 474.666667-180.224 655.786666 0.896z m-262.485333 328.32l-65.578667 65.578667 295.466667 295.253333 65.450666-65.408-295.338666-295.424zM215.04 252.117333C34.304 433.237333 34.773333 726.698667 215.893333 907.818667l131.157334-131.157334C203.52 633.173333 155.392 432.341333 215.04 252.16z m0.426667-0.426666l0.469333-0.512c138.069333-17.408 315.989333 53.674667 459.52 197.205333l-262.784 262.698667C269.098667 567.125333 198.016 389.674667 215.466667 251.648z" /></svg>