<?xml version="1.0" standalone="no"?><!DOCTYPE svg PUBLIC "-//W3C//DTD SVG 1.1//EN" "http://www.w3.org/Graphics/SVG/1.1/DTD/svg11.dtd"><svg class="icon" width="200px" height="200.00px" viewBox="0 0 1024 1024" version="1.1" xmlns="http://www.w3.org/2000/svg"><path fill="currentColor" d="M479.573333 93.909333c-0.341333-20.266667-0.469333-40.533333 0.512-60.8a32.085333 32.085333 0 0 1 32.938667-29.909333 32.298667 32.298667 0 0 1 30.976 30.933333c0.298667 19.925333 0.810667 39.893333 0.64 59.818667 21.76 1.92 43.306667 5.717333 64.384 11.562667 63.274667 17.621333 122.154667 53.504 163.029333 105.344 9.813333 12.416 18.474667 25.642667 25.856 39.637333 8.362667 15.829333 15.018667 32.554667 19.669334 49.834667 4.138667 15.274667 6.698667 30.976 7.637333 46.805333 0.682667 11.349333 0.469333 22.784-0.256 34.176-1.152 18.090667-4.181333 35.968-6.314667 53.930667-0.426667 3.968-0.768 7.893333-1.109333 11.818666-0.938667 14.976-0.469333 29.866667 1.664 44.757334 1.066667 7.210667 2.346667 14.421333 4.437333 21.418666 3.498667 11.733333 8.746667 22.912 14.634667 33.621334 7.424 13.397333 16.042667 26.154667 25.130667 38.485333 27.392 37.12 59.349333 70.442667 89.685333 105.088 4.565333 5.290667 9.088 10.624 13.482667 16.085333 9.130667 11.605333 17.28 24.149333 22.912 37.888 3.114667 7.552 5.248 15.530667 5.632 23.68 0.384 7.168-0.597333 14.293333-2.389334 21.205334-1.834667 7.253333-4.565333 14.250667-8.149333 20.821333a105.813333 105.813333 0 0 1-26.752 30.976 206.762667 206.762667 0 0 1-49.493333 28.714667c-7.978667 3.413333-16.128 6.485333-24.362667 9.344-11.434667 3.925333-23.04 7.338667-34.730667 10.410666-15.872 4.096-31.872 7.637333-48 10.581334-42.112 7.850667-84.821333 12.544-127.530666 15.701333-15.146667 1.109333-30.293333 2.005333-45.482667 2.730667a115.072 115.072 0 0 1-12.074667 39.978666 116.650667 116.650667 0 0 1-193.578666 21.973334 118.186667 118.186667 0 0 1-23.125334-43.264 120.490667 120.490667 0 0 1-3.669333-18.688 1779.2 1779.2 0 0 1-45.482667-2.730667c-42.752-2.858667-85.333333-8.106667-127.530666-15.701333-16.128-2.986667-32.128-6.485333-48-10.581334a492.032 492.032 0 0 1-34.730667-10.410666 370.816 370.816 0 0 1-24.362667-9.344 206.848 206.848 0 0 1-49.493333-28.714667 105.813333 105.813333 0 0 1-26.752-30.976 89.856 89.856 0 0 1-8.149333-20.821333 69.674667 69.674667 0 0 1-2.389334-21.205334c0.384-8.149333 2.517333-16.128 5.632-23.68 4.096-10.069333 9.685333-19.712 15.914667-28.586666 7.722667-11.008 16.725333-21.162667 25.6-31.274667 13.781333-15.573333 27.818667-30.933333 41.557333-46.549333 6.357333-7.296 6.357333-7.296 12.629334-14.634667 16.469333-19.584 32.597333-39.552 46.336-61.184 9.728-15.274667 18.602667-31.488 23.808-48.938667 2.090667-6.997333 3.370667-14.208 4.437333-21.418666 2.730667-18.773333 2.901333-37.76 0.554667-56.576-1.450667-11.989333-3.242667-23.936-4.693334-35.968a327.253333 327.253333 0 0 1-2.176-45.269334c0.426667-14.762667 2.261333-29.482667 5.504-43.861333 3.925333-17.493333 9.856-34.517333 17.578667-50.645333 6.784-14.208 14.933333-27.776 24.192-40.490667 39.424-54.101333 98.218667-92.16 161.92-111.36a358.954667 358.954667 0 0 1 71.893333-13.738667z m83.114667 826.794667c-33.792 0.597333-67.584 0.597333-101.376 0 3.626667 11.605333 11.093333 21.674667 21.12 28.501333 13.525333 9.173333 31.061333 11.52 46.549333 6.272a53.504 53.504 0 0 0 33.706667-34.773333zM512 156.458667a295.338667 295.338667 0 0 0-79.872 10.709333 280.362667 280.362667 0 0 0-26.154667 8.704c-53.290667 20.650667-101.717333 58.88-126.677333 111.189333a170.666667 170.666667 0 0 0-16.469333 61.354667c-0.64 9.557333-0.597333 19.2 0.085333 28.757333 1.066667 17.066667 4.010667 33.92 6.016 50.901334a282.026667 282.026667 0 0 1-0.810667 72.917333 214.144 214.144 0 0 1-6.442666 30.592c-9.002667 30.037333-25.258667 57.514667-43.264 82.986667-29.653333 42.026667-65.365333 79.232-99.2 117.802666a727.893333 727.893333 0 0 0-11.733334 14.037334c-3.968 5.034667-7.509333 10.24-10.581333 15.829333a39.424 39.424 0 0 0-4.053333 9.088 24.064 24.064 0 0 0 1.237333 4.565333c2.432 6.826667 7.850667 11.946667 13.482667 16.341334 11.349333 8.917333 24.661333 15.274667 37.930666 20.650666 12.714667 5.12 25.770667 9.429333 38.997334 13.013334 9.002667 2.474667 18.090667 4.693333 27.221333 6.698666 12.928 2.858667 25.898667 5.290667 38.954667 7.466667 38.144 6.058667 76.544 10.325333 115.072 12.672 48.682667 3.285333 97.493333 4.394667 146.261333 4.394667a2269.013333 2269.013333 0 0 0 135.338667-3.669334c33.450667-1.92 66.816-5.12 100.053333-9.514666 14.08-1.92 28.16-4.138667 42.154667-6.741334 10.026667-1.834667 19.968-3.925333 29.866666-6.229333 8.874667-2.048 17.664-4.352 26.368-6.869333 12.714667-3.584 25.173333-7.936 37.333334-13.141334 11.306667-4.821333 22.442667-10.453333 32.256-17.877333 4.949333-3.754667 10.026667-8.192 13.098666-13.696a30.634667 30.634667 0 0 0 2.346667-6.357333c0.085333-0.426667 0.469333-1.28 0.341333-1.706667-1.152-4.522667-3.754667-8.746667-6.101333-12.714667-5.717333-9.514667-13.013333-17.877333-20.266667-26.24-15.317333-17.578667-31.104-34.730667-46.506666-52.181333-6.698667-7.68-6.698667-7.68-13.312-15.402667-19.498667-23.210667-38.485333-46.976-54.4-72.832a263.552 263.552 0 0 1-26.496-54.869333 230.656 230.656 0 0 1-10.325334-55.125333 275.669333 275.669333 0 0 1 0.341334-44.416c1.450667-16.469333 4.266667-32.768 6.058666-49.194667 1.28-11.605333 1.749333-23.296 1.322667-34.944a172.117333 172.117333 0 0 0-17.877333-68.565333 193.834667 193.834667 0 0 0-18.602667-30.208C691.2 209.493333 640 179.370667 585.856 165.589333A302.08 302.08 0 0 0 512 156.458667z" /></svg>