<?xml version="1.0" standalone="no"?><!DOCTYPE svg PUBLIC "-//W3C//DTD SVG 1.1//EN" "http://www.w3.org/Graphics/SVG/1.1/DTD/svg11.dtd"><svg class="icon" width="200px" height="200.00px" viewBox="0 0 1024 1024" version="1.1" xmlns="http://www.w3.org/2000/svg"><path fill="currentColor" d="M615.68 802.986667c-8.106667 0-16.213333-2.986667-22.613333-9.386667a32.170667 32.170667 0 0 1 0-45.226667L829.44 512 593.066667 275.626667a32.170667 32.170667 0 0 1 0-45.226667c12.373333-12.373333 32.853333-12.373333 45.226666 0l258.986667 258.986667c12.373333 12.373333 12.373333 32.853333 0 45.226666l-258.986667 258.986667c-6.4 6.4-14.506667 9.386667-22.613333 9.386667zM867.413333 544H149.333333c-17.493333 0-32-14.506667-32-32s14.506667-32 32-32h718.08c17.493333 0 32 14.506667 32 32s-14.506667 32-32 32z" /></svg>