<?xml version="1.0" standalone="no"?><!DOCTYPE svg PUBLIC "-//W3C//DTD SVG 1.1//EN" "http://www.w3.org/Graphics/SVG/1.1/DTD/svg11.dtd"><svg class="icon" width="200px" height="200.00px" viewBox="0 0 1024 1024" version="1.1" xmlns="http://www.w3.org/2000/svg"><path fill="currentColor" d="M512 384H0.2C5.4 235.8 82.6 105.8 198 28.2c26.6-17.8 61.6-8.6 79.8 17.6L512 384z m256-64c0-70.6 57.4-128 128-128h64c35.4 0 64 28.6 64 64s-28.6 64-64 64h-64v128c0 50.4-11.6 100.4-34 147s-55.6 89-97.2 124.6-91 64-145.4 83.2S506.8 832 448 832s-117-10-171.4-29.2-103.8-47.6-145.4-83.2-74.6-78-97.2-124.6S0 498.4 0 448h768v-128zM160 832a96 96 0 1 1 0 192 96 96 0 1 1 0-192z m480 96a96 96 0 1 1 192 0 96 96 0 1 1-192 0z" /></svg>