<?xml version="1.0" standalone="no"?><!DOCTYPE svg PUBLIC "-//W3C//DTD SVG 1.1//EN" "http://www.w3.org/Graphics/SVG/1.1/DTD/svg11.dtd"><svg class="icon" width="200px" height="200.00px" viewBox="0 0 1024 1024" version="1.1" xmlns="http://www.w3.org/2000/svg"><path d="M623.311568 582.489946a87.012324 87.012324 0 0 0 61.799783 25.6c18.487351 0 35.480216-5.811892 49.677838-15.470703v116.819027a25.40627 25.40627 0 0 1-25.350919 25.323244H304.044973a25.40627 25.40627 0 0 1-25.323243-25.323244v-116.791351a88.008649 88.008649 0 0 0 49.622486 15.443027c23.330595 0 45.388108-9.132973 61.855135-25.6l27.620325-27.122162 27.122162 27.122162c33.183135 33.210811 90.94227 32.934054 123.876324 0l27.398919-27.122162 27.094487 27.122162z m-91.219027-227.770811v50.646487h126.671567a75.554595 75.554595 0 0 1 75.748324 76.052756v39.022703c0 27.343568-22.278919 49.650162-49.650162 49.650162-13.173622 0-25.6-5.092324-34.954378-14.474378l-53.967568-53.939892-54.244324 53.967568c-18.736432 18.736432-51.421405 18.736432-70.185514 0l-53.967567-53.967568-54.216649 53.967568c-9.132973 9.354378-21.780757 14.446703-34.982054 14.446702a49.760865 49.760865 0 0 1-49.622486-49.677838v-39.022702a75.914378 75.914378 0 0 1 75.997405-75.997406h126.699243v-50.674162h50.646487z m17.989189-102.123243a50.646486 50.646486 0 1 1-93.986595 26.098162c-0.027676-9.603459 2.490811-18.487351 7.306379-26.098162L506.741622 177.401081l43.312432 75.222487z" fill="currentColor" /></svg> 