<?xml version="1.0" standalone="no"?><!DOCTYPE svg PUBLIC "-//W3C//DTD SVG 1.1//EN" "http://www.w3.org/Graphics/SVG/1.1/DTD/svg11.dtd"><svg class="icon" width="200px" height="200.00px" viewBox="0 0 1024 1024" version="1.1" xmlns="http://www.w3.org/2000/svg"><path fill="currentColor" d="M246.229333 42.666667a21.333333 21.333333 0 0 1 21.333334 21.333333v55.466667H746.666667V64a21.333333 21.333333 0 1 1 42.666666 0v55.466667h4.266667a149.333333 149.333333 0 0 1 149.333333 149.333333v563.2a149.333333 149.333333 0 0 1-149.333333 149.333333H230.4a149.333333 149.333333 0 0 1-149.333333-149.333333V268.8a149.333333 149.333333 0 0 1 143.829333-149.248V64a21.333333 21.333333 0 0 1 21.333333-21.333333z m-0.64 119.466666H230.4a106.666667 106.666667 0 0 0-106.666667 106.666667v563.2A106.666667 106.666667 0 0 0 230.4 938.666667h563.2a106.666667 106.666667 0 0 0 106.666667-106.666667V268.8a106.666667 106.666667 0 0 0-106.666667-106.666667H246.869333a21.205333 21.205333 0 0 1-1.28 0z m11.008 157.866667a21.333333 21.333333 0 0 1 21.333334-21.333333H742.4a21.333333 21.333333 0 0 1 0 42.666666H277.930667a21.333333 21.333333 0 0 1-21.333334-21.333333z" /></svg>