<?xml version="1.0" standalone="no"?><!DOCTYPE svg PUBLIC "-//W3C//DTD SVG 1.1//EN" "http://www.w3.org/Graphics/SVG/1.1/DTD/svg11.dtd"><svg class="icon" width="200px" height="56.67px" viewBox="0 0 3614 1024" version="1.1" xmlns="http://www.w3.org/2000/svg"><path fill="currentColor" d="M60.240113 224.557176V301.176471c17.709176-16.865882 37.345882-31.382588 58.789647-43.730824V224.858353c0-83.696941 60.777412-155.467294 140.679529-161.520941 89.118118-6.746353 163.388235 66.740706 163.388236 158.388706v35.267764c21.504 12.348235 41.140706 26.864941 58.789647 43.760942V220.220235C481.887172 93.123765 378.884819-8.764235 255.312113 0.602353 144.569525 9.005176 60.240113 108.544 60.240113 224.557176zM453.576584 612.592941a178.657882 178.657882 0 0 1-38.520471 56.259765 179.591529 179.591529 0 0 1-57.976471 37.918118 189.560471 189.560471 0 0 1-73.246117 13.854117 187.452235 187.452235 0 0 1-72.493177-13.854117 183.717647 183.717647 0 0 1-58.368-37.918118 175.375059 175.375059 0 0 1-38.912-56.289882 170.345412 170.345412 0 0 1-14.125176-69.059765c0-24.515765 4.698353-47.525647 14.155294-69.059765a175.525647 175.525647 0 0 1 38.881882-56.32 184.079059 184.079059 0 0 1 58.368-37.888 187.843765 187.843765 0 0 1 72.493177-13.854118c26.443294 0 50.868706 4.608 73.246117 13.854118a179.952941 179.952941 0 0 1 57.976471 37.918118c16.263529 16.022588 29.123765 34.785882 38.550588 56.32 9.396706 21.504 14.095059 44.513882 14.095059 69.029647 0 24.515765-4.698353 47.555765-14.095059 69.059765m30.900706-258.198589A287.262118 287.262118 0 0 0 394.847172 297.261176C360.513054 283.286588 323.498466 276.269176 283.833525 276.269176c-39.664941 0-76.679529 7.017412-111.013647 21.022118a291.689412 291.689412 0 0 0-90.051765 57.072941A264.161882 264.161882 0 0 0 22.171407 439.175529 249.584941 249.584941 0 0 0 0.004819 543.503059c0 37.044706 7.378824 71.830588 22.13647 104.327529a264.131765 264.131765 0 0 0 60.656942 84.841412 291.418353 291.418353 0 0 0 90.021647 57.042824c34.334118 14.004706 71.348706 21.022118 111.013647 21.022117 39.664941 0 76.679529-7.017412 111.013647-21.022117a286.991059 286.991059 0 0 0 89.660235-57.042824 267.384471 267.384471 0 0 0 60.235294-84.841412c14.757647-32.527059 22.166588-67.282824 22.166588-104.327529s-7.378824-71.800471-22.13647-104.32753a267.444706 267.444706 0 0 0-60.265412-84.811294M975.846701 665.389176A106.014118 106.014118 0 0 1 952.324819 699.934118c-10.149647 9.938824-21.865412 17.679059-35.147294 23.280941-13.342118 5.632-27.708235 8.432941-43.158589 8.432941s-29.816471-2.800941-43.12847-8.432941a107.188706 107.188706 0 0 1-34.755765-23.280941 114.537412 114.537412 0 0 1-23.582117-34.544942 100.020706 100.020706 0 0 1-8.794353-41.351529c0-14.968471 2.921412-29.033412 8.794353-42.164706 5.872941-13.101176 13.703529-24.606118 23.582117-34.544941A107.309176 107.309176 0 0 1 830.860348 524.047059c13.281882-5.632 27.678118-8.432941 43.128471-8.432941 15.450353 0 29.816471 2.800941 43.158588 8.432941 13.281882 5.601882 24.997647 13.372235 35.147294 23.280941a106.315294 106.315294 0 0 1 31.924706 76.709647c0 14.456471-2.770824 28.250353-8.372706 41.351529m43.158588-181.910588A204.167529 204.167529 0 0 0 954.673995 440.530824a197.571765 197.571765 0 0 0-78.305882-15.661177c-43.128471 0-80.956235 11.504941-113.423059 34.514824 0 0-37.135059 22.618353-66.16847 66.379294C667.201054 570.368 667.110701 622.441412 667.110701 622.441412V975.811765c0 26.624 21.443765 48.188235 47.917177 48.188235 26.503529 0 47.947294-21.564235 47.947294-48.188235v-185.524706c33.008941 21.413647 70.023529 32.135529 111.043764 32.135529 28.762353 0 55.536941-5.240471 80.293648-15.661176a206.366118 206.366118 0 0 0 64.722823-42.586353 200.553412 200.553412 0 0 0 43.52-63.036235c10.661647-24.094118 15.962353-49.784471 15.962353-77.101177s-5.300706-53.007059-15.962353-77.101176a205.402353 205.402353 0 0 0-43.52-63.457883M1719.933289 506.217412c-17.829647-16.835765-38.671059-30.117647-62.614588-39.845647A201.185882 201.185882 0 0 0 1580.78976 451.764706c-27.105882 0-52.495059 4.879059-76.167529 14.607059a200.975059 200.975059 0 0 0-62.192942 39.845647A182.332235 182.332235 0 0 0 1385.416584 639.638588v157.093647c0 25.720471 21.082353 46.561882 47.043764 46.561883 25.991529 0 47.043765-20.841412 47.043765-46.561883v-157.093647c0-13.161412 2.650353-25.660235 7.981176-37.49647 5.300706-11.836235 12.498824-22.226824 21.534118-31.171765a96.075294 96.075294 0 0 1 32.286118-20.931765 105.321412 105.321412 0 0 1 39.454117-7.499294 102.008471 102.008471 0 0 1 72.161883 28.431059 99.388235 99.388235 0 0 1 21.955764 31.171765c5.300706 11.836235 7.981176 24.335059 7.981177 37.49647v157.093647c0 25.720471 21.052235 46.561882 47.043765 46.561883C1755.863642 843.294118 1776.945995 822.452706 1776.945995 796.732235v-157.093647c0-26.322824-5.059765-50.898824-15.149176-73.788235a182.874353 182.874353 0 0 0-41.86353-59.632941M2221.81376 744.899765a232.809412 232.809412 0 0 1-9.125647 2.800941c-10.450824 3.011765-23.642353 5.842824-39.574588 8.372706-15.962353 2.529882-34.364235 3.794824-55.265883 3.794823a221.394824 221.394824 0 0 1-87.431529-17.136941 224.527059 224.527059 0 0 1-70.565647-46.802823 213.172706 213.172706 0 0 1-47.013647-69.300706 213.323294 213.323294 0 0 1-16.865883-84.510118c0-29.936941 5.632-58.127059 16.865883-84.510118a213.323294 213.323294 0 0 1 47.013647-69.270588 224.527059 224.527059 0 0 1 70.565647-46.863059 221.394824 221.394824 0 0 1 87.431529-17.106823c16.715294 0 31.864471 0.903529 45.477647 2.650353 13.552941 1.807059 25.057882 3.915294 34.454589 6.475294 2.349176 0.542118 4.638118 1.084235 6.836706 1.65647a28.310588 28.310588 0 0 0 32.527058-15.119058 26.925176 26.925176 0 0 0-17.468235-37.345883l-0.722823-0.210823a498.477176 498.477176 0 0 0-40.749177-7.619765A410.624 410.624 0 0 0 2117.847642 271.058824a282.473412 282.473412 0 0 0-109.387294 21.323294 285.364706 285.364706 0 0 0-89.359059 57.856 269.462588 269.462588 0 0 0-59.964235 86.046117A258.108235 258.108235 0 0 0 1837.181289 542.117647c0 37.556706 7.318588 72.854588 21.955765 105.833412a269.432471 269.432471 0 0 0 59.964235 86.046117 285.123765 285.123765 0 0 0 89.359059 57.825883A282.202353 282.202353 0 0 0 2117.87776 813.176471c26.112 0 48.459294-1.415529 67.011765-4.216471a296.207059 296.207059 0 0 0 46.652235-10.24l8.794353-2.710588a26.714353 26.714353 0 0 0 15.872-37.014588 28.250353 28.250353 0 0 0-34.334118-14.095059M2645.719642 702.915765a137.246118 137.246118 0 0 1-30.479058 44.845176c-13.010824 12.739765-28.129882 22.889412-45.327059 30.418824-17.167059 7.529412-35.689412 11.294118-55.476706 11.294117a136.463059 136.463059 0 0 1-55.476706-11.294117 145.347765 145.347765 0 0 1-44.935529-30.418824 145.016471 145.016471 0 0 1-30.479059-44.875294 135.740235 135.740235 0 0 1-11.354353-55.356235c0-19.757176 3.794824-38.219294 11.354353-55.386353 7.529412-17.167059 17.709176-32.225882 30.479059-45.236706a137.517176 137.517176 0 0 1 44.935529-30.418824 140.950588 140.950588 0 0 1 55.476706-10.902588 140.950588 140.950588 0 0 1 100.803765 41.321412 140.077176 140.077176 0 0 1 41.411764 100.592941 140.047059 140.047059 0 0 1-10.932706 55.416471m7.04753-194.228706a196.547765 196.547765 0 0 0-62.132706-41.712941 191.759059 191.759059 0 0 0-76.197647-15.209412c-27.105882 0-52.495059 5.059765-76.197647 15.209412a196.126118 196.126118 0 0 0-62.132706 41.712941 194.861176 194.861176 0 0 0-41.803294 62.403765A193.656471 193.656471 0 0 0 2319.063642 647.529412c0 27.045647 5.089882 52.404706 15.23953 76.047059 10.149647 23.672471 24.094118 44.333176 41.803294 62.012235a201.487059 201.487059 0 0 0 62.132706 42.10447c23.702588 10.420706 49.091765 15.600941 76.197647 15.600942 27.105882 0 52.495059-5.180235 76.197647-15.600942a201.968941 201.968941 0 0 0 62.132706-42.10447 201.456941 201.456941 0 0 0 42.194823-62.042353A186.608941 186.608941 0 0 0 2710.593054 647.529412a189.44 189.44 0 0 0-15.631059-76.438588 200.583529 200.583529 0 0 0-42.164706-62.403765M3065.951172 702.253176a143.480471 143.480471 0 0 1-30.418824 45.839059 143.028706 143.028706 0 0 1-44.965647 30.659765 136.011294 136.011294 0 0 1-54.874353 11.143529 141.432471 141.432471 0 0 1-131.011764-87.642353 142.215529 142.215529 0 0 1-11.083295-55.777882c0-19.636706 3.674353-38.249412 11.053177-55.747765a143.179294 143.179294 0 0 1 30.388706-45.808941 141.793882 141.793882 0 0 1 100.653176-41.863529c19.456 0 37.737412 3.734588 54.874353 11.173647a143.36 143.36 0 0 1 44.965647 30.689882c12.890353 13.010824 23.009882 28.280471 30.418824 45.808941 7.348706 17.528471 11.053176 36.141176 11.053176 55.747765 0 19.666824-3.704471 38.249412-11.053176 55.777882M3105.01376 240.941176c-15.058824 0-27.226353 12.318118-27.226353 27.497412v243.410824a200.704 200.704 0 0 0-63.156706-45.417412 186.307765 186.307765 0 0 0-78.938353-16.745412c-26.834824 0-52.103529 5.180235-75.776 15.540706A197.933176 197.933176 0 0 0 2797.934231 507.482353a200.222118 200.222118 0 0 0-41.86353 62.554353c-10.24 23.913412-15.36 49.392941-15.36 76.498823 0 27.105882 5.12 52.585412 15.36 76.498824a199.920941 199.920941 0 0 0 41.86353 62.524235 197.812706 197.812706 0 0 0 61.982117 42.224941 187.030588 187.030588 0 0 0 75.776 15.540706 180.705882 180.705882 0 0 0 78.155294-17.136941c24.184471-11.414588 45.477647-28.280471 63.939765-50.597647 0 0 22.708706-24.786824 37.345882-61.650823 14.607059-36.894118 17.106824-81.167059 17.106824-81.167059V268.438588a27.346824 27.346824 0 0 0-27.226353-27.497412M3283.249995 622.140235c1.867294-10.029176 4.698353-19.666824 8.734118-28.912941a148.058353 148.058353 0 0 1 29.997176-44.574118 135.198118 135.198118 0 0 1 44.212706-29.997176 138.270118 138.270118 0 0 1 54.603294-10.782118 138.300235 138.300235 0 0 1 99.177412 40.749177c12.8 12.830118 22.799059 27.708235 29.967059 44.574117 3.915294 9.276235 6.656 18.913882 8.432941 28.912942H3283.280113z m315.120941-49.694117A197.632 197.632 0 0 0 3556.898936 511.006118 193.475765 193.475765 0 0 0 3495.760113 469.835294 188.325647 188.325647 0 0 0 3420.827407 454.836706 188.235294 188.235294 0 0 0 3345.774231 469.835294a193.054118 193.054118 0 0 0-61.108706 41.140706A192 192 0 0 0 3243.585054 572.476235a191.096471 191.096471 0 0 0-14.998588 75.324236c0 26.684235 4.999529 51.651765 14.998588 74.992941 9.968941 23.311059 23.702588 43.670588 41.110588 61.108706a198.324706 198.324706 0 0 0 61.138824 41.502117 184.018824 184.018824 0 0 0 74.962823 15.36c26.624 0 51.621647-5.12 74.962824-15.36a198.776471 198.776471 0 0 0 61.138823-41.502117c10.420706-10.450824 20.178824-20.419765 27.407059-34.484706 4.818824-9.336471 4.216471-25.840941-8.463059-34.273883a26.081882 26.081882 0 0 0-36.442352 7.137883 133.300706 133.300706 0 0 1-19.425883 24.335059 148.058353 148.058353 0 0 1-44.574117 29.967058 134.053647 134.053647 0 0 1-54.603295 11.14353 134.023529 134.023529 0 0 1-54.603294-11.14353A142.998588 142.998588 0 0 1 3321.981289 746.616471a142.998588 142.998588 0 0 1-29.967058-44.212706 129.927529 129.927529 0 0 1-8.493177-27.226353h306.56753v-0.39153a27.346824 27.346824 0 0 0 23.67247-26.684235v-0.301176c0-26.624-5.12-51.742118-15.36-75.324236zM1144.475407 572.235294v221.816471c0 27.196235 26.955294 49.242353 60.235294 49.242353s60.235294-22.046118 60.235294-49.242353V572.235294a116.976941 116.976941 0 0 1-60.235294 16.26353 116.946824 116.946824 0 0 1-60.235294-16.26353M1144.475407 482.093176V481.882353v-0.210824 0.421647zM1204.710701 421.647059a60.325647 60.325647 0 0 0-60.235294 60.235294c0.120471 33.28 27.015529 60.235294 60.235294 60.235294a60.325647 60.325647 0 0 0 60.235294-60.235294 60.325647 60.325647 0 0 0-60.235294-60.235294M1264.945995 482.093176v-0.421647 0.421647" /></svg>