<?xml version="1.0" standalone="no"?><!DOCTYPE svg PUBLIC "-//W3C//DTD SVG 1.1//EN" "http://www.w3.org/Graphics/SVG/1.1/DTD/svg11.dtd"><svg class="icon" width="200px" height="200.00px" viewBox="0 0 1024 1024" version="1.1" xmlns="http://www.w3.org/2000/svg"><path fill="currentColor" d="M416 128a32 32 0 0 0-64 0h64z m256 0a32 32 0 0 0-64 0h64z m-256 53.333333V128h-64v53.333333h64z m256 0V128h-64v53.333333h64zM928 551.125333V458.666667c0-59.52 0-89.258667-5.888-113.792a213.333333 213.333333 0 0 0-157.653333-157.653334c-24.533333-5.888-54.314667-5.888-113.792-5.888h-277.333334c-59.52 0-89.258667 0-113.792 5.888a213.333333 213.333333 0 0 0-157.653333 157.653334c-5.888 24.533333-5.888 54.272-5.888 113.792v92.458666c0 146.432 0 219.605333 34.432 272.64a213.333333 213.333333 0 0 0 62.72 62.72c52.992 34.389333 126.208 34.389333 272.64 34.389334h92.416c146.432 0 219.648 0 272.64-34.389334a213.333333 213.333333 0 0 0 62.72-62.72c34.432-53.034667 34.432-126.208 34.432-272.64zM458.666667 428.544c10.069333-32.469333 15.061333-48.725333 20.48-55.210667a42.666667 42.666667 0 0 1 65.706666 0c5.418667 6.485333 10.453333 22.741333 20.48 55.210667 2.730667 8.832 4.096 13.226667 6.058667 16.938667a42.666667 42.666667 0 0 0 29.269333 21.546666c4.096 0.853333 8.789333 0.853333 18.176 0.853334 35.754667 0 53.632 0 62.08 3.84a42.666667 42.666667 0 0 1 19.925334 58.88c-4.352 8.192-18.346667 18.858667-46.250667 40.192l-4.522667 3.456c-8.106667 6.229333-12.202667 9.344-15.232 12.885333a42.666667 42.666667 0 0 0-9.856 30.976c0.341333 4.693333 1.877333 9.557333 4.864 19.328l2.389334 7.594667c9.429333 30.592 14.165333 45.866667 13.525333 53.973333a42.666667 42.666667 0 0 1-54.144 37.76c-7.850667-2.218667-20.565333-11.946667-45.994667-31.36-7.338667-5.632-11.050667-8.448-14.762666-10.24a42.666667 42.666667 0 0 0-37.717334 0c-3.712 1.834667-7.424 4.608-14.762666 10.24-25.429333 19.456-38.144 29.141333-45.994667 31.36a42.666667 42.666667 0 0 1-54.186667-37.76c-0.597333-8.106667 4.138667-23.381333 13.568-53.973333l2.346667-7.594667c3.029333-9.813333 4.565333-14.677333 4.949333-19.328a42.666667 42.666667 0 0 0-9.898666-30.976c-3.029333-3.541333-7.082667-6.656-15.232-12.885333l-4.522667-3.456c-27.904-21.333333-41.898667-32-46.250667-40.192a42.666667 42.666667 0 0 1 19.925334-58.88c8.448-3.84 26.325333-3.84 62.08-3.84 9.386667 0 14.08 0 18.176-0.853334a42.666667 42.666667 0 0 0 29.269333-21.546666c1.962667-3.669333 3.328-8.106667 6.058667-16.938667z" /></svg>