<?xml version="1.0" standalone="no"?><!DOCTYPE svg PUBLIC "-//W3C//DTD SVG 1.1//EN" "http://www.w3.org/Graphics/SVG/1.1/DTD/svg11.dtd"><svg class="icon" width="200px" height="200.00px" viewBox="0 0 1024 1024" version="1.1" xmlns="http://www.w3.org/2000/svg"><path fill="currentColor" d="M341.333333 64a21.333333 21.333333 0 0 1 21.333334 21.333333v128a21.333333 21.333333 0 0 1-42.666667 0V85.333333a21.333333 21.333333 0 0 1 21.333333-21.333333zM682.666667 64a21.333333 21.333333 0 0 1 21.333333 21.333333v128a21.333333 21.333333 0 0 1-42.666667 0V85.333333a21.333333 21.333333 0 0 1 21.333334-21.333333zM128 387.84a21.333333 21.333333 0 0 1 21.333333-21.333333h725.333334a21.333333 21.333333 0 0 1 0 42.666666h-725.333334a21.333333 21.333333 0 0 1-21.333333-21.333333zM194.304 222.506667C164.522667 254.592 149.333333 301.952 149.333333 362.666667V725.333333c0 60.714667 15.189333 108.074667 44.970667 140.16C223.829333 897.28 270.72 917.333333 341.333333 917.333333h341.333334c70.613333 0 117.504-20.053333 147.029333-51.84 29.781333-32.085333 44.970667-79.445333 44.970667-140.16V362.666667c0-60.714667-15.189333-108.074667-44.970667-140.16C800.170667 190.72 753.28 170.666667 682.666667 170.666667H341.333333c-70.613333 0-117.504 20.053333-147.029333 51.84z m-31.274667-29.013334C202.837333 150.613333 262.613333 128 341.333333 128h341.333334c78.72 0 138.496 22.613333 178.304 65.493333 39.552 42.581333 56.362667 101.888 56.362666 169.173334V725.333333c0 67.285333-16.810667 126.592-56.362666 169.173334C821.162667 937.386667 761.386667 960 682.666667 960H341.333333c-78.72 0-138.496-22.613333-178.304-65.493333C123.477333 851.925333 106.666667 792.618667 106.666667 725.333333V362.666667c0-67.285333 16.810667-126.592 56.362666-169.173334zM648.32 584.533333a21.333333 21.333333 0 0 1 21.333333-21.333333h0.384a21.333333 21.333333 0 0 1 0 42.666667h-0.426666a21.333333 21.333333 0 0 1-21.333334-21.333334zM648.32 712.533333a21.333333 21.333333 0 0 1 21.333333-21.333333h0.384a21.333333 21.333333 0 0 1 0 42.666667h-0.426666a21.333333 21.333333 0 0 1-21.333334-21.333334zM490.453333 584.533333a21.333333 21.333333 0 0 1 21.333334-21.333333h0.426666a21.333333 21.333333 0 0 1 0 42.666667h-0.426666a21.333333 21.333333 0 0 1-21.333334-21.333334zM490.453333 712.533333a21.333333 21.333333 0 0 1 21.333334-21.333333h0.426666a21.333333 21.333333 0 0 1 0 42.666667h-0.426666a21.333333 21.333333 0 0 1-21.333334-21.333334zM332.544 584.533333a21.333333 21.333333 0 0 1 21.333333-21.333333h0.426667a21.333333 21.333333 0 0 1 0 42.666667h-0.426667a21.333333 21.333333 0 0 1-21.333333-21.333334zM332.544 712.533333a21.333333 21.333333 0 0 1 21.333333-21.333333h0.426667a21.333333 21.333333 0 0 1 0 42.666667h-0.426667a21.333333 21.333333 0 0 1-21.333333-21.333334z" /></svg>