<?xml version="1.0" standalone="no"?><!DOCTYPE svg PUBLIC "-//W3C//DTD SVG 1.1//EN" "http://www.w3.org/Graphics/SVG/1.1/DTD/svg11.dtd"><svg class="icon" width="200px" height="200.00px" viewBox="0 0 1024 1024" version="1.1" xmlns="http://www.w3.org/2000/svg"><path fill="currentColor" d="M146.090667 188.757333C122.24 212.650667 110.933333 255.829333 110.933333 341.333333v341.333334c0 85.504 11.306667 128.725333 35.157334 152.576 23.893333 23.850667 67.072 35.157333 152.576 35.157333h426.666666c85.504 0 128.725333-11.306667 152.576-35.157333 23.850667-23.893333 35.157333-67.072 35.157334-152.576V341.333333c0-85.504-11.306667-128.725333-35.157334-152.576-23.893333-23.850667-67.072-35.157333-152.576-35.157333H298.666667c-85.504 0-128.725333 11.306667-152.576 35.157333z m-36.181334-36.181333C150.016 112.426667 213.504 102.4 298.666667 102.4h426.666666c85.162667 0 148.608 10.026667 188.757334 50.176 40.149333 40.106667 50.176 103.594667 50.176 188.757333v341.333334c0 85.162667-10.026667 148.608-50.176 188.757333-40.106667 40.149333-103.594667 50.176-188.757334 50.176H298.666667c-85.162667 0-148.608-10.026667-188.757334-50.176C69.76 831.317333 59.733333 767.829333 59.733333 682.666667V341.333333c0-85.162667 10.026667-148.608 50.176-188.757333zM571.733333 341.333333a25.6 25.6 0 0 1 25.6-25.6h213.333334a25.6 25.6 0 1 1 0 51.2h-213.333334a25.6 25.6 0 0 1-25.6-25.6zM614.4 512a25.6 25.6 0 0 1 25.6-25.6h170.666667a25.6 25.6 0 0 1 0 51.2h-170.666667a25.6 25.6 0 0 1-25.6-25.6zM699.733333 682.666667a25.6 25.6 0 0 1 25.6-25.6h85.333334a25.6 25.6 0 0 1 0 51.2h-85.333334a25.6 25.6 0 0 1-25.6-25.6zM362.666667 352.853333a51.626667 51.626667 0 1 0 0 103.253334 51.626667 51.626667 0 0 0 0-103.253334zM259.84 404.48a102.826667 102.826667 0 1 1 205.653333 0 102.826667 102.826667 0 0 1-205.653333 0zM397.525333 555.221333a154.453333 154.453333 0 0 1 139.946667 139.093334 25.6 25.6 0 1 1-50.944 4.906666 103.253333 103.253333 0 0 0-93.738667-93.013333H392.533333a303.488 303.488 0 0 0-59.776 0 103.68 103.68 0 0 0-93.952 93.013333 25.6 25.6 0 0 1-50.944-4.949333 154.88 154.88 0 0 1 139.904-139.093333 355.114667 355.114667 0 0 1 69.76 0z" /></svg>