<?xml version="1.0" standalone="no"?><!DOCTYPE svg PUBLIC "-//W3C//DTD SVG 1.1//EN" "http://www.w3.org/Graphics/SVG/1.1/DTD/svg11.dtd"><svg class="icon" width="200px" height="191.04px" viewBox="0 0 1072 1024" version="1.1" xmlns="http://www.w3.org/2000/svg"><path d="M370.590476 1024l-92.647619-156.038095-175.542857-39.009524 17.066667-180.419048L0 512l119.466667-136.533333L102.4 195.047619l175.542857-39.009524L370.590476 0 536.380952 70.704762 702.171429 0l92.647619 156.038095 175.542857 39.009524-17.066667 180.419048L1072.761905 512l-119.466667 136.533333 17.066667 180.419048-175.542857 39.009524-92.647619 156.038095-165.790477-70.704762L370.590476 1024m41.447619-124.342857l124.342857-53.638095 126.780953 53.638095 68.266666-117.028572 134.095239-31.695238-12.190477-136.533333 90.209524-102.4-90.209524-104.838095 12.190477-136.533334-134.095239-29.257142-70.704761-117.028572L536.380952 177.980952l-126.780952-53.638095L341.333333 241.371429l-134.095238 29.257142 12.190476 136.533334-90.209523 104.838095 90.209523 102.4-12.190476 138.971429 134.095238 29.257142 70.704762 117.028572M485.180952 685.104762L760.685714 409.6l-68.266666-70.704762-207.238096 207.238095L380.342857 443.733333l-68.266667 68.266667 173.104762 173.104762" fill="none" stroke="currentColor" stroke-width="1.5" stroke-linecap="round" stroke-linejoin="round" /></svg>