<?xml version="1.0" standalone="no"?><!DOCTYPE svg PUBLIC "-//W3C//DTD SVG 1.1//EN" "http://www.w3.org/Graphics/SVG/1.1/DTD/svg11.dtd"><svg class="icon" width="200px" height="200.00px" viewBox="0 0 1024 1024" version="1.1" xmlns="http://www.w3.org/2000/svg"><path fill="currentColor" d="M800 128h-160c0-70.6-57.4-128-128-128s-128 57.4-128 128H224C171 128 128 171 128 224v704c0 53 43 96 96 96h576c53 0 96-43 96-96V224c0-53-43-96-96-96zM512 80c26.6 0 48 21.4 48 48s-21.4 48-48 48-48-21.4-48-48 21.4-48 48-48zM259.2 418.8l25.4-25.2c4.2-4.2 11-4.2 15.2 0l41.2 41.6 95.2-94.4c4.2-4.2 11-4.2 15.2 0l25.2 25.4c4.2 4.2 4.2 11 0 15.2l-128.4 127.2c-4.2 4.2-11 4.2-15.2 0L259.2 434c-4.2-4.2-4.2-11 0-15.2zM320 784c-26.6 0-48-21.4-48-48s21.4-48 48-48 48 21.4 48 48-21.4 48-48 48z m448-32c0 8.8-7.2 16-16 16H464c-8.8 0-16-7.2-16-16v-32c0-8.8 7.2-16 16-16h288c8.8 0 16 7.2 16 16v32z m0-256c0 8.8-8.6 16-19.2 16H436.2l64.6-64h248c10.6 0 19.2 7.2 19.2 16v32z" /></svg>