<?xml version="1.0" standalone="no"?><!DOCTYPE svg PUBLIC "-//W3C//DTD SVG 1.1//EN" "http://www.w3.org/Graphics/SVG/1.1/DTD/svg11.dtd"><svg class="icon" width="200px" height="200.00px" viewBox="0 0 1024 1024" version="1.1" xmlns="http://www.w3.org/2000/svg"><path fill="currentColor" d="M512 123.733333a388.266667 388.266667 0 1 0 0 776.533334 388.266667 388.266667 0 0 0 0-776.533334zM81.066667 512C81.066667 274.005333 274.005333 81.066667 512 81.066667c237.994667 0 430.933333 192.938667 430.933333 430.933333 0 237.994667-192.938667 430.933333-430.933333 430.933333-237.994667 0-430.933333-192.938667-430.933333-430.933333zM512 327.765333a21.333333 21.333333 0 0 1 21.333333 21.333334v198.741333l139.008 46.336a21.333333 21.333333 0 1 1-13.482666 40.448l-153.6-51.2a21.333333 21.333333 0 0 1-14.592-20.224V349.098667a21.333333 21.333333 0 0 1 21.333333-21.333334z" /></svg>