<?xml version="1.0" standalone="no"?><!DOCTYPE svg PUBLIC "-//W3C//DTD SVG 1.1//EN" "http://www.w3.org/Graphics/SVG/1.1/DTD/svg11.dtd"><svg class="icon" width="200px" height="200.00px" viewBox="0 0 1024 1024" version="1.1" xmlns="http://www.w3.org/2000/svg"><path fill="currentColor" d="M34.730667 512c0-237.994667 192.981333-430.933333 431.018666-430.933333a430.933333 430.933333 0 0 1 373.376 215.466666 21.333333 21.333333 0 1 1-36.906666 21.333334 388.266667 388.266667 0 0 0-336.469334-194.133334C251.306667 123.733333 77.397333 297.557333 77.397333 512s173.866667 388.266667 388.352 388.266667c214.528 0 388.394667-173.824 388.394667-388.266667a21.333333 21.333333 0 0 1 17.621333-21.034667l-6.272-6.272-87.338666 87.338667a21.333333 21.333333 0 0 1-30.165334-30.165333l102.4-102.4a21.333333 21.333333 0 0 1 30.208 0l102.4 102.4a21.333333 21.333333 0 0 1-30.165333 30.165333l-56.064-56.064c-2.133333 236.16-194.261333 426.965333-431.018667 426.965333C227.712 942.933333 34.730667 749.994667 34.730667 512z m430.933333-174.933333a21.333333 21.333333 0 0 1 21.333333 21.333333v198.698667l139.008 46.336a21.333333 21.333333 0 1 1-13.482666 40.490666l-153.6-51.2a21.333333 21.333333 0 0 1-14.592-20.224V358.4a21.333333 21.333333 0 0 1 21.333333-21.333333z" /></svg>