<?xml version="1.0" standalone="no"?><!DOCTYPE svg PUBLIC "-//W3C//DTD SVG 1.1//EN" "http://www.w3.org/Graphics/SVG/1.1/DTD/svg11.dtd"><svg class="icon" width="200px" height="200.00px" viewBox="0 0 1024 1024" version="1.1" xmlns="http://www.w3.org/2000/svg"><path fill="currentColor" d="M601.856 132.522667a53.888 53.888 0 0 1 76.288 0l213.333333 213.333333a53.888 53.888 0 0 1 0 76.245333l-213.333333 213.333334a53.888 53.888 0 1 1-76.288-76.245334L777.088 384l-175.232-175.232a53.888 53.888 0 0 1 0-76.245333zM116.693333 853.333333v-298.666666A224.64 224.64 0 0 1 341.333333 330.026667h512a53.973333 53.973333 0 0 1 0 107.946666H341.333333A116.693333 116.693333 0 0 0 224.64 554.666667v298.666666a53.973333 53.973333 0 0 1-107.946667 0z" /></svg>