<?xml version="1.0" standalone="no"?><!DOCTYPE svg PUBLIC "-//W3C//DTD SVG 1.1//EN" "http://www.w3.org/Graphics/SVG/1.1/DTD/svg11.dtd"><svg class="icon" width="200px" height="150.04px" viewBox="0 0 1365 1024" version="1.1" xmlns="http://www.w3.org/2000/svg"><path fill="currentColor" d="M151.7568 0C111.479467 0 73.045333 15.428267 44.509867 42.871467A143.7696 143.7696 0 0 0 0 146.295467v731.409066c0 38.775467 16.042667 75.9808 44.509867 103.424 28.4672 27.4432 67.037867 42.8032 107.246933 42.871467h1062.365867c40.277333 0 78.848-15.428267 107.3152-42.871467 28.4672-27.4432 44.4416-64.648533 44.509866-103.424V146.295467c0-38.775467-16.042667-75.9808-44.509866-103.424A154.8288 154.8288 0 0 0 1214.122667 0H151.7568z m189.781333 585.1136h151.7568c24.917333 0 49.5616 4.778667 72.567467 13.9264 23.074133 9.216 43.963733 22.664533 61.576533 39.662933 17.6128 16.9984 31.607467 37.137067 41.096534 59.392 9.557333 22.1184 14.472533 45.943467 14.404266 69.905067 0 20.138667-17.066667 36.590933-37.956266 36.590933h-455.338667a38.775467 38.775467 0 0 1-26.760533-10.786133 36.0448 36.0448 0 0 1-11.127467-25.873067c0-23.9616 4.9152-47.786667 14.472533-69.973333 9.557333-22.186667 23.483733-42.325333 41.096534-59.323733 17.6128-16.930133 38.570667-30.378667 61.576533-39.594667a195.925333 195.925333 0 0 1 72.635733-13.9264zM265.557333 365.704533c0-38.775467 15.9744-75.9808 44.4416-103.424a154.692267 154.692267 0 0 1 107.3152-42.871466c40.277333 0 78.848 15.428267 107.3152 42.871466 28.4672 27.4432 44.4416 64.648533 44.4416 103.424s-15.9744 76.049067-44.373333 103.424a154.692267 154.692267 0 0 1-107.383467 42.871467c-40.277333 0-78.848-15.428267-107.3152-42.871467a143.633067 143.633067 0 0 1-44.373333-103.424z m607.095467-73.1136h303.5136c20.821333 0 37.888 16.384 37.888 36.590934 0 20.0704-17.066667 36.522667-37.956267 36.522666h-303.5136a38.775467 38.775467 0 0 1-26.8288-10.786133 35.976533 35.976533 0 0 1-11.127466-25.8048c0-20.0704 17.066667-36.522667 38.024533-36.522667z m0 146.295467h303.5136c20.821333 0 37.888 16.384 37.888 36.590933 0 20.0704-17.066667 36.522667-37.956267 36.522667h-303.5136a38.775467 38.775467 0 0 1-26.8288-10.786133 36.0448 36.0448 0 0 1-11.127466-25.8048c0-20.0704 17.066667-36.522667 38.024533-36.522667z m0 146.2272h303.5136c20.821333 0 37.888 16.452267 37.888 36.6592 0 20.0704-17.066667 36.522667-37.956267 36.522667h-303.5136a38.775467 38.775467 0 0 1-26.8288-10.786134 36.0448 36.0448 0 0 1-11.127466-25.8048c0-20.138667 17.066667-36.590933 38.024533-36.590933z" /></svg>