<?xml version="1.0" standalone="no"?><!DOCTYPE svg PUBLIC "-//W3C//DTD SVG 1.1//EN" "http://www.w3.org/Graphics/SVG/1.1/DTD/svg11.dtd"><svg class="icon" width="200px" height="199.80px" viewBox="0 0 1025 1024" version="1.1" xmlns="http://www.w3.org/2000/svg"><path d="M192.343467 850.048h640.853333c106.112 0 192.469333-85.845333 192.469333-191.402667a189.696 189.696 0 0 0-75.605333-152.064 30.592 30.592 0 0 1-10.752-15.616A226.048 226.048 0 0 0 723.159467 328.533333c-18.346667 0-36.693333 2.261333-54.357334 6.656a30.293333 30.293333 0 0 1-32.213333-12.245333 248.789333 248.789333 0 0 0-372.693333-42.794667 248.064 248.064 0 0 0-79.786667 159.658667 30.293333 30.293333 0 0 1-17.152 24.448c-2.986667 1.408-5.973333 2.986667-8.96 4.608a28.202667 28.202667 0 0 1-8.021333 3.029333A193.365333 193.365333 0 0 0 42.626133 538.368a188.458667 188.458667 0 0 0-42.794666 120.32c0 105.6 86.357333 191.445333 192.512 191.445333v-0.085333z" fill="currentColor" /></svg>