<?xml version="1.0" standalone="no"?><!DOCTYPE svg PUBLIC "-//W3C//DTD SVG 1.1//EN" "http://www.w3.org/Graphics/SVG/1.1/DTD/svg11.dtd"><svg class="icon" width="200px" height="200.00px" viewBox="0 0 1024 1024" version="1.1" xmlns="http://www.w3.org/2000/svg"><path d="M912.19696 704L720.19696 400 560.19696 560 304.19696 304 112.19696 704z" fill="currentColor" /><path d="M1008.19696 880H16.19696a16 16 0 0 1-16-16V160a16 16 0 0 1 16-16h992a16 16 0 0 1 16 16v704a16 16 0 0 1-16 16zM32.19696 848h960V176H32.19696v672z" fill="currentColor" /><path d="M912.19696 784H112.19696a16 16 0 0 1-16-16V256a16 16 0 0 1 16-16h800a16 16 0 0 1 16 16v512a16 16 0 0 1-16 16zM128.19696 752h768V272H128.19696v480z" fill="currentColor" /><path d="M112.21296 544a16 16 0 0 1-10.272-28.288l192-160a16 16 0 0 1 20.512 24.576l-192 160A15.968 15.968 0 0 1 112.19696 544z" fill="currentColor" /><path d="M560.19696 640a15.952 15.952 0 0 1-11.312-4.688l-256-256a16 16 0 1 1 22.624-22.624l256 256A16 16 0 0 1 560.19696 640z" fill="currentColor" /><path d="M560.19696 640a16 16 0 0 1-11.312-27.312l160-160a16 16 0 1 1 22.624 22.624l-160 160A15.952 15.952 0 0 1 560.19696 640z" fill="currentColor" /><path d="M912.19696 704a15.952 15.952 0 0 1-12.144-5.6l-192-224a15.984 15.984 0 1 1 24.288-20.8l192 224A15.984 15.984 0 0 1 912.19696 704zM560.19696 512c-44.112 0-80-35.888-80-80s35.888-80 80-80 80 35.888 80 80-35.888 80-80 80z m0-128c-26.464 0-48 21.536-48 48s21.536 48 48 48 48-21.536 48-48-21.536-48-48-48zM176.19696 720c-4.16 0-8.32-1.76-11.36-4.64a16.176 16.176 0 0 1 0-22.72c5.92-5.92 16.64-5.92 22.72 0 2.88 3.04 4.64 7.04 4.64 11.36 0 4.16-1.76 8.32-4.64 11.36-3.04 2.88-7.2 4.64-11.36 4.64zM176.19696 656c-4.16 0-8.32-1.76-11.36-4.64A16.48 16.48 0 0 1 160.19696 640c0-4.16 1.76-8.32 4.64-11.36 5.92-5.92 16.8-5.92 22.72 0 2.88 3.04 4.64 7.2 4.64 11.36 0 4.16-1.76 8.32-4.64 11.36-3.04 2.88-7.2 4.64-11.36 4.64zM176.19696 592c-4.16 0-8.32-1.76-11.36-4.64-2.88-3.04-4.64-7.2-4.64-11.36 0-4.16 1.76-8.32 4.64-11.36 6.08-5.92 16.64-5.92 22.72 0 2.88 3.04 4.64 7.2 4.64 11.36 0 4.16-1.76 8.32-4.64 11.36-3.04 2.88-7.2 4.64-11.36 4.64zM240.19696 720c-4.16 0-8.32-1.76-11.36-4.64-2.88-3.04-4.64-7.2-4.64-11.36 0-4.16 1.76-8.32 4.64-11.36 5.92-5.92 16.8-5.92 22.72 0 2.88 3.04 4.64 7.2 4.64 11.36 0 4.16-1.76 8.32-4.64 11.36-3.04 2.88-7.2 4.64-11.36 4.64zM240.19696 656c-4.32 0-8.32-1.76-11.36-4.64-2.88-3.04-4.64-7.2-4.64-11.36 0-4.16 1.76-8.32 4.64-11.36 6.08-5.92 16.64-5.92 22.72 0 2.88 3.04 4.64 7.2 4.64 11.36 0 4.16-1.76 8.32-4.64 11.36-3.04 2.88-7.2 4.64-11.36 4.64zM240.19696 592c-4.16 0-8.32-1.76-11.36-4.64-2.88-3.04-4.64-7.2-4.64-11.36 0-4.16 1.76-8.32 4.64-11.36 5.92-5.92 16.64-5.92 22.72 0 2.88 3.04 4.64 7.04 4.64 11.36 0 4.16-1.76 8.32-4.64 11.36-3.04 2.88-7.2 4.64-11.36 4.64zM304.19696 720c-4.32 0-8.32-1.76-11.36-4.64-2.88-3.04-4.64-7.2-4.64-11.36 0-4.16 1.76-8.32 4.64-11.36 5.92-5.92 16.8-5.92 22.72 0 2.88 3.04 4.64 7.2 4.64 11.36 0 4.16-1.76 8.32-4.64 11.36-3.04 2.88-7.2 4.64-11.36 4.64zM304.19696 656c-4.16 0-8.32-1.76-11.36-4.64-2.88-3.04-4.64-7.2-4.64-11.36 0-4.16 1.76-8.32 4.64-11.36 6.08-5.92 16.64-5.92 22.72 0 2.88 3.04 4.64 7.2 4.64 11.36 0 4.16-1.76 8.32-4.64 11.36-3.04 2.88-7.2 4.64-11.36 4.64zM368.19696 720c-4.16 0-8.32-1.76-11.36-4.64-2.88-3.04-4.64-7.04-4.64-11.36s1.76-8.32 4.64-11.36c6.08-5.92 16.8-5.92 22.72 0 2.88 3.04 4.64 7.2 4.64 11.36 0 4.32-1.76 8.32-4.8 11.36-2.88 2.88-7.04 4.64-11.2 4.64zM112.19696 272a15.952 15.952 0 0 1-11.312-4.688l-96-96a16 16 0 1 1 22.624-22.624l96 96A16 16 0 0 1 112.19696 272zM912.19696 272a16 16 0 0 1-11.312-27.312l96-96a16 16 0 1 1 22.624 22.624l-96 96A15.952 15.952 0 0 1 912.19696 272zM1008.19696 880a15.952 15.952 0 0 1-11.312-4.688l-96-96a16 16 0 1 1 22.624-22.624l96 96A16 16 0 0 1 1008.19696 880zM16.19696 880a16 16 0 0 1-11.312-27.312l96-96a16 16 0 1 1 22.624 22.624l-96 96A15.952 15.952 0 0 1 16.19696 880zM432.19696 720c-4.16 0-8.32-1.76-11.36-4.64-2.88-3.04-4.64-7.2-4.64-11.36 0-4.16 1.76-8.32 4.64-11.36 6.08-5.92 16.8-5.92 22.72 0 2.88 3.04 4.64 7.2 4.64 11.36 0 4.16-1.76 8.32-4.64 11.36-3.04 2.88-7.2 4.64-11.36 4.64zM368.19696 656c-4.16 0-8.32-1.76-11.36-4.64-2.88-3.04-4.64-7.04-4.64-11.36s1.76-8.32 4.64-11.36c6.08-5.92 16.64-5.92 22.72 0 2.88 3.04 4.64 7.2 4.64 11.36 0 4.32-1.76 8.32-4.8 11.36-2.88 2.88-7.04 4.64-11.2 4.64zM304.19696 592c-4.32 0-8.32-1.76-11.36-4.64-2.88-3.04-4.64-7.2-4.64-11.36 0-4.32 1.76-8.32 4.64-11.36 5.92-5.92 16.64-5.92 22.72 0 2.88 3.04 4.64 7.04 4.64 11.36 0 4.16-1.76 8.32-4.64 11.36-3.04 2.88-7.2 4.64-11.36 4.64zM240.19696 528c-4.16 0-8.32-1.76-11.36-4.64-2.88-3.04-4.64-7.2-4.64-11.36 0-4.16 1.76-8.32 4.64-11.36 5.92-5.92 16.8-5.92 22.72 0 2.88 3.04 4.64 7.2 4.64 11.36 0 4.32-1.76 8.32-4.8 11.36-2.88 2.88-7.04 4.64-11.2 4.64z" fill="currentColor" /></svg>