<?xml version="1.0" standalone="no"?><!DOCTYPE svg PUBLIC "-//W3C//DTD SVG 1.1//EN" "http://www.w3.org/Graphics/SVG/1.1/DTD/svg11.dtd"><svg class="icon" width="200px" height="200.00px" viewBox="0 0 1024 1024" version="1.1" xmlns="http://www.w3.org/2000/svg"><path d="M144 560h528v128H144zM16 160h992v128H16z" fill="currentColor" /><path d="M1008 912H16a16 16 0 0 1-16-16V128a16 16 0 0 1 16-16h992a16 16 0 0 1 16 16v768a16 16 0 0 1-16 16zM32 880h960V144H32v736z" fill="currentColor" /><path d="M1008 272H16a16 16 0 1 1 0-32h992a16 16 0 1 1 0 32zM816 208c-4.32 0-8.32-1.76-11.36-4.64-2.88-3.04-4.64-7.2-4.64-11.36s1.76-8.32 4.64-11.36c5.92-5.92 16.8-5.92 22.72 0 2.88 3.04 4.64 7.2 4.64 11.36s-1.76 8.32-4.64 11.36c-3.04 2.88-7.04 4.64-11.36 4.64zM880 208c-4.16 0-8.32-1.76-11.36-4.64-2.88-3.04-4.64-7.2-4.64-11.36s1.76-8.32 4.64-11.36c5.92-5.92 16.8-5.92 22.72 0 2.88 3.04 4.64 7.2 4.64 11.36s-1.76 8.32-4.64 11.36c-3.04 2.88-7.2 4.64-11.36 4.64zM944 208c-4.32 0-8.32-1.76-11.36-4.64-2.88-3.04-4.64-7.2-4.64-11.36s1.76-8.32 4.64-11.36c5.92-5.92 16.8-5.92 22.72 0 2.88 3.04 4.64 7.2 4.64 11.36s-1.76 8.32-4.64 11.36c-3.04 2.88-7.04 4.64-11.36 4.64zM928 368H96a16 16 0 1 1 0-32h832a16 16 0 1 1 0 32zM608 448H96a16 16 0 1 1 0-32h512a16 16 0 1 1 0 32zM672 448a16.16 16.16 0 0 1-16-16c0-4.16 1.76-8.32 4.64-11.36 5.92-5.92 16.64-5.92 22.72 0 2.88 3.04 4.64 7.2 4.64 11.36s-1.76 8.32-4.64 11.36c-3.04 2.88-7.04 4.64-11.36 4.64zM736 448a16.16 16.16 0 0 1-16-16c0-4.16 1.76-8.32 4.64-11.36 5.92-5.92 16.8-5.92 22.72 0 2.88 3.04 4.64 7.2 4.64 11.36s-1.76 8.32-4.64 11.36c-3.04 2.88-7.04 4.64-11.36 4.64zM800 448c-4.16 0-8.32-1.76-11.36-4.64-2.88-3.04-4.64-7.2-4.64-11.36s1.76-8.32 4.64-11.36c6.08-5.92 16.8-5.92 22.72 0 2.88 3.04 4.64 7.2 4.64 11.36s-1.76 8.32-4.64 11.36c-3.04 2.88-7.04 4.64-11.36 4.64zM864 448c-4.16 0-8.32-1.76-11.36-4.64-2.88-3.04-4.64-7.2-4.64-11.36s1.76-8.32 4.64-11.36c6.08-5.92 16.8-5.92 22.72 0 2.88 3.04 4.64 7.2 4.64 11.36s-1.76 8.32-4.64 11.36c-3.04 2.88-7.04 4.64-11.36 4.64zM928 448c-4.16 0-8.32-1.76-11.36-4.64-2.88-3.04-4.64-7.2-4.64-11.36s1.76-8.32 4.64-11.36c6.08-5.92 16.64-5.92 22.72 0 2.88 3.04 4.64 7.2 4.64 11.36 0 4.32-1.76 8.32-4.64 11.36-3.04 2.88-7.2 4.64-11.36 4.64zM928 672H704a16 16 0 0 1-16-16v-128a16 16 0 0 1 16-16h224a16 16 0 0 1 16 16v128a16 16 0 0 1-16 16z m-208-32h192v-96H720v96zM624 672H96a16 16 0 0 1-16-16v-128a16 16 0 0 1 16-16h528a16 16 0 0 1 16 16v128a16 16 0 0 1-16 16zM112 640h496v-96H112v96zM320 800H96a16 16 0 1 1 0-32h224a16 16 0 1 1 0 32zM624 736H96a16 16 0 1 1 0-32h528a16 16 0 1 1 0 32zM624 800H400a16 16 0 1 1 0-32h224a16 16 0 1 1 0 32zM928 736H704a16 16 0 1 1 0-32h224a16 16 0 1 1 0 32zM928 800H704a16 16 0 1 1 0-32h224a16 16 0 1 1 0 32z" fill="currentColor" /><path d="M752 272a16 16 0 0 1-16-16V128a16 16 0 1 1 32 0v128a16 16 0 0 1-16 16z" fill="currentColor" /></svg>