<?xml version="1.0" standalone="no"?><!DOCTYPE svg PUBLIC "-//W3C//DTD SVG 1.1//EN" "http://www.w3.org/Graphics/SVG/1.1/DTD/svg11.dtd"><svg class="icon" width="200px" height="200.00px" viewBox="0 0 1024 1024" version="1.1" xmlns="http://www.w3.org/2000/svg"><path d="M64 176h512v64H64zM896 944H576a16 16 0 0 1-16-16V528a16 16 0 0 1 16-16h320a16 16 0 0 1 16 16v400a16 16 0 0 1-16 16z" fill="currentColor" /><path d="M464 928H80c-26.464 0-48-21.536-48-48V336c0-26.464 21.536-48 48-48h384c26.464 0 48 21.536 48 48v544c0 26.464-21.536 48-48 48zM80 320c-8.816 0-16 7.184-16 16v544c0 8.816 7.184 16 16 16h384c8.816 0 16-7.184 16-16V336c0-8.816-7.184-16-16-16H80z" fill="currentColor" /><path d="M112 624a16 16 0 0 1-16-16V432a16 16 0 0 1 32 0v176a16 16 0 0 1-16 16zM448 320H96a16 16 0 0 1-16-16v-96a16 16 0 0 1 16-16h352a16 16 0 0 1 16 16v96a16 16 0 0 1-16 16zM112 288h320v-64H112v64z" fill="currentColor" /><path d="M528 224H16a16 16 0 0 1-16-16V144a16 16 0 0 1 16-16h512a16 16 0 0 1 16 16v64a16 16 0 0 1-16 16zM32 192h480v-32H32v32zM112 384c-4.16 0-8.32-1.76-11.36-4.64-2.88-3.04-4.64-7.2-4.64-11.36 0-4.16 1.76-8.32 4.64-11.36 5.92-5.92 16.64-5.92 22.72 0 2.88 3.04 4.64 7.2 4.64 11.36 0 4.16-1.76 8.32-4.64 11.36-3.04 2.88-7.2 4.64-11.36 4.64zM432 864c-4.16 0-8.32-1.76-11.36-4.64-2.88-3.04-4.64-7.2-4.64-11.36 0-4.16 1.76-8.32 4.64-11.36 5.92-5.92 16.8-5.92 22.72 0 2.88 3.04 4.64 7.2 4.64 11.36 0 4.16-1.76 8.32-4.64 11.36-3.04 2.88-7.2 4.64-11.36 4.64zM368 864c-4.16 0-8.32-1.76-11.36-4.64-2.88-3.04-4.64-7.2-4.64-11.36 0-4.16 1.76-8.32 4.64-11.36 5.92-5.92 16.64-5.92 22.72 0 2.88 3.04 4.64 7.2 4.64 11.36 0 4.16-1.76 8.32-4.64 11.36-3.04 2.88-7.2 4.64-11.36 4.64zM304 864c-4.16 0-8.32-1.76-11.36-4.64-2.88-3.04-4.64-7.2-4.64-11.36 0-4.16 1.76-8.32 4.64-11.36 5.92-5.92 16.64-5.92 22.72 0 2.88 3.04 4.64 7.2 4.64 11.36 0 4.16-1.76 8.32-4.64 11.36-3.04 2.88-7.2 4.64-11.36 4.64zM240 864c-4.16 0-8.32-1.76-11.36-4.64-2.88-3.04-4.64-7.2-4.64-11.36 0-4.16 1.76-8.32 4.64-11.36 5.92-5.92 16.8-5.92 22.72 0 2.88 3.04 4.64 7.2 4.64 11.36 0 4.16-1.76 8.32-4.64 11.36-3.04 2.88-7.2 4.64-11.36 4.64zM432 800c-4.16 0-8.32-1.76-11.36-4.64-2.88-3.04-4.64-7.2-4.64-11.36 0-4.16 1.76-8.32 4.64-11.36 5.92-5.92 16.64-5.92 22.72 0 2.88 3.04 4.64 7.2 4.64 11.36 0 4.16-1.76 8.32-4.64 11.36-3.04 2.88-7.2 4.64-11.36 4.64zM368 800c-4.16 0-8.32-1.76-11.36-4.64-2.88-3.04-4.64-7.2-4.64-11.36 0-4.16 1.76-8.32 4.64-11.36 5.92-5.92 16.64-5.92 22.72 0 2.88 3.04 4.64 7.2 4.64 11.36 0 4.16-1.76 8.32-4.64 11.36-3.04 2.88-7.2 4.64-11.36 4.64zM304 800c-4.16 0-8.32-1.76-11.36-4.64-2.88-3.04-4.64-7.2-4.64-11.36 0-4.16 1.76-8.32 4.64-11.36 5.92-5.92 16.64-5.92 22.72 0 2.88 3.04 4.64 7.2 4.64 11.36 0 4.16-1.76 8.32-4.64 11.36-3.04 2.88-7.2 4.64-11.36 4.64zM240 800c-4.16 0-8.32-1.76-11.36-4.64-2.88-3.04-4.64-7.2-4.64-11.36 0-4.16 1.76-8.32 4.64-11.36 5.92-5.92 16.64-5.92 22.72 0 2.88 3.04 4.64 7.2 4.64 11.36 0 4.16-1.76 8.32-4.64 11.36-3.04 2.88-7.2 4.64-11.36 4.64zM432 736c-4.16 0-8.32-1.76-11.36-4.64-2.88-3.04-4.64-7.2-4.64-11.36 0-4.16 1.76-8.32 4.64-11.36 5.92-5.92 16.64-5.92 22.72 0 2.88 3.04 4.64 7.2 4.64 11.36 0 4.16-1.76 8.32-4.64 11.36-3.04 2.88-7.2 4.64-11.36 4.64zM368 736c-4.16 0-8.32-1.76-11.36-4.64-2.88-3.04-4.64-7.2-4.64-11.36 0-4.16 1.76-8.32 4.64-11.36 6.08-5.92 16.8-5.92 22.72 0 2.88 3.04 4.64 7.2 4.64 11.36 0 4.16-1.76 8.32-4.64 11.36-3.04 2.88-7.2 4.64-11.36 4.64zM304 736c-4.16 0-8.32-1.76-11.36-4.64-2.88-3.04-4.64-7.2-4.64-11.36 0-4.16 1.76-8.32 4.64-11.36 6.08-5.92 16.64-5.92 22.72 0 2.88 3.04 4.64 7.2 4.64 11.36 0 4.16-1.76 8.32-4.64 11.36-3.04 2.88-7.2 4.64-11.36 4.64zM176 864c-4.16 0-8.32-1.76-11.36-4.64-2.88-3.04-4.64-7.2-4.64-11.36 0-4.16 1.76-8.32 4.64-11.36 5.92-5.92 16.64-5.92 22.72 0 2.88 3.04 4.64 7.2 4.64 11.36 0 4.16-1.76 8.32-4.64 11.36-3.04 2.88-7.2 4.64-11.36 4.64zM960 928H640c-17.648 0-32-14.352-32-32V496c0-17.648 14.352-32 32-32h320c17.648 0 32 14.352 32 32v400c0 17.648-14.352 32-32 32zM640 496v400h320.016L960 496H640z" fill="currentColor" /><path d="M688 712a16 16 0 0 1-16-16V608a16 16 0 0 1 32 0v88a16 16 0 0 1-16 16zM944 496H656a16 16 0 0 1-16-16v-80a16 16 0 0 1 16-16h288a16 16 0 0 1 16 16v80a16 16 0 0 1-16 16z m-272-32h256v-48H672v48z" fill="currentColor" /><path d="M1008 416H592a16 16 0 0 1-16-16v-64a16 16 0 0 1 16-16h416a16 16 0 0 1 16 16v64a16 16 0 0 1-16 16z m-400-32h384v-32H608v32zM688 560c-4.16 0-8.32-1.76-11.36-4.64-2.88-3.04-4.64-7.2-4.64-11.36 0-4.16 1.76-8.32 4.64-11.36 5.92-5.92 16.8-5.92 22.72 0 2.88 3.04 4.64 7.2 4.64 11.36 0 4.16-1.76 8.32-4.64 11.36-3.04 2.88-7.2 4.64-11.36 4.64zM912 864c-4.16 0-8.32-1.76-11.36-4.64-2.88-3.04-4.64-7.2-4.64-11.36 0-4.16 1.76-8.32 4.64-11.36 6.08-5.92 16.8-5.92 22.72 0 2.88 3.04 4.64 7.2 4.64 11.36 0 4.16-1.76 8.32-4.64 11.36-3.04 2.88-7.2 4.64-11.36 4.64zM848 864c-4.16 0-8.32-1.76-11.36-4.64-2.88-3.04-4.64-7.2-4.64-11.36 0-4.16 1.76-8.32 4.64-11.36 5.92-5.92 16.8-5.92 22.72 0 2.88 3.04 4.64 7.2 4.64 11.36 0 4.16-1.76 8.32-4.64 11.36-3.04 2.88-7.2 4.64-11.36 4.64zM784 864c-4.16 0-8.32-1.76-11.36-4.64-2.88-3.04-4.64-7.2-4.64-11.36 0-4.16 1.76-8.32 4.64-11.36 5.92-5.92 16.64-5.92 22.72 0 2.88 3.04 4.64 7.2 4.64 11.36 0 4.16-1.76 8.32-4.64 11.36-3.04 2.88-7.2 4.64-11.36 4.64zM720 864c-4.16 0-8.32-1.76-11.36-4.64-2.88-3.04-4.64-7.2-4.64-11.36 0-4.16 1.76-8.32 4.64-11.36 5.92-5.92 16.64-5.92 22.72 0 2.88 3.04 4.64 7.2 4.64 11.36 0 4.16-1.76 8.32-4.64 11.36-3.04 2.88-7.2 4.64-11.36 4.64zM912 800c-4.16 0-8.32-1.76-11.36-4.64-2.88-3.04-4.64-7.2-4.64-11.36 0-4.16 1.76-8.32 4.64-11.36 5.92-5.92 16.64-5.92 22.72 0 2.88 3.04 4.64 7.2 4.64 11.36 0 4.16-1.76 8.32-4.64 11.36-3.04 2.88-7.2 4.64-11.36 4.64zM848 800c-4.16 0-8.32-1.76-11.36-4.64-2.88-3.04-4.64-7.2-4.64-11.36 0-4.16 1.76-8.32 4.64-11.36 5.92-5.92 16.64-5.92 22.72 0 2.88 3.04 4.64 7.2 4.64 11.36 0 4.16-1.76 8.32-4.64 11.36-3.04 2.88-7.2 4.64-11.36 4.64zM784 800c-4.16 0-8.32-1.76-11.36-4.64-2.88-3.04-4.64-7.2-4.64-11.36 0-4.16 1.76-8.32 4.64-11.36 6.08-5.92 16.8-5.92 22.72 0 2.88 3.04 4.64 7.2 4.64 11.36 0 4.16-1.76 8.32-4.64 11.36-3.04 2.88-7.2 4.64-11.36 4.64zM912 736c-4.16 0-8.32-1.76-11.36-4.64-2.88-3.04-4.64-7.2-4.64-11.36 0-4.16 1.76-8.32 4.64-11.36 6.08-5.92 16.8-5.92 22.72 0 2.88 3.04 4.64 7.2 4.64 11.36 0 4.16-1.76 8.32-4.64 11.36-3.04 2.88-7.2 4.64-11.36 4.64zM848 736c-4.16 0-8.32-1.76-11.36-4.64-2.88-3.04-4.64-7.2-4.64-11.36 0-4.16 1.76-8.32 4.64-11.36 5.92-5.92 16.8-5.92 22.72 0 2.88 3.04 4.64 7.2 4.64 11.36 0 4.16-1.76 8.32-4.64 11.36-3.04 2.88-7.2 4.64-11.36 4.64z" fill="currentColor" /></svg>