<?xml version="1.0" standalone="no"?><!DOCTYPE svg PUBLIC "-//W3C//DTD SVG 1.1//EN" "http://www.w3.org/Graphics/SVG/1.1/DTD/svg11.dtd"><svg class="icon" width="200px" height="200.00px" viewBox="0 0 1024 1024" version="1.1" xmlns="http://www.w3.org/2000/svg"><path d="M512 656m-48 0a48 48 0 1 0 96 0 48 48 0 1 0-96 0Z" fill="currentColor" /><path d="M472.96 442.56a142.88 142.88 0 0 1-61.6-35.68A143.408 143.408 0 0 1 368 304a144 144 0 0 1 288 0c0 40.32-16.64 76.8-43.36 102.88a142.88 142.88 0 0 1-61.6 35.68h-78.08z" fill="currentColor" /><path d="M544 131.52a16 16 0 0 1-16-16V48a15.376 15.376 0 0 0-4.592-11.104A15.648 15.648 0 0 0 512 32c-8.832 0-16 7.184-16 16v67.52a16 16 0 1 1-32 0V48c0-26.464 21.536-48 48-48 12.96 0 25.04 5.072 34.016 14.272C554.944 22.944 560 35.024 560 48v67.52a16 16 0 0 1-16 16z" fill="currentColor" /><path d="M551.04 410.56a16 16 0 0 1-4.288-31.408 127.104 127.104 0 0 0 54.688-31.68A126.832 126.832 0 0 0 640 256c0-70.576-57.424-128-128-128s-128 57.424-128 128c0 34.704 13.68 67.168 38.528 91.44a127.2 127.2 0 0 0 54.72 31.712 16 16 0 0 1-8.592 30.832 159.152 159.152 0 0 1-68.496-39.68A158.528 158.528 0 0 1 352 256c0-88.224 71.776-160 160-160s160 71.776 160 160c0 43.392-17.12 84-48.192 114.336a159.056 159.056 0 0 1-68.464 39.648c-1.44 0.384-2.88 0.576-4.32 0.592z" fill="currentColor" /><path d="M64 1024a16 16 0 0 1-16-16v-128a16 16 0 0 1 2.688-8.88l347.36-521.12a16 16 0 1 1 26.624 17.76L80 884.848v70.304l418.688-628.032a16 16 0 1 1 26.624 17.76l-448 672A16 16 0 0 1 64 1024z" fill="currentColor" /><path d="M960 1024a16 16 0 0 1-13.312-7.12l-448-672a16 16 0 1 1 26.624-17.76L944 955.152v-70.304L599.328 367.76a16 16 0 1 1 26.624-17.76l347.36 521.12c1.76 2.624 2.688 5.728 2.688 8.88v128a16 16 0 0 1-16 16zM160 1024c-4.16 0-8.32-1.76-11.36-4.64-2.88-3.04-4.64-7.04-4.64-11.36s1.76-8.32 4.64-11.36c5.92-5.92 16.64-5.92 22.72 0 2.88 3.04 4.64 7.2 4.64 11.36 0 4.16-1.76 8.32-4.64 11.36-3.04 2.88-7.2 4.64-11.36 4.64zM224 1024c-4.16 0-8.32-1.76-11.36-4.64A16.48 16.48 0 0 1 208 1008c0-4.16 1.76-8.32 4.64-11.36 5.92-5.92 16.8-5.92 22.72 0 2.88 3.04 4.64 7.2 4.64 11.36 0 4.16-1.76 8.32-4.64 11.36-3.04 2.88-7.04 4.64-11.36 4.64zM288 1024c-4.32 0-8.32-1.76-11.36-4.64-2.88-3.04-4.64-7.2-4.64-11.36 0-4.16 1.76-8.32 4.64-11.36 6.08-5.92 16.64-5.92 22.72 0 2.88 3.04 4.64 7.2 4.64 11.36 0 4.16-1.76 8.32-4.64 11.36-3.04 2.88-7.04 4.64-11.36 4.64zM352 1024c-4.16 0-8.32-1.76-11.36-4.64-2.88-3.04-4.64-7.2-4.64-11.36 0-4.16 1.76-8.32 4.64-11.36 5.92-5.92 16.8-5.92 22.72 0 2.88 3.04 4.64 7.2 4.64 11.36 0 4.16-1.76 8.32-4.64 11.36-3.04 2.88-7.04 4.64-11.36 4.64zM416 1024c-4.16 0-8.32-1.76-11.36-4.64-2.88-3.04-4.64-7.2-4.64-11.36 0-4.16 1.76-8.32 4.64-11.36 5.92-5.92 16.8-5.92 22.72 0 2.88 3.04 4.64 7.2 4.64 11.36 0 4.16-1.76 8.32-4.64 11.36-3.04 2.88-7.2 4.64-11.36 4.64zM480 1024c-4.16 0-8.32-1.76-11.36-4.64-2.88-3.04-4.64-7.2-4.64-11.36 0-4.16 1.76-8.32 4.64-11.36 5.92-5.92 16.8-5.92 22.72 0 2.88 3.04 4.64 7.2 4.64 11.36 0 4.16-1.76 8.32-4.64 11.36-3.04 2.88-7.2 4.64-11.36 4.64zM544 1024c-4.16 0-8.32-1.76-11.36-4.64-2.88-3.04-4.64-7.2-4.64-11.36 0-4.16 1.76-8.32 4.64-11.36 5.92-5.92 16.64-5.92 22.72 0 2.88 3.04 4.64 7.2 4.64 11.36 0 4.16-1.76 8.32-4.64 11.36-3.04 2.88-7.2 4.64-11.36 4.64zM608 1024c-4.32 0-8.32-1.76-11.36-4.64A16.48 16.48 0 0 1 592 1008c0-4.16 1.76-8.32 4.64-11.36 5.92-5.92 16.64-5.92 22.72 0 2.88 3.04 4.64 7.2 4.64 11.36 0 4.32-1.76 8.32-4.64 11.36-3.04 2.88-7.04 4.64-11.36 4.64zM672 1024c-4.16 0-8.32-1.76-11.36-4.64-2.88-3.04-4.64-7.2-4.64-11.36 0-4.16 1.76-8.32 4.64-11.36 5.92-5.92 16.8-5.92 22.72 0.16 2.88 2.88 4.64 6.88 4.64 11.2 0 4.16-1.76 8.32-4.8 11.36-2.88 2.88-7.04 4.64-11.2 4.64zM736 1024c-4.32 0-8.32-1.76-11.36-4.64-2.88-3.04-4.64-7.04-4.64-11.36s1.76-8.48 4.8-11.36c5.76-5.92 16.64-5.92 22.56 0 2.88 3.04 4.64 7.04 4.64 11.36s-1.76 8.32-4.64 11.36c-3.04 2.88-7.2 4.64-11.36 4.64zM800 1024c-4.16 0-8.32-1.76-11.36-4.64-2.88-3.04-4.64-7.2-4.64-11.36 0-4.16 1.76-8.32 4.64-11.36 6.08-5.92 16.64-5.92 22.72 0 2.88 3.04 4.64 7.2 4.64 11.36 0 4.16-1.76 8.32-4.64 11.36-3.04 2.88-7.2 4.64-11.36 4.64zM864 1024c-4.16 0-8.32-1.76-11.36-4.64-2.88-3.04-4.64-7.2-4.64-11.36 0-4.16 1.76-8.32 4.64-11.36 6.08-5.92 16.64-5.92 22.72 0 2.88 3.04 4.64 7.2 4.64 11.36 0 4.16-1.76 8.32-4.64 11.36-3.04 2.88-7.2 4.64-11.36 4.64z" fill="currentColor" /><path d="M693.28 624H560a16 16 0 1 1 0-32h133.28a16 16 0 1 1 0 32zM896 624h-117.28a16 16 0 1 1 0-32H896a16 16 0 1 1 0 32zM245.28 624H128a16 16 0 1 1 0-32h117.28a16 16 0 1 1 0 32zM464 624h-133.28a16 16 0 1 1 0-32H464a16 16 0 1 1 0 32z" fill="currentColor" /><path d="M512 672c-35.296 0-64-28.704-64-64s28.704-64 64-64 64 28.704 64 64-28.704 64-64 64z m0-96c-17.648 0-32 14.352-32 32s14.352 32 32 32 32-14.352 32-32-14.352-32-32-32zM512 272c-4.16 0-8.32-1.76-11.36-4.64-2.88-3.04-4.64-7.2-4.64-11.36 0-4.16 1.76-8.32 4.64-11.36 5.92-5.92 16.8-5.92 22.72 0a16.24 16.24 0 0 1 0 22.72c-3.04 2.88-7.04 4.64-11.36 4.64zM576 272c-4.16 0-8.32-1.76-11.36-4.64-2.88-3.04-4.64-7.04-4.64-11.36s1.76-8.32 4.64-11.36c5.92-5.92 16.8-5.92 22.72 0 2.88 3.04 4.64 7.2 4.64 11.36 0 4.32-1.76 8.32-4.64 11.36-3.04 2.88-7.04 4.64-11.36 4.64zM448 272c-4.16 0-8.32-1.76-11.36-4.64-2.88-3.04-4.64-7.2-4.64-11.36 0-4.16 1.76-8.32 4.64-11.36 6.08-5.92 16.8-5.92 22.72 0 2.88 3.04 4.64 7.2 4.64 11.36 0 4.16-1.76 8.32-4.64 11.36-3.04 2.88-7.2 4.64-11.36 4.64zM128 656a16 16 0 0 1-16-16v-64a16 16 0 1 1 32 0v64a16 16 0 0 1-16 16zM896 656a16 16 0 0 1-16-16v-64a16 16 0 1 1 32 0v64a16 16 0 0 1-16 16z" fill="currentColor" /></svg>