<?xml version="1.0" standalone="no"?><!DOCTYPE svg PUBLIC "-//W3C//DTD SVG 1.1//EN" "http://www.w3.org/Graphics/SVG/1.1/DTD/svg11.dtd"><svg class="icon" width="200px" height="200.00px" viewBox="0 0 1024 1024" version="1.1" xmlns="http://www.w3.org/2000/svg"><path d="M240 480H112a32 32 0 1 0 0 64v272c0 35.36 28.64 64 64 64s64-28.64 64-64V544a32 32 0 1 0 0-64zM752 272v73.328c-46.88 18.848-80 64.416-80 117.728 0 70.176 57.312 127.056 128 127.056s128-56.88 128-127.04c0-53.328-33.12-98.88-80-117.76V272h-96z" fill="currentColor" /><path d="M952 1024h-880C41.12 1024 16 998.88 16 968S41.12 912 72 912h880c30.88 0 56 25.12 56 56S982.88 1024 952 1024z m-880-80c-13.232 0-24 10.768-24 24S58.768 992 72 992h880c13.232 0 24-10.768 24-24s-10.768-24-24-24h-880zM544 272a16 16 0 0 1-16-16V48a15.36 15.36 0 0 0-4.608-11.104A15.616 15.616 0 0 0 512 32c-8.816 0-16 7.168-16 16v208a16 16 0 1 1-32 0V48c0-26.464 21.536-48 48-48 12.976 0 25.056 5.056 34.016 14.288C554.928 22.96 560 35.024 560 48v208a16 16 0 0 1-16 16z" fill="currentColor" /><path d="M544 944h-64a16 16 0 0 1-16-16V688a16 16 0 1 1 32 0v224h32V688a16 16 0 1 1 32 0v240a16 16 0 0 1-16 16zM480 640a16 16 0 0 1-16-16V352a16 16 0 1 1 32 0v272a16 16 0 0 1-16 16zM544 640a16 16 0 0 1-16-16V352a16 16 0 1 1 32 0v272a16 16 0 0 1-16 16z" fill="currentColor" /><path d="M576 368h-128a16 16 0 0 1-16-16v-96a16 16 0 0 1 16-16h128a16 16 0 0 1 16 16v96a16 16 0 0 1-16 16z m-112-32h96v-64h-96v64zM864 526.112c-44.112 0-80-35.456-80-79.04a16 16 0 1 1 32 0c0 25.92 21.536 47.04 48 47.04a16 16 0 1 1 0 32z" fill="currentColor" /><path d="M864 590.112c-79.392 0-144-64.16-144-143.04 0-54.896 31.04-104.08 80-128.112V256a16 16 0 1 1 32 0v73.328a16 16 0 0 1-10.032 14.848C779.456 361.248 752 401.648 752 447.04c0 61.248 50.24 111.04 112 111.04s112-49.792 112-111.04c0-45.408-27.456-85.808-69.968-102.88a16 16 0 0 1-10.032-14.848V256a16 16 0 1 1 32 0v62.96a142.288 142.288 0 0 1 80 128.096c0 78.88-64.608 143.04-144 143.04z" fill="currentColor" /><path d="M944 272H784a16 16 0 0 1-16-16v-48a16 16 0 0 1 16-16h160a16 16 0 0 1 16 16v48a16 16 0 0 1-16 16z m-144-32h128v-16h-128v16zM816 320H576a16 16 0 1 1 0-32h240a16 16 0 1 1 0 32zM960 128c-4.16 0-8.32-1.76-11.36-4.64-2.88-3.04-4.64-7.2-4.64-11.36s1.76-8.32 4.64-11.36c6.08-5.92 16.8-5.92 22.72 0 2.88 3.04 4.64 7.2 4.64 11.36s-1.76 8.32-4.64 11.36c-3.04 2.88-7.04 4.64-11.36 4.64zM752 80c-4.16 0-8.32-1.76-11.36-4.64-2.88-3.04-4.64-7.2-4.64-11.36s1.76-8.32 4.64-11.36c6.08-5.92 16.8-5.92 22.72 0 2.88 3.04 4.64 7.04 4.64 11.36 0 4.32-1.76 8.32-4.64 11.36-3.04 2.88-7.04 4.64-11.36 4.64zM832 176c-4.16 0-8.32-1.76-11.36-4.64-2.88-3.04-4.64-7.2-4.64-11.36s1.76-8.32 4.64-11.36c5.92-5.92 16.64-5.92 22.72 0 2.88 3.04 4.64 7.2 4.64 11.36s-1.76 8.32-4.64 11.36c-3.04 2.88-7.2 4.64-11.36 4.64zM864 80a16 16 0 0 1-16-16V32a16 16 0 1 1 32 0v32a16 16 0 0 1-16 16z" fill="currentColor" /><path d="M880 64h-32a16 16 0 1 1 0-32h32a16 16 0 1 1 0 32zM576 704h-128a16 16 0 0 1-16-16v-64a16 16 0 0 1 16-16h128a16 16 0 0 1 16 16v64a16 16 0 0 1-16 16z m-112-32h96v-32h-96v32z" fill="currentColor" /><path d="M448 672H64a16 16 0 1 1 0-32h384a16 16 0 1 1 0 32z" fill="currentColor" /><path d="M128 880c-44.112 0-80-35.888-80-80V541.28A48.096 48.096 0 0 1 16 496c0-26.464 21.536-48 48-48h128c26.464 0 48 21.536 48 48a48.096 48.096 0 0 1-32 45.28V800c0 44.112-35.888 80-80 80zM64 480a16.016 16.016 0 0 0 0 32 16 16 0 0 1 16 16v272c0 26.464 21.536 48 48 48s48-21.536 48-48V528a16 16 0 0 1 16-16 16.016 16.016 0 0 0 0-32H64z" fill="currentColor" /><path d="M192 736H64a16 16 0 1 1 0-32h128a16 16 0 1 1 0 32zM128 416c-26.464 0-48-21.536-48-48s21.536-48 48-48 48 21.536 48 48-21.536 48-48 48z m0-64a16.016 16.016 0 0 0 0 32 16.016 16.016 0 0 0 0-32zM80 288c-4.16 0-8.32-1.76-11.36-4.64-2.88-3.04-4.64-7.2-4.64-11.36s1.76-8.32 4.64-11.36c5.92-5.92 16.8-5.92 22.72 0 2.88 3.04 4.64 7.2 4.64 11.36s-1.76 8.32-4.64 11.36c-3.04 2.88-7.2 4.64-11.36 4.64zM160 240c-4.16 0-8.32-1.76-11.36-4.64-2.88-3.04-4.64-7.2-4.64-11.36s1.76-8.32 4.64-11.36c5.92-5.92 16.8-5.92 22.72 0 2.88 3.04 4.64 7.2 4.64 11.36s-1.76 8.32-4.64 11.36c-3.04 2.88-7.2 4.64-11.36 4.64z" fill="currentColor" /></svg>