<?xml version="1.0" standalone="no"?><!DOCTYPE svg PUBLIC "-//W3C//DTD SVG 1.1//EN" "http://www.w3.org/Graphics/SVG/1.1/DTD/svg11.dtd"><svg class="icon" width="200px" height="200.00px" viewBox="0 0 1024 1024" version="1.1" xmlns="http://www.w3.org/2000/svg"><path d="M800 864H160V32h96v736h544z" fill="currentColor" /><path d="M208 832a16 16 0 0 1-11.312-27.312l704-704a16 16 0 1 1 22.624 22.624l-704 704A15.952 15.952 0 0 1 208 832zM1008 32c-4.16 0-8.32-1.76-11.36-4.64-2.88-3.04-4.64-7.2-4.64-11.36 0-4.16 1.76-8.32 4.64-11.36 5.92-5.92 16.8-5.92 22.72 0 2.88 3.04 4.64 7.2 4.64 11.36 0 4.16-1.76 8.32-4.64 11.36-3.04 2.88-7.2 4.64-11.36 4.64zM960 80c-4.16 0-8.32-1.76-11.36-4.64-2.88-3.04-4.64-7.04-4.64-11.36 0-4.16 1.76-8.32 4.64-11.36 5.92-5.92 16.64-5.92 22.72 0 2.88 3.04 4.64 7.2 4.64 11.36 0 4.16-1.76 8.32-4.64 11.36-3.04 2.88-7.2 4.64-11.36 4.64zM112 288H16a16 16 0 0 1-16-16v-96a16 16 0 0 1 16-16h96a16 16 0 0 1 0 32H32v64h80a16 16 0 0 1 0 32z" fill="currentColor" /><path d="M848 1024h-96a16 16 0 0 1-16-16V288H208a16 16 0 0 1 0-32h544a16 16 0 0 1 16 16v720h64V192H208a16 16 0 0 1 0-32h640a16 16 0 0 1 16 16v832a16 16 0 0 1-16 16z" fill="currentColor" /><path d="M944 928h-96a16 16 0 0 1 0-32h80v-64h-80a16 16 0 0 1 0-32h96a16 16 0 0 1 16 16v96a16 16 0 0 1-16 16zM752 928H112a16 16 0 0 1-16-16V80a16 16 0 0 1 16-16h96a16 16 0 0 1 16 16v720h528a16 16 0 0 1 0 32H208a16 16 0 0 1-16-16V96H128v800h624a16 16 0 0 1 0 32z" fill="currentColor" /><path d="M688 768c-4.16 0-8.32-1.76-11.36-4.64-2.88-3.04-4.64-7.2-4.64-11.36 0-4.16 1.76-8.32 4.64-11.36 5.92-5.92 16.8-5.92 22.72 0 2.88 3.04 4.64 7.2 4.64 11.36 0 4.16-1.76 8.32-4.64 11.36-3.04 2.88-7.2 4.64-11.36 4.64zM624 768c-4.16 0-8.32-1.76-11.36-4.64-2.88-3.04-4.64-7.04-4.64-11.36s1.76-8.32 4.64-11.36c5.92-5.92 16.8-5.92 22.72 0.16 2.88 2.88 4.64 7.04 4.64 11.2 0 4.16-1.76 8.32-4.64 11.36-3.04 2.88-7.2 4.64-11.36 4.64zM560 768c-4.16 0-8.32-1.76-11.36-4.64-2.88-3.04-4.64-7.2-4.64-11.36 0-4.16 1.76-8.32 4.64-11.36 6.08-5.92 16.8-5.92 22.72 0 2.88 3.04 4.64 7.2 4.64 11.36 0 4.16-1.76 8.32-4.64 11.36-3.04 2.88-7.2 4.64-11.36 4.64zM688 704c-4.16 0-8.32-1.76-11.36-4.64-2.88-3.04-4.64-7.2-4.64-11.36 0-4.16 1.76-8.32 4.64-11.36 5.92-5.92 16.64-5.92 22.72 0 2.88 3.04 4.64 7.2 4.64 11.36 0 4.16-1.76 8.32-4.64 11.36-3.04 2.88-7.2 4.64-11.36 4.64zM624 704c-4.16 0-8.32-1.76-11.36-4.64-2.88-3.04-4.64-7.04-4.64-11.36s1.76-8.32 4.64-11.36c5.92-5.92 16.8-5.92 22.72 0.16 2.88 2.88 4.64 7.04 4.64 11.2 0 4.16-1.76 8.32-4.64 11.36-3.04 2.88-7.2 4.64-11.36 4.64zM688 640c-4.16 0-8.32-1.76-11.36-4.64-2.88-3.04-4.64-7.2-4.64-11.36 0-4.16 1.76-8.32 4.64-11.36 5.92-5.92 16.64-5.92 22.72 0 2.88 3.04 4.64 7.2 4.64 11.36 0 4.16-1.76 8.32-4.64 11.36-3.04 2.88-7.2 4.64-11.36 4.64z" fill="currentColor" /></svg>