<?xml version="1.0" standalone="no"?><!DOCTYPE svg PUBLIC "-//W3C//DTD SVG 1.1//EN" "http://www.w3.org/Graphics/SVG/1.1/DTD/svg11.dtd"><svg class="icon" width="200px" height="200.00px" viewBox="0 0 1024 1024" version="1.1" xmlns="http://www.w3.org/2000/svg"><path d="M560.02112 544m-176 0a176 176 0 1 0 352 0 176 176 0 1 0-352 0Z" fill="currentColor" /><path d="M512.02112 976a15.952 15.952 0 0 1-7.968-2.128l-320-184A16 16 0 0 1 176.02112 776v-368a16 16 0 0 1 8.032-13.872l320-184a15.952 15.952 0 0 1 15.936 0l320 184A16 16 0 0 1 848.02112 408v368a16 16 0 0 1-8.032 13.872l-320 184A15.952 15.952 0 0 1 512.02112 976zM208.02112 766.736l304 174.816L816.02112 766.72V417.28L512.02112 242.448 208.02112 417.28V766.72z" fill="currentColor" /><path d="M512.00512 608a15.872 15.872 0 0 1-7.952-2.128l-320-184a16 16 0 1 1 15.936-27.744l320 184A16 16 0 0 1 512.00512 608z" fill="currentColor" /><path d="M512.03712 608a16 16 0 0 1-7.984-29.872l320-184a16 16 0 0 1 15.936 27.744l-320 184a15.872 15.872 0 0 1-7.952 2.128z" fill="currentColor" /><path d="M512.02112 976a16 16 0 0 1-16-16V592a16 16 0 1 1 32 0v368a16 16 0 0 1-16 16z" fill="currentColor" /><path d="M512.02112 976a15.888 15.888 0 0 1-7.984-2.144l-319.12-184a15.968 15.968 0 0 1-8.016-13.856v-368c0-5.712 3.04-11.008 8-13.856l319.136-184a15.936 15.936 0 0 1 15.968 0l319.12 184c4.96 2.848 8.016 8.144 8.016 13.856v368c0 5.712-3.04 11.008-8 13.856l-319.136 184A15.904 15.904 0 0 1 512.02112 976zM208.90112 766.752L512.02112 941.536l303.12-174.784V417.248L512.02112 242.464 208.90112 417.248v349.504z" fill="currentColor" /><path d="M16.03712 896.32a15.984 15.984 0 0 1-8.064-29.84l399.2-232a16 16 0 0 1 16.096 27.68l-399.2 232A15.952 15.952 0 0 1 16.02112 896.32zM1008.00512 896.32a15.952 15.952 0 0 1-8.032-2.16l-399.2-232a16 16 0 0 1 16.096-27.68l399.2 232a16 16 0 0 1-8.064 29.84zM512.02112 496a16 16 0 0 1-16-16V16a16 16 0 1 1 32 0v464a16 16 0 0 1-16 16z" fill="currentColor" /><path d="M144.02112 912H16.02112a16 16 0 0 1-16-16v-128a16 16 0 1 1 32 0v112h112a16 16 0 1 1 0 32zM1008.02112 912h-128a16 16 0 1 1 0-32h112v-112a16 16 0 1 1 32 0v128a16 16 0 0 1-16 16zM608.02112 128a15.952 15.952 0 0 1-11.312-4.688L512.02112 38.624l-84.688 84.688a16 16 0 1 1-22.624-22.624l96-96a16 16 0 0 1 22.624 0l96 96A16 16 0 0 1 608.02112 128zM512.02112 784c-105.872 0-192-86.128-192-192s86.128-192 192-192 192 86.128 192 192-86.128 192-192 192z m0-352c-88.224 0-160 71.776-160 160s71.776 160 160 160 160-71.776 160-160-71.776-160-160-160zM144.02112 400c-4.16 0-8.32-1.76-11.36-4.64-2.88-3.04-4.64-7.2-4.64-11.36 0-4.16 1.76-8.32 4.64-11.36 5.92-5.92 16.8-5.92 22.72 0 2.88 3.04 4.64 7.2 4.64 11.36 0 4.16-1.76 8.32-4.64 11.36-3.04 2.88-7.2 4.64-11.36 4.64zM880.02112 400c-4.16 0-8.32-1.76-11.36-4.64-2.88-3.04-4.64-7.2-4.64-11.36 0-4.16 1.76-8.32 4.64-11.36 5.92-5.92 16.8-5.92 22.72 0 2.88 3.04 4.64 7.2 4.64 11.36 0 4.16-1.76 8.32-4.64 11.36-3.04 3.04-7.2 4.64-11.36 4.64zM512.02112 1024c-4.16 0-8.32-1.76-11.36-4.64-2.88-3.04-4.64-7.2-4.64-11.36 0-4.16 1.76-8.32 4.64-11.36 5.92-5.92 16.8-5.92 22.72 0 2.88 3.04 4.64 7.2 4.64 11.36 0 4.16-1.76 8.32-4.64 11.36-3.04 2.88-7.2 4.64-11.36 4.64z" fill="currentColor" /></svg>