<?xml version="1.0" standalone="no"?><!DOCTYPE svg PUBLIC "-//W3C//DTD SVG 1.1//EN" "http://www.w3.org/Graphics/SVG/1.1/DTD/svg11.dtd"><svg class="icon" width="200px" height="200.00px" viewBox="0 0 1024 1024" version="1.1" xmlns="http://www.w3.org/2000/svg"><path d="M735.99333 335.996955L511.99536 623.994345 287.99739 335.996955z" fill="currentColor" /><path d="M975.991155 863.99217H47.999565c-26.46376 0-47.999565-21.535805-47.999565-47.999565V143.998695c0-26.46376 21.535805-47.999565 47.999565-47.999565h175.998405a15.999855 15.999855 0 1 1 0 31.99971H47.999565c-8.83192 0-15.999855 7.183935-15.999855 15.999855v671.99391c0 8.81592 7.167935 15.999855 15.999855 15.999855h927.99159c8.83192 0 15.999855-7.183935 15.999855-15.999855V143.998695c0-8.81592-7.167935-15.999855-15.999855-15.999855H799.99275a15.999855 15.999855 0 1 1 0-31.99971h175.998405c26.46376 0 47.999565 21.535805 47.999565 47.999565v671.99391c0 26.46376-21.535805 47.999565-47.999565 47.999565z" fill="currentColor" /><path d="M943.991445 703.99362H79.999275a15.999855 15.999855 0 0 1-15.999855-15.999855V175.998405a15.999855 15.999855 0 0 1 15.999855-15.999855h143.998695a15.999855 15.999855 0 1 1 0 31.99971H95.99913v479.99565h831.99246V191.99826h-127.99884a15.999855 15.999855 0 1 1 0-31.99971h143.998695a15.999855 15.999855 0 0 1 15.999855 15.999855v511.99536a15.999855 15.999855 0 0 1-15.999855 15.999855zM624.314342 1023.99072a1.375988 1.375988 0 0 1-0.319997 0H399.996375a15.999855 15.999855 0 0 1-15.679858-19.135826l31.99971-159.998551A15.999855 15.999855 0 0 1 431.996085 831.99246h159.99855a15.999855 15.999855 0 0 1 15.679858 12.863883l31.391715 156.958578A15.999855 15.999855 0 0 1 624.314342 1023.99072z m-204.798144-31.99971h184.958324l-25.599768-127.99884h-133.758788l-25.599768 127.99884zM1007.990865 767.99304H15.999855a15.999855 15.999855 0 1 1 0-31.99971h991.99101a15.999855 15.999855 0 1 1 0 31.99971z" fill="currentColor" /><path d="M687.993765 1023.99072H335.996955a15.999855 15.999855 0 1 1 0-31.99971h351.99681a15.999855 15.999855 0 1 1 0 31.99971zM511.99536 815.992605c-4.159962 0-8.319925-1.759984-11.359897-4.639958-2.879974-3.039972-4.639958-7.199935-4.639958-11.359897 0-4.159962 1.759984-8.319925 4.639958-11.359897 5.919946-5.919946 16.799848-5.919946 22.719794 0 2.879974 3.039972 4.639958 7.199935 4.639958 11.359897 0 4.159962-1.759984 8.319925-4.639958 11.359897-3.039972 2.879974-7.199935 4.639958-11.359897 4.639958zM735.99333 287.99739H287.99739a15.999855 15.999855 0 0 1-15.999855-15.999855V15.999855a15.999855 15.999855 0 1 1 31.99971 0v239.997825h415.99623V15.999855a15.999855 15.999855 0 1 1 31.99971 0v255.99768a15.999855 15.999855 0 0 1-15.999855 15.999855z" fill="currentColor" /><path d="M511.99536 575.99478a15.999855 15.999855 0 0 1-12.639885-6.175944l-223.99797-287.99739a15.999855 15.999855 0 1 1 25.27977-19.647822L511.99536 533.931161l211.358085-271.757537a15.999855 15.999855 0 0 1 25.247771 19.647822l-223.98197 287.99739A15.999855 15.999855 0 0 1 511.99536 575.99478z" fill="currentColor" /><path d="M611.514458 447.99594H412.476262a15.999855 15.999855 0 1 1 0-31.99971h199.038196a15.999855 15.999855 0 1 1 0 31.99971zM367.996665 287.99739a15.999855 15.999855 0 0 1-15.999855-15.999855V15.999855a15.999855 15.999855 0 1 1 31.99971 0v255.99768a15.999855 15.999855 0 0 1-15.999855 15.999855zM463.995795 287.99739a15.999855 15.999855 0 0 1-15.999855-15.999855V15.999855a15.999855 15.999855 0 1 1 31.99971 0v255.99768a15.999855 15.999855 0 0 1-15.999855 15.999855zM559.994925 287.99739a15.999855 15.999855 0 0 1-15.999855-15.999855V15.999855a15.999855 15.999855 0 1 1 31.99971 0v255.99768a15.999855 15.999855 0 0 1-15.999855 15.999855zM655.994055 287.99739a15.999855 15.999855 0 0 1-15.999855-15.999855V15.999855a15.999855 15.999855 0 1 1 31.99971 0v255.99768a15.999855 15.999855 0 0 1-15.999855 15.999855z" fill="currentColor" /></svg>