<?xml version="1.0" standalone="no"?><!DOCTYPE svg PUBLIC "-//W3C//DTD SVG 1.1//EN" "http://www.w3.org/Graphics/SVG/1.1/DTD/svg11.dtd"><svg class="icon" width="200px" height="200.00px" viewBox="0 0 1024 1024" version="1.1" xmlns="http://www.w3.org/2000/svg"><path d="M144 256h736v128H144zM624 800h160v128H624zM368 816h160v128H368z" fill="currentColor" /><path d="M1008 992H16a16 16 0 1 1 0-32h992a16 16 0 1 1 0 32z" fill="currentColor" /><path d="M976 992a16 16 0 0 1-16-16V112c0-8.832-7.184-16-16-16H80c-8.816 0-16 7.168-16 16v864a16 16 0 1 1-32 0V112c0-26.464 21.536-48 48-48h864c26.464 0 48 21.536 48 48v864a16 16 0 0 1-16 16z" fill="currentColor" /><path d="M880 352H144a16 16 0 0 1-16-16v-128a16 16 0 0 1 16-16h736a16 16 0 0 1 16 16v128a16 16 0 0 1-16 16z m-720-32h704v-96H160v96z" fill="currentColor" /><path d="M848 992H176a16 16 0 0 1-16-16V336a16 16 0 0 1 16-16h672a16 16 0 0 1 16 16v640a16 16 0 0 1-16 16z m-656-32h640V352H192v608z" fill="currentColor" /><path d="M848 432H176a16 16 0 1 1 0-32h672a16 16 0 1 1 0 32zM848 512H176a16 16 0 1 1 0-32h672a16 16 0 1 1 0 32zM848 592H176a16 16 0 1 1 0-32h672a16 16 0 1 1 0 32zM848 672H176a16 16 0 1 1 0-32h672a16 16 0 1 1 0 32zM752 992H592a16 16 0 0 1-16-16v-128a16 16 0 0 1 16-16h160a16 16 0 0 1 16 16v128a16 16 0 0 1-16 16z m-144-32h128v-96h-128v96z" fill="currentColor" /><path d="M592 992H432a16 16 0 0 1-16-16v-128a16 16 0 0 1 16-16h160a16 16 0 0 1 16 16v128a16 16 0 0 1-16 16z m-144-32h128v-96h-128v96z" fill="currentColor" /><path d="M672 864H512a16 16 0 0 1-16-16v-128a16 16 0 0 1 16-16h160a16 16 0 0 1 16 16v128a16 16 0 0 1-16 16z m-144-32h128v-96h-128v96z" fill="currentColor" /><path d="M672 896a16 16 0 0 1-16-16v-32a16 16 0 1 1 32 0v32a16 16 0 0 1-16 16zM512 896a16 16 0 0 1-16-16v-32a16 16 0 1 1 32 0v32a16 16 0 0 1-16 16zM592 768a16 16 0 0 1-16-16v-32a16 16 0 1 1 32 0v32a16 16 0 0 1-16 16zM208 288c-4.16 0-8.32-1.76-11.36-4.64-2.88-3.04-4.64-7.2-4.64-11.36s1.76-8.32 4.64-11.36c6.08-5.92 16.8-5.92 22.72 0 2.88 3.04 4.64 7.2 4.64 11.36s-1.76 8.32-4.64 11.36c-3.04 2.88-7.2 4.64-11.36 4.64zM272 288c-4.16 0-8.32-1.76-11.36-4.64-2.88-3.04-4.64-7.2-4.64-11.36s1.76-8.32 4.64-11.36c6.08-5.92 16.8-5.92 22.72 0 2.88 3.04 4.64 7.2 4.64 11.36s-1.76 8.32-4.64 11.36c-3.04 2.88-7.2 4.64-11.36 4.64z" fill="currentColor" /></svg>