<?xml version="1.0" standalone="no"?><!DOCTYPE svg PUBLIC "-//W3C//DTD SVG 1.1//EN" "http://www.w3.org/Graphics/SVG/1.1/DTD/svg11.dtd"><svg class="icon" width="200px" height="200.00px" viewBox="0 0 1024 1024" version="1.1" xmlns="http://www.w3.org/2000/svg"><path d="M112.03232 176l768 384-592-48z" fill="currentColor" /><path d="M784.04832 480c-0.432 0-0.88-0.016-1.312-0.048l-592-48a16.032 16.032 0 0 1-12.88-8.528l-176-336a16 16 0 0 1 21.328-21.744l766.32 383.168A16.016 16.016 0 0 1 784.35232 480H784.03232zM202.11232 400.768l500.912 40.608L53.20032 116.464l148.912 284.304z" fill="currentColor" /><path d="M468.99232 322.4a15.984 15.984 0 0 1-9.168-29.104l347.04-242.4a16 16 0 0 1 18.32 26.208l-347.04 242.4a15.872 15.872 0 0 1-9.136 2.896z" fill="currentColor" /><path d="M784.04832 480l-1.296-0.048a16 16 0 0 1-14.672-17.232l32-400a16 16 0 0 1 31.904 2.56l-32 400a16 16 0 0 1-15.936 14.72z" fill="currentColor" /><path d="M802.11232 254.72a15.984 15.984 0 0 1-5.712-30.944L968.35232 158.048l-159.472-79.728a16 16 0 1 1 14.304-28.64l192 96a16.016 16.016 0 0 1-1.44 29.264l-205.92 78.72a16.032 16.032 0 0 1-5.712 1.056zM16.03232 1024a16.016 16.016 0 0 1-15.344-20.56l176-592c2.528-8.48 11.344-13.2 19.904-10.784 8.48 2.528 13.296 11.44 10.784 19.904l-176 592A16 16 0 0 1 16.03232 1024z" fill="currentColor" /><path d="M16.04832 1024a16 16 0 0 1-9.28-29.056l768-544a16.016 16.016 0 0 1 18.512 26.112l-768 544a15.952 15.952 0 0 1-9.232 2.944zM377.80832 276.8a16 16 0 0 1-13.952-8.16l-137.76-244.8A15.968 15.968 0 1 1 253.95232 8.16l137.76 244.8a15.968 15.968 0 0 1-13.92 23.84z" fill="currentColor" /><path d="M238.59232 198.08h-0.144a16 16 0 0 1-15.84-16.144L224.03232 15.856A16 16 0 0 1 240.03232 0h0.144A16 16 0 0 1 256.03232 16.144l-1.44 166.08a16 16 0 0 1-16 15.84zM331.87232 775.36a15.968 15.968 0 0 1-14.816-9.968l-139.84-343.36a15.968 15.968 0 0 1 8.8-20.848 15.952 15.952 0 0 1 20.832 8.8l139.84 343.344a15.968 15.968 0 0 1-14.816 22.032z" fill="currentColor" /></svg>