<?xml version="1.0" standalone="no"?><!DOCTYPE svg PUBLIC "-//W3C//DTD SVG 1.1//EN" "http://www.w3.org/Graphics/SVG/1.1/DTD/svg11.dtd"><svg class="icon" width="200px" height="200.00px" viewBox="0 0 1024 1024" version="1.1" xmlns="http://www.w3.org/2000/svg"><path d="M240 352h320v160H240zM896 176L816 16l-80 160v752a80 80 0 0 0 160 0V176z" fill="currentColor" /><path d="M672 1024H64a16 16 0 0 1-16-16V16a16 16 0 0 1 16-16h608c26.464 0 48 21.536 48 48v928c0 26.464-21.536 48-48 48zM80 992h592c8.832 0 16-7.184 16-16V48c0-8.816-7.168-16-16-16H80v960z" fill="currentColor" /><path d="M112 96H16a16 16 0 1 1 0-32h96a16 16 0 1 1 0 32zM112 192H16a16 16 0 1 1 0-32h96a16 16 0 1 1 0 32zM112 288H16a16 16 0 1 1 0-32h96a16 16 0 1 1 0 32zM112 384H16a16 16 0 1 1 0-32h96a16 16 0 1 1 0 32zM112 480H16a16 16 0 1 1 0-32h96a16 16 0 1 1 0 32zM112 576H16a16 16 0 1 1 0-32h96a16 16 0 1 1 0 32zM112 672H16a16 16 0 1 1 0-32h96a16 16 0 1 1 0 32zM112 768H16a16 16 0 1 1 0-32h96a16 16 0 1 1 0 32zM112 864H16a16 16 0 1 1 0-32h96a16 16 0 1 1 0 32zM112 960H16a16 16 0 1 1 0-32h96a16 16 0 1 1 0 32zM192 1024a16 16 0 0 1-16-16V16a16 16 0 1 1 32 0v992a16 16 0 0 1-16 16zM608 480H288a16 16 0 0 1-16-16V304a16 16 0 0 1 16-16h320a16 16 0 0 1 16 16v160a16 16 0 0 1-16 16z m-304-32h288v-128H304v128z" fill="currentColor" /><path d="M544 416H352a16 16 0 1 1 0-32h192a16 16 0 1 1 0 32zM640 960c-4.16 0-8.32-1.76-11.36-4.64-2.88-3.04-4.64-7.2-4.64-11.36 0-4.16 1.76-8.32 4.64-11.36 6.08-5.92 16.64-5.92 22.72 0 2.88 3.04 4.64 7.2 4.64 11.36 0 4.16-1.76 8.32-4.64 11.36-3.04 2.88-7.2 4.64-11.36 4.64zM576 960c-4.16 0-8.32-1.76-11.36-4.64-2.88-3.04-4.64-7.2-4.64-11.36 0-4.32 1.76-8.32 4.64-11.36 5.92-5.92 16.8-5.92 22.72 0 2.88 3.04 4.64 7.04 4.64 11.36 0 4.16-1.76 8.32-4.64 11.36-3.04 2.88-7.2 4.64-11.36 4.64zM512 960c-4.32 0-8.32-1.76-11.36-4.64-2.88-3.04-4.64-7.2-4.64-11.36 0-4.16 1.76-8.32 4.64-11.36 6.08-5.92 16.8-5.92 22.72 0 2.88 3.04 4.64 7.04 4.64 11.36 0 4.16-1.76 8.32-4.64 11.36-3.04 2.88-7.04 4.64-11.36 4.64zM448 960c-4.16 0-8.32-1.76-11.36-4.64-2.88-3.04-4.64-7.2-4.64-11.36 0-4.16 1.76-8.32 4.64-11.36 6.08-5.92 16.8-5.92 22.72 0 2.88 3.04 4.64 7.2 4.64 11.36 0 4.32-1.76 8.32-4.8 11.36-2.88 2.88-7.04 4.64-11.2 4.64zM384 960c-4.16 0-8.32-1.76-11.36-4.64A16.48 16.48 0 0 1 368 944c0-4.16 1.76-8.32 4.64-11.36 6.08-5.92 16.8-5.92 22.72 0 2.88 3.04 4.64 7.2 4.64 11.36 0 4.32-1.76 8.32-4.8 11.36-2.88 2.88-7.04 4.64-11.2 4.64zM640 896c-4.16 0-8.32-1.76-11.36-4.64-2.88-3.04-4.64-7.2-4.64-11.36 0-4.16 1.76-8.32 4.64-11.36 5.92-5.92 16.8-5.92 22.72 0 2.88 3.04 4.64 7.2 4.64 11.36 0 4.16-1.76 8.32-4.64 11.36-3.04 2.88-7.2 4.64-11.36 4.64zM576 896c-4.16 0-8.32-1.76-11.36-4.64-2.88-3.04-4.64-7.2-4.64-11.36 0-4.32 1.76-8.32 4.64-11.36 6.08-5.92 16.8-5.92 22.72 0 2.88 3.04 4.64 7.2 4.64 11.36 0 4.16-1.76 8.32-4.64 11.36-3.04 2.88-7.04 4.64-11.36 4.64zM512 896c-4.16 0-8.32-1.76-11.36-4.64-2.88-3.04-4.64-7.2-4.64-11.36 0-4.16 1.76-8.32 4.64-11.36 5.92-5.92 16.8-5.92 22.72 0 2.88 3.04 4.64 7.04 4.64 11.36s-1.76 8.32-4.64 11.36c-3.04 2.88-7.04 4.64-11.36 4.64zM448 896c-4.16 0-8.32-1.76-11.36-4.64-2.88-3.04-4.64-7.2-4.64-11.36 0-4.16 1.76-8.32 4.64-11.36 6.08-5.92 16.8-5.92 22.72 0 2.88 3.04 4.64 7.2 4.64 11.36 0 4.16-1.76 8.32-4.64 11.36-3.04 2.88-7.2 4.64-11.36 4.64zM640 832c-4.16 0-8.32-1.76-11.36-4.64-2.88-3.04-4.64-7.2-4.64-11.36 0-4.16 1.76-8.32 4.64-11.36 5.92-5.92 16.8-5.92 22.72 0 2.88 3.04 4.64 7.2 4.64 11.36 0 4.16-1.76 8.32-4.64 11.36-3.04 2.88-7.2 4.64-11.36 4.64zM576 832c-4.16 0-8.32-1.76-11.36-4.64A16.48 16.48 0 0 1 560 816c0-4.16 1.76-8.32 4.64-11.36 6.08-5.92 16.8-5.92 22.72 0 2.88 3.04 4.64 7.2 4.64 11.36 0 4.32-1.76 8.32-4.64 11.36-3.04 2.88-7.2 4.64-11.36 4.64zM512 832c-4.16 0-8.32-1.76-11.36-4.64-2.88-3.04-4.64-7.2-4.64-11.36 0-4.16 1.76-8.32 4.64-11.36 5.92-5.92 16.8-5.92 22.72 0 2.88 3.04 4.64 7.2 4.64 11.36 0 4.32-1.76 8.32-4.64 11.36-3.04 2.88-7.04 4.64-11.36 4.64zM640 768c-4.16 0-8.32-1.76-11.36-4.64-2.88-3.04-4.64-7.2-4.64-11.36 0-4.16 1.76-8.32 4.64-11.36 5.92-5.92 16.8-5.92 22.72 0 2.88 3.04 4.64 7.2 4.64 11.36 0 4.16-1.76 8.32-4.64 11.36-3.04 2.88-7.2 4.64-11.36 4.64zM576 768c-4.16 0-8.32-1.76-11.36-4.64A16.48 16.48 0 0 1 560 752c0-4.16 1.76-8.32 4.64-11.36 6.08-5.92 16.8-5.92 22.72 0 2.88 3.04 4.64 7.2 4.64 11.36 0 4.32-1.76 8.32-4.64 11.36-3.04 2.88-7.04 4.64-11.36 4.64zM864 1024c-52.944 0-96-43.056-96-96V176a16 16 0 0 1 1.68-7.152l80-160c5.44-10.848 23.2-10.848 28.64 0l80 160A16 16 0 0 1 960 176v752c0 52.944-43.056 96-96 96z m-64-844.224V928c0 35.296 28.704 64 64 64s64-28.704 64-64V179.776l-64-128-64 128z" fill="currentColor" /><path d="M976 880H784a16 16 0 1 1 0-32h192c8.832 0 16-7.184 16-16V576a16 16 0 1 1 32 0v256c0 26.464-21.536 48-48 48zM944 208h-64a16 16 0 1 1 0-32h64a16 16 0 1 1 0 32zM944 272h-64a16 16 0 1 1 0-32h64a16 16 0 1 1 0 32zM944 336h-64a16 16 0 1 1 0-32h64a16 16 0 1 1 0 32zM944 400h-64a16 16 0 1 1 0-32h64a16 16 0 1 1 0 32z" fill="currentColor" /><path d="M864 816c-4.16 0-8.32-1.76-11.36-4.64-2.88-3.04-4.64-7.2-4.64-11.36 0-4.16 1.76-8.32 4.64-11.36 5.92-5.92 16.64-5.92 22.72 0 2.88 3.04 4.64 7.2 4.64 11.36 0 4.16-1.76 8.32-4.64 11.36-3.04 2.88-7.2 4.64-11.36 4.64zM864 752c-4.16 0-8.32-1.76-11.36-4.64-2.88-3.04-4.64-7.2-4.64-11.36 0-4.16 1.76-8.32 4.64-11.36 6.08-5.92 16.64-5.92 22.72 0 2.88 3.04 4.64 7.2 4.64 11.36 0 4.16-1.76 8.32-4.64 11.36-3.04 2.88-7.2 4.64-11.36 4.64zM864 688c-4.16 0-8.32-1.76-11.36-4.64-2.88-3.04-4.64-7.2-4.64-11.36 0-4.16 1.76-8.32 4.64-11.36 5.92-5.92 16.64-5.92 22.72 0 2.88 3.04 4.64 7.2 4.64 11.36 0 4.16-1.6 8.32-4.64 11.36-3.04 3.04-7.2 4.64-11.36 4.64zM864 624c-4.16 0-8.32-1.76-11.36-4.64-2.88-3.04-4.64-7.2-4.64-11.36 0-4.16 1.76-8.32 4.64-11.36 6.08-5.92 16.64-5.92 22.72 0 2.88 3.04 4.64 7.2 4.64 11.36 0 4.16-1.76 8.32-4.64 11.36-3.04 2.88-7.2 4.64-11.36 4.64z" fill="currentColor" /></svg>