<?xml version="1.0" standalone="no"?><!DOCTYPE svg PUBLIC "-//W3C//DTD SVG 1.1//EN" "http://www.w3.org/Graphics/SVG/1.1/DTD/svg11.dtd"><svg class="icon" width="200px" height="200.00px" viewBox="0 0 1024 1024" version="1.1" xmlns="http://www.w3.org/2000/svg"><path d="M544 576m-112 0a112 112 0 1 0 224 0 112 112 0 1 0-224 0Z" fill="currentColor" /><path d="M864 1024H160a16 16 0 0 1-16-16V16a16 16 0 0 1 16-16h512a16 16 0 1 1 0 32H176v960h672V208a16 16 0 1 1 32 0v800a16 16 0 0 1-16 16z" fill="currentColor" /><path d="M864.32 224H672a16 16 0 0 1-16-16V16a16 16 0 0 1 27.312-11.312l190.272 190.256a16 16 0 0 1-9.28 29.056zM688 192h137.376L688 54.624V192zM512 736a16 16 0 0 1-16-16V304a16 16 0 1 1 32 0v416a16 16 0 0 1-16 16z" fill="currentColor" /><path d="M720 528H304a16 16 0 1 1 0-32h416a16 16 0 1 1 0 32z" fill="currentColor" /><path d="M512 640c-70.576 0-128-57.424-128-128s57.424-128 128-128 128 57.424 128 128-57.424 128-128 128z m0-224c-52.944 0-96 43.056-96 96s43.056 96 96 96 96-43.056 96-96-43.056-96-96-96zM224 96c-4.16 0-8.32-1.76-11.36-4.64-2.88-3.04-4.64-7.2-4.64-11.36 0-4.32 1.76-8.32 4.64-11.36 5.92-5.92 16.8-5.92 22.72 0 2.88 3.04 4.64 7.04 4.64 11.36 0 4.16-1.76 8.32-4.64 11.36-3.04 2.88-7.2 4.64-11.36 4.64zM224 160c-4.16 0-8.32-1.76-11.36-4.64-2.88-3.04-4.64-7.2-4.64-11.36 0-4.32 1.76-8.32 4.64-11.36 5.92-5.92 16.64-5.92 22.72 0 2.88 3.04 4.64 7.04 4.64 11.36 0 4.16-1.76 8.32-4.64 11.36-3.04 2.88-7.2 4.64-11.36 4.64zM288 96c-4.16 0-8.32-1.76-11.36-4.64-2.88-3.04-4.64-7.2-4.64-11.36 0-4.16 1.76-8.32 4.64-11.36 6.08-5.92 16.64-5.92 22.72 0 2.88 3.04 4.64 7.2 4.64 11.36 0 4.16-1.76 8.32-4.64 11.36-3.04 2.88-7.2 4.64-11.36 4.64zM224 960c-4.16 0-8.32-1.76-11.36-4.64A16.48 16.48 0 0 1 208 944c0-4.16 1.76-8.32 4.64-11.36 6.08-5.92 16.64-5.92 22.72 0 2.88 3.04 4.64 7.2 4.64 11.36 0 4.16-1.76 8.32-4.64 11.36-3.04 2.88-7.2 4.64-11.36 4.64zM224 896c-4.16 0-8.32-1.76-11.36-4.64A16.48 16.48 0 0 1 208 880c0-4.16 1.76-8.32 4.64-11.36 6.08-5.92 16.64-5.92 22.72 0 2.88 3.04 4.64 7.2 4.64 11.36 0 4.16-1.76 8.32-4.64 11.36-3.04 2.88-7.2 4.64-11.36 4.64zM288 960c-4.16 0-8.32-1.76-11.36-4.64-2.88-3.04-4.64-7.2-4.64-11.36 0-4.16 1.76-8.32 4.64-11.36 5.92-5.92 16.8-5.92 22.72 0 2.88 3.04 4.64 7.2 4.64 11.36 0 4.32-1.76 8.32-4.8 11.36-2.88 2.88-7.04 4.64-11.2 4.64zM800 960c-4.16 0-8.32-1.76-11.36-4.64-2.88-3.04-4.64-7.2-4.64-11.36 0-4.16 1.76-8.32 4.64-11.36 6.08-5.92 16.64-5.92 22.72 0 2.88 3.04 4.64 7.2 4.64 11.36 0 4.16-1.76 8.32-4.64 11.36-3.04 2.88-7.2 4.64-11.36 4.64zM736 960c-4.32 0-8.32-1.76-11.36-4.64-2.88-2.88-4.64-7.04-4.64-11.36s1.76-8.32 4.8-11.36c5.76-5.92 16.64-5.92 22.56 0 2.88 3.04 4.64 7.04 4.64 11.36s-1.76 8.32-4.64 11.36c-3.04 2.88-7.04 4.64-11.36 4.64zM800 896c-4.16 0-8.32-1.76-11.36-4.64-2.88-3.04-4.64-7.2-4.64-11.36 0-4.16 1.76-8.32 4.64-11.36 5.92-5.92 16.64-5.92 22.72 0 2.88 3.04 4.64 7.2 4.64 11.36 0 4.16-1.76 8.32-4.64 11.36-3.04 2.88-7.2 4.64-11.36 4.64zM636.48 403.52c-4.16 0-8.32-1.6-11.36-4.64-3.04-3.04-4.64-7.2-4.64-11.36 0-4.16 1.6-8.32 4.64-11.36 5.92-5.92 16.8-5.92 22.72 0.16 2.88 2.88 4.64 7.04 4.64 11.2 0 4.16-1.76 8.32-4.8 11.36-2.88 3.04-7.04 4.64-11.2 4.64zM387.52 652.48a16.16 16.16 0 0 1-16-16c0-4.32 1.76-8.32 4.64-11.36 6.08-5.92 16.8-5.92 22.72 0 2.88 3.04 4.64 7.2 4.64 11.36 0 4.16-1.76 8.32-4.64 11.36-2.88 2.88-7.04 4.64-11.36 4.64zM636.48 652.48c-4.32 0-8.32-1.76-11.36-4.64-3.04-3.04-4.64-7.2-4.64-11.36 0-4.16 1.6-8.32 4.64-11.36 6.08-5.92 16.64-5.92 22.56 0 3.04 3.04 4.8 7.2 4.8 11.36a16.096 16.096 0 0 1-16 16zM387.52 403.52a15.52 15.52 0 0 1-11.2-4.64c-3.04-3.04-4.8-7.04-4.8-11.36 0-4.16 1.76-8.32 4.8-11.36 5.76-5.92 16.64-5.76 22.56 0.16 2.88 2.88 4.64 7.04 4.64 11.2 0 4.16-1.76 8.32-4.64 11.36-3.04 3.04-7.04 4.64-11.36 4.64z" fill="currentColor" /></svg>