<?xml version="1.0" standalone="no"?><!DOCTYPE svg PUBLIC "-//W3C//DTD SVG 1.1//EN" "http://www.w3.org/Graphics/SVG/1.1/DTD/svg11.dtd"><svg class="icon" width="200px" height="200.00px" viewBox="0 0 1024 1024" version="1.1" xmlns="http://www.w3.org/2000/svg"><path d="M160 880m-32 0a32 32 0 1 0 64 0 32 32 0 1 0-64 0Z" fill="currentColor" /><path d="M928 239.52l-128-224-128 224V976a32 32 0 0 0 32 32h192a32 32 0 0 0 32-32V239.52z" fill="currentColor" /><path d="M480 1024c-52.944 0-96-43.056-96-96V176a16 16 0 0 1 1.68-7.152l80-160c5.44-10.848 23.2-10.848 28.64 0l80 160A16 16 0 0 1 576 176v752c0 52.944-43.056 96-96 96z m-64-844.224V928c0 35.296 28.704 64 64 64s64-28.704 64-64V179.776l-64-128-64 128z" fill="currentColor" /><path d="M592 880H400a16 16 0 0 1 0-32h192c8.816 0 16-7.184 16-16V576a16 16 0 0 1 32 0v256c0 26.464-21.536 48-48 48zM560 208h-64a16 16 0 0 1 0-32h64a16 16 0 0 1 0 32zM560 272h-64a16 16 0 0 1 0-32h64a16 16 0 0 1 0 32zM560 336h-64a16 16 0 0 1 0-32h64a16 16 0 0 1 0 32zM560 400h-64a16 16 0 0 1 0-32h64a16 16 0 0 1 0 32zM976 1024H784c-26.464 0-48-21.536-48-48V239.52c0-2.8 0.72-5.536 2.112-7.952l128-224c5.68-9.968 22.08-9.968 27.776 0l128 224c1.392 2.416 2.112 5.152 2.112 7.936V976c0 26.464-21.536 48-48 48zM768 243.76V976c0 8.816 7.184 16 16 16h192c8.816 0 16-7.184 16-16V243.76l-112-196-112 196z" fill="currentColor" /><path d="M944.32 144h-128.64a16 16 0 0 1 0-32h128.64a16 16 0 0 1 0 32zM1008 255.52H752a16 16 0 0 1 0-32h256a16 16 0 0 1 0 32zM1008 864H752a16 16 0 0 1 0-32h256a16 16 0 0 1 0 32z" fill="currentColor" /><path d="M928 864a16 16 0 0 1-16-16V240a16 16 0 0 1 32 0v608a16 16 0 0 1-16 16zM832 864a16 16 0 0 1-16-16V240a16 16 0 0 1 32 0v608a16 16 0 0 1-16 16zM944 928c-4.16 0-8.32-1.76-11.36-4.64-2.88-3.04-4.64-7.2-4.64-11.36 0-4.16 1.76-8.32 4.64-11.36 5.92-5.92 16.64-5.92 22.72 0 2.88 3.04 4.64 7.2 4.64 11.36 0 4.16-1.76 8.32-4.64 11.36-3.04 2.88-7.2 4.64-11.36 4.64zM880 928c-4.16 0-8.32-1.76-11.36-4.64-2.88-3.04-4.64-7.2-4.64-11.36 0-4.32 1.76-8.32 4.64-11.36 5.92-5.92 16.8-5.92 22.72 0 2.88 3.04 4.64 7.2 4.64 11.36 0 4.16-1.76 8.32-4.64 11.36-3.04 2.88-7.2 4.64-11.36 4.64zM816 928c-4.16 0-8.32-1.76-11.36-4.64-2.88-3.04-4.64-7.2-4.64-11.36 0-4.16 1.76-8.32 4.64-11.36 5.92-5.92 16.8-5.92 22.72 0 2.88 3.04 4.64 7.2 4.64 11.36 0 4.16-1.76 8.32-4.64 11.36-3.04 2.88-7.2 4.64-11.36 4.64zM480 816c-4.16 0-8.32-1.76-11.36-4.64-2.88-3.04-4.64-7.04-4.64-11.36 0-4.16 1.76-8.32 4.64-11.36 5.92-5.92 16.8-5.92 22.72 0 2.88 3.04 4.64 7.2 4.64 11.36 0 4.16-1.76 8.32-4.64 11.36-3.04 2.88-7.2 4.64-11.36 4.64zM480 752c-4.32 0-8.32-1.76-11.36-4.64-2.88-3.04-4.64-7.2-4.64-11.36 0-4.16 1.76-8.32 4.64-11.36 5.92-5.92 16.8-5.92 22.72 0 2.88 3.04 4.64 7.2 4.64 11.36 0 4.16-1.76 8.32-4.64 11.36-3.04 2.88-7.2 4.64-11.36 4.64zM480 688c-4.16 0-8.32-1.76-11.36-4.64-2.88-3.04-4.64-7.2-4.64-11.36 0-4.16 1.76-8.32 4.64-11.36 5.92-5.92 16.64-5.92 22.72 0 2.88 3.04 4.64 7.2 4.64 11.36 0 4.16-1.76 8.32-4.64 11.36-3.04 2.88-7.2 4.64-11.36 4.64zM480 624c-4.16 0-8.32-1.76-11.36-4.64-2.88-3.04-4.64-7.2-4.64-11.36 0-4.16 1.76-8.32 4.64-11.36 6.08-5.92 16.64-5.92 22.72 0 2.88 3.04 4.64 7.2 4.64 11.36 0 4.32-1.76 8.32-4.64 11.36-3.04 2.88-7.2 4.64-11.36 4.64zM272 1024H16a16 16 0 0 1-16-16V16a16 16 0 0 1 16-16h256a16 16 0 0 1 16 16v992a16 16 0 0 1-16 16zM32 992h224V32H32v960z" fill="currentColor" /><path d="M272 112h-96a16 16 0 0 1 0-32h96a16 16 0 0 1 0 32zM272 192h-64a16 16 0 0 1 0-32h64a16 16 0 0 1 0 32zM272 272h-96a16 16 0 0 1 0-32h96a16 16 0 0 1 0 32zM272 352h-64a16 16 0 0 1 0-32h64a16 16 0 0 1 0 32zM272 432h-96a16 16 0 0 1 0-32h96a16 16 0 0 1 0 32zM272 512h-64a16 16 0 0 1 0-32h64a16 16 0 0 1 0 32zM272 592h-96a16 16 0 0 1 0-32h96a16 16 0 0 1 0 32zM272 672h-64a16 16 0 0 1 0-32h64a16 16 0 0 1 0 32zM272 752h-96a16 16 0 0 1 0-32h96a16 16 0 0 1 0 32zM272 832h-64a16 16 0 0 1 0-32h64a16 16 0 0 1 0 32zM144 960c-26.464 0-48-21.536-48-48s21.536-48 48-48 48 21.536 48 48-21.536 48-48 48z m0-64c-8.816 0-16 7.184-16 16s7.184 16 16 16 16-7.184 16-16-7.184-16-16-16z" fill="currentColor" /></svg>