<?xml version="1.0" standalone="no"?><!DOCTYPE svg PUBLIC "-//W3C//DTD SVG 1.1//EN" "http://www.w3.org/Graphics/SVG/1.1/DTD/svg11.dtd"><svg class="icon" width="200px" height="200.00px" viewBox="0 0 1024 1024" version="1.1" xmlns="http://www.w3.org/2000/svg"><path d="M512 528m-64 0a64 64 0 1 0 128 0 64 64 0 1 0-128 0Z" fill="currentColor" /><path d="M352 768m-64 0a64 64 0 1 0 128 0 64 64 0 1 0-128 0Z" fill="currentColor" /><path d="M672 608m-64 0a64 64 0 1 0 128 0 64 64 0 1 0-128 0Z" fill="currentColor" /><path d="M16 96h992v128H16z" fill="currentColor" /><path d="M1008 832H757.76a16 16 0 1 1 0-32H992V64H32v736h202.24a16 16 0 1 1 0 32H16a16 16 0 0 1-16-16V48a16 16 0 0 1 16-16h992a16 16 0 0 1 16 16v768a16 16 0 0 1-16 16z" fill="currentColor" /><path d="M1008 192H16a16 16 0 1 1 0-32h992a16 16 0 1 1 0 32zM816 128c-4.16 0-8.32-1.6-11.36-4.64A16.8 16.8 0 0 1 800 112c0-4.32 1.76-8.32 4.64-11.36 5.92-5.92 16.8-5.92 22.72 0 2.88 3.04 4.64 7.2 4.64 11.36s-1.76 8.32-4.64 11.36c-3.04 2.88-7.2 4.64-11.36 4.64zM880 128c-4.16 0-8.32-1.76-11.36-4.64-2.88-3.04-4.64-7.04-4.64-11.36 0-4.16 1.76-8.32 4.64-11.36 5.92-5.92 16.8-5.92 22.72 0.16 2.88 2.88 4.64 7.04 4.64 11.2 0 4.32-1.76 8.32-4.64 11.36-3.04 2.88-7.2 4.64-11.36 4.64zM944 128c-4.16 0-8.32-1.76-11.36-4.64-2.88-3.04-4.64-7.2-4.64-11.36s1.76-8.32 4.64-11.36c6.08-5.92 16.8-5.92 22.72 0 2.88 3.04 4.64 7.2 4.64 11.36s-1.76 8.32-4.64 11.36c-3.04 2.88-7.2 4.64-11.36 4.64z" fill="currentColor" /><path d="M752 192a16 16 0 0 1-16-16V48a16 16 0 1 1 32 0v128a16 16 0 0 1-16 16zM512 560c-44.112 0-80-35.888-80-80s35.888-80 80-80 80 35.888 80 80-35.888 80-80 80z m0-128c-26.464 0-48 21.536-48 48s21.536 48 48 48 48-21.536 48-48-21.536-48-48-48z" fill="currentColor" /><path d="M544 440.64a16 16 0 0 1-16-16V368a15.36 15.36 0 0 0-4.592-11.088A15.632 15.632 0 0 0 512 352a16 16 0 0 0-16 16v56.64a16 16 0 1 1-32 0V368c0-26.464 21.536-48 48-48a47.04 47.04 0 0 1 34.032 14.288c8.912 8.64 13.968 20.72 13.968 33.712v56.64a16 16 0 0 1-16 16zM512 992c-26.464 0-48-21.536-48-48V535.36a16 16 0 1 1 32 0V944a16 16 0 0 0 32 0V535.36a16 16 0 1 1 32 0V944c0 26.464-21.536 48-48 48zM352 992c-26.464 0-48-21.536-48-48v-72.64a16 16 0 1 1 32 0V944a16 16 0 0 0 32 0v-72.64a16 16 0 1 1 32 0V944c0 26.464-21.536 48-48 48zM384 776.64a16 16 0 0 1-16-16V368a15.36 15.36 0 0 0-4.592-11.088A15.632 15.632 0 0 0 352 352a16 16 0 0 0-16 16v392.64a16 16 0 1 1-32 0V368c0-26.464 21.536-48 48-48a47.04 47.04 0 0 1 34.032 14.288c8.912 8.64 13.968 20.72 13.968 33.712v392.64a16 16 0 0 1-16 16zM704 616.64a16 16 0 0 1-16-16V368a15.36 15.36 0 0 0-4.592-11.088A15.632 15.632 0 0 0 672 352a16 16 0 0 0-16 16v232.64a16 16 0 1 1-32 0V368c0-26.464 21.536-48 48-48a47.04 47.04 0 0 1 34.032 14.288c8.912 8.64 13.968 20.72 13.968 33.712v232.64a16 16 0 0 1-16 16zM672 992c-26.464 0-48-21.536-48-48V711.36a16 16 0 1 1 32 0V944a16 16 0 0 0 32 0V711.36a16 16 0 1 1 32 0V944c0 26.464-21.536 48-48 48z" fill="currentColor" /><path d="M352 896c-44.112 0-80-35.888-80-80s35.888-80 80-80 80 35.888 80 80-35.888 80-80 80z m0-128c-26.464 0-48 21.536-48 48s21.536 48 48 48 48-21.536 48-48-21.536-48-48-48zM672 736c-44.112 0-80-35.888-80-80s35.888-80 80-80 80 35.888 80 80-35.888 80-80 80z m0-128c-26.464 0-48 21.536-48 48s21.536 48 48 48 48-21.536 48-48-21.536-48-48-48z" fill="currentColor" /></svg>