<?xml version="1.0" standalone="no"?><!DOCTYPE svg PUBLIC "-//W3C//DTD SVG 1.1//EN" "http://www.w3.org/Graphics/SVG/1.1/DTD/svg11.dtd"><svg class="icon" width="200px" height="200.00px" viewBox="0 0 1024 1024" version="1.1" xmlns="http://www.w3.org/2000/svg"><path d="M32.256 64h959.472v64H32.256zM336 560H176V400h160v80z" fill="currentColor" /><path d="M608 720m-48 0a48 48 0 1 0 96 0 48 48 0 1 0-96 0Z" fill="currentColor" /><path d="M608 272m-48 0a48 48 0 1 0 96 0 48 48 0 1 0-96 0Z" fill="currentColor" /><path d="M864 480m-48 0a48 48 0 1 0 96 0 48 48 0 1 0-96 0Z" fill="currentColor" /><path d="M991.728 112H32.272a16 16 0 0 1-16-16V32a16 16 0 0 1 16-16h959.456a16 16 0 0 1 16 16v64a16 16 0 0 1-16 16zM48.272 80h927.456V48H48.272v32z" fill="currentColor" /><path d="M960 848H64a16 16 0 0 1-16-16V96a16 16 0 0 1 16-16h896a16 16 0 0 1 16 16v736a16 16 0 0 1-16 16zM80 816h864V112H80v704z" fill="currentColor" /><path d="M512 1008a16 16 0 0 1-16-16V832a16 16 0 1 1 32 0v160a16 16 0 0 1-16 16zM336 1008a16 16 0 0 1-16-16v-64c0-3.744 1.312-7.36 3.696-10.24l80-96a16.016 16.016 0 0 1 24.592 20.496L352 933.792V992a16 16 0 0 1-16 16zM688 1008a16 16 0 0 1-16-16v-58.208l-76.304-91.536a16.016 16.016 0 0 1 24.608-20.512l80 96c2.384 2.88 3.696 6.512 3.696 10.256v64a16 16 0 0 1-16 16z" fill="currentColor" /><path d="M688 944H336a16 16 0 1 1 0-32h352a16 16 0 1 1 0 32zM304 544H144a16 16 0 0 1-16-16V368a16 16 0 0 1 16-16h160a16 16 0 0 1 16 16v160a16 16 0 0 1-16 16z m-144-32h128v-128h-128v128zM576 752c-35.296 0-64-28.704-64-64s28.704-64 64-64 64 28.704 64 64-28.704 64-64 64z m0-96c-17.648 0-32 14.352-32 32s14.352 32 32 32 32-14.352 32-32-14.352-32-32-32zM576 304c-35.296 0-64-28.704-64-64s28.704-64 64-64 64 28.704 64 64-28.704 64-64 64z m0-96c-17.648 0-32 14.352-32 32s14.352 32 32 32 32-14.352 32-32-14.352-32-32-32zM832 512c-35.296 0-64-28.704-64-64s28.704-64 64-64 64 28.704 64 64-28.704 64-64 64z m0-96c-17.648 0-32 14.352-32 32s14.352 32 32 32 32-14.352 32-32-14.352-32-32-32z" fill="currentColor" /><path d="M592 464H304a16 16 0 1 1 0-32h288a16 16 0 1 1 0 32zM224 384a16 16 0 0 1-16-16v-128a16 16 0 0 1 16-16h112a16 16 0 1 1 0 32h-96v112a16 16 0 0 1-16 16zM336 704h-112a16 16 0 0 1-16-16V528a16 16 0 1 1 32 0v144h96a16 16 0 1 1 0 32zM400 256c-4.32 0-8.32-1.76-11.36-4.64-3.04-3.04-4.64-7.2-4.64-11.36s1.6-8.32 4.64-11.36c5.92-5.92 16.64-5.92 22.72 0 2.88 3.04 4.64 7.2 4.64 11.36s-1.76 8.32-4.64 11.36c-3.04 2.88-7.2 4.64-11.36 4.64zM464 256c-4.16 0-8.32-1.76-11.36-4.64-2.88-3.04-4.64-7.2-4.64-11.36s1.76-8.32 4.64-11.36c5.92-5.92 16.8-5.92 22.72 0 2.88 3.04 4.64 7.2 4.64 11.36s-1.76 8.32-4.64 11.36c-3.04 2.88-7.2 4.64-11.36 4.64zM656 464c-4.16 0-8.32-1.76-11.36-4.64-2.88-3.04-4.64-7.2-4.64-11.36s1.76-8.32 4.64-11.36c6.08-5.92 16.64-5.92 22.56 0 3.04 3.04 4.8 7.2 4.8 11.36 0 4.32-1.76 8.32-4.64 11.36-3.04 2.88-7.2 4.64-11.36 4.64zM720 464c-4.16 0-8.32-1.76-11.36-4.64-2.88-3.04-4.64-7.2-4.64-11.36s1.76-8.32 4.64-11.36c5.92-5.92 16.8-5.92 22.72 0 2.88 3.04 4.64 7.2 4.64 11.36s-1.76 8.32-4.64 11.36c-3.04 2.88-7.2 4.64-11.36 4.64zM400 704c-4.16 0-8.32-1.76-11.36-4.64-2.88-3.04-4.64-7.2-4.64-11.36s1.76-8.32 4.64-11.36c6.08-5.92 16.64-5.92 22.72 0 2.88 3.04 4.64 7.04 4.64 11.36 0 4.32-1.76 8.32-4.64 11.36-3.04 2.88-7.2 4.64-11.36 4.64zM464 704c-4.16 0-8.32-1.76-11.36-4.64-2.88-3.04-4.64-7.2-4.64-11.36s1.76-8.32 4.64-11.36c5.92-5.92 16.8-5.92 22.72 0 2.88 3.04 4.64 7.2 4.64 11.36s-1.76 8.32-4.64 11.36c-3.04 2.88-7.2 4.64-11.36 4.64z" fill="currentColor" /></svg>