<?xml version="1.0" standalone="no"?><!DOCTYPE svg PUBLIC "-//W3C//DTD SVG 1.1//EN" "http://www.w3.org/Graphics/SVG/1.1/DTD/svg11.dtd"><svg class="icon" width="200px" height="200.00px" viewBox="0 0 1024 1024" version="1.1" xmlns="http://www.w3.org/2000/svg"><path d="M192 864a16 16 0 0 1-16-16V560a16 16 0 1 1 32 0v288a16 16 0 0 1-16 16zM384 864a16 16 0 0 1-16-16V560a16 16 0 1 1 32 0v288a16 16 0 0 1-16 16z" fill="currentColor" /><path d="M128 640a16 16 0 0 1-11.312-27.312l64-64a16 16 0 0 1 22.624 0l64 64a16 16 0 1 1-22.624 22.624L192 582.624l-52.688 52.688A15.952 15.952 0 0 1 128 640zM320 640a16 16 0 0 1-11.312-27.312l64-64a16 16 0 0 1 22.624 0l64 64a16 16 0 1 1-22.624 22.624L384 582.624l-52.688 52.688A15.952 15.952 0 0 1 320 640zM448 864H128a16 16 0 1 1 0-32h320a16 16 0 1 1 0 32zM624 384l-112-80-112 80V128a16 16 0 0 1 16-16h192a16 16 0 0 1 16 16v256z" fill="currentColor" /><path d="M624 320a15.92 15.92 0 0 1-9.296-2.992L512 243.68l-102.704 73.344A15.984 15.984 0 0 1 384 304V48c0-17.648 14.352-32 32-32h192c17.648 0 32 14.352 32 32v256a16.016 16.016 0 0 1-16 16z m-112-112a16 16 0 0 1 9.296 2.992L608 272.912V48H416v224.912l86.704-61.92A16 16 0 0 1 512 208z" fill="currentColor" /><path d="M976 1008H48c-26.464 0-48-21.536-48-48V96c0-26.464 21.536-48 48-48h352a16 16 0 1 1 0 32H48c-8.816 0-16 7.168-16 16v864c0 8.832 7.184 16 16 16h928c8.816 0 16-7.168 16-16V96c0-8.832-7.184-16-16-16H624a16 16 0 1 1 0-32h352c26.464 0 48 21.536 48 48v864c0 26.464-21.536 48-48 48z" fill="currentColor" /><path d="M880 688H592a16 16 0 1 1 0-32h288a16 16 0 1 1 0 32zM880 768H592a16 16 0 1 1 0-32h288a16 16 0 1 1 0 32zM688 848h-96a16 16 0 1 1 0-32h96a16 16 0 1 1 0 32zM816 848c-4.16 0-8.32-1.76-11.36-4.64-2.88-3.04-4.64-7.2-4.64-11.36s1.76-8.32 4.64-11.36c5.76-5.92 16.8-5.92 22.72 0 2.88 3.04 4.64 7.2 4.64 11.36s-1.76 8.32-4.64 11.36c-3.04 2.88-7.2 4.64-11.36 4.64zM880 848c-4.16 0-8.32-1.76-11.36-4.64-2.88-3.04-4.64-7.2-4.64-11.36s1.76-8.32 4.64-11.36c5.92-5.92 16.8-5.92 22.72 0 2.88 3.04 4.64 7.2 4.64 11.36s-1.76 8.32-4.64 11.36c-3.04 2.88-7.2 4.64-11.36 4.64zM752 848c-4.16 0-8.32-1.76-11.36-4.64-2.88-3.04-4.64-7.2-4.64-11.36s1.76-8.32 4.64-11.36c5.92-5.92 16.8-5.92 22.72 0 2.88 3.04 4.64 7.2 4.64 11.36s-1.76 8.32-4.64 11.36c-3.04 2.88-7.2 4.64-11.36 4.64zM176 912a16 16 0 0 1-16-16V608a16 16 0 1 1 32 0v288a16 16 0 0 1-16 16zM368 912a16 16 0 0 1-16-16V608a16 16 0 1 1 32 0v288a16 16 0 0 1-16 16z" fill="currentColor" /><path d="M112 688a16 16 0 0 1-11.312-27.312l64-64a16 16 0 0 1 22.624 0l64 64a16 16 0 1 1-22.624 22.624L176 630.624l-52.688 52.688A15.952 15.952 0 0 1 112 688zM304 688a16 16 0 0 1-11.312-27.312l64-64a16 16 0 0 1 22.624 0l64 64a16 16 0 1 1-22.624 22.624L368 630.624l-52.688 52.688A15.952 15.952 0 0 1 304 688zM432 912H112a16 16 0 1 1 0-32h320a16 16 0 1 1 0 32zM880 848c-4.16 0-8.32-1.76-11.36-4.64-2.88-3.04-4.64-7.2-4.64-11.36s1.76-8.32 4.64-11.36c5.92-5.92 16.8-5.92 22.72 0 2.88 3.04 4.64 7.2 4.64 11.36s-1.76 8.32-4.64 11.36c-3.04 2.88-7.2 4.64-11.36 4.64zM944 144c-4.16 0-8.32-1.76-11.36-4.64-2.88-3.04-4.64-7.2-4.64-11.36 0-4.32 1.76-8.32 4.64-11.36 5.92-5.92 16.8-5.92 22.72 0 2.88 3.04 4.64 7.2 4.64 11.36s-1.76 8.32-4.64 11.36c-3.04 2.88-7.2 4.64-11.36 4.64z" fill="currentColor" /><path d="M944 144c-4.16 0-8.32-1.76-11.36-4.64-2.88-3.04-4.64-7.2-4.64-11.36 0-4.32 1.76-8.32 4.64-11.36 5.92-5.92 16.8-5.92 22.72 0 2.88 3.04 4.64 7.2 4.64 11.36s-1.76 8.32-4.64 11.36c-3.04 2.88-7.2 4.64-11.36 4.64zM944 208c-4.16 0-8.32-1.76-11.36-4.64-2.88-3.04-4.64-7.2-4.64-11.36 0-4.32 1.76-8.32 4.64-11.36 5.76-5.76 16.8-5.92 22.72 0.16 2.88 2.88 4.64 6.88 4.64 11.2 0 4.16-1.76 8.32-4.64 11.36-3.04 2.88-7.2 4.64-11.36 4.64z" fill="currentColor" /><path d="M944 208c-4.16 0-8.32-1.76-11.36-4.64-2.88-3.04-4.64-7.2-4.64-11.36 0-4.32 1.76-8.32 4.64-11.36 5.76-5.76 16.8-5.92 22.72 0.16 2.88 2.88 4.64 6.88 4.64 11.2 0 4.16-1.76 8.32-4.64 11.36-3.04 2.88-7.2 4.64-11.36 4.64zM880 144c-4.16 0-8.32-1.76-11.36-4.64-2.88-3.04-4.64-7.2-4.64-11.36 0-4.32 1.76-8.32 4.64-11.36 5.92-5.92 16.8-5.92 22.72 0 2.88 3.04 4.64 7.04 4.64 11.36 0 4.16-1.76 8.32-4.64 11.36-3.04 2.88-7.2 4.64-11.36 4.64z" fill="currentColor" /><path d="M880 144c-4.16 0-8.32-1.76-11.36-4.64-2.88-3.04-4.64-7.2-4.64-11.36 0-4.32 1.76-8.32 4.64-11.36 5.92-5.92 16.8-5.92 22.72 0 2.88 3.04 4.64 7.04 4.64 11.36 0 4.16-1.76 8.32-4.64 11.36-3.04 2.88-7.2 4.64-11.36 4.64zM880 208c-4.16 0-8.32-1.76-11.36-4.64-2.88-3.04-4.64-7.2-4.64-11.36 0-4.32 1.76-8.32 4.64-11.36 5.76-5.92 16.8-5.92 22.72 0.16 2.88 2.88 4.64 6.88 4.64 11.2 0 4.16-1.76 8.32-4.64 11.36-3.04 2.88-7.2 4.64-11.36 4.64z" fill="currentColor" /><path d="M880 208c-4.16 0-8.32-1.76-11.36-4.64-2.88-3.04-4.64-7.2-4.64-11.36 0-4.32 1.76-8.32 4.64-11.36 5.76-5.92 16.8-5.92 22.72 0.16 2.88 2.88 4.64 6.88 4.64 11.2 0 4.16-1.76 8.32-4.64 11.36-3.04 2.88-7.2 4.64-11.36 4.64zM816 144c-4.16 0-8.32-1.76-11.36-4.64-2.88-3.04-4.64-7.2-4.64-11.36s1.76-8.32 4.64-11.36c5.92-5.92 16.64-5.92 22.72 0 2.88 3.04 4.64 7.04 4.64 11.36 0 4.16-1.76 8.32-4.64 11.36-3.04 2.88-7.2 4.64-11.36 4.64z" fill="currentColor" /><path d="M816 144c-4.16 0-8.32-1.76-11.36-4.64-2.88-3.04-4.64-7.2-4.64-11.36s1.76-8.32 4.64-11.36c5.92-5.92 16.64-5.92 22.72 0 2.88 3.04 4.64 7.04 4.64 11.36 0 4.16-1.76 8.32-4.64 11.36-3.04 2.88-7.2 4.64-11.36 4.64zM816 208c-4.16 0-8.32-1.76-11.36-4.64-2.88-3.04-4.64-7.2-4.64-11.36s1.76-8.32 4.64-11.36c5.92-5.92 16.8-5.92 22.72 0.16 2.88 2.88 4.64 7.04 4.64 11.2s-1.76 8.32-4.64 11.36c-3.04 2.88-7.2 4.64-11.36 4.64z" fill="currentColor" /><path d="M816 208c-4.16 0-8.32-1.76-11.36-4.64-2.88-3.04-4.64-7.2-4.64-11.36s1.76-8.32 4.64-11.36c5.92-5.92 16.8-5.92 22.72 0.16 2.88 2.88 4.64 7.04 4.64 11.2s-1.76 8.32-4.64 11.36c-3.04 2.88-7.2 4.64-11.36 4.64zM752 144c-4.16 0-8.32-1.76-11.36-4.64-2.88-3.04-4.64-7.2-4.64-11.36s1.76-8.32 4.64-11.36c5.92-5.92 16.64-5.92 22.72 0 2.88 3.04 4.64 7.2 4.64 11.36s-1.76 8.32-4.64 11.36c-3.04 2.88-7.2 4.64-11.36 4.64z" fill="currentColor" /><path d="M752 144c-4.16 0-8.32-1.76-11.36-4.64-2.88-3.04-4.64-7.2-4.64-11.36s1.76-8.32 4.64-11.36c5.92-5.92 16.64-5.92 22.72 0 2.88 3.04 4.64 7.2 4.64 11.36s-1.76 8.32-4.64 11.36c-3.04 2.88-7.2 4.64-11.36 4.64zM752 208c-4.16 0-8.32-1.76-11.36-4.64-2.88-3.04-4.64-7.2-4.64-11.36s1.76-8.32 4.64-11.36c5.92-5.92 16.8-5.92 22.72 0.16 2.88 2.88 4.64 6.88 4.64 11.2 0 4.16-1.76 8.32-4.64 11.36-3.04 2.88-7.2 4.64-11.36 4.64z" fill="currentColor" /><path d="M752 208c-4.16 0-8.32-1.76-11.36-4.64-2.88-3.04-4.64-7.2-4.64-11.36s1.76-8.32 4.64-11.36c5.92-5.92 16.8-5.92 22.72 0.16 2.88 2.88 4.64 6.88 4.64 11.2 0 4.16-1.76 8.32-4.64 11.36-3.04 2.88-7.2 4.64-11.36 4.64zM144 144c-4.16 0-8.32-1.76-11.36-4.64C129.76 136.32 128 132.16 128 128s1.76-8.32 4.64-11.36c5.92-5.92 16.64-5.92 22.72 0 2.88 3.04 4.64 7.04 4.64 11.36 0 4.32-1.76 8.32-4.64 11.36-3.04 2.88-7.2 4.64-11.36 4.64z" fill="currentColor" /><path d="M144 144c-4.16 0-8.32-1.76-11.36-4.64C129.76 136.32 128 132.16 128 128s1.76-8.32 4.64-11.36c5.92-5.92 16.64-5.92 22.72 0 2.88 3.04 4.64 7.04 4.64 11.36 0 4.32-1.76 8.32-4.64 11.36-3.04 2.88-7.2 4.64-11.36 4.64zM144 208c-4.16 0-8.32-1.76-11.36-4.64-2.88-3.04-4.64-7.2-4.64-11.36s1.76-8.32 4.64-11.36c5.92-5.92 16.8-5.92 22.72 0.16 2.88 2.88 4.64 7.04 4.64 11.2s-1.76 8.32-4.64 11.36c-3.04 2.88-7.2 4.64-11.36 4.64z" fill="currentColor" /><path d="M144 208c-4.16 0-8.32-1.76-11.36-4.64-2.88-3.04-4.64-7.2-4.64-11.36s1.76-8.32 4.64-11.36c5.92-5.92 16.8-5.92 22.72 0.16 2.88 2.88 4.64 7.04 4.64 11.2s-1.76 8.32-4.64 11.36c-3.04 2.88-7.2 4.64-11.36 4.64zM80 144c-4.16 0-8.32-1.76-11.36-4.64C65.76 136.32 64 132.16 64 128s1.76-8.32 4.64-11.36c5.92-5.92 16.8-5.92 22.72 0 2.88 3.04 4.64 7.2 4.64 11.36s-1.76 8.32-4.64 11.36C88.32 142.24 84.16 144 80 144z" fill="currentColor" /><path d="M80 144c-4.16 0-8.32-1.76-11.36-4.64C65.76 136.32 64 132.16 64 128s1.76-8.32 4.64-11.36c5.92-5.92 16.8-5.92 22.72 0 2.88 3.04 4.64 7.2 4.64 11.36s-1.76 8.32-4.64 11.36C88.32 142.24 84.16 144 80 144zM80 208c-4.16 0-8.32-1.76-11.36-4.64-2.88-3.04-4.64-7.2-4.64-11.36s1.76-8.32 4.64-11.36c5.92-5.92 16.8-5.92 22.72 0.16 2.88 2.88 4.64 7.04 4.64 11.2s-1.76 8.32-4.64 11.36c-3.04 2.88-7.2 4.64-11.36 4.64z" fill="currentColor" /><path d="M80 208c-4.16 0-8.32-1.76-11.36-4.64-2.88-3.04-4.64-7.2-4.64-11.36s1.76-8.32 4.64-11.36c5.92-5.92 16.8-5.92 22.72 0.16 2.88 2.88 4.64 7.04 4.64 11.2s-1.76 8.32-4.64 11.36c-3.04 2.88-7.2 4.64-11.36 4.64zM688 144c-4.16 0-8.32-1.76-11.36-4.64-2.88-3.04-4.64-7.2-4.64-11.36 0-4.32 1.76-8.32 4.64-11.36 5.92-5.92 16.8-5.92 22.72 0 2.88 3.04 4.64 7.04 4.64 11.36 0 4.32-1.76 8.32-4.64 11.36-3.04 2.88-7.2 4.64-11.36 4.64z" fill="currentColor" /><path d="M688 144c-4.16 0-8.32-1.76-11.36-4.64-2.88-3.04-4.64-7.2-4.64-11.36 0-4.32 1.76-8.32 4.64-11.36 5.92-5.92 16.8-5.92 22.72 0 2.88 3.04 4.64 7.04 4.64 11.36 0 4.32-1.76 8.32-4.64 11.36-3.04 2.88-7.2 4.64-11.36 4.64zM688 208c-4.16 0-8.32-1.76-11.36-4.64-2.88-3.04-4.64-7.2-4.64-11.36 0-4.32 1.76-8.32 4.64-11.36 5.76-5.76 16.8-5.92 22.72 0.16 2.88 2.88 4.64 6.88 4.64 11.2 0 4.16-1.76 8.32-4.64 11.36-3.04 2.88-7.2 4.64-11.36 4.64z" fill="currentColor" /><path d="M688 208c-4.16 0-8.32-1.76-11.36-4.64-2.88-3.04-4.64-7.2-4.64-11.36 0-4.32 1.76-8.32 4.64-11.36 5.76-5.76 16.8-5.92 22.72 0.16 2.88 2.88 4.64 6.88 4.64 11.2 0 4.16-1.76 8.32-4.64 11.36-3.04 2.88-7.2 4.64-11.36 4.64zM272 144c-4.16 0-8.32-1.76-11.36-4.64-2.88-3.04-4.64-7.2-4.64-11.36s1.76-8.32 4.64-11.36c5.92-5.92 16.64-5.92 22.72 0 2.88 3.04 4.64 7.04 4.64 11.36 0 4.16-1.76 8.32-4.64 11.36-3.04 2.88-7.2 4.64-11.36 4.64z" fill="currentColor" /><path d="M272 144c-4.16 0-8.32-1.76-11.36-4.64-2.88-3.04-4.64-7.2-4.64-11.36s1.76-8.32 4.64-11.36c5.92-5.92 16.64-5.92 22.72 0 2.88 3.04 4.64 7.04 4.64 11.36 0 4.16-1.76 8.32-4.64 11.36-3.04 2.88-7.2 4.64-11.36 4.64zM272 208c-4.16 0-8.32-1.76-11.36-4.64-2.88-3.04-4.64-7.2-4.64-11.36 0-4.32 1.76-8.32 4.64-11.36 5.76-5.76 16.8-5.92 22.72 0.16 2.88 2.88 4.64 6.88 4.64 11.2 0 4.16-1.76 8.32-4.64 11.36-3.04 2.88-7.2 4.64-11.36 4.64z" fill="currentColor" /><path d="M272 208c-4.16 0-8.32-1.76-11.36-4.64-2.88-3.04-4.64-7.2-4.64-11.36 0-4.32 1.76-8.32 4.64-11.36 5.76-5.76 16.8-5.92 22.72 0.16 2.88 2.88 4.64 6.88 4.64 11.2 0 4.16-1.76 8.32-4.64 11.36-3.04 2.88-7.2 4.64-11.36 4.64zM208 144c-4.16 0-8.32-1.76-11.36-4.64-2.88-3.04-4.64-7.2-4.64-11.36s1.76-8.32 4.64-11.36c5.92-5.92 16.64-5.92 22.72 0 2.88 3.04 4.64 7.2 4.64 11.36s-1.76 8.32-4.64 11.36c-3.04 2.88-7.2 4.64-11.36 4.64z" fill="currentColor" /><path d="M208 144c-4.16 0-8.32-1.76-11.36-4.64-2.88-3.04-4.64-7.2-4.64-11.36s1.76-8.32 4.64-11.36c5.92-5.92 16.64-5.92 22.72 0 2.88 3.04 4.64 7.2 4.64 11.36s-1.76 8.32-4.64 11.36c-3.04 2.88-7.2 4.64-11.36 4.64zM208 208c-4.16 0-8.32-1.76-11.36-4.64-2.88-3.04-4.64-7.2-4.64-11.36 0-4.32 1.76-8.32 4.64-11.36 5.76-5.92 16.8-5.92 22.72 0.16 2.88 2.88 4.64 6.88 4.64 11.2 0 4.16-1.76 8.32-4.64 11.36-3.04 2.88-7.2 4.64-11.36 4.64z" fill="currentColor" /><path d="M208 208c-4.16 0-8.32-1.76-11.36-4.64-2.88-3.04-4.64-7.2-4.64-11.36 0-4.32 1.76-8.32 4.64-11.36 5.76-5.92 16.8-5.92 22.72 0.16 2.88 2.88 4.64 6.88 4.64 11.2 0 4.16-1.76 8.32-4.64 11.36-3.04 2.88-7.2 4.64-11.36 4.64zM336 144c-4.16 0-8.32-1.76-11.36-4.64-2.88-3.04-4.64-7.2-4.64-11.36 0-4.32 1.76-8.32 4.64-11.36 5.92-5.92 16.8-5.92 22.72 0 2.88 3.04 4.64 7.04 4.64 11.36 0 4.16-1.76 8.32-4.64 11.36-3.04 2.88-7.2 4.64-11.36 4.64z" fill="currentColor" /><path d="M336 144c-4.16 0-8.32-1.76-11.36-4.64-2.88-3.04-4.64-7.2-4.64-11.36 0-4.32 1.76-8.32 4.64-11.36 5.92-5.92 16.8-5.92 22.72 0 2.88 3.04 4.64 7.04 4.64 11.36 0 4.16-1.76 8.32-4.64 11.36-3.04 2.88-7.2 4.64-11.36 4.64zM336 208c-4.16 0-8.32-1.76-11.36-4.64-2.88-3.04-4.64-7.2-4.64-11.36 0-4.32 1.76-8.32 4.64-11.36 5.76-5.92 16.8-5.92 22.72 0.16 2.88 2.88 4.64 6.88 4.64 11.2 0 4.16-1.76 8.32-4.64 11.36-3.04 2.88-7.2 4.64-11.36 4.64z" fill="currentColor" /><path d="M336 208c-4.16 0-8.32-1.76-11.36-4.64-2.88-3.04-4.64-7.2-4.64-11.36 0-4.32 1.76-8.32 4.64-11.36 5.76-5.92 16.8-5.92 22.72 0.16 2.88 2.88 4.64 6.88 4.64 11.2 0 4.16-1.76 8.32-4.64 11.36-3.04 2.88-7.2 4.64-11.36 4.64z" fill="currentColor" /></svg>