<?xml version="1.0" standalone="no"?><!DOCTYPE svg PUBLIC "-//W3C//DTD SVG 1.1//EN" "http://www.w3.org/Graphics/SVG/1.1/DTD/svg11.dtd"><svg class="icon" width="200px" height="200.00px" viewBox="0 0 1024 1024" version="1.1" xmlns="http://www.w3.org/2000/svg"><path d="M64 64h128v128H64zM832 64h128v128h-128zM64 832h128v128H64zM832 832h128v128h-128z" fill="currentColor" /><path d="M144 160H16a16 16 0 0 1-16-16V16a16 16 0 0 1 16-16h128a16 16 0 0 1 16 16v128a16 16 0 0 1-16 16zM32 128h96V32H32v96zM1008 160h-128a16 16 0 0 1-16-16V16a16 16 0 0 1 16-16h128a16 16 0 0 1 16 16v128a16 16 0 0 1-16 16z m-112-32h96V32h-96v96zM144 1024H16a16 16 0 0 1-16-16v-128a16 16 0 0 1 16-16h128a16 16 0 0 1 16 16v128a16 16 0 0 1-16 16z m-112-32h96v-96H32v96zM1008 1024h-128a16 16 0 0 1-16-16v-128a16 16 0 0 1 16-16h128a16 16 0 0 1 16 16v128a16 16 0 0 1-16 16z m-112-32h96v-96h-96v96zM80 256a16 16 0 0 1-16-16v-32a16 16 0 1 1 32 0v32a16 16 0 0 1-16 16zM80 352a16 16 0 0 1-16-16v-32a16 16 0 1 1 32 0v32a16 16 0 0 1-16 16zM80 448a16 16 0 0 1-16-16v-32a16 16 0 1 1 32 0v32a16 16 0 0 1-16 16zM80 544a16 16 0 0 1-16-16v-32a16 16 0 1 1 32 0v32a16 16 0 0 1-16 16zM80 640a16 16 0 0 1-16-16v-32a16 16 0 1 1 32 0v32a16 16 0 0 1-16 16zM80 736a16 16 0 0 1-16-16v-32a16 16 0 1 1 32 0v32a16 16 0 0 1-16 16zM80 832a16 16 0 0 1-16-16v-32a16 16 0 1 1 32 0v32a16 16 0 0 1-16 16zM944 256a16 16 0 0 1-16-16v-32a16 16 0 1 1 32 0v32a16 16 0 0 1-16 16zM944 352a16 16 0 0 1-16-16v-32a16 16 0 1 1 32 0v32a16 16 0 0 1-16 16zM944 448a16 16 0 0 1-16-16v-32a16 16 0 1 1 32 0v32a16 16 0 0 1-16 16zM944 544a16 16 0 0 1-16-16v-32a16 16 0 1 1 32 0v32a16 16 0 0 1-16 16zM944 640a16 16 0 0 1-16-16v-32a16 16 0 1 1 32 0v32a16 16 0 0 1-16 16zM944 736a16 16 0 0 1-16-16v-32a16 16 0 1 1 32 0v32a16 16 0 0 1-16 16zM944 832a16 16 0 0 1-16-16v-32a16 16 0 1 1 32 0v32a16 16 0 0 1-16 16zM816 96h-32a16 16 0 1 1 0-32h32a16 16 0 1 1 0 32zM720 96h-32a16 16 0 1 1 0-32h32a16 16 0 1 1 0 32zM624 96h-32a16 16 0 1 1 0-32h32a16 16 0 1 1 0 32zM528 96h-32a16 16 0 1 1 0-32h32a16 16 0 1 1 0 32zM432 96h-32a16 16 0 1 1 0-32h32a16 16 0 1 1 0 32zM336 96h-32a16 16 0 1 1 0-32h32a16 16 0 1 1 0 32zM240 96h-32a16 16 0 1 1 0-32h32a16 16 0 1 1 0 32zM816 960h-32a16 16 0 1 1 0-32h32a16 16 0 1 1 0 32zM720 960h-32a16 16 0 1 1 0-32h32a16 16 0 1 1 0 32zM624 960h-32a16 16 0 1 1 0-32h32a16 16 0 1 1 0 32zM528 960h-32a16 16 0 1 1 0-32h32a16 16 0 1 1 0 32zM432 960h-32a16 16 0 1 1 0-32h32a16 16 0 1 1 0 32zM336 960h-32a16 16 0 1 1 0-32h32a16 16 0 1 1 0 32zM240 960h-32a16 16 0 1 1 0-32h32a16 16 0 1 1 0 32zM336 704a16 16 0 0 1-11.312-27.312l352-352a16 16 0 1 1 22.624 22.624l-352 352A15.952 15.952 0 0 1 336 704z" fill="currentColor" /><path d="M689.328 448a16 16 0 0 1-16-16v-80h-80a16 16 0 1 1 0-32h96a16 16 0 0 1 16 16v96a16 16 0 0 1-16 16zM432 704h-96a16 16 0 0 1-16-16v-96a16 16 0 1 1 32 0v80h80a16 16 0 1 1 0 32zM688.672 704.656a15.952 15.952 0 0 1-11.312-4.672l-352-352a16 16 0 1 1 22.624-22.64l352 352a16 16 0 0 1-11.312 27.312z" fill="currentColor" /><path d="M336.672 447.344a16 16 0 0 1-16-16v-96a16 16 0 0 1 16-16h96a16 16 0 1 1 0 32h-80v80a16 16 0 0 1-16 16zM688.672 704.656h-96a16 16 0 1 1 0-32h80v-80a16 16 0 1 1 32 0v96a16 16 0 0 1-16 16zM512 608c-4.16 0-8.32-1.76-11.36-4.64-2.88-3.04-4.64-7.2-4.64-11.36 0-4.16 1.76-8.32 4.64-11.36 5.92-5.92 16.8-5.92 22.72 0 2.88 3.04 4.64 7.2 4.64 11.36 0 4.16-1.76 8.32-4.64 11.36-3.04 2.88-7.2 4.64-11.36 4.64zM512 672c-4.16 0-8.32-1.76-11.36-4.64-2.88-3.04-4.64-7.2-4.64-11.36 0-4.16 1.76-8.32 4.64-11.36 5.92-5.92 16.8-5.92 22.72 0 2.88 3.04 4.64 7.2 4.64 11.36 0 4.16-1.76 8.32-4.64 11.36-3.04 2.88-7.2 4.64-11.36 4.64zM512 736c-4.16 0-8.32-1.76-11.36-4.64-2.88-3.04-4.64-7.2-4.64-11.36 0-4.16 1.76-8.32 4.64-11.36 5.92-5.92 16.8-5.92 22.72 0 2.88 3.04 4.64 7.2 4.64 11.36 0 4.16-1.76 8.32-4.64 11.36-3.04 2.88-7.2 4.64-11.36 4.64zM512 800c-4.16 0-8.32-1.76-11.36-4.64-2.88-3.04-4.64-7.2-4.64-11.36 0-4.16 1.76-8.32 4.64-11.36 6.08-5.92 16.64-5.92 22.72 0 2.88 3.04 4.64 7.2 4.64 11.36 0 4.16-1.76 8.32-4.64 11.36-3.04 2.88-7.2 4.64-11.36 4.64zM512 256c-4.16 0-8.32-1.76-11.36-4.64-2.88-3.04-4.64-7.2-4.64-11.36 0-4.16 1.76-8.32 4.64-11.36 5.92-5.92 16.8-5.92 22.72 0 2.88 3.04 4.64 7.2 4.64 11.36 0 4.16-1.76 8.32-4.64 11.36-3.04 2.88-7.2 4.64-11.36 4.64zM512 320c-4.16 0-8.32-1.76-11.36-4.64-2.88-3.04-4.64-7.2-4.64-11.36 0-4.16 1.76-8.32 4.64-11.36 5.92-5.92 16.8-5.92 22.72 0 2.88 3.04 4.64 7.2 4.64 11.36 0 4.16-1.76 8.32-4.64 11.36-3.04 2.88-7.2 4.64-11.36 4.64zM512 384c-4.16 0-8.32-1.76-11.36-4.64-2.88-3.04-4.64-7.2-4.64-11.36 0-4.16 1.76-8.32 4.64-11.36 5.92-5.92 16.8-5.92 22.72 0 2.88 3.04 4.64 7.2 4.64 11.36 0 4.16-1.76 8.32-4.64 11.36-3.04 2.88-7.2 4.64-11.36 4.64zM512 448c-4.16 0-8.32-1.76-11.36-4.64-2.88-3.04-4.64-7.2-4.64-11.36 0-4.16 1.76-8.32 4.64-11.36 6.08-5.92 16.64-5.92 22.72 0 2.88 3.04 4.64 7.2 4.64 11.36 0 4.16-1.76 8.32-4.64 11.36-3.04 2.88-7.2 4.64-11.36 4.64zM432 528c-4.16 0-8.32-1.76-11.36-4.64-2.88-3.04-4.64-7.2-4.64-11.36 0-4.16 1.76-8.32 4.64-11.36 6.08-5.92 16.8-5.92 22.72 0 2.88 3.04 4.64 7.2 4.64 11.36 0 4.16-1.76 8.32-4.64 11.36-3.04 2.88-7.2 4.64-11.36 4.64zM368 528c-4.16 0-8.32-1.76-11.36-4.64-2.88-3.04-4.64-7.2-4.64-11.36 0-4.16 1.76-8.32 4.64-11.36 6.08-5.92 16.64-5.92 22.56 0 3.04 3.04 4.8 7.2 4.8 11.36 0 4.16-1.76 8.32-4.64 11.36-3.04 2.88-7.2 4.64-11.36 4.64zM304 528c-4.16 0-8.32-1.76-11.36-4.64-2.88-3.04-4.64-7.2-4.64-11.36 0-4.16 1.76-8.32 4.64-11.36 5.92-5.92 16.64-5.92 22.72 0 2.88 3.04 4.64 7.2 4.64 11.36 0 4.16-1.76 8.32-4.64 11.36-3.04 2.88-7.2 4.64-11.36 4.64zM240 528c-4.32 0-8.32-1.76-11.36-4.64-2.88-3.04-4.64-7.2-4.64-11.36 0-4.16 1.76-8.32 4.64-11.36 5.92-5.92 16.8-5.92 22.72 0 2.88 3.04 4.64 7.2 4.64 11.36 0 4.16-1.76 8.32-4.64 11.36-3.04 2.88-7.2 4.64-11.36 4.64zM784 528c-4.16 0-8.32-1.6-11.36-4.64-2.88-3.04-4.64-7.04-4.64-11.36s1.76-8.32 4.64-11.36c6.08-5.92 16.64-5.92 22.72 0 2.88 3.04 4.64 7.2 4.64 11.36 0 4.16-1.76 8.32-4.64 11.36-3.04 3.04-7.2 4.64-11.36 4.64zM720 528c-4.32 0-8.32-1.76-11.36-4.64-2.88-3.04-4.64-7.2-4.64-11.36 0-4.16 1.76-8.32 4.64-11.36 5.92-5.92 16.64-5.92 22.72 0 2.88 3.04 4.64 7.2 4.64 11.36 0 4.16-1.76 8.32-4.64 11.36-3.04 2.88-7.04 4.64-11.36 4.64zM656 528c-4.16 0-8.32-1.76-11.36-4.64-2.88-3.04-4.64-7.2-4.64-11.36 0-4.16 1.76-8.32 4.64-11.36 5.92-5.92 16.64-5.92 22.56 0 3.04 3.04 4.8 7.2 4.8 11.36 0 4.16-1.76 8.32-4.64 11.36-3.04 2.88-7.2 4.64-11.36 4.64zM592 528c-4.16 0-8.32-1.76-11.36-4.64-2.88-3.04-4.64-7.2-4.64-11.36 0-4.16 1.76-8.32 4.64-11.36 5.92-5.92 16.8-5.92 22.72 0 2.88 3.04 4.64 7.2 4.64 11.36 0 4.16-1.76 8.32-4.64 11.36-3.04 2.88-7.2 4.64-11.36 4.64z" fill="currentColor" /></svg>