<?xml version="1.0" standalone="no"?><!DOCTYPE svg PUBLIC "-//W3C//DTD SVG 1.1//EN" "http://www.w3.org/Graphics/SVG/1.1/DTD/svg11.dtd"><svg class="icon" width="200px" height="200.00px" viewBox="0 0 1024 1024" version="1.1" xmlns="http://www.w3.org/2000/svg"><path d="M543.984 768a16 16 0 0 1-13.488-24.592l224-352a16 16 0 0 1 27.008 17.184l-224 352c-3.056 4.784-8.224 7.408-13.52 7.408zM511.984 688a15.92 15.92 0 0 1-8.224-2.288l-160-96a16 16 0 0 1 0-27.424l160-96a16 16 0 0 1 16.48 27.424L383.104 576l137.12 82.288A16 16 0 0 1 512 688zM800.016 688a15.984 15.984 0 0 1-8.256-29.712L928.896 576l-137.12-82.288a16 16 0 1 1 16.464-27.424l160 96a16 16 0 0 1 0 27.424l-160 96A15.92 15.92 0 0 1 800 688zM16 160h992v128H16z" fill="currentColor" /><path d="M1008 912H16a16 16 0 0 1-16-16V128a16 16 0 0 1 16-16h992a16 16 0 0 1 16 16v768a16 16 0 0 1-16 16zM32 880h960V144H32v736z" fill="currentColor" /><path d="M1008 272H16a16 16 0 1 1 0-32h992a16 16 0 1 1 0 32zM816 208c-4.16 0-8.32-1.76-11.36-4.64-2.88-3.04-4.64-7.2-4.64-11.36 0-4.32 1.76-8.32 4.64-11.36 5.92-5.92 16.8-5.92 22.72 0 2.88 3.04 4.64 7.2 4.64 11.36s-1.76 8.32-4.64 11.36c-3.04 2.88-7.2 4.64-11.36 4.64zM880 208c-4.32 0-8.32-1.76-11.36-4.64-2.88-3.04-4.64-7.2-4.64-11.36s1.76-8.32 4.64-11.36c5.92-5.92 16.8-5.92 22.72 0 2.88 3.04 4.64 7.2 4.64 11.36s-1.76 8.32-4.64 11.36c-3.04 2.88-7.04 4.64-11.36 4.64zM944 208c-4.16 0-8.32-1.76-11.36-4.64-2.88-3.04-4.64-7.2-4.64-11.36s1.76-8.32 4.64-11.36c5.92-5.92 16.8-5.92 22.72 0 2.88 3.04 4.64 7.2 4.64 11.36s-1.76 8.32-4.64 11.36c-3.04 2.88-7.2 4.64-11.36 4.64zM511.984 768a16 16 0 0 1-13.488-24.592l224-352a16 16 0 0 1 27.008 17.184l-224 352c-3.056 4.784-8.224 7.408-13.52 7.408zM479.984 688a15.92 15.92 0 0 1-8.224-2.288l-160-96a16 16 0 0 1 0-27.424l160-96a16 16 0 0 1 16.48 27.424L351.104 576l137.12 82.288A16 16 0 0 1 480 688zM768.016 688a15.984 15.984 0 0 1-8.256-29.712L896.896 576l-137.12-82.288a16 16 0 1 1 16.464-27.424l160 96a16 16 0 0 1 0 27.424l-160 96A15.92 15.92 0 0 1 768 688z" fill="currentColor" /><path d="M752 272a16 16 0 0 1-16-16V128a16 16 0 1 1 32 0v128a16 16 0 0 1-16 16zM160 368H96a16 16 0 1 1 0-32h64a16 16 0 1 1 0 32zM144 432H96a16 16 0 1 1 0-32h48a16 16 0 1 1 0 32zM160 496H96a16 16 0 1 1 0-32h64a16 16 0 1 1 0 32zM144 560H96a16 16 0 1 1 0-32h48a16 16 0 1 1 0 32zM160 624H96a16 16 0 1 1 0-32h64a16 16 0 1 1 0 32zM144 688H96a16 16 0 1 1 0-32h48a16 16 0 1 1 0 32zM160 752H96a16 16 0 1 1 0-32h64a16 16 0 1 1 0 32zM160 816H96a16 16 0 1 1 0-32h64a16 16 0 1 1 0 32zM240 912a16 16 0 0 1-16-16V256a16 16 0 1 1 32 0v640a16 16 0 0 1-16 16z" fill="currentColor" /></svg>