<?xml version="1.0" standalone="no"?><!DOCTYPE svg PUBLIC "-//W3C//DTD SVG 1.1//EN" "http://www.w3.org/Graphics/SVG/1.1/DTD/svg11.dtd"><svg class="icon" width="200px" height="200.00px" viewBox="0 0 1024 1024" version="1.1" xmlns="http://www.w3.org/2000/svg"><path d="M672 368m-272 0a272 272 0 1 0 544 0 272 272 0 1 0-544 0Z" fill="currentColor" /><path d="M512 1008c-158.8 0-288-129.2-288-288s129.2-288 288-288 288 129.2 288 288-129.2 288-288 288z m0-544c-141.152 0-256 114.848-256 256s114.848 256 256 256 256-114.848 256-256-114.848-256-256-256z" fill="currentColor" /><path d="M288 592C129.2 592 0 462.8 0 304S129.2 16 288 16s288 129.2 288 288-129.2 288-288 288z m0-544C146.848 48 32 162.848 32 304s114.848 256 256 256 256-114.848 256-256S429.152 48 288 48z" fill="currentColor" /><path d="M224 416a16 16 0 0 1-16-16V208a16 16 0 0 1 16-16h80c35.296 0 64 28.704 64 64s-28.704 64-64 64h-64v80a16 16 0 0 1-16 16z m16-128h64c17.648 0 32-14.352 32-32s-14.352-32-32-32h-64v64z" fill="currentColor" /><path d="M352.016 416a16 16 0 0 1-13.328-7.12l-64-96a16 16 0 0 1 26.624-17.76l64 96A16 16 0 0 1 352.016 416zM736 592c-158.8 0-288-129.2-288-288S577.2 16 736 16s288 129.2 288 288-129.2 288-288 288z m0-544c-141.152 0-256 114.848-256 256s114.848 256 256 256 256-114.848 256-256S877.152 48 736 48z" fill="currentColor" /><path d="M800 416h-128a16 16 0 0 1-16-16V208a16 16 0 0 1 16-16h128a16 16 0 0 1 0 32h-112v160h96v-64h-64a16 16 0 0 1 0-32h80a16 16 0 0 1 16 16v96a16 16 0 0 1-16 16zM528 832h-80a16 16 0 0 1-16-16V624a16 16 0 0 1 16-16h80c35.296 0 64 28.704 64 64a63.872 63.872 0 0 1-21.712 48A63.872 63.872 0 0 1 592 768c0 35.296-28.704 64-64 64z m-64-32h64c17.648 0 32-14.352 32-32s-14.352-32-32-32h-64v64z m0-96h64c17.648 0 32-14.352 32-32s-14.352-32-32-32h-64v64z" fill="currentColor" /></svg>