<?xml version="1.0" standalone="no"?><!DOCTYPE svg PUBLIC "-//W3C//DTD SVG 1.1//EN" "http://www.w3.org/Graphics/SVG/1.1/DTD/svg11.dtd"><svg class="icon" width="200px" height="200.00px" viewBox="0 0 1024 1024" version="1.1" xmlns="http://www.w3.org/2000/svg"><path d="M224 416h240v240H224zM16 112h992v128H16z" fill="currentColor" /><path d="M1008 944H16a16 16 0 0 1-16-16V80a16 16 0 0 1 16-16h992a16 16 0 0 1 16 16v848a16 16 0 0 1-16 16zM32 912h960V96H32v816z" fill="currentColor" /><path d="M944 880H80a16 16 0 0 1-16-16V272a16 16 0 0 1 16-16h864a16 16 0 0 1 16 16v592a16 16 0 0 1-16 16zM96 848h832V288H96v560zM1008 224H16a16 16 0 1 1 0-32h992a16 16 0 1 1 0 32zM816 160c-4.16 0-8.32-1.76-11.36-4.64-2.88-3.04-4.64-7.2-4.64-11.36s1.76-8.32 4.64-11.36c5.92-5.92 16.8-5.92 22.72 0 2.88 3.04 4.64 7.2 4.64 11.36s-1.76 8.32-4.64 11.36c-3.04 2.88-7.04 4.64-11.36 4.64zM880 160a16.16 16.16 0 0 1-16-16c0-4.16 1.76-8.32 4.64-11.36 5.92-5.92 16.8-5.92 22.72 0 2.88 3.04 4.64 7.2 4.64 11.36s-1.76 8.32-4.64 11.36c-3.04 2.88-7.04 4.64-11.36 4.64zM944 160a16.16 16.16 0 0 1-16-16c0-4.16 1.76-8.32 4.64-11.36 5.76-5.92 16.8-5.92 22.72 0 2.88 3.04 4.64 7.2 4.64 11.36s-1.76 8.32-4.64 11.36c-3.04 2.88-7.2 4.64-11.36 4.64z" fill="currentColor" /><path d="M752 224a16 16 0 0 1-16-16V80a16 16 0 1 1 32 0v128a16 16 0 0 1-16 16zM416 624H176a16 16 0 0 1-16-16V368a16 16 0 0 1 16-16h240a16 16 0 0 1 16 16v240a16 16 0 0 1-16 16z m-224-32h208V384H192v208zM848 384H528a16 16 0 1 1 0-32h320a16 16 0 1 1 0 32zM848 464H528a16 16 0 1 1 0-32h320a16 16 0 1 1 0 32zM848 544H528a16 16 0 1 1 0-32h320a16 16 0 1 1 0 32zM848 624H528a16 16 0 1 1 0-32h320a16 16 0 1 1 0 32zM848 704H176a16 16 0 1 1 0-32h672a16 16 0 1 1 0 32zM848 784H176a16 16 0 1 1 0-32h672a16 16 0 1 1 0 32z" fill="currentColor" /></svg>