<?xml version="1.0" standalone="no"?><!DOCTYPE svg PUBLIC "-//W3C//DTD SVG 1.1//EN" "http://www.w3.org/Graphics/SVG/1.1/DTD/svg11.dtd"><svg class="icon" width="200px" height="200.00px" viewBox="0 0 1024 1024" version="1.1" xmlns="http://www.w3.org/2000/svg"><path d="M128 704m-48 0a48 48 0 1 0 96 0 48 48 0 1 0-96 0Z" fill="currentColor" /><path d="M320 480m-48 0a48 48 0 1 0 96 0 48 48 0 1 0-96 0Z" fill="currentColor" /><path d="M896 384m-48 0a48 48 0 1 0 96 0 48 48 0 1 0-96 0Z" fill="currentColor" /><path d="M608 624m-48 0a48 48 0 1 0 96 0 48 48 0 1 0-96 0Z" fill="currentColor" /><path d="M16 128h992v128H16z" fill="currentColor" /><path d="M1008 880H16a16 16 0 0 1-16-16V96a16 16 0 0 1 16-16h992a16 16 0 0 1 16 16v768a16 16 0 0 1-16 16zM32 848h960V112H32v736z" fill="currentColor" /><path d="M1008 240H16a16 16 0 1 1 0-32h992a16 16 0 1 1 0 32zM816 176c-4.16 0-8.32-1.76-11.36-4.64-2.88-3.04-4.64-7.04-4.64-11.36 0-4.32 1.76-8.32 4.64-11.36 5.92-5.76 16.64-5.92 22.72 0 2.88 3.04 4.64 7.2 4.64 11.36s-1.76 8.32-4.64 11.36c-3.04 2.88-7.2 4.64-11.36 4.64zM880 176c-4.32 0-8.32-1.76-11.36-4.64A16.8 16.8 0 0 1 864 160c0-4.32 1.76-8.32 4.64-11.36 5.92-5.92 16.8-5.92 22.72 0 2.88 3.04 4.64 7.04 4.64 11.36 0 4.32-1.76 8.32-4.64 11.36-3.04 2.88-7.2 4.64-11.36 4.64zM944 176c-4.16 0-8.32-1.76-11.36-4.64-2.88-3.04-4.64-7.04-4.64-11.36 0-4.16 1.76-8.32 4.64-11.36 6.08-5.92 16.64-5.92 22.72 0 2.88 3.04 4.64 7.2 4.64 11.36 0 4.32-1.76 8.32-4.64 11.36-3.04 2.88-7.2 4.64-11.36 4.64zM128 720c-35.296 0-64-28.704-64-64s28.704-64 64-64 64 28.704 64 64-28.704 64-64 64z m0-96c-17.648 0-32 14.352-32 32s14.352 32 32 32 32-14.352 32-32-14.352-32-32-32zM320 496c-35.296 0-64-28.704-64-64s28.704-64 64-64 64 28.704 64 64-28.704 64-64 64z m0-96c-17.648 0-32 14.352-32 32s14.352 32 32 32 32-14.352 32-32-14.352-32-32-32zM896 400c-35.296 0-64-28.704-64-64s28.704-64 64-64 64 28.704 64 64-28.704 64-64 64z m0-96c-17.648 0-32 14.352-32 32s14.352 32 32 32 32-14.352 32-32-14.352-32-32-32zM608 640c-35.296 0-64-28.704-64-64s28.704-64 64-64 64 28.704 64 64-28.704 64-64 64z m0-96c-17.648 0-32 14.352-32 32s14.352 32 32 32 32-14.352 32-32-14.352-32-32-32zM896 976a16 16 0 0 1-16-16V448a16 16 0 1 1 32 0v512a16 16 0 0 1-16 16zM800 976a16 16 0 0 1-16-16V528a16 16 0 1 1 32 0v432a16 16 0 0 1-16 16zM704 976a16 16 0 0 1-16-16V592a16 16 0 1 1 32 0v368a16 16 0 0 1-16 16zM608 976a16 16 0 0 1-16-16V688a16 16 0 1 1 32 0v272a16 16 0 0 1-16 16zM512 976a16 16 0 0 1-16-16V624a16 16 0 1 1 32 0v336a16 16 0 0 1-16 16zM416 976a16 16 0 0 1-16-16V576a16 16 0 1 1 32 0v384a16 16 0 0 1-16 16zM320 976a16 16 0 0 1-16-16V544a16 16 0 1 1 32 0v416a16 16 0 0 1-16 16zM224 976a16 16 0 0 1-16-16V672a16 16 0 1 1 32 0v288a16 16 0 0 1-16 16zM128 976a16 16 0 0 1-16-16V768a16 16 0 1 1 32 0v192a16 16 0 0 1-16 16z" fill="currentColor" /><path d="M159.2 635.68a16 16 0 0 1-12.16-26.4l129.6-151.36a16 16 0 0 1 24.32 20.8l-129.6 151.36a15.952 15.952 0 0 1-12.16 5.6zM565.12 570.56c-2.416 0-4.848-0.544-7.152-1.68l-202.24-101.12a16 16 0 1 1 14.304-28.64l202.24 101.12a16 16 0 0 1-7.168 30.32zM644.8 561.28a16 16 0 0 1-10.24-28.304l214.4-178.56a16 16 0 0 1 20.48 24.592l-214.4 178.56a15.92 15.92 0 0 1-10.24 3.712zM752 240a16 16 0 0 1-16-16V96a16 16 0 1 1 32 0v128a16 16 0 0 1-16 16z" fill="currentColor" /></svg>