<?xml version="1.0" standalone="no"?><!DOCTYPE svg PUBLIC "-//W3C//DTD SVG 1.1//EN" "http://www.w3.org/Graphics/SVG/1.1/DTD/svg11.dtd"><svg class="icon" width="200px" height="200.00px" viewBox="0 0 1024 1024" version="1.1" xmlns="http://www.w3.org/2000/svg"><path fill="currentColor" d="M751.701333 856.32c-136.789333 0-259.541333-84.010667-310.656-200.533333h208.384c20.48 0 34.517333-13.824 34.517334-33.877334 0-20.053333-14.08-33.834667-34.56-33.834666H416.768c-2.56-20.053333-6.4-42.624-6.4-66.432 0-10.026667 0-23.808 3.84-33.834667h235.264c20.48 0 34.517333-13.781333 34.517333-33.834667 0-20.053333-14.08-33.834667-34.56-33.834666h-222.421333c44.757333-132.864 173.866667-233.130667 324.693333-233.130667 20.48 0 34.56-13.781333 34.56-33.834667 0-20.053333-14.08-32.597333-34.56-32.597333-187.904 0-347.733333 130.346667-396.288 300.8H273.578667c-20.48 0-34.56 13.781333-34.56 33.834667 0 20.053333 14.08 33.834667 34.56 33.834666H345.173333c0 10.026667-3.84 23.850667-3.84 33.834667 0 23.850667 3.84 43.904 6.4 66.432H272.298667c-20.48 0-34.56 13.824-34.56 33.834667 0 20.053333 14.08 33.877333 34.56 33.877333h92.032c60.074667 151.637333 213.504 265.685333 387.370666 265.685333 20.437333 0 34.517333-13.781333 34.517334-33.834666-1.28-20.053333-14.08-32.597333-34.56-32.597334z" /></svg>