<?xml version="1.0" standalone="no"?><!DOCTYPE svg PUBLIC "-//W3C//DTD SVG 1.1//EN" "http://www.w3.org/Graphics/SVG/1.1/DTD/svg11.dtd"><svg class="icon" width="200px" height="200.00px" viewBox="0 0 1024 1024" version="1.1" xmlns="http://www.w3.org/2000/svg"><path d="M787.456 926.293333l-274.56-152.746666-274.56 152.746666a72.832 72.832 0 0 1-108.245333-63.616V216.832a128.426667 128.426667 0 0 1 128.426666-128.426667h508.714667a128.469333 128.469333 0 0 1 128.426667 128.426667V862.72a72.789333 72.789333 0 0 1-108.202667 63.616zM568.32 341.333333l-35.84-72.96a21.632 21.632 0 0 0-39.168 0L457.472 341.333333a21.674667 21.674667 0 0 1-16.341333 11.861334l-80.469334 11.690666a21.632 21.632 0 0 0-11.946666 36.906667l58.24 57.045333a21.76 21.76 0 0 1 6.186666 19.2l-13.781333 79.914667a21.589333 21.589333 0 0 0 31.445333 23.04l71.978667-37.845333a21.589333 21.589333 0 0 1 20.181333 0l71.978667 37.845333a21.674667 21.674667 0 0 0 31.445333-22.784l-13.781333-80.213333a21.845333 21.845333 0 0 1 6.272-19.413334l58.24-56.789333a21.674667 21.674667 0 0 0-12.032-36.906667l-80.469333-11.690666A21.546667 21.546667 0 0 1 568.32 341.333333z" fill="currentColor" /></svg>