<?xml version="1.0" standalone="no"?><!DOCTYPE svg PUBLIC "-//W3C//DTD SVG 1.1//EN" "http://www.w3.org/Graphics/SVG/1.1/DTD/svg11.dtd"><svg class="icon" width="200px" height="200.00px" viewBox="0 0 1024 1024" version="1.1" xmlns="http://www.w3.org/2000/svg"><path fill="currentColor" d="M512.042667 104.832a21.333333 21.333333 0 0 1 21.333333 21.333333v462.08l168.746667-161.152a21.333333 21.333333 0 0 1 29.44 30.848l-204.8 195.626667a21.333333 21.333333 0 0 1-29.44 0l-204.8-195.626667a21.333333 21.333333 0 1 1 29.44-30.848l168.746666 161.194667V126.165333a21.333333 21.333333 0 0 1 21.333334-21.333333zM870.4 628.053333a21.333333 21.333333 0 0 1 21.333333 21.333334v158.122666c0 29.568-11.648 57.941333-32.426666 78.933334a110.592 110.592 0 0 1-78.506667 32.725333H243.2c-29.44 0-57.728-11.776-78.506667-32.768a112.085333 112.085333 0 0 1-32.426666-78.933333V649.386667a21.333333 21.333333 0 0 1 42.666666 0v158.122666c0 18.346667 7.253333 35.925333 20.053334 48.853334 12.8 12.928 30.165333 20.138667 48.213333 20.138666h537.6c18.048 0 35.413333-7.253333 48.213333-20.138666 12.8-12.928 20.053333-30.506667 20.053334-48.853334V649.386667a21.333333 21.333333 0 0 1 21.333333-21.333334z" /></svg>