<?xml version="1.0" standalone="no"?><!DOCTYPE svg PUBLIC "-//W3C//DTD SVG 1.1//EN" "http://www.w3.org/Graphics/SVG/1.1/DTD/svg11.dtd"><svg class="icon" width="200px" height="200.00px" viewBox="0 0 1024 1024" version="1.1" xmlns="http://www.w3.org/2000/svg"><path fill="currentColor" d="M459.52 658.901333L224 527.36l-28.458667 208.64c0 157.44 308.181333 205.44 496.64 144.341333l28.8-305.621333-149.76 83.84a128 128 0 0 1-111.658666 0.341333z m504.661333-375.04L571.221333 64a128 128 0 0 0-111.658666 0L66.56 283.818667c-32 17.28-32 45.44 0 64l392.96 220.501333a128 128 0 0 0 111.658667 0L832 420.778667l-44.458667 471.722666a80.384 80.384 0 1 0 160 0L899.541333 384l64-36.181333c31.36-18.56 31.36-46.72 0.64-64z" /></svg>