<?xml version="1.0" standalone="no"?><!DOCTYPE svg PUBLIC "-//W3C//DTD SVG 1.1//EN" "http://www.w3.org/Graphics/SVG/1.1/DTD/svg11.dtd"><svg class="icon" width="200px" height="200.00px" viewBox="0 0 1024 1024" version="1.1" xmlns="http://www.w3.org/2000/svg"><path d="M490.026463 511.999787H1024.29824c0-46.207981-6.143997-90.965295-17.621326-133.546611H490.026463V511.999787zM490.026463 244.906565h459.093142a514.730452 514.730452 0 0 0-118.101284-133.589278h-340.991858v133.546611zM512.298453 1023.999573c120.490616 0 231.253237-41.642649 318.719868-111.317287H193.578586A509.781121 509.781121 0 0 0 512.298453 1023.999573zM75.434635 779.093009H949.204938a508.842455 508.842455 0 0 0 57.514643-133.546611H17.919993c12.842661 47.658647 32.383987 92.543961 57.514642 133.546611z" fill="currentColor" /><path d="M237.482568 79.9573h46.634647l-43.391982 31.530654 16.597327 51.029312-43.434649-31.573321-43.391982 31.573321 14.335994-44.074649c-38.229317 31.82932-71.67997 69.119971-99.327959 110.677288h14.933328l-27.605322 20.053325c-4.266665 7.167997-8.40533 14.506661-12.373328 21.88799l13.226661 40.575983-24.661323-17.877325C42.965316 306.773206 37.333318 319.999867 32.298653 333.525194l14.506661 44.714648h53.674644l-43.391982 31.573321 16.55466 50.986645-43.391982-31.530654-26.026656 18.901326C1.706666 469.077138 0.298667 490.410462 0.298667 511.999787h511.999786V0C411.178495 0 316.885201 29.354654 237.482568 79.9573z m19.839992 380.842508l-43.434649-31.530654-43.391982 31.530654 16.597327-51.029312-43.391982-31.530654h53.631977l16.55466-50.986645 16.597326 50.986645h53.631978l-43.391982 31.573321 16.597327 50.986645z m-16.597327-200.14925l16.597327 50.986645-43.434649-31.530653-43.391982 31.57332 16.597327-51.029312-43.391982-31.57332h53.631977l16.55466-50.986646 16.597326 51.029313h53.631978l-43.391982 31.530653z m200.234583 200.14925l-43.391982-31.530654-43.391981 31.530654 16.554659-51.029312-43.391982-31.530654h53.631978l16.597326-50.986645 16.55466 50.986645h53.674645l-43.434649 31.573321 16.597326 50.986645z m-16.597326-200.14925l16.597326 50.986645-43.391982-31.530653-43.391981 31.57332 16.554659-51.029312-43.391982-31.57332h53.631978l16.597326-50.986646 16.55466 51.029313h53.674645l-43.434649 31.530653z m0-149.162604l16.597326 51.029312-43.391982-31.573321-43.391981 31.573321 16.554659-51.029312-43.391982-31.530654h53.631978L397.567834 28.927988l16.55466 51.029312h53.674645l-43.434649 31.530654z" fill="currentColor" /></svg>