<?xml version="1.0" standalone="no"?><!DOCTYPE svg PUBLIC "-//W3C//DTD SVG 1.1//EN" "http://www.w3.org/Graphics/SVG/1.1/DTD/svg11.dtd"><svg class="icon" width="200px" height="200.00px" viewBox="0 0 1024 1024" version="1.1" xmlns="http://www.w3.org/2000/svg"><path fill="currentColor" d="M538.154667 956.714667h-52.309334v-104.618667c-102.016-5.248-162.176-47.104-183.125333-122.965333l-5.205333-26.154667 49.706666-13.098667 5.205334 26.154667c5.248 20.949333 20.906667 83.712 156.970666 83.712 141.226667 0 156.970667-91.52 156.970667-130.773333 0-81.066667-62.805333-102.016-162.218667-128.213334-88.917333-26.154667-201.386667-57.514667-201.386666-185.728 0-83.712 49.664-172.629333 183.082666-183.125333V67.285333h52.309334v104.618667c102.058667 5.248 162.218667 47.104 183.125333 122.965333l5.248 26.154667-49.706667 13.098667-5.248-26.154667c-5.205333-20.906667-20.906667-83.712-156.928-83.712-141.269333 0-157.013333 91.562667-157.013333 130.773333 0 83.712 62.805333 107.264 164.864 133.418667 94.165333 26.154667 201.386667 54.954667 201.386667 180.48 0 83.754667-49.664 172.672-183.082667 183.168v104.618667h-2.645333z" /></svg>