<?xml version="1.0" standalone="no"?><!DOCTYPE svg PUBLIC "-//W3C//DTD SVG 1.1//EN" "http://www.w3.org/Graphics/SVG/1.1/DTD/svg11.dtd"><svg class="icon" width="200px" height="200.00px" viewBox="0 0 1024 1024" version="1.1" xmlns="http://www.w3.org/2000/svg"><path fill="currentColor" d="M957.226667 404.309333a32.042667 32.042667 0 0 0-25.514667-21.504l-270.336-41.728-120.789333-258.602666a32.042667 32.042667 0 0 0-28.928-18.474667h-0.085334a32 32 0 0 0-28.928 18.346667L360.789333 340.352l-270.72 40.789333a32 32 0 0 0-18.218666 53.930667l196.48 202.069333-46.890667 284.8a32 32 0 0 0 47.018667 33.28l241.834666-133.034666 241.28 133.845333a32.554667 32.554667 0 0 0 15.530667 3.968h0.64a32 32 0 0 0 29.994667-43.306667l-44.885334-278.656 196.906667-201.258666a32.085333 32.085333 0 0 0 7.466667-32.426667z" /></svg>