<?xml version="1.0" standalone="no"?><!DOCTYPE svg PUBLIC "-//W3C//DTD SVG 1.1//EN" "http://www.w3.org/Graphics/SVG/1.1/DTD/svg11.dtd"><svg class="icon" width="200px" height="200.00px" viewBox="0 0 1024 1024" version="1.1" xmlns="http://www.w3.org/2000/svg"><path fill="currentColor" d="M771.328 61.738667a72.533333 72.533333 0 0 1 102.570667-0.042667l88.32 88.234667a72.533333 72.533333 0 0 1 0.085333 102.570666l-417.024 417.28a72.533333 72.533333 0 0 1-36.992 19.797334l-186.282667 37.546666a21.333333 21.333333 0 0 1-25.088-25.173333l37.546667-186.026667a72.533333 72.533333 0 0 1 19.84-36.906666l417.024-417.28z m72.448 30.122666a29.866667 29.866667 0 0 0-42.24 0l-417.066667 417.28a29.866667 29.866667 0 0 0-8.106666 15.232l-31.274667 154.581334 154.794667-31.189334a29.866667 29.866667 0 0 0 15.232-8.192l416.981333-417.237333a29.866667 29.866667 0 0 0 0-42.24l-88.32-88.234667zM215.424 164.352a132.266667 132.266667 0 0 0-132.266667 132.266667v512a132.266667 132.266667 0 0 0 132.266667 132.266666h512a132.266667 132.266667 0 0 0 132.266667-132.266666v-256a21.333333 21.333333 0 1 1 42.666666 0v256a174.933333 174.933333 0 0 1-174.933333 174.933333h-512a174.933333 174.933333 0 0 1-174.933333-174.933333v-512a174.933333 174.933333 0 0 1 174.933333-174.933334h256a21.333333 21.333333 0 0 1 0 42.666667h-256z" /></svg>