<?xml version="1.0" standalone="no"?><!DOCTYPE svg PUBLIC "-//W3C//DTD SVG 1.1//EN" "http://www.w3.org/Graphics/SVG/1.1/DTD/svg11.dtd"><svg class="icon" width="200px" height="188.06px" viewBox="0 0 1089 1024" version="1.1" xmlns="http://www.w3.org/2000/svg"><path fill="currentColor" d="M293.299745 0a167.522043 167.522043 0 0 0-167.609192 167.587404 167.522043 167.522043 0 0 0 167.609192 167.609192 167.522043 167.522043 0 0 0 167.587404-167.609192A167.500255 167.500255 0 0 0 293.299745 0z m502.762212 0a167.500255 167.500255 0 0 0-167.587404 167.587404 167.522043 167.522043 0 0 0 167.587404 167.609192 167.522043 167.522043 0 0 0 167.609192-167.609192A167.522043 167.522043 0 0 0 796.061957 0zM293.299745 377.093447c-58.60766 0-108.674723 12.113702-150.593362 28.802723C54.66417 439.448511 0 523.242213 0 615.380426v390.187574h335.196596v-41.896851c0-54.51166 33.55234-104.426213 83.793702-129.634043 41.896851-20.937532 92.138213-41.896851 125.690553-41.896851s83.793702 21.286128 125.690553 37.975149c50.241362 25.20783 83.793702 75.122383 83.793702 129.612256v41.918638H1089.361702V611.458723c0-88.064-58.912681-172.010213-142.706383-205.562553a403.281702 403.281702 0 0 0-150.593362-28.802723c-121.420255 0-205.235745 50.241362-251.381106 83.793702-46.145362-37.64834-129.960851-83.793702-251.381106-83.793702zM544.680851 502.784c71.200681 0 125.690553 54.489872 125.690553 125.690553 0 71.200681-54.489872 125.690553-125.690553 125.690553-71.200681 0-125.690553-54.489872-125.690553-125.690553 0-71.200681 54.489872-125.690553 125.690553-125.690553z" /></svg>