<?xml version="1.0" standalone="no"?><!DOCTYPE svg PUBLIC "-//W3C//DTD SVG 1.1//EN" "http://www.w3.org/Graphics/SVG/1.1/DTD/svg11.dtd"><svg class="icon" width="200px" height="200.00px" viewBox="0 0 1024 1024" version="1.1" xmlns="http://www.w3.org/2000/svg"><path fill="currentColor" d="M663.466667 150.357333c42.666667-5.461333 86.954667 10.325333 133.290666 50.901334l9.301334 8.448 0.042666 0.042666c49.92 47.232 71.125333 93.568 67.925334 139.52-2.730667 39.168-23.04 73.770667-49.152 104.064l-11.52 12.714667-350.08 370.432 0.042666 0.042667a126.549333 126.549333 0 0 1-33.066666 24.618666 135.338667 135.338667 0 0 1-38.272 14.037334h-0.128l-137.386667 23.466666c-30.421333 5.205333-58.837333-2.432-78.805333-21.418666-19.968-18.901333-29.141333-46.848-25.770667-77.482667v-0.085333l15.786667-138.24 0.042666-0.384c1.706667-12.373333 6.357333-26.282667 12.117334-38.613334 5.717333-12.288 13.397333-24.917333 22.058666-34.176h0.042667l350.293333-370.816c31.488-33.28 68.778667-61.354667 113.194667-67.072z m105.216 83.029334c-40.32-35.328-72.96-44.117333-99.84-40.661334-29.824 3.797333-58.453333 23.253333-87.552 53.973334l-350.293334 370.730666c-4.565333 4.821333-9.856 13.141333-14.506666 23.04-4.565333 9.813333-7.552 19.413333-8.448 26.197334l-15.786667 137.813333c-2.133333 19.285333 3.84 33.322667 12.8 41.813333 8.874667 8.448 23.125333 13.568 42.197333 10.282667l137.258667-23.466667c6.784-1.194667 16.170667-4.565333 25.6-9.6 9.472-5.12 17.28-10.88 21.717333-15.701333l0.256-0.298667 350.293334-370.773333 10.410666-11.52c22.954667-26.709333 36.864-52.736 38.698667-78.933333 2.005333-28.885333-10.325333-63.573333-54.613333-105.472l-8.192-7.424zM504.021333 272.810667a21.333333 21.333333 0 0 1 24.362667 17.792 240.042667 240.042667 0 0 0 213.589333 201.813333 21.333333 21.333333 0 1 1-4.266666 42.453333 282.709333 282.709333 0 0 1-251.477334-237.653333 21.333333 21.333333 0 0 1 17.792-24.405333z" /></svg>