<?xml version="1.0" standalone="no"?><!DOCTYPE svg PUBLIC "-//W3C//DTD SVG 1.1//EN" "http://www.w3.org/Graphics/SVG/1.1/DTD/svg11.dtd"><svg class="icon" width="200px" height="200.00px" viewBox="0 0 1024 1024" version="1.1" xmlns="http://www.w3.org/2000/svg"><path fill="currentColor" d="M820.266667 656.725333c-14.208 0-23.808-9.6-23.808-23.850666v-203.733334c0-151.808-128-272.682667-284.458667-272.682666S227.541333 277.333333 227.541333 429.141333v203.733334c0 14.250667-9.6 23.850667-23.808 23.850666A117.546667 117.546667 0 0 1 85.333333 537.941333V490.666667c0-49.792 30.933333-92.458667 75.733334-109.141334C184.874667 213.333333 334.208 85.333333 512 85.333333s327.125333 130.474667 350.933333 296.192A116.138667 116.138667 0 0 1 938.666667 490.666667v47.274666a117.546667 117.546667 0 0 1-118.4 118.784z m-308.138667 47.146667a236.714667 236.714667 0 0 0 236.8-236.8 237.013333 237.013333 0 0 0-236.8-237.141333 237.312 237.312 0 0 0-237.184 237.141333 237.013333 237.013333 0 0 0 237.184 236.8z m196.48-18.688A261.589333 261.589333 0 0 1 512 775.125333c-78.250667 0-149.333333-35.541333-196.650667-89.941333-4.949333-4.992-14.208-7.125333-19.2 0a282.154667 282.154667 0 0 0-68.608 184.874667A69.973333 69.973333 0 0 0 298.666667 941.226667h426.666666c40.149333 0 71.082667-33.450667 71.082667-71.125334a282.154667 282.154667 0 0 0-68.608-184.874666c-4.992-7.125333-14.208-4.992-19.2 0z" /></svg>