<?xml version="1.0" standalone="no"?><!DOCTYPE svg PUBLIC "-//W3C//DTD SVG 1.1//EN" "http://www.w3.org/Graphics/SVG/1.1/DTD/svg11.dtd"><svg class="icon" width="200px" height="194.68px" viewBox="0 0 1052 1024" version="1.1" xmlns="http://www.w3.org/2000/svg"><path fill="currentColor" d="M665.088 816.782222c30.947556 17.408 61.667556 26.168889 92.131556 26.168889 30.435556 0 61.155556-8.760889 92.103111-26.168889V938.666667l-83.712-44.202667a15.530667 15.530667 0 0 0-14.222223-0.113778l-86.414222 44.202667v-121.770667h0.113778zM782.819556 85.333333a42.666667 42.666667 0 0 1 42.666666 42.666667V426.666667h-128a170.666667 170.666667 0 0 0-170.467555 162.133333l-0.199111 8.533333v298.666667h-341.333334a42.666667 42.666667 0 0 1-42.666666-42.666667V128A42.666667 42.666667 0 0 1 185.457778 85.333333h597.333333z m-25.6 426.666667c84.906667 0 153.6 68.152889 153.6 152.405333 0 84.224-68.693333 152.376889-153.6 152.376889-84.906667 0-153.6-68.152889-153.6-152.376889 0-84.252444 68.693333-152.405333 153.6-152.405333z m0 60.871111l-32.568889 47.047111-55.04 16.213334 35.128889 45.226666-1.536 57.002667 54.016-19.057778 54.186666 19.057778-1.536-57.002667 35.100445-45.226666-55.182223-16.213334-32.568888-47.018666zM462.791111 384h-170.666667a21.333333 21.333333 0 0 0-20.992 17.493333l-0.341333 3.84V426.666667a21.333333 21.333333 0 0 0 17.493333 20.992l3.84 0.341333h170.666667a21.333333 21.333333 0 0 0 20.992-17.493333L484.124444 426.666667v-21.333334a21.333333 21.333333 0 0 0-21.333333-21.333333z m128-170.666667h-298.666667a21.333333 21.333333 0 0 0-20.992 17.493334l-0.341333 3.84V256a21.333333 21.333333 0 0 0 17.493333 20.992l3.84 0.341333h298.666667a21.333333 21.333333 0 0 0 20.992-17.493333L612.124444 256v-21.333333a21.333333 21.333333 0 0 0-21.333333-21.333334z" /></svg>