<?xml version="1.0" standalone="no"?><!DOCTYPE svg PUBLIC "-//W3C//DTD SVG 1.1//EN" "http://www.w3.org/Graphics/SVG/1.1/DTD/svg11.dtd"><svg class="icon" width="200px" height="199.61px" viewBox="0 0 1026 1024" version="1.1" xmlns="http://www.w3.org/2000/svg"><path fill="currentColor" d="M828.928 608.256l-7.168-3.072 6.144-4.608c44.544-34.816 70.144-87.04 70.144-143.36 0-100.352-82.432-182.272-183.296-182.272s-183.296 81.92-183.296 182.272c0 56.32 25.6 108.032 70.144 143.36l6.144 4.608-7.168 3.072c-118.272 47.104-194.56 158.72-194.56 284.672v61.952c0 14.848 12.288 26.624 27.136 26.624h563.2c14.848 0 27.136-11.776 27.136-26.624v-61.952c0-125.952-76.8-237.568-194.56-284.672zM284.16 627.2l-67.072-49.152L354.304 440.32V217.6h87.552v251.392L284.16 627.2z m424.448-428.544C619.52 80.384 466.944 17.92 312.832 51.2 100.864 96.768-33.792 305.152 11.776 516.608 46.592 678.4 176.64 795.648 331.264 821.248l60.416-87.04c-137.216-1.536-260.096-97.28-289.792-237.056-34.816-161.792 68.096-321.536 230.4-356.352 108.032-23.04 215.04 14.848 284.16 90.624l92.16-32.768z m-20.992 9.728z" /></svg>