<?xml version="1.0" standalone="no"?><!DOCTYPE svg PUBLIC "-//W3C//DTD SVG 1.1//EN" "http://www.w3.org/Graphics/SVG/1.1/DTD/svg11.dtd"><svg class="icon" width="200px" height="200.00px" viewBox="0 0 1024 1024" version="1.1" xmlns="http://www.w3.org/2000/svg"><path fill="currentColor" d="M486.997333 113.066667a56.064 56.064 0 0 1 73.216 21.930666l1.92 3.541334 100.394667 203.221333 224.426667 32.554667a56.064 56.064 0 0 1 33.92 92.629333l-2.901334 3.029333-162.304 158.08 38.314667 223.232a56.021333 56.021333 0 0 1-77.738667 60.885334l-3.584-1.706667-200.789333-105.472-200.832 105.429333a56.064 56.064 0 0 1-81.877333-55.338666l0.512-3.754667 38.4-223.274667-162.346667-158.08a56.064 56.064 0 0 1 27.306667-94.976l3.754666-0.682666 224.384-32.554667 100.394667-203.221333c5.461333-11.093333 14.421333-20.010667 25.429333-25.472z" /></svg>