<?xml version="1.0" standalone="no"?><!DOCTYPE svg PUBLIC "-//W3C//DTD SVG 1.1//EN" "http://www.w3.org/Graphics/SVG/1.1/DTD/svg11.dtd"><svg class="icon" width="200px" height="200.00px" viewBox="0 0 1024 1024" version="1.1" xmlns="http://www.w3.org/2000/svg"><path d="M439.168 963.626667v-256h-128l130.133333-328.533334c7.082667-17.066667 18.133333-30.592 33.024-40.533333 14.933333-9.941333 31.658667-14.933333 50.133334-14.933333 18.517333 0 35.2 4.992 50.133333 14.933333 14.933333 9.941333 25.984 23.466667 33.066667 40.533333l130.133333 328.533334h-128v256h-170.666667m85.333334-682.666667c-23.466667 0-43.52-8.362667-60.245334-25.088a82.176 82.176 0 0 1-25.088-60.245333c0-23.466667 8.362667-43.52 25.088-60.288a82.176 82.176 0 0 1 60.245334-25.045334c23.466667 0 43.562667 8.362667 60.288 25.045334 16.725333 16.725333 25.088 36.821333 25.088 60.288s-8.362667 43.52-25.088 60.245333a82.176 82.176 0 0 1-60.245334 25.088" fill="none" stroke="currentColor" stroke-width="1.5" stroke-linecap="round" stroke-linejoin="round" /></svg>