<?xml version="1.0" standalone="no"?><!DOCTYPE svg PUBLIC "-//W3C//DTD SVG 1.1//EN" "http://www.w3.org/Graphics/SVG/1.1/DTD/svg11.dtd"><svg class="icon" width="200px" height="200.00px" viewBox="0 0 1024 1024" version="1.1" xmlns="http://www.w3.org/2000/svg"><path fill="currentColor" d="M214.186667 298.666667a213.333333 213.333333 0 1 0 426.666666 0 213.333333 213.333333 0 0 0-426.666666 0zM612.693333 938.666667H128a42.666667 42.666667 0 0 1-42.666667-42.666667 341.333333 341.333333 0 0 1 341.333334-341.333333 333.226667 333.226667 0 0 1 147.2 33.706666 234.282667 234.282667 0 0 0 38.826666 350.293334zM746.666667 554.666667c106.325333 0 192 85.674667 192 192S852.992 938.666667 746.666667 938.666667a191.616 191.616 0 0 1-192-192c0-106.325333 85.674667-192 192-192zM836.736 763.648c27.306667-25.088 8.106667-54.613333 0-65.706667 5.930667 2.218667 13.312 8.832 28.074667 23.594667 0-59.050667-55.381333-47.232-55.381334-47.232-1.493333-34.730667-54.613333-55.381333-79.018666-19.2 37.674667-2.218667 36.949333 4.437333 42.112 14.037333-44.330667-4.437333-44.330667 36.906667-42.112 56.832 17.749333-35.413333 34.730667-34.688 55.381333-33.237333-36.181333 25.856-44.288 84.224-45.781333 118.912-5.12 0-10.325333 0-14.762667 0.725333-5.162667-66.432-28.8-83.413333-40.618667-90.794666 21.418667-0.768 25.856 5.888 36.949334 19.2 0-35.456-15.530667-36.949333-28.074667-37.674667 3.669333-6.656 16.981333-6.656 28.032-4.437333 0-19.925333-50.176-24.362667-55.381333 9.6-28.032-7.381333-45.781333 25.856-32.469334 37.674666 3.669333-17.749333 8.874667-18.474667 18.474667-19.2-21.418667 17.706667-16.256 43.52 0 51.669334-2.218667-27.306667 2.176-33.962667 9.6-37.674667-0.768 20.693333 2.218667 33.28 28.032 37.674667-16.981333-26.581333-14.037333-40.618667-9.6-47.232 16.256 25.088 26.581333 53.162667 31.018667 83.413333-34.688 5.205333-62.72 17.749333-74.581334 34.005333 0 11.093333 48 6.613333 74.581334-2.218666 8.874667-2.986667 17.749333 11.776 27.306666 11.776 11.093333 0 17.024-8.106667 27.349334-8.832 16.981333-1.493333 31.744 8.832 45.781333 8.832 11.818667 0 38.4-3.669333 38.4-9.557334-14.037333-18.474667-48-32.512-88.618667-36.224 1.493333-58.325333 5.162667-95.232 38.4-109.994666 8.106667 31.018667-7.381333 57.6-18.432 70.869333 40.576-0.725333 41.344-39.850667 42.069334-56.874667 5.162667 7.424 12.544 13.312 13.269333 47.274667z" /></svg>