<?xml version="1.0" standalone="no"?><!DOCTYPE svg PUBLIC "-//W3C//DTD SVG 1.1//EN" "http://www.w3.org/Graphics/SVG/1.1/DTD/svg11.dtd"><svg class="icon" width="200px" height="200.00px" viewBox="0 0 1024 1024" version="1.1" xmlns="http://www.w3.org/2000/svg"><path fill="currentColor" d="M173.738667 923.861333c-23.466667 0-43.52-8.362667-60.245334-25.088a82.176 82.176 0 0 1-25.088-60.245333v-469.333333c0-23.466667 8.362667-43.562667 25.088-60.288a82.176 82.176 0 0 1 60.245334-25.045334h213.333333v-128c0-23.466667 8.362667-43.562667 25.088-60.288a82.176 82.176 0 0 1 60.245333-25.045333h85.333334c23.466667 0 43.562667 8.32 60.288 25.045333 16.682667 16.725333 25.045333 36.821333 25.045333 60.288v128h213.333333c23.466667 0 43.562667 8.32 60.288 25.045334 16.682667 16.725333 25.045333 36.821333 25.045334 60.288v469.333333c0 23.466667-8.362667 43.52-25.045334 60.245333a82.176 82.176 0 0 1-60.288 25.088h-682.666666z m0-85.333333h682.666666v-469.333333h-213.333333c0 23.466667-8.362667 43.52-25.045333 60.245333a82.176 82.176 0 0 1-60.288 25.088h-85.333334c-23.466667 0-43.52-8.362667-60.245333-25.088a82.176 82.176 0 0 1-25.088-60.245333h-213.333333v469.333333z m85.333333-85.333333h256v-19.2c0-12.117333-3.370667-23.296-10.112-33.621334a66.986667 66.986667 0 0 0-28.288-23.978666 220.245333 220.245333 0 0 0-43.178667-14.421334 216.021333 216.021333 0 0 0-46.421333-4.778666c-16.341333 0-31.829333 1.578667-46.378667 4.778666-14.592 3.2-29.013333 8.021333-43.221333 14.421334a66.986667 66.986667 0 0 0-28.245333 23.978666 60.16 60.16 0 0 0-10.154667 33.621334v19.2z m341.333333-64h170.666667v-64h-170.666667v64z m-213.333333-64c17.792 0 32.896-6.229333 45.354667-18.688 12.416-12.458667 18.645333-27.562667 18.645333-45.312 0-17.792-6.229333-32.896-18.645333-45.354667a61.738667 61.738667 0 0 0-45.354667-18.645333c-17.749333 0-32.853333 6.186667-45.312 18.645333a61.738667 61.738667 0 0 0-18.688 45.354667c0 17.749333 6.229333 32.853333 18.688 45.312 12.416 12.458667 27.562667 18.688 45.312 18.688z m213.333333-64h170.666667v-64h-170.666667v64z m-128-192h85.333334v-213.333334h-85.333334v213.333334z" /></svg>
