<?xml version="1.0" standalone="no"?><!DOCTYPE svg PUBLIC "-//W3C//DTD SVG 1.1//EN" "http://www.w3.org/Graphics/SVG/1.1/DTD/svg11.dtd"><svg class="icon" width="200px" height="200.00px" viewBox="0 0 1024 1024" version="1.1" xmlns="http://www.w3.org/2000/svg"><path fill="currentColor" d="M512 85.333333v277.333334a64 64 0 0 0 64 64H853.333333v426.666666a85.333333 85.333333 0 0 1-85.333333 85.333334H256a85.333333 85.333333 0 0 1-85.333333-85.333334V170.666667a85.333333 85.333333 0 0 1 85.333333-85.333334h256z m67.882667 497.365334l-105.6 105.6-30.165334-30.165334a42.666667 42.666667 0 0 0-60.330666 60.330667l57.301333 57.344a46.933333 46.933333 0 0 0 66.389333 0l132.736-132.778667a42.666667 42.666667 0 1 0-60.330666-60.330666zM597.333333 87.168a85.333333 85.333333 0 0 1 42.666667 23.168L828.330667 298.666667a85.333333 85.333333 0 0 1 23.168 42.666666H597.333333V87.168z" /></svg>