<?xml version="1.0" standalone="no"?><!DOCTYPE svg PUBLIC "-//W3C//DTD SVG 1.1//EN" "http://www.w3.org/Graphics/SVG/1.1/DTD/svg11.dtd"><svg class="icon" width="200px" height="200.00px" viewBox="0 0 1024 1024" version="1.1" xmlns="http://www.w3.org/2000/svg"><path d="M940.672 293.888a29.653333 29.653333 0 0 1-10.410667-15.146667 219.008 219.008 0 0 0-209.450666-157.269333c-17.749333 0-35.498667 2.133333-52.650667 6.4a29.312 29.312 0 0 1-31.146667-11.818667 241.024 241.024 0 0 0-361.088-41.472 240.298667 240.298667 0 0 0-77.312 154.666667 29.312 29.312 0 0 1-16.554666 23.68 150.357333 150.357333 0 0 0-8.704 4.48 27.349333 27.349333 0 0 1-7.765334 2.944 187.306667 187.306667 0 0 0-104.021333 64.298667 182.570667 182.570667 0 0 0-41.429333 116.608c0 102.229333 83.626667 185.429333 186.453333 185.429333h620.8c102.826667 0 186.496-83.2 186.496-185.429333a183.722667 183.722667 0 0 0-73.216-147.328zM932.821333 752.896a29.269333 29.269333 0 0 0-29.312-29.312H134.058667a29.269333 29.269333 0 1 0 0 58.581333h769.450666c16.213333 0 29.312-13.056 29.312-29.269333zM861.141333 964.522667H91.648a29.269333 29.269333 0 1 0 0 58.581333h769.493333a29.269333 29.269333 0 1 0 0-58.581333zM265.898667 845.653333a29.269333 29.269333 0 1 0 0 58.624h282.026666a29.269333 29.269333 0 1 0 0-58.581333h-282.026666zM994.688 845.653333h-282.026667a29.269333 29.269333 0 1 0 0 58.624h282.026667a29.269333 29.269333 0 1 0 0-58.581333z" fill="currentColor" /></svg>