<?xml version="1.0" standalone="no"?><!DOCTYPE svg PUBLIC "-//W3C//DTD SVG 1.1//EN" "http://www.w3.org/Graphics/SVG/1.1/DTD/svg11.dtd"><svg class="icon" width="200px" height="200.00px" viewBox="0 0 1024 1024" version="1.1" xmlns="http://www.w3.org/2000/svg"><path d="M372.224 704c14.08 0 26.496-4.672 37.312-13.952L608 510.72l198.4 179.328a55.424 55.424 0 0 0 37.376 13.504c7.552 0 14.08-1.088 19.84-3.328a50.368 50.368 0 0 0 23.616-17.344 43.008 43.008 0 0 0 8.768-26.24V111.36a43.008 43.008 0 0 0-8.768-26.24 50.368 50.368 0 0 0-23.68-17.28 52.48 52.48 0 0 0-19.776-3.84H372.224a52.48 52.48 0 0 0-19.84 3.84 50.368 50.368 0 0 0-23.616 17.28 43.008 43.008 0 0 0-8.768 26.24v545.28c0 9.6 2.944 18.304 8.768 26.24a50.368 50.368 0 0 0 23.68 17.28 52.48 52.48 0 0 0 19.776 3.84z" fill="currentColor" /><path d="M185.984 896a62.08 62.08 0 0 0 41.536-15.36L448 683.328l220.48 197.312a61.952 61.952 0 0 0 41.536 14.912c8.32 0 15.68-1.28 22.016-3.712a55.936 55.936 0 0 0 26.24-19.136 47.04 47.04 0 0 0 9.728-28.8V244.096a47.04 47.04 0 0 0-9.728-28.8 55.936 55.936 0 0 0-26.24-19.136 58.88 58.88 0 0 0-22.016-4.16H185.984a58.88 58.88 0 0 0-22.016 4.16 55.936 55.936 0 0 0-26.24 19.136 47.04 47.04 0 0 0-9.728 28.8v599.808c0 10.56 3.2 20.16 9.728 28.8a55.936 55.936 0 0 0 26.24 19.136 58.88 58.88 0 0 0 22.016 4.16z" fill="currentColor" /><path d="M768 987.456c29.696 0 58.112-5.76 85.312-17.408a219.264 219.264 0 0 0 69.952-46.72c19.52-19.52 35.136-42.88 46.72-70.016 11.648-27.136 17.472-55.68 17.472-85.44 0-29.824-5.824-58.24-17.472-85.12a220.992 220.992 0 0 0-46.72-70.08 219.264 219.264 0 0 0-69.952-46.72A215.104 215.104 0 0 0 768 548.48c-29.696 0-58.112 5.76-85.312 17.408a219.264 219.264 0 0 0-69.952 46.72 221.44 221.44 0 0 0-46.72 69.888 213.888 213.888 0 0 0-17.472 85.312c0 29.824 5.824 58.24 17.472 85.44 11.584 27.136 27.2 50.496 46.72 70.016 19.52 19.584 42.88 35.2 69.952 46.72 27.2 11.584 55.616 17.408 85.312 17.408z m-129.984-134.4a152.832 152.832 0 0 1-25.472-85.184c0-28.16 7.04-54.144 20.864-78.08 13.952-23.872 32.768-42.752 56.576-56.64A152.32 152.32 0 0 1 768 612.352c31.424 0 60.032 8.64 85.76 25.92l-215.744 214.72zM768 923.584c-30.464 0-58.752-8.448-84.864-25.344l215.424-214.4c16.64 25.408 24.896 53.376 24.896 83.968 0 21.12-4.096 41.216-12.288 60.48-8.192 19.264-19.264 35.84-33.152 49.728a158.08 158.08 0 0 1-110.016 45.568z" fill="currentColor" /></svg>