<?xml version="1.0" standalone="no"?><!DOCTYPE svg PUBLIC "-//W3C//DTD SVG 1.1//EN" "http://www.w3.org/Graphics/SVG/1.1/DTD/svg11.dtd"><svg class="icon" width="200px" height="200.00px" viewBox="0 0 1024 1024" version="1.1" xmlns="http://www.w3.org/2000/svg"><path fill="currentColor" d="M157.866667 307.2a21.333333 21.333333 0 0 1 21.333333-21.333333h665.6a21.333333 21.333333 0 1 1 0 42.666666H179.2a21.333333 21.333333 0 0 1-21.333333-21.333333zM260.266667 512a21.333333 21.333333 0 0 1 21.333333-21.333333h460.8a21.333333 21.333333 0 1 1 0 42.666666H281.6a21.333333 21.333333 0 0 1-21.333333-21.333333z m153.6 204.8a21.333333 21.333333 0 0 1 21.333333-21.333333h153.6a21.333333 21.333333 0 1 1 0 42.666666h-153.6a21.333333 21.333333 0 0 1-21.333333-21.333333z" /></svg>