<?xml version="1.0" standalone="no"?><!DOCTYPE svg PUBLIC "-//W3C//DTD SVG 1.1//EN" "http://www.w3.org/Graphics/SVG/1.1/DTD/svg11.dtd"><svg class="icon" width="200px" height="200.00px" viewBox="0 0 1024 1024" version="1.1" xmlns="http://www.w3.org/2000/svg"><path fill="currentColor" d="M572.757333 244.608a85.077333 85.077333 0 0 0-65.365333-82.645333l-143.786667 323.541333v390.4h408.490667a46.037333 46.037333 0 0 0 46.08-39.082667v-0.042666l53.802667-351.146667 0.512-4.949333a45.952 45.952 0 0 0-27.136-43.946667 46.208 46.208 0 0 0-19.370667-4.053333h-221.226667a32 32 0 0 1-32-32V244.608zM168.533333 829.866667a46.122667 46.122667 0 0 0 46.037334 46.037333h85.034666v-365.226667H214.570667a46.037333 46.037333 0 0 0-46.08 46.08v273.066667zM636.757333 368.64h188.842667a110.037333 110.037333 0 0 1 109.653333 126.549333L881.493333 846.506667a110.122667 110.122667 0 0 1-109.653333 93.44H214.528a110.037333 110.037333 0 0 1-110.08-109.994667v-273.152a109.994667 109.994667 0 0 1 110.08-110.037333h96.256l147.626667-332.16 2.176-4.138667a32 32 0 0 1 27.050666-14.848 149.12 149.12 0 0 1 149.077334 149.034667V368.64z" /></svg>