<?xml version="1.0" standalone="no"?><!DOCTYPE svg PUBLIC "-//W3C//DTD SVG 1.1//EN" "http://www.w3.org/Graphics/SVG/1.1/DTD/svg11.dtd"><svg class="icon" width="200px" height="200.00px" viewBox="0 0 1024 1024" version="1.1" xmlns="http://www.w3.org/2000/svg"><path fill="currentColor" d="M384 85.333333C272.213333 85.333333 181.333333 176.213333 181.333333 288c0 109.653333 85.76 198.4 197.546667 202.24 3.413333-0.426667 6.826667-0.426667 9.386667 0h2.986666a202.154667 202.154667 0 0 0 195.413334-202.24C586.666667 176.213333 495.786667 85.333333 384 85.333333zM600.746667 603.733333c-119.04-79.36-313.173333-79.36-433.066667 0-54.186667 36.266667-84.053333 85.333333-84.053333 137.813334s29.866667 101.12 83.626666 136.96C226.986667 918.613333 305.493333 938.666667 384 938.666667c78.506667 0 157.013333-20.053333 216.746667-60.16 53.76-36.266667 83.626667-84.906667 83.626666-137.813334-0.426667-52.48-29.866667-101.12-83.626666-136.96zM852.906667 313.173333c6.826667 82.773333-52.053333 155.306667-133.546667 165.12h-2.133333c-2.56 0-5.12 0-7.253334 0.853334-41.386667 2.133333-79.36-11.093333-107.946666-35.413334 43.946667-39.253333 69.12-98.133333 64-162.133333a197.973333 197.973333 0 0 0-32.853334-93.013333 153.258667 153.258667 0 0 1 219.733334 124.586666zM938.24 707.84c-3.413333 41.386667-29.866667 77.226667-74.24 101.546667-42.666667 23.466667-96.426667 34.56-149.76 33.28 30.72-27.733333 48.64-62.293333 52.053333-98.986667 4.266667-52.906667-20.906667-103.68-71.253333-144.213333-28.586667-22.613333-61.866667-40.533333-98.133333-53.76 94.293333-27.306667 212.906667-8.96 285.866666 49.92 39.253333 31.573333 59.306667 71.253333 55.466667 112.213333z" /></svg> 