<?xml version="1.0" standalone="no"?><!DOCTYPE svg PUBLIC "-//W3C//DTD SVG 1.1//EN" "http://www.w3.org/Graphics/SVG/1.1/DTD/svg11.dtd"><svg class="icon" width="200px" height="53.67px" viewBox="0 0 3816 1024" version="1.1" xmlns="http://www.w3.org/2000/svg"><path fill="currentColor" d="M828.881455 963.099927L875.054545 1008.286255c-4.989673 3.165091-10.016582 6.255709-15.080727 9.290472l-43.380363-42.449454 12.288-12.027346z m-131.705019-835.584v201.579055l-139.785309 134.795636L781.963636 680.401455v262.702545L316.602182 494.443055 697.176436 127.515927z m2630.116073 659.2512c13.907782 0 25.935127 2.904436 36.100655 8.731928 10.165527 5.827491 17.892073 13.591273 23.198254 23.328581a65.349818 65.349818 0 0 1 7.949964 31.799855c0 3.239564-0.148945 6.292945-0.465455 9.160145l-0.577163 4.133237h-117.815855l0.186182 4.412509c0.651636 10.053818 3.053382 18.618182 7.242473 25.693091 4.784873 8.080291 10.984727 14.038109 18.6368 17.854836 7.633455 3.816727 15.899927 5.7344 24.762181 5.7344 12.846545 0 23.645091-3.220945 32.321164-9.644218a38.353455 38.353455 0 0 0 14.931782-22.490764l0.707491-3.574691h19.288436l-0.8192 4.058764a57.530182 57.530182 0 0 1-20.815127 32.693527c-11.822545 9.383564-26.754327 14.075345-44.832582 14.075346-13.554036 0-25.581382-2.904436-36.100654-8.731928a61.104873 61.104873 0 0 1-24.631855-25.28349c-5.901964-11.040582-8.862255-24.017455-8.862255-38.967855 0-14.9504 2.960291-27.927273 8.862255-38.967855a61.104873 61.104873 0 0 1 24.631855-25.28349c10.519273-5.827491 22.546618-8.731927 36.100654-8.731928z m-804.119273 0c14.429091 0 26.717091 3.723636 36.882619 11.208146 9.029818 6.646691 15.5648 15.211055 19.586327 25.693091l1.396363 4.021527v-39.098182h17.985164V930.909091h-17.985164v-39.098182l-1.396363 4.021527a56.338618 56.338618 0 0 1-19.586327 25.693091c-10.165527 7.465891-22.453527 11.208145-36.882619 11.208146-12.846545 0-24.3712-2.960291-34.536727-8.862255a60.509091 60.509091 0 0 1-23.719564-25.413818c-5.641309-11.040582-8.471273-23.942982-8.471272-38.7072 0-14.9504 2.829964-27.927273 8.471272-38.967855a59.894691 59.894691 0 0 1 23.589237-25.28349c10.072436-5.827491 21.634327-8.731927 34.667054-8.731928z m323.9936 0c15.453091 0 27.890036 4.096 37.2736 12.250764 8.340945 7.261091 13.796073 16.7936 16.384 28.578909l0.8192 4.524218h-17.463854l-0.521309-3.369891a34.871855 34.871855 0 0 0-10.817164-19.437382c-6.516364-5.995055-15.248291-8.992582-26.195782-8.992581-9.383564 0-16.719127 2.308655-22.025309 6.907345-5.306182 4.598691-7.949964 10.724073-7.949963 18.376146 0 5.7344 1.694255 10.333091 5.082763 13.81469 3.388509 3.4816 7.596218 6.125382 12.641746 7.949964 1.675636 0.6144 3.537455 1.2288 5.622691 1.8432l6.777018 1.861818 7.931345 1.899055c10.426182 2.420364 18.804364 4.9152 25.153164 7.428654 6.330182 2.513455 11.766691 6.479127 16.290909 11.859782 4.524218 5.399273 6.777018 12.678982 6.777018 21.894982 0 11.301236-4.207709 20.554473-12.641745 27.759709-8.434036 7.205236-19.586327 10.817164-33.494109 10.817164-16.328145 0-29.714618-4.040145-40.1408-12.120437-9.383564-7.261091-15.322764-16.979782-17.798982-29.100218l-0.707491-4.133236h17.724509l0.539927 3.444363c1.563927 7.819636 5.473745 14.336 11.710837 19.493237 7.130764 5.901964 16.756364 8.862255 28.932654 8.862254 9.029818 0 16.067491-2.345891 21.113018-7.037672 5.026909-4.691782 7.558982-10.779927 7.558982-18.245819 0-6.088145-1.731491-10.947491-5.213091-14.596654a32.674909 32.674909 0 0 0-12.9024-8.210618 160.879709 160.879709 0 0 0-12.734836-3.816728l-8.247855-2.048a184.841309 184.841309 0 0 1-24.631854-7.298327 39.209891 39.209891 0 0 1-15.7696-11.338473c-4.338036-5.12-6.516364-12.120436-6.516364-20.98269 0-11.636364 4.263564-21.038545 12.772073-28.150691 8.508509-7.130764 20.0704-10.686836 34.667054-10.686837z m207.220364 0c14.429091 0 26.717091 3.723636 36.882618 11.208146 9.029818 6.646691 15.5648 15.211055 19.586327 25.693091l1.396364 4.021527v-39.098182h17.985164V930.909091h-17.985164v-39.098182l-1.396364 4.021527a56.338618 56.338618 0 0 1-19.586327 25.693091c-10.165527 7.465891-22.453527 11.208145-36.882618 11.208146-12.846545 0-24.3712-2.960291-34.536727-8.862255a60.509091 60.509091 0 0 1-23.719564-25.413818c-5.641309-11.040582-8.471273-23.942982-8.471273-38.7072 0-14.9504 2.829964-27.927273 8.471273-38.967855a59.894691 59.894691 0 0 1 23.589236-25.28349c10.072436-5.827491 21.634327-8.731927 34.667055-8.731928z m140.753455-34.145745v35.970327h39.098181v15.899927h-39.098181v83.930764l0.074472 3.239564c0.353745 8.340945 2.159709 14.149818 5.399273 17.482472 3.202327 3.2768 8.508509 5.101382 15.9744 5.510982l3.314036 0.093091h14.596655V930.909091h-16.942546l-4.021527-0.093091c-11.729455-0.595782-20.628945-3.816727-26.735709-9.681455-6.144-5.920582-9.513891-15.546182-10.072436-28.858181l-0.093091-4.114619V804.491636h-21.634327v-15.899927h21.634327v-35.970327h18.506473z m-240.323491-14.596655V930.909091h-18.506473V738.024727h18.506473z m-245.015273 47.960437c16.514327 0 29.938036 5.250327 40.271127 15.7696 9.551127 9.700073 14.689745 23.589236 15.415855 41.667491l0.093091 4.59869V930.909091h-17.985164v-81.584873l-0.111709-4.524218c-0.707491-13.274764-4.580073-23.626473-11.617746-31.055127-7.819636-8.247855-18.506473-12.381091-32.060509-12.381091-14.242909 0-25.581382 4.561455-34.015418 13.684363-7.670691 8.285091-11.841164 20.144873-12.530036 35.560728l-0.111709 4.7104V930.909091h-18.506473v-142.317382h18.506473v34.927709l1.321891-3.947054c3.835345-10.24 9.997964-18.2272 18.487854-23.942982 9.551127-6.423273 20.498618-9.644218 32.842473-9.644218z m-270.820073 0v19.809745h-5.995054l-4.486982 0.130327c-11.729455 0.744727-21.634327 4.375273-29.658764 10.947491-8.285091 6.777018-12.772073 17.445236-13.460945 32.023273l-0.093091 4.077382V930.909091h-18.506473v-142.317382h18.506473v29.453964l1.675636-3.723637c4.207709-8.471273 10.333091-15.136582 18.394764-19.995927 8.061673-4.859345 17.650036-7.596218 28.765091-8.210618l4.859345-0.130327z m-141.535418-33.363782v35.970327h39.098182v15.899927h-39.098182v83.930764l0.074473 3.239564c0.353745 8.340945 2.159709 14.149818 5.399272 17.482472 3.202327 3.2768 8.508509 5.101382 15.9744 5.510982l3.314037 0.093091h14.596654V930.909091h-16.942545l-4.021527-0.093091c-11.729455-0.595782-20.628945-3.816727-26.735709-9.681455-6.144-5.920582-9.513891-15.546182-10.072437-28.858181l-0.093091-4.114619V804.491636h-21.634327v-15.899927h21.634327v-35.970327h18.506473z m230.418618 50.306327c-15.993018 0-28.802327 5.082764-38.446545 15.248291-9.644218 10.165527-14.466327 24.017455-14.466328 41.5744 0 17.556945 4.822109 31.408873 14.466328 41.5744s22.453527 15.248291 38.446545 15.248291a53.248 53.248 0 0 0 27.2384-7.037673 49.505745 49.505745 0 0 0 19.027782-19.940073c4.598691-8.6016 6.907345-18.543709 6.907345-29.844945s-2.308655-21.243345-6.907345-29.844945a49.505745 49.505745 0 0 0-19.027782-19.940073 53.248 53.248 0 0 0-27.2384-7.037673z m531.213964 0c-15.993018 0-28.802327 5.082764-38.446546 15.248291-9.644218 10.165527-14.466327 24.017455-14.466327 41.5744 0 17.556945 4.822109 31.408873 14.466327 41.5744s22.453527 15.248291 38.446546 15.248291a53.248 53.248 0 0 0 27.2384-7.037673 49.505745 49.505745 0 0 0 19.027782-19.940073c4.598691-8.6016 6.907345-18.543709 6.907345-29.844945s-2.308655-21.243345-6.907345-29.844945a49.505745 49.505745 0 0 0-19.027782-19.940073 53.248 53.248 0 0 0-27.2384-7.037673z m268.213527-1.303273c-9.216 0-17.631418 1.917673-25.283491 5.7344-7.633455 3.816727-13.851927 9.681455-18.6368 17.594182-4.189091 6.925964-6.665309 15.341382-7.447273 25.246255l-0.242036 4.338036h100.612655c0.688873-11.636364-1.210182-21.466764-5.7344-29.453964a42.654255 42.654255 0 0 0-18.245819-17.724509 55.221527 55.221527 0 0 0-25.022836-5.7344z m442.945164-619.575854l6.777018 0.111709c9.160145 0.335127 14.149818 1.452218 18.394764 3.2768l2.75549 1.303273c5.920582 3.053382 10.575127 7.558982 13.7216 13.293381l1.452219 2.904437c1.992145 4.5056 3.146473 9.923491 3.351272 20.48L3816.727273 699.634036c0 13.069964-1.172945 19.195345-3.388509 24.203637l-1.452219 2.885818c-3.165091 5.753018-7.801018 10.24-13.702981 13.312-4.468364 2.290036-8.899491 3.798109-17.761746 4.393891l-6.628073 0.260654L3560.727273 744.727273c-10.612364 0-15.676509-0.595782-19.902837-1.8432l-2.736872-0.930909a32.470109 32.470109 0 0 1-12.753455-8.564364l-1.861818-2.159709a39.936 39.936 0 0 1-4.449746-7.316946l-1.992145-4.412509-2.308655-5.678545-8.434036-21.839127h44.311273c6.646691 0 13.274764-0.893673 19.679418-2.643782l4.766255-1.489455c36.342691-12.604509 56.1152-50.641455 45.000145-86.481454l-1.191564-3.425746-21.2992-57.809454c17.631418-8.489891 34.071273-19.176727 48.835491-31.781237 24.9856 20.107636 56.32 37.031564 94.021818 50.753164l13.684364-20.349673c-35.821382-12.809309-65.982836-28.355491-90.260945-47.104 21.671564-23.086545 38.167273-51.646836 49.487127-85.941527h35.579345v-23.775418h-89.069381a202.193455 202.193455 0 0 0-23.328582-38.390691l-24.762182 8.676073c8.359564 9.085673 15.639273 19.065018 21.690182 29.714618h-93.314328l-0.018618 2.606545-74.752-202.491345h304.891346zM3347.921455 111.709091l7.67069 0.093091c14.019491 0.353745 20.182109 1.712873 26.661237 4.170473 7.540364 2.885818 13.9264 7.261091 19.232582 13.20029l2.196945 2.587928c3.909818 4.877964 7.205236 10.8544 12.064582 23.700945l157.696 430.955055c5.883345 16.141964 3.351273 34.071273-6.851491 48.072145a54.8864 54.8864 0 0 1-44.404364 22.3232h-324.608c-3.034764 0-5.827491-0.037236-8.3968-0.111709l-7.130763-0.353745c-10.928873-0.744727-17.333527-2.420364-23.012073-4.952437l-3.351273-1.619782a48.779636 48.779636 0 0 1-20.591709-19.977309l-1.675636-3.258181c-3.388509-7.149382-5.287564-15.508945-5.548218-33.140364L3127.854545 179.330327c0-23.496145 2.532073-32.023273 7.261091-40.624872 4.635927-8.508509 11.803927-15.453091 20.591709-19.958691l3.351273-1.6384c6.218473-2.755491 13.349236-4.524218 26.400582-5.138619l7.745164-0.223418L3347.921455 111.709091z m-423.5264 80.877382c50.194618 0 93.891491 17.091491 130.941672 51.237236l-16.141963 14.931782c-32.637673-29.360873-70.935273-44.032-114.799709-44.032-47.699782 0-88.399127 17.072873-122.17251 51.2-33.736145 34.182982-50.641455 75.385018-50.641454 123.680582 0 48.407273 16.905309 89.683782 50.641454 123.866763 33.773382 34.127127 74.472727 51.218618 122.17251 51.218619 40.885527 0 76.893091-12.734836 108.1344-38.241746V409.041455h21.373672v125.076945c-36.119273 34.946327-79.313455 52.447418-129.508072 52.447418-53.881018 0-99.793455-19.232582-137.755928-57.641891-37.943855-38.353455-56.897164-84.843055-56.897163-139.338472 0-54.365091 18.953309-100.798836 56.897163-139.282619 37.981091-38.483782 83.874909-57.734982 137.755928-57.734981z m399.266909-4.282182l-141.647128 393.700073h22.807273l52.968727-147.418764h131.6864l53.005964 147.418764h22.565236l-141.386472-393.718691z m-1393.924655 8.862254c28.988509 3.984291 53.638982 16.290909 73.914182 36.808146 24.222255 24.557382 36.379927 54.085818 36.379927 88.734254 0 34.816-12.157673 64.456145-36.379927 89.013528-16.756364 16.9984-36.063418 28.113455-57.7536 33.456872l87.691636 136.843637h-26.381963l-84.861673-133.753018a87.561309 87.561309 0 0 1-6.423273 0.242036h-64.642327v133.492364h-21.355055V197.166545h99.812073z m405.113018 0v21.634328h-96.293236V582.004364h-21.355055V218.800873h-96.256V197.166545h213.904291z m295.563637 0v21.634328h-168.717964v159.986036h168.717964v21.615709h-168.717964v159.930182h168.717964v21.671564H2440.285091V197.166545h190.128873zM1175.794036 204.8v158.477964L1297.966545 204.8h27.703855l-114.688 149.876364L1359.127273 577.163636h-26.530909l-135.745164-205.730909-21.038545 25.339346V577.163636H1154.327273V204.8h21.466763z m434.809019-18.618182L1750.109091 577.163636h-22.285964l-52.279854-146.413381h-129.880437L1493.345745 577.163636H1470.836364l139.766691-390.981818zM3547.880727 405.690182l28.038982 0.018618c9.886255 33.140364 27.554909 62.184727 53.024582 87.319273-12.101818 9.867636-25.376582 18.264436-39.545018 25.060072l-41.518546-112.397963z m139.971491 0.018618c-9.197382 27.666618-23.086545 51.442036-41.481309 71.102836-21.671564-20.573091-37.236364-44.125091-46.8992-71.102836h88.380509zM697.176436 12.194909V41.332364L271.899927 451.341964 148.945455 332.818618 476.699927 12.213527 697.176436 12.176291z m1218.746182 206.885236h-64.642327v207.536873h64.642327c28.225164 0 52.335709-10.128291 72.387491-30.422109 20.051782-20.293818 30.068364-44.758109 30.068364-73.485964 0-28.672-10.016582-53.154909-30.068364-73.355636-20.051782-20.182109-44.162327-30.273164-72.387491-30.273164z m1407.720727 32.432873l57.995637 161.401018h-115.991273l58.014255-161.419636z m-1713.058909-2.550691l-57.195054 160.302546h114.427345l-57.213672-160.302546zM9.495273 161.140364l133.362036 130.550691-12.269382 12.027345L0 175.904582c3.090618-4.971055 6.255709-9.886255 9.495273-14.764218z" /></svg>