<?xml version="1.0" standalone="no"?><!DOCTYPE svg PUBLIC "-//W3C//DTD SVG 1.1//EN" "http://www.w3.org/Graphics/SVG/1.1/DTD/svg11.dtd"><svg class="icon" width="200px" height="59.80px" viewBox="0 0 3425 1024" version="1.1" xmlns="http://www.w3.org/2000/svg"><path d="M828.881455 963.099927L875.054545 1008.286255c-4.989673 3.165091-10.016582 6.255709-15.080727 9.290472l-43.380363-42.449454 12.288-12.027346z m-131.705019-835.584v201.579055l-139.785309 134.795636L781.963636 680.401455v262.702545L316.602182 494.443055 697.176436 127.515927z m0-115.321018V41.332364L271.899927 451.341964 148.945455 332.818618 476.699927 12.213527 697.176436 12.176291z m-687.699781 148.945455l133.362036 130.550691-12.269382 12.027345L0 175.904582c3.090618-4.971055 6.255709-9.886255 9.495273-14.764218z" fill="currentColor" /><path d="M1297.966545 204.8l-122.172509 158.477964V204.8H1154.327273v372.363636h21.466763v-180.391563l21.038546-25.339346L1332.614982 577.163636H1359.127273l-148.163491-222.487272L1325.6704 204.8zM1610.603055 186.181818L1470.836364 577.163636h22.528l52.298472-146.413381h129.880437L1727.823127 577.163636H1750.109091l-139.506036-390.981818z m0 62.780509l57.213672 160.302546h-114.427345l57.213673-160.302546z" fill="currentColor" /><path d="M1851.280291 219.080145v207.536873h64.642327c28.225164 0 52.335709-10.128291 72.387491-30.422109 20.051782-20.293818 30.068364-44.758109 30.068364-73.485964 0-28.672-10.016582-53.154909-30.068364-73.355636-20.051782-20.182109-44.162327-30.273164-72.387491-30.273164h-64.642327z m71.0656 229.189819a92.7744 92.7744 0 0 1-6.423273 0.242036h-64.642327v133.492364h-21.355055V197.166545h99.812073c28.988509 3.984291 53.638982 16.290909 73.914182 36.808146 24.222255 24.557382 36.379927 54.085818 36.379927 88.734254 0 34.816-12.157673 64.456145-36.379927 89.013528-16.756364 16.9984-36.063418 28.113455-57.7536 33.456872l87.691636 136.843637h-26.381963l-84.861673-133.753018zM2238.557091 218.800873V582.004364h-21.355055V218.800873h-96.256V197.166545h213.904291v21.634328zM2630.413964 197.166545v21.634328H2461.696v159.986036h168.717964v21.615709H2461.696v159.930182h168.717964v21.671564H2440.285091V197.166545zM3053.903127 534.137018c-36.119273 34.946327-79.313455 52.447418-129.508072 52.447418-53.881018 0-99.793455-19.232582-137.755928-57.641891-37.943855-38.353455-56.897164-84.843055-56.897163-139.338472 0-54.365091 18.953309-100.798836 56.897163-139.282618 37.981091-38.483782 83.874909-57.734982 137.755928-57.734982 50.194618 0 93.891491 17.091491 130.941672 51.237236l-16.141963 14.931782c-32.637673-29.360873-70.935273-44.032-114.799709-44.032-47.699782 0-88.399127 17.072873-122.17251 51.2-33.736145 34.182982-50.641455 75.385018-50.641454 123.680582 0 48.407273 16.905309 89.683782 50.641454 123.866763 33.773382 34.127127 74.472727 51.218618 122.17251 51.218619 40.885527 0 76.893091-12.734836 108.1344-38.241746V409.041455h21.373672v125.076945z" fill="currentColor" /><path d="M3325.784436 412.914036L3267.7888 251.4944l-57.977018 161.419636h115.991273z m7.819637 21.671564H3201.936291L3148.967564 582.004364H3126.160291L3267.7888 188.285673l141.386473 393.718691h-22.546618l-53.005964-147.418764z" fill="currentColor" /><path d="M2250.379636 889.762909h19.232582v-151.161018H2250.379636v151.179636z m9.551128-213.382982a15.080727 15.080727 0 0 1 11.189527 4.729018 15.453091 15.453091 0 0 1 4.654545 11.357091 15.415855 15.415855 0 0 1-4.654545 11.264 15.080727 15.080727 0 0 1-11.189527 4.729019 14.969018 14.969018 0 0 1-11.077819-4.729019 15.490327 15.490327 0 0 1-4.654545-11.264c0-4.468364 1.563927-8.266473 4.654545-11.357091a14.969018 14.969018 0 0 1 11.077819-4.729018zM2312.8064 738.583273h19.232582v27.126691c7.707927-10.388945 16.197818-18.134109 25.544145-23.272728a62.147491 62.147491 0 0 1 30.459346-7.726545c11.189527 0 21.0944 2.885818 29.733236 8.638836 8.638836 5.7344 15.043491 13.479564 19.139491 23.179637 4.133236 9.718691 6.218473 24.892509 6.218473 45.4656v77.768145H2423.901091v-72.0896c0-17.408-0.726109-29.044364-2.141091-34.853236-2.234182-10.053818-6.516364-17.556945-12.809309-22.602473-6.330182-5.026909-14.559418-7.540364-24.706327-7.540364-11.636364 0-22.043927 3.8912-31.278546 11.636364-9.197382 7.7824-15.266909 17.445236-18.171345 28.895418-1.861818 7.503127-2.755491 21.206109-2.755491 41.146182v55.407709h-19.232582v-151.179636zM2486.234764 738.583273h19.176727v27.126691c7.707927-10.388945 16.197818-18.134109 25.6-23.272728a61.998545 61.998545 0 0 1 30.459345-7.726545c11.152291 0 21.038545 2.885818 29.677382 8.638836 8.694691 5.7344 15.080727 13.479564 19.195346 23.179637 4.133236 9.718691 6.162618 24.892509 6.162618 45.4656v77.768145h-19.232582v-72.0896c0-17.408-0.670255-29.044364-2.122473-34.853236-2.215564-10.053818-6.479127-17.556945-12.827927-22.602473-6.274327-5.026909-14.522182-7.540364-24.706327-7.540364-11.636364 0-22.043927 3.8912-31.241309 11.636364-9.178764 7.7824-15.266909 17.445236-18.189964 28.895418-1.805964 7.503127-2.755491 21.206109-2.755491 41.146182v55.407709h-19.195345v-151.179636zM2729.183418 753.757091c-15.955782 0-29.677382 5.957818-41.183418 17.929309-11.450182 11.934255-17.221818 26.381964-17.221818 43.380364 0 10.891636 2.643782 21.113018 7.838254 30.533818 5.268945 9.439418 12.325236 16.756364 21.224728 21.876363 8.936727 5.157236 18.711273 7.745164 29.342254 7.745164 10.686836 0 20.48-2.587927 29.398109-7.745164a56.189673 56.189673 0 0 0 21.187491-21.857745 62.035782 62.035782 0 0 0 7.856873-30.571055c0-16.979782-5.790255-31.427491-17.296291-43.380363-11.543273-11.952873-25.246255-17.910691-41.146182-17.910691m0.093091-19.0464c22.993455 0 42.058473 8.415418 57.232291 25.283491 13.740218 15.397236 20.591709 33.568582 20.591709 54.607127 0 21.113018-7.242473 39.582255-21.783273 55.389091-14.522182 15.806836-33.233455 23.682327-56.040727 23.682327-22.9376 0-41.648873-7.875491-56.171054-23.682327-14.522182-15.825455-21.820509-34.257455-21.82051-55.389091 0-20.945455 6.888727-39.079564 20.628946-54.4768 15.136582-16.942545 34.238836-25.413818 57.362618-25.413818M2820.189091 738.583273h20.461382l50.157382 110.219636 49.524363-110.219636h20.591709l-68.4032 151.179636h-3.537454zM3053.3632 753.477818a58.032873 58.032873 0 0 0-51.237236 30.384873 62.240582 62.240582 0 0 0-8.024437 30.571054c0 10.612364 2.736873 20.777891 8.098909 30.477964 5.399273 9.718691 12.641745 17.333527 21.727419 22.7328 9.122909 5.417891 18.897455 8.117527 29.305018 8.117527 10.482036 0 20.461382-2.699636 29.863563-8.061672a55.761455 55.761455 0 0 0 21.746037-21.783273 63.097018 63.097018 0 0 0 7.596218-30.943418c0-17.501091-5.659927-32.116364-17.072873-43.845818-11.357091-11.785309-25.376582-17.650036-42.002618-17.650037z m76.818618-14.894545v151.198254h-18.971927v-25.972363c-8.061673 9.886255-17.054255 17.352145-27.108073 22.341818a71.866182 71.866182 0 0 1-32.879709 7.540363c-21.131636 0-39.191273-7.763782-54.178909-23.291345-14.931782-15.490327-22.434909-34.387782-22.434909-56.636509 0-21.746036 7.558982-40.3456 22.658327-55.854546 15.080727-15.453091 33.289309-23.216873 54.514037-23.216872 12.269382 0 23.3472 2.681018 33.27069 7.931345 9.960727 5.3248 18.655418 13.218909 26.158546 23.794037V738.583273h18.971927zM3187.395491 682.468073h19.195345v56.133818h30.477964v16.7936h-30.477964v134.386036h-19.176727v-134.386036h-26.270254v-16.7936h26.251636zM3385.530182 798.9248c-2.550691-10.388945-6.274327-18.692655-11.208146-24.873891a52.987345 52.987345 0 0 0-19.418763-15.024873 59.056873 59.056873 0 0 0-25.451055-5.659927c-14.671127 0-27.257018 4.747636-37.794909 14.280146-7.707927 6.9632-13.535418 17.352145-17.482473 31.278545h111.373964z m0 40.680727l16.216436 8.638837c-5.3248 10.575127-11.450182 19.083636-18.432 25.544145a71.493818 71.493818 0 0 1-23.458909 14.801455c-8.713309 3.388509-18.580945 5.082764-29.602909 5.082763-24.352582 0-43.380364-8.061673-57.157818-24.222254-13.702982-16.197818-20.591709-34.462255-20.591709-54.849164 0-19.139491 5.790255-36.230982 17.482472-51.274473 14.708364-19.0464 34.443636-28.616145 59.205819-28.616145 25.488291 0 45.800727 9.811782 61.011781 29.323636 10.817164 13.833309 16.290909 31.055127 16.477091 51.721309h-134.404654c0.372364 17.538327 5.883345 31.911564 16.626036 43.156946 10.724073 11.208145 23.980218 16.830836 39.749818 16.830836 7.596218 0 14.969018-1.303273 22.174255-4.002909 7.205236-2.681018 13.312-6.237091 18.376145-10.6496 5.026909-4.431127 10.463418-11.580509 16.346764-21.485382z" fill="currentColor" /></svg>