<?xml version="1.0" standalone="no"?><!DOCTYPE svg PUBLIC "-//W3C//DTD SVG 1.1//EN" "http://www.w3.org/Graphics/SVG/1.1/DTD/svg11.dtd"><svg class="icon" width="200px" height="200.00px" viewBox="0 0 1024 1024" version="1.1" xmlns="http://www.w3.org/2000/svg"><path fill="currentColor" d="M806.485333 87.296a21.333333 21.333333 0 0 1 30.08 0l100.096 99.498667a21.333333 21.333333 0 1 1-30.122666 30.250666l-63.701334-63.36V358.4a21.333333 21.333333 0 0 1-42.666666 0V153.728l-68.309334 68.010667a21.333333 21.333333 0 1 1-30.122666-30.250667l104.746666-104.192zM81.066667 256A174.933333 174.933333 0 0 1 256 81.066667h332.8a21.333333 21.333333 0 1 1 0 42.666666H256A132.266667 132.266667 0 0 0 123.733333 256v512a132.266667 132.266667 0 0 0 124.074667 132.010667l428.8-403.541334a21.333333 21.333333 0 0 1 29.696 0.426667l193.962667 194.005333V512a21.333333 21.333333 0 0 1 42.666666 0v256a174.933333 174.933333 0 0 1-174.933333 174.933333H256A174.933333 174.933333 0 0 1 81.066667 768V256z m819.2 481.706667a21.333333 21.333333 0 0 1-19.370667-5.802667l-190.165333-190.165333L309.802667 900.266667H768a132.266667 132.266667 0 0 0 132.266667-132.266667v-30.293333zM332.8 277.333333a55.466667 55.466667 0 1 0 0 110.933334 55.466667 55.466667 0 0 0 0-110.933334zM234.666667 332.8a98.133333 98.133333 0 1 1 196.266666 0 98.133333 98.133333 0 0 1-196.266666 0z" /></svg>