<?xml version="1.0" standalone="no"?><!DOCTYPE svg PUBLIC "-//W3C//DTD SVG 1.1//EN" "http://www.w3.org/Graphics/SVG/1.1/DTD/svg11.dtd"><svg class="icon" width="200px" height="200.00px" viewBox="0 0 1024 1024" version="1.1" xmlns="http://www.w3.org/2000/svg"><path fill="currentColor" d="M751.177143 316.708571a44.251429 44.251429 0 0 1-43.885714 42.422858 43.154286 43.154286 0 1 1 43.885714-42.422858zM512 633.782857A121.782857 121.782857 0 1 1 633.782857 512 121.782857 121.782857 0 0 1 512 633.782857z m0-309.76A187.977143 187.977143 0 1 0 699.977143 512 187.977143 187.977143 0 0 0 512 324.022857z m0-111.908571c97.645714 0 109.714286 0 146.285714 2.194285a215.405714 215.405714 0 0 1 68.022857 12.434286 121.782857 121.782857 0 0 1 69.485715 69.485714 205.165714 205.165714 0 0 1 13.897143 69.485715c1.828571 36.571429 2.194286 50.102857 2.194285 146.285714s0 109.714286-2.194285 146.285714a212.48 212.48 0 0 1-12.8 68.022857 123.245714 123.245714 0 0 1-28.891429 43.52 118.125714 118.125714 0 0 1-42.057143 27.428572 208.091429 208.091429 0 0 1-68.388571 12.434286c-38.765714 1.828571-50.102857 2.194286-146.285715 2.194285s-109.714286 0-148.114285-2.194285a215.405714 215.405714 0 0 1-68.388572-12.8A118.125714 118.125714 0 0 1 252.708571 768a114.834286 114.834286 0 0 1-27.428571-42.057143A215.405714 215.405714 0 0 1 212.48 658.285714v-146.285714-148.114286a219.428571 219.428571 0 0 1 12.8-68.388571 119.954286 119.954286 0 0 1 69.485714-69.12 201.874286 201.874286 0 0 1 67.657143-12.8c39.131429 0 50.468571-2.194286 148.114286-2.194286zM512 146.285714c-99.474286 0-111.908571 0-150.674286 2.194286a277.577143 277.577143 0 0 0-88.868571 16.822857 177.371429 177.371429 0 0 0-64.731429 42.422857 177.371429 177.371429 0 0 0-42.422857 64.731429 277.577143 277.577143 0 0 0-16.822857 88.868571C146.285714 400.091429 146.285714 412.525714 146.285714 512s0 111.908571 2.194286 150.674286a277.577143 277.577143 0 0 0 16.822857 88.868571 189.805714 189.805714 0 0 0 107.154286 107.154286 277.577143 277.577143 0 0 0 88.868571 16.822857c38.765714 0 51.2 2.194286 150.674286 2.194286s111.908571 0 150.674286-2.194286a277.577143 277.577143 0 0 0 88.868571-16.822857 189.805714 189.805714 0 0 0 107.154286-107.154286 277.577143 277.577143 0 0 0 16.822857-88.868571c0-38.765714 2.194286-51.2 2.194286-150.674286s0-111.908571-2.194286-150.674286a277.577143 277.577143 0 0 0-16.822857-88.868571 189.805714 189.805714 0 0 0-107.154286-107.154286 277.577143 277.577143 0 0 0-88.868571-16.822857C623.908571 146.285714 611.474286 146.285714 512 146.285714z" /></svg>
