<?xml version="1.0" standalone="no"?><!DOCTYPE svg PUBLIC "-//W3C//DTD SVG 1.1//EN" "http://www.w3.org/Graphics/SVG/1.1/DTD/svg11.dtd"><svg class="icon" width="200px" height="200.00px" viewBox="0 0 1024 1024" version="1.1" xmlns="http://www.w3.org/2000/svg"><path fill="currentColor" d="M589.781333 388.394667V232.32a117.077333 117.077333 0 0 0-117.034666-117.077333l-156.074667 351.189333v429.226667h440.106667a78.037333 78.037333 0 0 0 78.08-66.346667l53.802666-351.146667A78.08 78.08 0 0 0 810.666667 388.352h-220.842667zM316.672 895.658667H199.594667a78.08 78.08 0 0 1-78.037334-78.08v-273.109334a78.08 78.08 0 0 1 78.08-78.037333h117.034667M579.157333 232.32a106.410667 106.410667 0 0 0-99.626666-106.112L327.253333 468.693333v416.256H756.906667a67.456 67.456 0 0 0 67.370666-57.216v-0.042666l53.845334-351.146667a67.328 67.328 0 0 0-67.370667-77.482667h-220.928a10.666667 10.666667 0 0 1-10.666667-10.666666V232.32zM132.224 817.578667a67.413333 67.413333 0 0 0 67.413333 67.413333H305.92v-407.893333H199.594667A67.370667 67.370667 0 0 0 132.266667 544.426667v273.109333z m468.266667-439.893334H810.666667a88.746667 88.746667 0 0 1 88.576 102.016v0.042667l-53.845334 351.146667a88.704 88.704 0 0 1-88.576 75.392H199.594667A88.746667 88.746667 0 0 1 110.933333 817.578667v-273.109334a88.661333 88.661333 0 0 1 88.746667-88.746666h110.08L462.976 110.933333l1.706667-2.645333a10.666667 10.666667 0 0 1 8.064-3.712 127.786667 127.786667 0 0 1 127.744 127.744v145.408z" /></svg>