<?xml version="1.0" standalone="no"?><!DOCTYPE svg PUBLIC "-//W3C//DTD SVG 1.1//EN" "http://www.w3.org/Graphics/SVG/1.1/DTD/svg11.dtd"><svg class="icon" width="200px" height="200.00px" viewBox="0 0 1024 1024" version="1.1" xmlns="http://www.w3.org/2000/svg"><path d="M216.106667 666.112h621.269333c102.912 0 186.624-83.2 186.624-185.6a183.893333 183.893333 0 0 0-73.301333-147.370667 29.653333 29.653333 0 0 1-10.410667-15.146666 219.136 219.136 0 0 0-209.578667-157.44c-17.792 0-35.541333 2.176-52.693333 6.442666a29.354667 29.354667 0 0 1-31.232-11.861333 241.194667 241.194667 0 0 0-361.258667-41.472 240.469333 240.469333 0 0 0-77.397333 154.794667 29.312 29.312 0 0 1-16.597333 23.68 150.442667 150.442667 0 0 0-8.661334 4.48 27.349333 27.349333 0 0 1-7.808 2.944 187.434667 187.434667 0 0 0-104.106666 64.384 182.698667 182.698667 0 0 0-41.472 116.650666c0 102.357333 83.712 185.6 186.624 185.6v-0.085333z" fill="currentColor" /><path d="M248.874667 760.234667a29.354667 29.354667 0 0 0-19.413334 36.650666l35.328 115.2a29.312 29.312 0 1 0 56.021334-17.237333l-35.328-115.2a29.354667 29.354667 0 0 0-36.650667-19.413333h0.042667zM494.421333 760.234667a29.312 29.312 0 0 0-19.456 36.650666l35.328 115.2a29.312 29.312 0 1 0 56.021334-17.237333l-35.328-115.2a29.354667 29.354667 0 0 0-36.650667-19.413333h0.085333zM739.925333 760.234667a29.312 29.312 0 0 0-19.413333 36.650666l35.328 115.2a29.269333 29.269333 0 1 0 56.021333-17.237333l-35.328-115.2a29.354667 29.354667 0 0 0-36.650666-19.413333h0.042666z" fill="currentColor" /></svg>