<?xml version="1.0" standalone="no"?><!DOCTYPE svg PUBLIC "-//W3C//DTD SVG 1.1//EN" "http://www.w3.org/Graphics/SVG/1.1/DTD/svg11.dtd"><svg class="icon" width="200px" height="200.00px" viewBox="0 0 1024 1024" version="1.1" xmlns="http://www.w3.org/2000/svg"><path fill="currentColor" d="M896 521.386667C896 287.146667 714.24 128 512 128c-200.106667 0-384 155.733333-384 395.946667-25.6 14.506667-42.666667 41.813333-42.666667 73.386666v85.333334c0 46.933333 38.4 85.333333 85.333334 85.333333h42.666666v-260.266667c0-165.12 133.546667-298.666667 298.666667-298.666666s298.666667 133.546667 298.666667 298.666666V810.666667h-341.333334v85.333333h341.333334c46.933333 0 85.333333-38.4 85.333333-85.333333v-52.053334c25.173333-13.226667 42.666667-39.253333 42.666667-69.973333v-98.133333c0-29.866667-17.493333-55.893333-42.666667-69.12zM384 597.333333a42.666667 42.666667 0 1 0 0-85.333333 42.666667 42.666667 0 0 0 0 85.333333zM640 597.333333a42.666667 42.666667 0 1 0 0-85.333333 42.666667 42.666667 0 0 0 0 85.333333zM768 470.613333A257.706667 257.706667 0 0 0 514.133333 256c-129.28 0-268.373333 107.093333-257.28 275.2a344.533333 344.533333 0 0 0 207.36-251.306667c55.893333 112.213333 170.666667 189.44 303.786667 190.72z" /></svg>
