<?xml version="1.0" standalone="no"?><!DOCTYPE svg PUBLIC "-//W3C//DTD SVG 1.1//EN" "http://www.w3.org/Graphics/SVG/1.1/DTD/svg11.dtd"><svg class="icon" width="200px" height="200.00px" viewBox="0 0 1024 1024" version="1.1" xmlns="http://www.w3.org/2000/svg"><path fill="currentColor" d="M661.38112 573.25568C674.63168 681.1648 708.1984 757.76 747.52 757.76c50.8928 0 92.16-128.36864 92.16-286.72S798.4128 184.32 747.52 184.32c-39.3216 0-72.9088 76.61568-86.13888 184.50432a102.4 102.4 0 0 1 0 204.43136zM901.12 471.04c0 192.28672-73.35936 348.16-163.84 348.16-143.36 0-245.76-163.84-307.2-163.84h-122.88a184.32 184.32 0 0 1 0-368.64h122.88c61.44 0 163.84-163.84 307.2-163.84 90.48064 0 163.84 155.87328 163.84 348.16z m-598.016-102.4a98.304 98.304 0 0 0-98.304 98.304 24.576 24.576 0 1 0 49.152 0 49.152 49.152 0 0 1 49.152-49.152 24.576 24.576 0 1 0 0-49.152zM327.68 716.8h79.6672a40.96 40.96 0 0 1 39.99744 32.09216l22.7328 102.4A40.96 40.96 0 0 1 430.08 901.12h-79.6672a40.96 40.96 0 0 1-39.99744-32.09216l-22.7328-102.4A40.96 40.96 0 0 1 327.68 716.8z" /></svg>