<?xml version="1.0" standalone="no"?><!DOCTYPE svg PUBLIC "-//W3C//DTD SVG 1.1//EN" "http://www.w3.org/Graphics/SVG/1.1/DTD/svg11.dtd"><svg class="icon" width="200px" height="200.00px" viewBox="0 0 1024 1024" version="1.1" xmlns="http://www.w3.org/2000/svg"><path fill="currentColor" d="M714.841043 41.494261a255.777391 255.777391 0 0 1 181.73774 433.374609l-126.70887 126.753391a255.73287 255.73287 0 0 1-385.691826-27.603478 45.456696 45.456696 0 0 1 72.793043-54.450087 164.774957 164.774957 0 0 0 189.662609 55.741217 164.908522 164.908522 0 0 0 58.946783-37.932522l126.174608-126.21913a164.864 164.864 0 0 0-233.650087-232.537044L526.246957 250.078609A45.412174 45.412174 0 0 1 462.135652 185.655652l72.347826-71.902609 0.489739-0.489739a255.73287 255.73287 0 0 1 179.867826-71.769043zM438.717217 333.512348a255.821913 255.821913 0 0 1 186.457044 101.954782 45.412174 45.412174 0 1 1-72.748522 54.361044 164.908522 164.908522 0 0 0-242.153739-23.863652l-6.455652 6.099478-126.174609 126.174609a164.908522 164.908522 0 0 0 233.650087 232.537043l71.41287-71.323826a45.412174 45.412174 0 1 1 64.200347 64.200348l-72.481391 72.481391a255.777391 255.777391 0 0 1-361.605565-361.516522L239.571478 407.81913l9.97287-9.438608A255.73287 255.73287 0 0 1 438.717217 333.467826z" /></svg>