<?xml version="1.0" standalone="no"?><!DOCTYPE svg PUBLIC "-//W3C//DTD SVG 1.1//EN" "http://www.w3.org/Graphics/SVG/1.1/DTD/svg11.dtd"><svg class="icon" width="200px" height="200.00px" viewBox="0 0 1024 1024" version="1.1" xmlns="http://www.w3.org/2000/svg"><path fill="currentColor" d="M811.264 423.253333a299.264 299.264 0 0 0-598.485333 0c0 45.952 17.621333 89.173333 46.08 131.456 28.501333 42.453333 66.901333 82.56 106.666666 122.282667 39.125333 39.125333 80.128 78.464 110.933334 117.461333 13.226667 16.768 25.088 34.133333 34.389333 52.181334 9.344-17.792 21.333333-34.858667 34.645333-51.328 31.061333-38.442667 72.490667-77.098667 111.872-115.712 40.064-39.253333 78.72-79.146667 107.434667-121.856 28.586667-42.496 46.464-86.613333 46.464-134.442667zM593.066667 409.984a81.066667 81.066667 0 1 0-162.133334 0 81.066667 81.066667 0 0 0 162.133334 0z m260.864 13.354667c0 59.008-22.186667 111.402667-53.76 158.293333-31.36 46.677333-72.832 89.173333-112.938667 128.426667-40.704 39.978667-79.488 76.16-108.501333 112.128-29.141333 36.010667-45.397333 68.138667-45.397334 99.114666a21.333333 21.333333 0 0 1-21.333333 21.333334h-2.56a21.333333 21.333333 0 0 1-21.333333-21.333334c0-31.104-16.213333-63.744-45.098667-100.352-28.8-36.48-67.328-73.386667-107.690667-113.749333-39.68-39.68-80.810667-82.389333-111.914666-128.64-31.146667-46.421333-53.290667-97.92-53.290667-155.221333a341.888 341.888 0 0 1 683.818667 0zM635.733333 409.941333a123.733333 123.733333 0 1 1-247.466666 0 123.733333 123.733333 0 0 1 247.466666 0z" /></svg>