<?xml version="1.0" standalone="no"?><!DOCTYPE svg PUBLIC "-//W3C//DTD SVG 1.1//EN" "http://www.w3.org/Graphics/SVG/1.1/DTD/svg11.dtd"><svg class="icon" width="200px" height="200.00px" viewBox="0 0 1024 1024" version="1.1" xmlns="http://www.w3.org/2000/svg"><path fill="currentColor" d="M926.464 367.146667v424.533333a73.130667 73.130667 0 0 1-73.173333 73.173333H170.666667a73.130667 73.130667 0 0 1-73.130667-73.173333v-424.533333l304.128 257.834666a170.666667 170.666667 0 0 0 220.714667 0l304.128-257.834666zM853.290667 182.186667a72.704 72.704 0 0 1 56.746666 26.965333 72.704 72.704 0 0 1 16.298667 41.898667l0.128 4.266666v24.362667l-367.018667 313.045333a73.173333 73.173333 0 0 1-91.306666 2.901334l-3.626667-2.901334-367.018667-313.045333v-24.362667A72.917333 72.917333 0 0 1 170.666667 182.186667h682.666666z" /></svg>