<?xml version="1.0" standalone="no"?><!DOCTYPE svg PUBLIC "-//W3C//DTD SVG 1.1//EN" "http://www.w3.org/Graphics/SVG/1.1/DTD/svg11.dtd"><svg class="icon" width="200px" height="200.00px" viewBox="0 0 1024 1024" version="1.1" xmlns="http://www.w3.org/2000/svg"><path fill="currentColor" d="M472.533333 181.632c-33.706667 27.392-54.698667 71.68-60.928 143.658667a32 32 0 1 1-63.744-5.461334c6.997333-81.578667 32.085333-145.493333 84.352-187.861333 51.370667-41.685333 123.136-57.728 212.48-57.728h5.546667c98.56 0 175.786667 19.541333 227.712 71.381333C929.792 197.546667 949.333333 274.816 949.333333 373.333333v278.186667c0 98.56-19.541333 175.786667-71.381333 227.712-51.882667 51.84-129.194667 71.381333-227.712 71.381333h-5.546667c-88.704 0-160-15.786667-211.285333-56.832-52.181333-41.728-77.653333-104.704-85.12-185.088a32 32 0 0 1 63.744-5.973333c6.570667 70.656 27.648 114.133333 61.354667 141.098667 34.56 27.690667 88.448 42.794667 171.306666 42.794666h5.546667c92.16 0 148.48-18.645333 182.442667-52.650666 34.005333-34.005333 52.650667-90.24 52.650666-182.442667V373.333333c0-92.16-18.645333-148.48-52.650666-182.442666-34.005333-34.005333-90.24-52.650667-182.442667-52.650667h-5.546667c-83.456 0-137.557333 15.36-172.16 43.392zM122.453333 512a32 32 0 0 1 32-32H640a32 32 0 0 1 0 64H154.453333a32 32 0 0 1-32-32zM272.213333 346.453333a32 32 0 0 1 0 45.226667L151.893333 512l120.32 120.32a32 32 0 1 1-45.226666 45.226667l-142.933334-142.933334a32 32 0 0 1 0-45.226666l142.933334-142.933334a32 32 0 0 1 45.226666 0z" /></svg>