<?xml version="1.0" standalone="no"?><!DOCTYPE svg PUBLIC "-//W3C//DTD SVG 1.1//EN" "http://www.w3.org/Graphics/SVG/1.1/DTD/svg11.dtd"><svg class="icon" width="200px" height="200.00px" viewBox="0 0 1024 1024" version="1.1" xmlns="http://www.w3.org/2000/svg"><path fill="currentColor" d="M512 962.56c-169.65632 0-307.2-137.54368-307.2-307.2 0-169.65632 137.54368-307.2 307.2-307.2 169.65632 0 307.2 137.54368 307.2 307.2 0 169.65632-137.54368 307.2-307.2 307.2z m0-209.16224l67.72736 60.06784a21.95456 21.95456 0 0 0 36.33152-19.51744l-14.37696-103.2192 65.41312-49.43872a22.016 22.016 0 0 0-8.9088-39.13728l-86.20032-17.34656-40.30464-81.1008a21.99552 21.99552 0 0 0-39.36256 0l-40.30464 81.1008-86.2208 17.34656a22.03648 22.03648 0 0 0-8.9088 39.13728l65.4336 49.43872-19.12832 102.4a21.95456 21.95456 0 0 0 35.6352 20.992L512 753.41824z m-75.65312-462.29504c-21.34016 3.29728-39.5264 7.43424-54.4768 12.3904-25.14944 8.33536-52.51072 19.7632-82.1248 34.304a40.96 40.96 0 0 1-56.9344-23.9616L187.55584 146.20672a65.06496 65.06496 0 0 1 6.41024-54.4768A63.42656 63.42656 0 0 1 245.76 61.46048L430.08 61.44a40.96 40.96 0 0 1 40.96 40.96v148.19328a40.96 40.96 0 0 1-34.69312 40.48896z m151.30624-0.02048A40.96 40.96 0 0 1 552.96 250.59328V102.4a40.96 40.96 0 0 1 40.96-40.96l184.32 0.02048c20.41856 0.73728 40.1408 11.38688 51.77344 30.22848 10.05568 16.30208 12.41088 36.27008 6.41024 54.49728l-55.21408 167.6288a40.96 40.96 0 0 1-56.95488 23.9616c-29.61408-14.5408-56.97536-25.96864-82.1248-34.304-14.9504-4.95616-33.11616-9.09312-54.4768-12.3904z" /></svg>