<?xml version="1.0" standalone="no"?><!DOCTYPE svg PUBLIC "-//W3C//DTD SVG 1.1//EN" "http://www.w3.org/Graphics/SVG/1.1/DTD/svg11.dtd"><svg class="icon" width="200px" height="200.00px" viewBox="0 0 1024 1024" version="1.1" xmlns="http://www.w3.org/2000/svg"><path d="M303.061333 714.666667c-13.653333 0-25.386667-4.906667-35.157333-14.677334a47.914667 47.914667 0 0 1-14.592-35.157333v-298.666667c0-13.653333 4.864-25.386667 14.592-35.157333 9.770667-9.728 21.461333-14.592 35.157333-14.592h398.208c13.696 0 25.429333 4.864 35.2 14.592 9.728 9.770667 14.592 21.504 14.592 35.157333v298.666667c0 13.696-4.864 25.429333-14.634666 35.157333a47.914667 47.914667 0 0 1-35.157334 14.634667H303.061333m199.125334-174.208L303.061333 415.957333v248.874667h398.208V416l-199.082666 124.458667m0-49.792l199.082666-124.458667H303.061333L502.186667 490.666667M303.061333 416V366.165333v298.666667V416" fill="none" stroke="currentColor" stroke-width="1.5" stroke-linecap="round" stroke-linejoin="round" /></svg>