<?xml version="1.0" standalone="no"?><!DOCTYPE svg PUBLIC "-//W3C//DTD SVG 1.1//EN" "http://www.w3.org/Graphics/SVG/1.1/DTD/svg11.dtd"><svg class="icon" width="200px" height="200.00px" viewBox="0 0 1024 1024" version="1.1" xmlns="http://www.w3.org/2000/svg"><path fill="currentColor" d="M266.666667 351.146667H42.666667V259.328h224V351.146667z m0 137.856H42.666667v91.904h224v-91.904zM875.52 810.666667l-171.605333-176c-35.84 23.893333-77.952 38.144-123.648 38.144-123.648 0-224-102.912-224-229.717334C356.266667 316.245333 456.618667 213.333333 580.266667 213.333333s224 102.912 224 229.76a232.96 232.96 0 0 1-37.205334 126.336L938.666667 745.898667 875.52 810.666667z m-160.853333-367.573334c0-75.818667-60.501333-137.856-134.4-137.856s-134.4 62.037333-134.4 137.813334c0 75.818667 60.501333 137.856 134.4 137.856s134.4-62.037333 134.4-137.813334zM42.666667 810.666667h448v-91.904H42.666667V810.666667z" /></svg>