<?xml version="1.0" standalone="no"?><!DOCTYPE svg PUBLIC "-//W3C//DTD SVG 1.1//EN" "http://www.w3.org/Graphics/SVG/1.1/DTD/svg11.dtd"><svg class="icon" width="200px" height="200.00px" viewBox="0 0 1024 1024" version="1.1" xmlns="http://www.w3.org/2000/svg"><path fill="currentColor" d="M512 0C299.2 0 128 179.2 128 404.8c0 192 264 507.2 345.6 601.6 8 12.8 25.6 17.6 38.4 17.6 17.6 0 30.4-8 38.4-17.6C632 913.6 896 593.6 896 404.8 896 179.2 724.8 0 512 0z m0 921.6c-145.6-171.2-299.2-396.8-299.2-516.8 0-179.2 132.8-320 299.2-320s299.2 145.6 299.2 320c0 120-153.6 345.6-299.2 516.8zM512 212.8c-94.4 0-171.2 76.8-171.2 171.2S417.6 555.2 512 555.2 683.2 478.4 683.2 384 606.4 212.8 512 212.8z m0 256c-46.4 0-84.8-38.4-84.8-84.8s38.4-84.8 84.8-84.8 84.8 38.4 84.8 84.8-38.4 84.8-84.8 84.8z" /></svg>