<?xml version="1.0" standalone="no"?><!DOCTYPE svg PUBLIC "-//W3C//DTD SVG 1.1//EN" "http://www.w3.org/Graphics/SVG/1.1/DTD/svg11.dtd"><svg class="icon" width="200px" height="200.00px" viewBox="0 0 1024 1024" version="1.1" xmlns="http://www.w3.org/2000/svg"><path fill="currentColor" d="M999.486845 952.406944H891.71327v-416.417297c0-29.439338-19.626225-58.83601-46.548286-68.606456l-205.776704-78.419569c-31.871283-12.245058-66.131845 12.245058-66.131845 46.548286V48.448617c0-34.260562-36.777839-58.793344-68.606456-44.073675L176.380031 151.358301c-26.964727 12.245058-44.116341 39.209784-44.11634 66.131845v734.916798H24.490116c-14.677003 0-24.490116 9.813113-24.490116 24.490116 0 14.719669 9.813113 24.490116 24.490116 24.490115h974.996729c14.677003 0 24.490116-9.813113 24.490116-24.490115a24.532781 24.532781 0 0 0-24.490116-24.490116z m-267.001993-369.911677c19.583559 0 36.692508 17.151614 36.692508 36.777839 0 19.583559-17.108948 36.692508-36.692508 36.692508a37.673819 37.673819 0 0 1-36.777839-36.692508c0-19.626225 17.151614-36.777839 36.735174-36.777839z m0 159.228418c19.583559 0 36.692508 17.151614 36.692508 36.735173 0 19.626225-17.108948 36.777839-36.692508 36.777839a37.673819 37.673819 0 0 1-36.777839-36.735173c0-19.626225 17.151614-36.777839 36.735174-36.777839z m-293.966719-362.53051c19.583559 0 36.692508 17.151614 36.692508 36.692508 0 19.626225-17.108948 36.777839-36.692508 36.777839a37.673819 37.673819 0 0 1-36.777839-36.735174c0-19.626225 14.719669-36.735173 36.735174-36.735173z m0 178.811977c19.583559 0 36.692508 17.151614 36.692508 36.735173 0 19.626225-17.108948 36.777839-36.692508 36.777839a37.673819 37.673819 0 0 1-36.777839-36.777839c0-19.583559 14.719669-36.692508 36.735174-36.692508z m0 183.718533c19.583559 0 36.692508 17.151614 36.692508 36.735173 0 19.626225-17.108948 36.777839-36.692508 36.777839a37.673819 37.673819 0 0 1-36.777839-36.735173c0-19.626225 14.719669-36.777839 36.735174-36.777839z m-171.516141-362.53051c19.626225 0 36.777839 17.151614 36.77784 36.692508 0 19.626225-17.151614 36.777839-36.77784 36.777839a37.673819 37.673819 0 0 1-36.692507-36.735174c0-19.626225 17.108948-36.735173 36.692507-36.735173z m0 178.811977c19.626225 0 36.777839 17.151614 36.77784 36.735173 0 19.626225-17.151614 36.777839-36.77784 36.777839a37.673819 37.673819 0 0 1-36.692507-36.777839c0-19.583559 17.108948-36.692508 36.692507-36.692508z m0 183.718533c19.626225 0 36.777839 17.151614 36.77784 36.735173 0 19.626225-17.151614 36.777839-36.77784 36.777839a37.673819 37.673819 0 0 1-36.692507-36.735173c0-19.626225 17.108948-36.777839 36.692507-36.777839z" /></svg>