<?xml version="1.0" standalone="no"?><!DOCTYPE svg PUBLIC "-//W3C//DTD SVG 1.1//EN" "http://www.w3.org/Graphics/SVG/1.1/DTD/svg11.dtd"><svg class="icon" width="200px" height="200.00px" viewBox="0 0 1024 1024" version="1.1" xmlns="http://www.w3.org/2000/svg"><path d="M433.728 559.744V323.456a35.392 35.392 0 1 1 70.72 0v200.896h130.304a35.392 35.392 0 0 1 0 70.784H469.056a39.04 39.04 0 0 1-7.168 0 35.52 35.52 0 0 1-28.16-35.392z m488.768-308.544a32.512 32.512 0 0 0 46.08-45.184L816.64 53.12a32.64 32.64 0 1 0-46.08 46.08l151.936 151.936z" fill="currentColor" /><path d="M624.32 894.976a358.08 358.08 0 1 1 246.976-293.76c17.408 8.96 33.344 20.608 47.296 34.432 2.56 2.56 4.8 5.248 7.04 7.936a422.848 422.848 0 1 0-248 298.944 187.008 187.008 0 0 1-37.952-30.08 181.888 181.888 0 0 1-15.36-17.472zM252.48 99.2A32.512 32.512 0 1 0 207.36 53.12L54.528 205.248a32.512 32.512 0 1 0 46.08 45.184L252.544 99.2z" fill="currentColor" /><path d="M945.664 707.776a179.84 179.84 0 0 0-333.248 135.552 179.84 179.84 0 1 0 333.248-135.552z m-72.256 163.2a134.464 134.464 0 0 1-189.76 0 134.016 134.016 0 0 1 94.912-228.864 132.992 132.992 0 0 1 94.848 39.168c52.224 52.48 52.224 137.28 0 189.696z" fill="currentColor" /><path d="M851.712 703.552a22.72 22.72 0 0 0-16.128-6.784 22.144 22.144 0 0 0-16.064 6.784l-40.32 40.32-40.384-40.32a22.72 22.72 0 0 0-39.04 16.128 22.272 22.272 0 0 0 6.656 16.064l40.32 40.384-40.32 40.32a23.04 23.04 0 0 0 0 32.448 23.04 23.04 0 0 0 32.384 0l40.32-40.384 40.32 40.32a22.912 22.912 0 0 0 32.256-32.384l-40.32-40.32 40.32-40.32a22.72 22.72 0 0 0 0-32.256z" fill="currentColor" /></svg>