<?xml version="1.0" standalone="no"?><!DOCTYPE svg PUBLIC "-//W3C//DTD SVG 1.1//EN" "http://www.w3.org/Graphics/SVG/1.1/DTD/svg11.dtd"><svg class="icon" width="200px" height="200.00px" viewBox="0 0 1024 1024" version="1.1" xmlns="http://www.w3.org/2000/svg"><path d="M871.447273 149.876364L149.876364 871.563636c199.330909 199.098182 522.24 199.098182 721.454545-0.116363 199.214545-199.330909 199.330909-522.24 0.116364-721.570909z" fill="currentColor" /><path d="M139.613091 510.533818c0 204.869818 166.050909 370.920727 370.920727 371.037091 204.869818 0 370.920727-166.050909 371.037091-370.920727v-0.116364c0-204.869818-166.050909-370.920727-370.920727-371.060363C305.803636 139.333818 139.636364 305.524364 139.636364 510.533818c0-0.139636 0-0.139636 0 0z" fill="currentColor" /><path d="M764.858182 241.058909c-145.245091-137.239273-374.202182-135.144727-516.561455 7.214546-142.242909 142.382545-144.477091 371.339636-7.237818 516.584727 0-0.116364 523.799273-523.799273 523.799273-523.799273z" fill="currentColor" /><path d="M775.307636 512L512 775.307636 248.692364 512 512 248.692364 775.307636 512z m-65.861818 0L512 314.484364l-197.469091 197.469091 197.469091 197.492363 197.492364-197.492363z" fill="currentColor" /></svg>