<?xml version="1.0" standalone="no"?><!DOCTYPE svg PUBLIC "-//W3C//DTD SVG 1.1//EN" "http://www.w3.org/Graphics/SVG/1.1/DTD/svg11.dtd"><svg class="icon" width="200px" height="200.00px" viewBox="0 0 1024 1024" version="1.1" xmlns="http://www.w3.org/2000/svg"><path fill="currentColor" d="M639.573333 192h-256c-23.466667 0-42.666667-19.2-42.666666-42.666667s19.2-42.666667 42.666666-42.666666h256c23.466667 0 42.666667 19.2 42.666667 42.666666s-19.2 42.666667-42.666667 42.666667zM768 149.333333h-42.666667v42.666667c0 23.466667-19.2 42.666667-42.666666 42.666667H341.333333c-23.466667 0-42.666667-19.2-42.666666-42.666667v-42.666667H256c-46.933333 0-85.333333 38.4-85.333333 85.333334v597.333333c0 46.933333 38.4 85.333333 85.333333 85.333333h512c46.933333 0 85.333333-38.4 85.333333-85.333333v-597.333333c0-46.933333-38.4-85.333333-85.333333-85.333334z m-194.56 513.706667h-277.333333c-17.493333 0-32-14.506667-32-32s14.506667-32 32-32h277.333333a31.957333 31.957333 0 1 1 0 64z m170.666667-170.666667H296.106667c-17.493333 0-32-14.506667-32-32s14.506667-32 32-32h448a31.957333 31.957333 0 1 1 0 64z" /></svg>