<svg class="icon" width="200" height="200" viewBox="0 0 1024 1024" xmlns="http://www.w3.org/2000/svg"><path fill="currentColor" d="M674.304 714.24V674.816H634.88a29.696 29.696 0 1 1 0-59.392h39.424v-39.424a29.696 29.696 0 0 1 59.392 0v39.424h39.389867a29.696 29.696 0 0 1 0 59.392h-39.424v39.424a29.696 29.696 0 1 1-59.392 0z m-131.618133-129.536a29.696 29.696 0 0 1 0 59.392H373.76c-34.474667 0-62.464 27.989333-62.464 62.464a29.696 29.696 0 0 1-59.221333 3.003733L251.904 706.56a121.856 121.856 0 0 1 121.856-121.856h168.96z m16.384-185.344a62.464 62.464 0 1 0-124.928 0 62.464 62.464 0 0 0 124.928 0z m59.392 0a121.856 121.856 0 1 1-243.643734 0 121.856 121.856 0 0 1 243.643734 0z" /></svg>
