<?xml version="1.0" standalone="no"?><!DOCTYPE svg PUBLIC "-//W3C//DTD SVG 1.1//EN" "http://www.w3.org/Graphics/SVG/1.1/DTD/svg11.dtd"><svg class="icon" width="200px" height="200.00px" viewBox="0 0 1024 1024" version="1.1" xmlns="http://www.w3.org/2000/svg"><path d="M938.069333 84.821333h-304.384V296.106667h344.32v-172.373334a39.424 39.424 0 0 0-39.936-38.954666z" fill="currentColor" /><path d="M633.685333 719.36v-211.84H263.594667v383.701333a38.954667 38.954667 0 0 0 39.466666 39.466667h634.965334a39.424 39.424 0 0 0 39.936-39.466667V719.36h-344.277334z" fill="currentColor" /><path d="M633.685333 84.821333H304.938667a38.997333 38.997333 0 0 0-39.466667 39.424v171.946667h370.090667l-1.877334-211.370667z" fill="currentColor" /><path d="M977.493333 295.68h-343.808v211.84h343.808V295.68z" fill="currentColor" /><path d="M977.493333 507.52h-343.808v211.797333h343.808v-211.797333zM634.154667 295.68H263.594667v211.84h370.56V295.68z" fill="currentColor" /><path d="M488.106667 269.397333H91.733333a39.936 39.936 0 0 0-39.936 39.893334v396.416c0 22.058667 17.834667 39.936 39.893334 39.936h396.373333a39.936 39.936 0 0 0 39.978667-39.936V309.333333a39.936 39.936 0 0 0-39.936-39.936z" fill="currentColor" /><path d="M174.848 636.672l83.114667-129.152-76.074667-128.682667h61.525333l41.301334 81.706667c3.157333 5.717333 5.845333 11.690667 8.021333 17.834667 2.56-6.272 5.546667-12.373333 8.917333-18.304l46.933334-81.706667h56.362666L324.693333 507.52l80.298667 130.090667H344.832l-46.933333-90.666667a54.869333 54.869333 0 0 1-6.101334-11.733333c-1.578667 4.053333-3.456 8.021333-5.674666 11.733333L236.373333 637.610667l-61.525333-0.938667z" fill="currentColor" /></svg>