<?xml version="1.0" standalone="no"?><!DOCTYPE svg PUBLIC "-//W3C//DTD SVG 1.1//EN" "http://www.w3.org/Graphics/SVG/1.1/DTD/svg11.dtd"><svg class="icon" width="200px" height="200.00px" viewBox="0 0 1024 1024" version="1.1" xmlns="http://www.w3.org/2000/svg"><path fill="currentColor" d="M852.053333 74.666667h-125.44c-54.186667 0-86.613333 32.426667-86.613333 86.613333v125.44c0 54.186667 32.426667 86.613333 86.613333 86.613333h125.44c54.186667 0 86.613333-32.426667 86.613334-86.613333V161.28c0-54.186667-32.426667-86.613333-86.613334-86.613333z m9.386667 141.226666a26.453333 26.453333 0 0 1-18.773333 7.68 26.453333 26.453333 0 0 1-18.773334-7.68l-7.68-7.68v95.573334c0 14.933333-11.946667 26.88-26.88 26.88s-26.88-11.946667-26.88-26.88V208.213333l-7.68 7.68c-10.24 10.24-27.306667 10.24-37.546666 0a26.794667 26.794667 0 0 1 0-37.546666l53.333333-53.333334c2.133333-2.133333 5.12-3.84 8.106667-5.12 0.853333-0.426667 1.706667-0.426667 2.56-0.853333 2.133333-0.853333 4.266667-1.28 6.826666-1.28h2.56c2.986667 0 5.546667 0.426667 8.533334 1.706667h0.853333c2.986667 1.28 5.546667 2.986667 7.68 5.12 0.426667 0.426667 0.426667 0.426667 0.853333 0.426666l53.333334 53.333334c10.24 10.24 10.24 27.306667-0.426667 37.546666zM85.333333 488.96v213.333333c0 97.706667 78.933333 176.64 176.64 176.64h499.626667c97.706667 0 177.066667-79.36 177.066667-177.066666v-212.906667c0-28.586667-23.04-51.626667-51.626667-51.626667H136.96c-28.586667 0-51.626667 23.04-51.626667 51.626667z m256 247.04H256c-17.493333 0-32-14.506667-32-32s14.506667-32 32-32h85.333333c17.493333 0 32 14.506667 32 32s-14.506667 32-32 32z m277.333334 0h-170.666667c-17.493333 0-32-14.506667-32-32s14.506667-32 32-32h170.666667c17.493333 0 32 14.506667 32 32s-14.506667 32-32 32zM576 196.693333v125.013334c0 28.586667-23.04 51.626667-51.626667 51.626666H136.96C107.946667 373.333333 85.333333 349.44 85.333333 320.853333c0.426667-48.213333 19.626667-92.16 51.626667-124.16S213.333333 145.066667 261.973333 145.066667h262.4c28.586667 0 51.626667 23.04 51.626667 51.626666z" /></svg>