<?xml version="1.0" standalone="no"?><!DOCTYPE svg PUBLIC "-//W3C//DTD SVG 1.1//EN" "http://www.w3.org/Graphics/SVG/1.1/DTD/svg11.dtd"><svg class="icon" width="200px" height="200.00px" viewBox="0 0 1024 1024" version="1.1" xmlns="http://www.w3.org/2000/svg"><path fill="currentColor" d="M648.533333 554.666667a136.533333 136.533333 0 1 1-273.066666 0 136.533333 136.533333 0 0 1 273.066666 0zM305.92 213.333333L384 128h256l78.08 85.333333H853.333333c46.933333 0 85.333333 38.4 85.333334 85.333334v512c0 46.933333-38.4 85.333333-85.333334 85.333333H170.666667c-46.933333 0-85.333333-38.4-85.333334-85.333333V298.666667c0-46.933333 38.4-85.333333 85.333334-85.333334h135.253333zM298.666667 554.666667c0 117.76 95.573333 213.333333 213.333333 213.333333s213.333333-95.573333 213.333333-213.333333-95.573333-213.333333-213.333333-213.333334-213.333333 95.573333-213.333333 213.333334z" /></svg>