<?xml version="1.0" standalone="no"?><!DOCTYPE svg PUBLIC "-//W3C//DTD SVG 1.1//EN" "http://www.w3.org/Graphics/SVG/1.1/DTD/svg11.dtd"><svg class="icon" width="200px" height="200.00px" viewBox="0 0 1024 1024" version="1.1" xmlns="http://www.w3.org/2000/svg"><path fill="currentColor" d="M867.84 389.973333l-61.44 21.76a85.333333 85.333333 0 0 0-42.666667 33.28l-90.88 136.533334a128 128 0 0 0-22.186666 72.106666v63.573334a42.752 42.752 0 0 1-12.373334 30.293333l-17.92 17.493333a42.666667 42.666667 0 0 1-60.16 0l-301.226666-301.653333a42.666667 42.666667 0 0 1 0-60.16L276.48 384a42.666667 42.666667 0 0 1 30.293333-12.373333h63.573334a128 128 0 0 0 72.106666-22.186667l136.533334-90.88a85.333333 85.333333 0 0 0 33.28-42.666667l21.76-61.44a42.666667 42.666667 0 0 1 70.4-15.786666l179.2 179.2a42.666667 42.666667 0 0 1-15.786667 72.106666z m-678.826667 354.133334a128 128 0 0 0-28.586666 42.666666L128 864.853333a21.333333 21.333333 0 0 0 27.733333 27.733334l77.226667-30.72a128 128 0 0 0 42.666667-28.586667l124.16-124.16-86.186667-89.6-124.586667 124.586667z" /></svg>