<?xml version="1.0" standalone="no"?><!DOCTYPE svg PUBLIC "-//W3C//DTD SVG 1.1//EN" "http://www.w3.org/Graphics/SVG/1.1/DTD/svg11.dtd"><svg class="icon" width="200px" height="200.00px" viewBox="0 0 1024 1024" version="1.1" xmlns="http://www.w3.org/2000/svg"><path fill="currentColor" d="M629.504 426.666667c41.216 0 74.666667 33.450667 74.666667 74.666666v202.624a192.042667 192.042667 0 0 1-384.085334 0V501.333333c0-41.216 33.408-74.666667 74.666667-74.666666h234.752z m0 64H394.752a10.666667 10.666667 0 0 0-10.666667 10.666666v202.624a128.042667 128.042667 0 0 0 256.085334 0V501.333333a10.666667 10.666667 0 0 0-10.666667-10.666666zM160 426.666667h144.256a116.821333 116.821333 0 0 0-26.368 64H160a10.666667 10.666667 0 0 0-10.666667 10.666666v138.624a106.709333 106.709333 0 0 0 131.498667 103.808c3.626667 21.504 10.24 42.026667 19.328 61.098667A170.709333 170.709333 0 0 1 85.333333 639.957333V501.333333c0-41.216 33.450667-74.666667 74.666667-74.666666z m560 0h144c41.216 0 74.666667 33.450667 74.666667 74.666666V640a170.666667 170.666667 0 0 1-214.613334 164.949333c9.130667-19.114667 15.744-39.637333 19.413334-61.141333A106.666667 106.666667 0 0 0 874.666667 640v-138.666667a10.666667 10.666667 0 0 0-10.666667-10.666666h-117.632a116.821333 116.821333 0 0 0-26.368-64zM512 128a128 128 0 1 1 0 256 128 128 0 0 1 0-256z m277.333333 42.666667a106.666667 106.666667 0 1 1 0 213.333333 106.666667 106.666667 0 0 1 0-213.333333z m-554.666666 0a106.666667 106.666667 0 1 1 0 213.333333 106.666667 106.666667 0 0 1 0-213.333333z m277.333333 21.333333a64 64 0 1 0 0 128 64 64 0 0 0 0-128z m277.333333 42.666667a42.666667 42.666667 0 1 0 0 85.333333 42.666667 42.666667 0 0 0 0-85.333333z m-554.666666 0a42.666667 42.666667 0 1 0 0 85.333333 42.666667 42.666667 0 0 0 0-85.333333z" /></svg>