<?xml version="1.0" standalone="no"?><!DOCTYPE svg PUBLIC "-//W3C//DTD SVG 1.1//EN" "http://www.w3.org/Graphics/SVG/1.1/DTD/svg11.dtd"><svg class="icon" width="200px" height="200.00px" viewBox="0 0 1024 1024" version="1.1" xmlns="http://www.w3.org/2000/svg"><path fill="currentColor" d="M881.237333 142.762667a65.024 65.024 0 0 0-91.989333 0l-162.858667 162.858666a21.333333 21.333333 0 0 1-20.48 5.546667L230.912 212.522667 141.909333 301.568l333.653334 111.232a21.333333 21.333333 0 0 1 8.362666 35.328l-142.506666 142.506667a21.333333 21.333333 0 0 1-15.104 6.229333H213.034667L158.72 651.093333l136.405333 68.224a21.333333 21.333333 0 0 1 9.514667 9.514667L372.906667 865.28l54.272-54.272v-113.28a21.333333 21.333333 0 0 1 6.229333-15.104l142.506667-142.506667a21.333333 21.333333 0 0 1 35.328 8.362667l111.232 333.653333 89.045333-89.045333L712.832 418.133333a21.333333 21.333333 0 0 1 5.546667-20.522666l162.858666-162.858667a65.024 65.024 0 0 0 0-91.989333zM759.04 112.64a107.690667 107.690667 0 1 1 152.32 152.32l-154.197333 154.197333 98.688 374.912a21.333333 21.333333 0 0 1-5.546667 20.48l-122.154667 122.154667a21.333333 21.333333 0 0 1-35.328-8.32l-111.232-333.653333-111.829333 111.786666v113.322667a21.333333 21.333333 0 0 1-6.229333 15.104l-81.450667 81.408a21.333333 21.333333 0 0 1-34.133333-5.546667L269.653333 754.346667l-156.458666-78.250667a21.333333 21.333333 0 0 1-5.546667-34.176l81.408-81.450667a21.333333 21.333333 0 0 1 15.104-6.229333H317.44l111.829333-111.829333-333.653333-111.232a21.333333 21.333333 0 0 1-8.32-35.328l122.112-122.112a21.333333 21.333333 0 0 1 20.522667-5.546667l374.912 98.645333 154.197333-154.197333z" /></svg>