<?xml version="1.0" standalone="no"?><!DOCTYPE svg PUBLIC "-//W3C//DTD SVG 1.1//EN" "http://www.w3.org/Graphics/SVG/1.1/DTD/svg11.dtd"><svg class="icon" width="200px" height="200.00px" viewBox="0 0 1024 1024" version="1.1" xmlns="http://www.w3.org/2000/svg"><path fill="currentColor" d="M512 74.666667c93.866667 0 170.666667 76.8 170.666667 170.666666 0 78.933333-53.333333 147.2-128 164.266667v49.066667h192c68.266667 0 125.866667 55.466667 128 123.733333v4.266667c0 23.466667-19.2 42.666667-42.666667 42.666666s-40.533333-17.066667-42.666667-40.533333v-2.133333c0-23.466667-17.066667-40.533333-40.533333-42.666667H277.333333c-23.466667 0-40.533333 17.066667-42.666666 40.533333v2.133334c0 23.466667-19.2 42.666667-42.666667 42.666666s-40.533333-17.066667-42.666667-40.533333v-2.133333c0-68.266667 55.466667-125.866667 123.733334-128H469.333333v-49.066667c-74.666667-19.2-128-85.333333-128-164.266667 0-93.866667 76.8-170.666667 170.666667-170.666666z m0 597.333333c76.8 0 138.666667 61.866667 138.666667 138.666667s-61.866667 138.666667-138.666667 138.666666-138.666667-61.866667-138.666667-138.666666 61.866667-138.666667 138.666667-138.666667z m320 0c76.8 0 138.666667 61.866667 138.666667 138.666667s-61.866667 138.666667-138.666667 138.666666-138.666667-61.866667-138.666667-138.666666 61.866667-138.666667 138.666667-138.666667z m-640 0c76.8 0 138.666667 61.866667 138.666667 138.666667s-61.866667 138.666667-138.666667 138.666666-138.666667-61.866667-138.666667-138.666666 61.866667-138.666667 138.666667-138.666667z" /></svg>