<?xml version="1.0" standalone="no"?><!DOCTYPE svg PUBLIC "-//W3C//DTD SVG 1.1//EN" "http://www.w3.org/Graphics/SVG/1.1/DTD/svg11.dtd"><svg class="icon" width="200px" height="199.03px" viewBox="0 0 1029 1024" version="1.1" xmlns="http://www.w3.org/2000/svg"><path fill="currentColor" d="M704 0h-384c-72.533333 0-128 55.466667-128 128v768c0 72.533333 55.466667 128 128 128h384c72.490667 0 128-55.466667 128-128V128c0-72.533333-55.509333-128-128-128z m-192.213333 938.410667c-47.530667 3.968-87.04-35.626667-87.04-83.114667-3.968-47.488 35.626667-86.997333 83.114666-86.997333 47.530667-4.010667 87.04 35.584 87.04 83.114666 3.968 47.36-35.626667 86.997333-83.114666 86.997334zM746.666667 682.666667H277.333333V128h469.290667v554.666667h0.085333z" /></svg>