<?xml version="1.0" standalone="no"?><!DOCTYPE svg PUBLIC "-//W3C//DTD SVG 1.1//EN" "http://www.w3.org/Graphics/SVG/1.1/DTD/svg11.dtd"><svg class="icon" width="200px" height="200.00px" viewBox="0 0 1024 1024" version="1.1" xmlns="http://www.w3.org/2000/svg"><path d="M729.6 714.837333c-51.882667 0-103.125333-11.306667-153.728-33.92a459.776 459.776 0 0 1-138.112-96.128 459.776 459.776 0 0 1-96.128-138.112c-22.613333-50.602667-33.92-101.845333-33.92-153.685333 0-7.466667 2.474667-13.696 7.466667-18.688a25.344 25.344 0 0 1 18.645333-7.466667h100.821333c5.802667 0 11.008 1.962667 15.573334 5.930667 4.522667 3.925333 7.253333 8.576 8.106666 13.994667l16.128 87.082666c0.853333 6.656 0.64 12.245333-0.597333 16.810667a26.197333 26.197333 0 0 1-6.826667 11.818667l-60.373333 61.013333c8.277333 15.36 18.133333 30.165333 29.525333 44.458667 11.434667 14.336 23.978667 28.117333 37.674667 41.386666 12.842667 12.842667 26.325333 24.746667 40.448 35.754667 14.08 11.008 29.013333 21.077333 44.8 30.208l58.453333-58.496a34.901333 34.901333 0 0 1 14.634667-8.405333 40.106667 40.106667 0 0 1 17.749333-1.536l85.845334 17.408c5.802667 1.664 10.581333 4.693333 14.336 9.002666a21.930667 21.930667 0 0 1 5.546666 14.634667v100.821333a25.344 25.344 0 0 1-26.154666 26.154667m-346.496-298.666667l41.045333-41.088-10.581333-58.496H358.101333c2.090667 16.981333 4.992 33.792 8.704 50.389334 3.754667 16.597333 9.130667 32.981333 16.213334 49.152m222.72 222.762666a308.906667 308.906667 0 0 0 100.181333 24.874667v-54.741333l-58.453333-11.818667-41.728 41.685333m0 0" fill="none" stroke="currentColor" stroke-width="1.5" stroke-linecap="round" stroke-linejoin="round" /></svg>