<?xml version="1.0" standalone="no"?><!DOCTYPE svg PUBLIC "-//W3C//DTD SVG 1.1//EN" "http://www.w3.org/Graphics/SVG/1.1/DTD/svg11.dtd"><svg class="icon" width="200px" height="200.00px" viewBox="0 0 1024 1024" version="1.1" xmlns="http://www.w3.org/2000/svg"><path fill="currentColor" d="M786.610087 226.704696a122.969043 122.969043 0 0 0-209.830957-86.906435L190.285913 526.246957A207.11513 207.11513 0 0 0 483.06087 819.2l386.493217-386.537739a45.412174 45.412174 0 0 1 64.289391 64.244869l-386.537739 386.53774a297.984 297.984 0 0 1-421.353739-421.35374l386.537739-386.493217a213.793391 213.793391 0 0 1 364.900174 151.151304 213.704348 213.704348 0 0 1-55.296 143.449044l-7.301565 7.702261-386.938435 386.537739H427.853913a129.558261 129.558261 0 1 1-183.206956-183.296l357.064347-356.708174a45.412174 45.412174 0 1 1 64.200348 64.333913l-357.064348 356.61913a38.822957 38.822957 0 0 0 54.806261 54.76174l386.982957-386.53774a122.88 122.88 0 0 0 35.973565-86.861913z" /></svg>