<?xml version="1.0" standalone="no"?><!DOCTYPE svg PUBLIC "-//W3C//DTD SVG 1.1//EN" "http://www.w3.org/Graphics/SVG/1.1/DTD/svg11.dtd"><svg class="icon" width="200px" height="199.80px" viewBox="0 0 1025 1024" version="1.1" xmlns="http://www.w3.org/2000/svg"><path d="M963.861333 604.672a25.130667 25.130667 0 0 1-8.789333-12.8 185.344 185.344 0 0 0-177.28-133.12c-15.061333 0-30.037333 1.792-44.544 5.376a24.832 24.832 0 0 1-26.453333-9.984 203.989333 203.989333 0 0 0-305.536-35.114667 203.392 203.392 0 0 0-65.493334 130.901334 24.789333 24.789333 0 0 1-13.994666 20.053333 126.890667 126.890667 0 0 0-7.338667 3.797333 23.210667 23.210667 0 0 1-6.613333 2.474667c-34.432 7.68-65.706667 27.050667-88.021334 54.442667a154.538667 154.538667 0 0 0-35.072 98.688c0 86.570667 70.784 156.970667 157.866667 156.970666H867.989333c87.04 0 157.866667-70.4 157.866667-156.970666 0-49.237333-22.613333-94.72-61.994667-124.672v-0.042667z" fill="currentColor" /><path d="M185.664 481.92c0 30.976 11.434667 60.16 31.829333 82.730667a208.512 208.512 0 0 1 70.826667-34.688A252.757333 252.757333 0 0 1 373.909333 377.045333a123.52 123.52 0 0 0-188.245333 104.917334v-0.042667zM308.970667 292.309333a24.746667 24.746667 0 0 0 24.832-24.789333V197.76a24.746667 24.746667 0 1 0-49.621334 0V267.52c0 13.696 11.093333 24.789333 24.789334 24.789333zM180.330667 308.650667a24.746667 24.746667 0 0 0 33.877333 9.088 24.832 24.832 0 0 0 9.088-33.877334L188.309333 223.445333a24.832 24.832 0 0 0-42.965333 24.746667l34.944 60.458667zM50.496 361.301333l60.416 34.901334a24.789333 24.789333 0 0 0 24.789333-42.965334L75.242667 318.293333a24.746667 24.746667 0 1 0-24.789334 42.965334zM24.810667 506.709333h69.802666a24.746667 24.746667 0 1 0 0-49.621333H24.810667a24.746667 24.746667 0 1 0 0 49.621333zM144.789333 576.682667a24.832 24.832 0 0 0-33.92-9.088l-60.416 34.944a24.832 24.832 0 0 0 24.832 42.965333l60.416-34.944a24.832 24.832 0 0 0 9.088-33.877333zM403.776 317.738667a24.789333 24.789333 0 0 0 33.877333-9.088l34.901334-60.416a24.746667 24.746667 0 1 0-42.965334-24.789334l-34.901333 60.416a24.832 24.832 0 0 0 9.088 33.877334z" fill="currentColor" /></svg>