<?xml version="1.0" standalone="no"?><!DOCTYPE svg PUBLIC "-//W3C//DTD SVG 1.1//EN" "http://www.w3.org/Graphics/SVG/1.1/DTD/svg11.dtd"><svg class="icon" width="200px" height="200.00px" viewBox="0 0 1024 1024" version="1.1" xmlns="http://www.w3.org/2000/svg"><path fill="currentColor" d="M883.328 187.733333l6.912 6.229334 90.453333 90.538666a96 96 0 0 1 6.229334 128.896l-6.229334 6.826667-484.437333 484.565333a44.8 44.8 0 0 1-12.288 8.704l-7.082667 2.688-239.189333 68.309334a38.4 38.4 0 0 1-48.554667-42.24l1.109334-5.205334 68.352-239.189333c1.365333-4.864 3.626667-9.472 6.485333-13.568l4.906667-5.76L754.432 193.962667a96 96 0 0 1 128.896-6.186667z m-167.637333 135.509334L318.762667 720.213333l-54.357334 190.037334 190.208-54.314667 396.842667-396.842667-135.765333-135.808zM661.333333 76.8a32 32 0 0 1 5.76 63.488L661.333333 140.8h-512a32 32 0 0 0-31.445333 26.24l-0.554667 5.76v640a32 32 0 0 1-63.488 5.76l-0.512-5.76v-640a96 96 0 0 1 86.784-95.573333L149.333333 76.8h512z m-256 288a32 32 0 1 1 0 64H213.333333a32 32 0 0 1 0-64h192z m398.805334-129.28l-4.437334 3.712-38.826666 38.698667 135.765333 135.765333 38.826667-38.784a32 32 0 0 0 6.485333-35.882667l-2.816-4.864-3.669333-4.48-90.538667-90.453333a32 32 0 0 0-40.789333-3.754667v0.042667zM341.333333 236.8a32 32 0 0 1 0 64H213.333333a32 32 0 1 1 0-64h128z" /></svg>