<?xml version="1.0" standalone="no"?><!DOCTYPE svg PUBLIC "-//W3C//DTD SVG 1.1//EN" "http://www.w3.org/Graphics/SVG/1.1/DTD/svg11.dtd"><svg class="icon" width="200px" height="200.00px" viewBox="0 0 1024 1024" version="1.1" xmlns="http://www.w3.org/2000/svg"><path fill="currentColor" d="M866.133333 85.333333c4.693333 0 8.533333 3.84 8.533334 8.533334v194.133333a32 32 0 0 1-28.928 31.872l-3.072 0.128H648.533333a8.533333 8.533333 0 0 1-8.533333-8.533333V264.533333c0-4.693333 3.84-8.533333 8.533333-8.533333h120.32A361.557333 361.557333 0 0 0 512 149.333333a362.666667 362.666667 0 1 0 361.429333 391.850667 8.533333 8.533333 0 0 1 8.533334-7.808h47.061333a8.533333 8.533333 0 0 1 8.533333 9.088c-0.426667 5.674667-0.768 10.24-1.109333 13.610667C914.346667 770.986667 732.757333 938.666667 512 938.666667 276.352 938.666667 85.333333 747.648 85.333333 512S276.352 85.333333 512 85.333333a425.130667 425.130667 0 0 1 298.666667 121.984V93.866667c0-4.693333 3.84-8.533333 8.533333-8.533334h46.933333z" /></svg>