<?xml version="1.0" standalone="no"?><!DOCTYPE svg PUBLIC "-//W3C//DTD SVG 1.1//EN" "http://www.w3.org/Graphics/SVG/1.1/DTD/svg11.dtd"><svg class="icon" width="200px" height="200.00px" viewBox="0 0 1024 1024" version="1.1" xmlns="http://www.w3.org/2000/svg"><path d="M802.048 426.666667l-46.933333-102.4-102.4-46.933334 102.4-46.933333 46.933333-102.4 46.933333 102.4 102.4 46.933333-102.4 46.933334-46.933333 102.4m85.333333 298.666666l-34.133333-72.533333-72.533333-34.133333 72.533333-34.133334 34.133333-72.533333 34.133334 72.533333 72.533333 34.133334-72.533333 34.133333-34.133334 72.533333m-554.666666 256l-12.8-100.266666a119.04 119.04 0 0 1-16-8.533334 78.250667 78.250667 0 0 1-13.866667-10.666666l-93.866667 40.533333-105.6-185.6 80-59.733333V640v-17.066667l-80-59.733333 105.6-185.6 93.866667 40.533333c3.541333-3.541333 8.192-7.125333 13.866667-10.666666 5.674667-3.541333 11.008-6.4 16-8.533334l12.8-100.266666h213.333333l12.8 100.266666c4.992 2.133333 10.325333 4.992 16 8.533334s10.325333 7.125333 13.866667 10.666666l93.866666-40.533333 105.6 185.6-80 59.733333v34.133334l80 59.733333-105.6 185.6-93.866666-40.533333a78.08 78.08 0 0 1-13.866667 10.666666c-5.674667 3.541333-11.008 6.4-16 8.533334l-12.8 100.266666h-213.333333m106.666666-213.333333c35.541333 0 65.792-12.458667 90.666667-37.333333A123.434667 123.434667 0 0 0 567.381333 640c0-35.541333-12.458667-65.792-37.333333-90.666667A123.434667 123.434667 0 0 0 439.381333 512c-35.541333 0-65.792 12.458667-90.666666 37.333333A123.434667 123.434667 0 0 0 311.381333 640c0 35.541333 12.458667 65.792 37.333334 90.666667a123.434667 123.434667 0 0 0 90.666666 37.333333m-32 128h64l8.533334-76.8a206.848 206.848 0 0 0 52.821333-21.845333c14.549333-8.917333 28.970667-20.821333 43.178667-35.754667l70.4 32 29.866666-53.333333-61.866666-46.933334c5.674667-16.341333 8.533333-34.133333 8.533333-53.333333 0-19.2-2.858667-36.992-8.533333-53.333333l61.866666-46.933334-29.866666-53.333333-70.4 32c-14.208-14.933333-28.586667-26.88-43.178667-35.754667a206.848 206.848 0 0 0-52.821333-21.845333l-8.533334-76.8h-64l-8.533333 76.8a206.933333 206.933333 0 0 0-52.778667 21.845333c-14.592 8.917333-29.013333 20.821333-43.221333 35.754667l-70.4-32-29.866667 53.333333 61.866667 46.933334A171.093333 171.093333 0 0 0 255.402667 640c-0.384 19.2 2.645333 36.992 9.045333 53.333333l-61.866667 46.933334 29.866667 53.333333 70.4-32c14.208 14.933333 28.586667 26.88 43.221333 35.712 14.549333 8.917333 32.170667 16.213333 52.778667 21.888l8.533333 76.8m32-256" fill="none" stroke="currentColor" stroke-width="1.5" stroke-linecap="round" stroke-linejoin="round" /></svg>