<?xml version="1.0" standalone="no"?><!DOCTYPE svg PUBLIC "-//W3C//DTD SVG 1.1//EN" "http://www.w3.org/Graphics/SVG/1.1/DTD/svg11.dtd"><svg class="icon" width="200px" height="200.00px" viewBox="0 0 1024 1024" version="1.1" xmlns="http://www.w3.org/2000/svg"><path fill="currentColor" d="M990.608696 185.61113c0-6.41113-5.988174-12.8-5.988174-6.41113L685.501217 460.8h-5.988174l-119.652173-115.2v-12.8L888.898783 12.8c5.988174-6.38887 0-12.8-5.965913-12.8H153.043478C87.240348 0 33.391304 57.58887 33.391304 115.2v793.6C33.391304 972.8 87.240348 1024 153.043478 1024h717.913044C936.759652 1024 990.608696 966.41113 990.608696 908.8V185.58887zM506.011826 505.58887l11.976348-121.58887c0-6.41113 5.988174-12.8 11.954087-6.41113l107.698087 108.81113c5.988174 6.38887 0 12.8-5.988174 12.8L512 512c-5.988174 0-5.988174 0-5.988174-6.41113zM577.80313 819.2c-5.965913 25.6-23.930435 38.4-47.860869 26.713043H170.985739c-23.930435 11.686957-41.872696-1.113043-41.872696-26.713043s17.942261-38.4 41.872696-40.069565h364.944696c23.930435 1.669565 41.872696 14.469565 41.872695 40.069565z m245.292522-153.6c0 25.6-17.942261 38.4-41.872695 24.486957H170.963478c-23.930435 13.913043-41.872696 1.113043-41.872695-24.486957 0-25.6 17.942261-38.4 41.872695-42.295652h610.237218c23.930435 3.895652 41.872696 16.695652 41.872695 42.295652z" /></svg>