<?xml version="1.0" standalone="no"?><!DOCTYPE svg PUBLIC "-//W3C//DTD SVG 1.1//EN" "http://www.w3.org/Graphics/SVG/1.1/DTD/svg11.dtd"><svg class="icon" width="200px" height="200.00px" viewBox="0 0 1024 1024" version="1.1" xmlns="http://www.w3.org/2000/svg"><path fill="currentColor" d="M810.666667 469.333333a341.333333 341.333333 0 1 1-682.666667 0 341.333333 341.333333 0 0 1 682.666667 0z m-341.333334 298.666667a298.666667 298.666667 0 1 0 0-597.333333 298.666667 298.666667 0 0 0 0 597.333333zM666.453333 711.466667a21.333333 21.333333 0 0 1 30.08-2.346667l149.333334 128a21.333333 21.333333 0 1 1-27.733334 32.426667l-149.333333-128a21.333333 21.333333 0 0 1-2.346667-30.08z" /></svg>