<?xml version="1.0" standalone="no"?><!DOCTYPE svg PUBLIC "-//W3C//DTD SVG 1.1//EN" "http://www.w3.org/Graphics/SVG/1.1/DTD/svg11.dtd"><svg class="icon" width="200px" height="200.00px" viewBox="0 0 1024 1024" version="1.1" xmlns="http://www.w3.org/2000/svg"><path fill="currentColor" d="M512 85.333333C400.213333 85.333333 309.333333 176.213333 309.333333 288c0 109.653333 85.76 198.4 197.546667 202.24 3.413333-0.426667 6.826667-0.426667 9.386667 0h2.986666a202.154667 202.154667 0 0 0 195.413334-202.24C714.666667 176.213333 623.786667 85.333333 512 85.333333zM728.746667 603.733333c-119.04-79.36-313.173333-79.36-433.066667 0-54.186667 36.266667-84.053333 85.333333-84.053333 137.813334s29.866667 101.12 83.626666 136.96C354.986667 918.613333 433.493333 938.666667 512 938.666667c78.506667 0 157.013333-20.053333 216.746667-60.16 53.76-36.266667 83.626667-84.906667 83.626666-137.813334-0.426667-52.48-29.866667-101.12-83.626666-136.96z" /></svg> 