<?xml version="1.0" standalone="no"?><!DOCTYPE svg PUBLIC "-//W3C//DTD SVG 1.1//EN" "http://www.w3.org/Graphics/SVG/1.1/DTD/svg11.dtd"><svg class="icon" width="200px" height="200.00px" viewBox="0 0 1024 1024" version="1.1" xmlns="http://www.w3.org/2000/svg"><path fill="currentColor" d="M512 11.377778c276.48 0 500.622222 224.142222 500.622222 500.622222s-224.142222 500.622222-500.622222 500.622222-500.622222-224.142222-500.622222-500.622222 224.142222-500.622222 500.622222-500.622222z m0 22.755555c-263.918933 0-477.866667 213.947733-477.866667 477.866667s213.947733 477.866667 477.866667 477.866667 477.866667-213.947733 477.866667-477.866667-213.947733-477.866667-477.866667-477.866667z m64.216178 312.547556L702.600533 477.866667h6.9632c10.285511 0 18.614044 10.194489 18.614045 22.755555 0 2.184533-0.250311 4.278044-0.728178 6.280534a18.659556 18.659556 0 0 1-4.437333 18.0224l-146.796089 152.393955a17.157689 17.157689 0 0 1-24.917334 0 18.773333 18.773333 0 0 1 0-25.873067L674.656711 523.377778h-337.464889c-10.285511 0-18.614044-10.194489-18.614044-22.755556s8.328533-22.755556 18.614044-22.755555h315.551289l-101.444267-105.312711a18.773333 18.773333 0 0 1 0-25.873067 17.157689 17.157689 0 0 1 24.917334 0z" /></svg>