<?xml version="1.0" standalone="no"?><!DOCTYPE svg PUBLIC "-//W3C//DTD SVG 1.1//EN" "http://www.w3.org/Graphics/SVG/1.1/DTD/svg11.dtd"><svg class="icon" width="200px" height="200.00px" viewBox="0 0 1024 1024" version="1.1" xmlns="http://www.w3.org/2000/svg"><path fill="currentColor" d="M85.333333 192A106.666667 106.666667 0 0 1 192 85.333333h498.005333a106.666667 106.666667 0 0 1 75.392 31.232l142.037334 142.037334A106.666667 106.666667 0 0 1 938.666667 333.994667V832a106.666667 106.666667 0 0 1-106.666667 106.666667h-640A106.666667 106.666667 0 0 1 85.333333 832v-640zM192 128A64 64 0 0 0 128 192v640A64 64 0 0 0 192 896h640a64 64 0 0 0 64-64V333.994667a64 64 0 0 0-18.773333-45.226667l-141.994667-142.037333A64 64 0 0 0 690.005333 128H192zM277.333333 106.666667A21.333333 21.333333 0 0 1 298.666667 128v106.666667A64 64 0 0 0 362.666667 298.666667h298.666666A64 64 0 0 0 725.333333 234.666667v-85.333334a21.333333 21.333333 0 0 1 42.666667 0v85.333334A106.666667 106.666667 0 0 1 661.333333 341.333333h-298.666666A106.666667 106.666667 0 0 1 256 234.666667V128a21.333333 21.333333 0 0 1 21.333333-21.333333zM362.666667 597.333333A64 64 0 0 0 298.666667 661.333333v213.333334a21.333333 21.333333 0 0 1-42.666667 0v-213.333334A106.666667 106.666667 0 0 1 362.666667 554.666667h298.666666a106.666667 106.666667 0 0 1 106.666667 106.666666V896a21.333333 21.333333 0 0 1-42.666667 0v-234.666667a64 64 0 0 0-64-64h-298.666666z" /></svg>