<?xml version="1.0" standalone="no"?><!DOCTYPE svg PUBLIC "-//W3C//DTD SVG 1.1//EN" "http://www.w3.org/Graphics/SVG/1.1/DTD/svg11.dtd"><svg class="icon" width="200px" height="200.00px" viewBox="0 0 1024 1024" version="1.1" xmlns="http://www.w3.org/2000/svg"><path d="M414.592 681.728a33.408 33.408 0 0 1-12.416-44.288 33.664 33.664 0 0 1 45.568-12.608 33.664 33.664 0 0 1 12.16 45.568 33.216 33.216 0 0 1-28.8 16.64 34.56 34.56 0 0 1-16.512-5.312z m104.96-12.416a33.216 33.216 0 1 1 45.312 11.968 33.216 33.216 0 0 1-45.44-11.968h0.064z m-180.736-117.12a32.96 32.96 0 0 1 33.024-33.216 33.216 33.216 0 0 1 33.408 32.128 33.216 33.216 0 0 1-66.432 1.088z m234.496-1.088v-1.152c0-18.304 14.656-33.28 32.96-33.6a32.96 32.96 0 0 1 33.472 32.96 33.216 33.216 0 0 1-66.432 1.792zM400.832 466.752a32.96 32.96 0 0 1 11.968-45.44 33.216 33.216 0 0 1 45.376 11.776 32.576 32.576 0 0 1-28.8 48.704 32.96 32.96 0 0 1-28.544-15.04z m129.28 10.88a32.768 32.768 0 0 1-12.352-44.352 33.216 33.216 0 0 1 44.224-12.608c15.552 8.96 21.12 28.544 12.672 44.288a33.216 33.216 0 0 1-29.056 17.024 34.752 34.752 0 0 1-15.04-4.416h-0.448z m351.168 150.08a27.2 27.2 0 0 0 3.52-9.6 402.496 402.496 0 0 0-194.816-415.296 27.648 27.648 0 0 0-27.712 47.808 346.496 346.496 0 0 1 168.32 354.24 122.624 122.624 0 1 0 50.688 21.888v0.96z m-13.952 131.008a66.432 66.432 0 0 1-114.944-66.368 66.432 66.432 0 0 1 90.816-24.32 66.432 66.432 0 0 1 24.576 90.688h-0.448zM124.288 578.56c15.232 0 27.52-12.288 27.712-27.52a347.136 347.136 0 0 1 223.168-323.392 121.6 121.6 0 1 0-6.848-54.72 34.112 34.112 0 0 0-9.344 1.536A402.496 402.496 0 0 0 96.64 551.104a27.648 27.648 0 0 0 27.648 27.456z m365.12-459.2a66.432 66.432 0 1 1 0 132.864 66.432 66.432 0 0 1 0-132.864z m180.864 739.008a346.88 346.88 0 0 1-391.872-31.872 120.896 120.896 0 1 0-43.584 33.408 24.96 24.96 0 0 0 5.952 7.552 402.688 402.688 0 0 0 457.152 39.168 27.712 27.712 0 0 0-27.648-48v-0.256zM218.624 806.4l0 0z" fill="currentColor" fill-opacity=".45" /></svg>