<?xml version="1.0" standalone="no"?><!DOCTYPE svg PUBLIC "-//W3C//DTD SVG 1.1//EN" "http://www.w3.org/Graphics/SVG/1.1/DTD/svg11.dtd"><svg class="icon" width="200px" height="200.00px" viewBox="0 0 1024 1024" version="1.1" xmlns="http://www.w3.org/2000/svg"><path fill="currentColor" d="M553.386667 181.034667a41.386667 41.386667 0 0 0-82.773334 0v503.509333a123.946667 123.946667 0 0 1 82.773334 0V636.16h-20.693334a20.693333 20.693333 0 1 1 0-41.386667h20.693334v-41.386666h-20.693334a20.693333 20.693333 0 0 1 0-41.344h20.693334v-41.386667h-20.693334a20.693333 20.693333 0 1 1 0-41.386667h20.693334v-41.344h-20.693334a20.693333 20.693333 0 1 1 0-41.386666h20.693334v-41.386667h-20.693334a20.693333 20.693333 0 1 1 0-41.344h20.693334v-41.386667h-20.693334a20.693333 20.693333 0 1 1 0-41.386666h20.693334zM429.226667 709.12V181.034667a82.773333 82.773333 0 0 1 165.546666 0V709.12a124.117333 124.117333 0 1 1-165.504 0z m32.768 26.581333A82.773333 82.773333 0 1 0 512 718.890667a82.346667 82.346667 0 0 0-50.005333 16.810666zM512 843.008a41.386667 41.386667 0 1 1 0-82.773333 41.386667 41.386667 0 0 1 0 82.773333z" /></svg>