<?xml version="1.0" standalone="no"?><!DOCTYPE svg PUBLIC "-//W3C//DTD SVG 1.1//EN" "http://www.w3.org/Graphics/SVG/1.1/DTD/svg11.dtd"><svg class="icon" width="200px" height="200.00px" viewBox="0 0 1024 1024" version="1.1" xmlns="http://www.w3.org/2000/svg"><path d="M306.90304 638.72l134.314667-395.52h169.728L512.001707 510.293333h205.056l-124.928 190.592h239.786666c105.941333 0 192.128-85.717333 192.128-191.104a189.312 189.312 0 0 0-75.434666-151.765333 30.592 30.592 0 0 1-10.752-15.616 225.664 225.664 0 0 0-215.808-162.090667c-18.346667 0-36.565333 2.261333-54.229334 6.613334a30.208 30.208 0 0 1-32.170666-12.16 248.32 248.32 0 0 0-372.010667-42.752A247.637333 247.637333 0 0 0 183.937707 291.413333a30.208 30.208 0 0 1-17.066667 24.362667 139.946667 139.946667 0 0 0-8.96 4.608 28.16 28.16 0 0 1-8.021333 3.029333A193.024 193.024 0 0 0 42.668373 389.717333 188.117333 188.117333 0 0 0 0.001707 509.866667c0 105.386667 86.186667 191.061333 192.170666 191.061333h279.466667l15.616-62.165333H306.988373l-0.085333-0.085334z" fill="currentColor" /><path d="M512.001707 510.293333l98.986666-267.093333H441.17504l-134.314667 395.52h180.309334l-15.573334 62.165333-15.189333 60.373334-59.392 236.928 155.434667-236.928 39.552-60.373334 125.013333-190.592h-205.098667z" fill="currentColor" /></svg>