<?xml version="1.0" standalone="no"?><!DOCTYPE svg PUBLIC "-//W3C//DTD SVG 1.1//EN" "http://www.w3.org/Graphics/SVG/1.1/DTD/svg11.dtd"><svg class="icon" width="200px" height="199.80px" viewBox="0 0 1025 1024" version="1.1" xmlns="http://www.w3.org/2000/svg"><path d="M510.065243 765.492687a254.136621 254.136621 0 0 0 253.839584-253.839584 254.136621 254.136621 0 0 0-253.839584-253.839584 254.136621 254.136621 0 0 0-253.839584 253.839584 254.136621 254.136621 0 0 0 253.839584 253.839584zM483.034849 142.944954a26.98796 26.98796 0 1 0 54.060788 0V28.543162a26.98796 26.98796 0 1 0-54.060788 0v114.401792zM483.034849 880.318818v114.401792a26.98796 26.98796 0 1 0 54.060788 0v-114.401792a26.98796 26.98796 0 1 0-54.060788 0zM325.732385 219.325972a27.030394 27.030394 0 0 0 23.338645-40.524373L291.912568 79.718444a27.030394 27.030394 0 0 0-46.804591 27.030394l57.24333 99.083154a26.945526 26.945526 0 0 0 23.423512 13.49398zM680.90412 807.502247a27.030394 27.030394 0 0 0-9.887098 36.917492l57.24333 99.083155a26.945526 26.945526 0 0 0 36.917492 9.887098 27.030394 27.030394 0 0 0 9.887098-36.917492l-57.243329-99.040721a27.030394 27.030394 0 0 0-36.917493-9.929532zM68.28592 256.582936a27.030394 27.030394 0 0 0 9.929532 36.917492l99.040721 57.200896a27.030394 27.030394 0 0 0 27.030393-46.804591L105.203412 246.738271a26.98796 26.98796 0 0 0-36.917492 9.887099zM941.999901 729.805778l-99.083154-57.200896a26.98796 26.98796 0 1 0-27.030394 46.804591l99.083155 57.200896a27.030394 27.030394 0 0 0 27.030393-46.804591zM168.387488 511.653103a26.98796 26.98796 0 0 0-26.98796-27.030394H26.997736a26.98796 26.98796 0 1 0 0 54.018354H141.399528a26.98796 26.98796 0 0 0 26.98796-26.98796zM993.175183 484.665143h-114.401791a26.98796 26.98796 0 1 0 0 53.97592h114.401791a26.98796 26.98796 0 1 0 0-54.018354zM177.256173 672.604882l-99.040721 57.24333a27.030394 27.030394 0 0 0 26.98796 46.762157l99.083154-57.200896a27.030394 27.030394 0 0 0-27.030393-46.804591zM914.969508 246.695837l-99.083155 57.24333a27.030394 27.030394 0 0 0 27.030394 46.804591l99.083154-57.24333a27.030394 27.030394 0 0 0-27.030393-46.804591zM302.351307 817.431779l-57.24333 99.083155a27.030394 27.030394 0 0 0 46.804591 26.98796l57.24333-99.083155a26.98796 26.98796 0 1 0-46.804591-26.98796zM680.90412 215.719091a27.030394 27.030394 0 0 0 36.917493-9.887099l57.243329-99.083154a26.98796 26.98796 0 1 0-46.80459-27.030394L670.974588 178.801599a26.98796 26.98796 0 0 0 9.887098 36.917492z" fill="currentColor" /></svg>