<?xml version="1.0" standalone="no"?><!DOCTYPE svg PUBLIC "-//W3C//DTD SVG 1.1//EN" "http://www.w3.org/Graphics/SVG/1.1/DTD/svg11.dtd"><svg class="icon" width="200px" height="200.00px" viewBox="0 0 1024 1024" version="1.1" xmlns="http://www.w3.org/2000/svg"><path d="M498.645333 893.482667c-98.133333 0-183.68-32.512-256.554666-97.578667-72.874667-65.066667-114.645333-146.346667-125.312-243.754667h87.466666c9.941333 73.984 42.837333 135.125333 98.645334 183.466667 55.808 48.384 121.088 72.533333 195.754666 72.533333 83.2 0 153.770667-28.970667 211.712-86.912 57.941333-57.941333 86.912-128.554667 86.912-211.754666 0-83.2-28.970667-153.770667-86.912-211.712-57.941333-57.941333-128.554667-86.954667-211.754666-86.954667a288 288 0 0 0-137.557334 34.133333 317.056 317.056 0 0 0-107.733333 93.866667h117.333333v85.333333h-256v-256h85.333334v100.266667a372.565333 372.565333 0 0 1 132.778666-105.6 381.013333 381.013333 0 0 1 165.888-37.333333c53.333333 0 103.253333 10.154667 149.845334 30.421333a390.272 390.272 0 0 1 121.6 82.133333 390.272 390.272 0 0 1 82.133333 121.6 371.498667 371.498667 0 0 1 30.378667 149.845334c0 53.333333-10.112 103.296-30.378667 149.888a390.229333 390.229333 0 0 1-82.133333 121.6 390.314667 390.314667 0 0 1-121.6 82.133333 371.498667 371.498667 0 0 1-149.845334 30.378667m119.466667-204.8l-162.133333-162.133334v-230.4h85.333333v196.266667l136.533333 136.533333-59.733333 59.733334" fill="none" stroke="currentColor" stroke-width="1.5" stroke-linecap="round" stroke-linejoin="round" /></svg>