<?xml version="1.0" standalone="no"?><!DOCTYPE svg PUBLIC "-//W3C//DTD SVG 1.1//EN" "http://www.w3.org/Graphics/SVG/1.1/DTD/svg11.dtd"><svg class="icon" width="200px" height="200.00px" viewBox="0 0 1024 1024" version="1.1" xmlns="http://www.w3.org/2000/svg"><path fill="currentColor" d="M871.552 512a359.552 359.552 0 1 0-719.104 0 359.552 359.552 0 0 0 719.104 0z m87.04 0c0 246.613333-199.936 446.592-446.592 446.592-246.613333 0-446.592-199.936-446.634667-446.592C65.365333 265.386667 265.386667 65.365333 512 65.365333S958.592 265.386667 958.592 512zM324.650667 557.781333a43.52 43.52 0 0 1 60.8 8.533334l0.170666 0.170666 1.28 1.578667a196.053333 196.053333 0 0 0 32.298667 29.610667c22.869333 16.64 54.4 32 92.8 32 38.4 0 69.930667-15.36 92.8-32a196.096 196.096 0 0 0 32.298667-29.610667 59.306667 59.306667 0 0 0 1.28-1.578667l0.170666-0.213333a43.52 43.52 0 0 1 69.546667 52.48l-34.858667-26.154667 34.773334 26.197334v0.085333l-0.170667 0.128-0.341333 0.426667a76.629333 76.629333 0 0 1-3.712 4.650666 283.349333 283.349333 0 0 1-47.786667 44.032c-32.512 23.637333-81.664 48.64-144.042667 48.64-62.336 0-111.445333-25.002667-143.957333-48.64a283.562667 283.562667 0 0 1-47.786667-44.032 152.618667 152.618667 0 0 1-3.754666-4.693333l-0.298667-0.341333-0.128-0.170667-0.042667-0.085333s-0.042667-0.042667 34.773334-26.197334l-34.816 26.154667a43.52 43.52 0 0 1 8.704-60.970667zM391.594667 347.52a43.52 43.52 0 0 1 0 87.082667h-0.512a43.52 43.52 0 0 1 0-87.082667h0.512zM633.429333 347.52a43.52 43.52 0 0 1 0 87.082667h-0.512a43.52 43.52 0 0 1 0-87.082667h0.512z" /></svg>