<?xml version="1.0" standalone="no"?><!DOCTYPE svg PUBLIC "-//W3C//DTD SVG 1.1//EN" "http://www.w3.org/Graphics/SVG/1.1/DTD/svg11.dtd"><svg class="icon" width="200px" height="198.83px" viewBox="0 0 1030 1024" version="1.1" xmlns="http://www.w3.org/2000/svg"><path d="M954.45504 300.373333a30.72 30.72 0 0 1-10.794667-15.744 227.072 227.072 0 0 0-217.173333-163.072c-18.432 0-36.821333 2.218667-54.613333 6.656a30.421333 30.421333 0 0 1-32.341334-12.288 249.941333 249.941333 0 0 0-374.357333-43.008 249.173333 249.173333 0 0 0-80.213333 160.426667 30.378667 30.378667 0 0 1-17.152 24.533333c-2.986667 1.408-6.058667 2.986667-9.002667 4.608a28.330667 28.330667 0 0 1-8.106667 3.072A194.218667 194.218667 0 0 0 42.924373 332.245333a189.312 189.312 0 0 0-42.965333 120.917334c0 106.026667 86.698667 192.256 193.365333 192.256h643.754667c106.666667 0 193.365333-86.229333 193.365333-192.256 0-60.330667-27.648-116.053333-75.946666-152.746667v-0.085333zM172.88704 772.053333a27.093333 27.093333 0 0 0-27.093333 27.093334v41.813333l-44.416-12.074667a27.136 27.136 0 0 0-14.208 52.352l42.752 11.562667-25.898667 39.850667a27.178667 27.178667 0 0 0 22.698667 41.856 27.178667 27.178667 0 0 0 22.826666-12.373334l23.722667-36.522666 25.685333 38.229333a27.050667 27.050667 0 1 0 45.013334-30.293333l-27.477334-40.96 42.112-11.392a27.136 27.136 0 0 0-14.208-52.352l-44.373333 12.032v-41.813334a27.093333 27.093333 0 0 0-27.136-27.093333v0.085333zM515.201707 772.053333a27.093333 27.093333 0 0 0-27.136 27.093334v41.813333l-44.373334-12.074667a27.136 27.136 0 0 0-14.208 52.352l42.709334 11.562667-25.856 39.850667a27.178667 27.178667 0 0 0 22.698666 41.856 27.178667 27.178667 0 0 0 22.784-12.373334l23.722667-36.522666 25.728 38.229333a27.050667 27.050667 0 1 0 44.970667-30.293333l-27.477334-40.96 42.112-11.392a27.136 27.136 0 0 0-14.165333-52.352l-44.416 12.032v-41.813334a27.093333 27.093333 0 0 0-27.136-27.093333v0.085333zM857.473707 772.053333a27.093333 27.093333 0 0 0-27.136 27.093334v41.813333l-44.373334-12.074667a27.136 27.136 0 0 0-14.208 52.352l42.752 11.562667-25.898666 39.850667a27.178667 27.178667 0 0 0 22.698666 41.856 27.178667 27.178667 0 0 0 22.826667-12.373334l23.722667-36.522666 25.685333 38.229333a27.050667 27.050667 0 0 0 37.632 7.338667 27.050667 27.050667 0 0 0 7.381333-37.632l-27.52-40.96 42.154667-11.392a27.136 27.136 0 0 0-14.208-52.352l-44.373333 12.032v-41.813334a27.093333 27.093333 0 0 0-27.136-27.093333v0.085333z" fill="currentColor" /></svg>