<?xml version="1.0" standalone="no"?><!DOCTYPE svg PUBLIC "-//W3C//DTD SVG 1.1//EN" "http://www.w3.org/Graphics/SVG/1.1/DTD/svg11.dtd"><svg class="icon" width="200px" height="200.00px" viewBox="0 0 1024 1024" version="1.1" xmlns="http://www.w3.org/2000/svg"><path fill="currentColor" d="M512 213.333333a352.128 352.128 0 0 0-352 352A352.128 352.128 0 0 0 512 917.333333a21.333333 21.333333 0 0 1 0 42.666667c-217.856 0-394.666667-176.810667-394.666667-394.666667S294.144 170.666667 512 170.666667s394.666667 176.810667 394.666667 394.666666a21.333333 21.333333 0 0 1-42.666667 0A352.128 352.128 0 0 0 512 213.333333zM512 320a21.333333 21.333333 0 0 1 21.333333 21.333333v213.333334a21.333333 21.333333 0 0 1-42.666666 0V341.333333a21.333333 21.333333 0 0 1 21.333333-21.333333zM362.666667 85.333333a21.333333 21.333333 0 0 1 21.333333-21.333333h256a21.333333 21.333333 0 0 1 0 42.666667H384a21.333333 21.333333 0 0 1-21.333333-21.333334zM810.666667 704a21.333333 21.333333 0 0 1 21.333333 21.333333v170.666667a21.333333 21.333333 0 0 1-42.666667 0v-170.666667a21.333333 21.333333 0 0 1 21.333334-21.333333zM682.666667 704a21.333333 21.333333 0 0 1 21.333333 21.333333v170.666667a21.333333 21.333333 0 0 1-42.666667 0v-170.666667a21.333333 21.333333 0 0 1 21.333334-21.333333z" /></svg>