<?xml version="1.0" standalone="no"?><!DOCTYPE svg PUBLIC "-//W3C//DTD SVG 1.1//EN" "http://www.w3.org/Graphics/SVG/1.1/DTD/svg11.dtd"><svg class="icon" width="200px" height="200.00px" viewBox="0 0 1024 1024" version="1.1" xmlns="http://www.w3.org/2000/svg"><path fill="currentColor" d="M714.666667 151.893333V85.333333c0-17.493333-14.506667-32-32-32s-32 14.506667-32 32v64h-277.333334V85.333333c0-17.493333-14.506667-32-32-32s-32 14.506667-32 32v66.56c-115.2 10.666667-171.093333 79.36-179.626666 181.333334-0.853333 12.373333 9.386667 22.613333 21.333333 22.613333h721.92c12.373333 0 22.613333-10.666667 21.333333-22.613333-8.533333-101.973333-64.426667-170.666667-179.626666-181.333334zM853.333333 419.84H170.666667c-23.466667 0-42.666667 19.2-42.666667 42.666667V725.333333c0 128 64 213.333333 213.333333 213.333334h341.333334c149.333333 0 213.333333-85.333333 213.333333-213.333334v-262.826666c0-23.466667-19.2-42.666667-42.666667-42.666667z m-220.16 219.733333l-21.333333 21.76h-0.426667l-129.28 129.28c-5.546667 5.546667-17.066667 11.52-25.173333 12.373334l-57.6 8.533333c-20.906667 2.986667-35.413333-11.946667-32.426667-32.426667l8.106667-58.026666c1.28-8.106667 6.826667-19.2 12.373333-25.173334l129.706667-129.28 21.333333-21.76c14.08-14.08 29.866667-24.32 46.933334-24.32 14.506667 0 30.293333 6.826667 47.786666 24.32 38.4 38.4 26.026667 68.693333 0 94.72z" /></svg>