<?xml version="1.0" standalone="no"?><!DOCTYPE svg PUBLIC "-//W3C//DTD SVG 1.1//EN" "http://www.w3.org/Graphics/SVG/1.1/DTD/svg11.dtd"><svg class="icon" width="200px" height="200.00px" viewBox="0 0 1024 1024" version="1.1" xmlns="http://www.w3.org/2000/svg"><path fill="currentColor" d="M512 123.733333a388.266667 388.266667 0 1 0 0 776.533334 388.266667 388.266667 0 0 0 0-776.533334zM81.066667 512C81.066667 274.005333 274.005333 81.066667 512 81.066667c237.994667 0 430.933333 192.938667 430.933333 430.933333 0 237.994667-192.938667 430.933333-430.933333 430.933333-237.994667 0-430.933333-192.938667-430.933333-430.933333zM655.36 411.904a21.333333 21.333333 0 0 1-0.597333 30.165333l-177.92 170.666667a21.333333 21.333333 0 0 1-28.714667 0.725333l-78.08-67.541333a21.333333 21.333333 0 1 1 27.904-32.298667l63.402667 54.869334 163.84-157.226667a21.333333 21.333333 0 0 1 30.208 0.64z" /></svg>