<?xml version="1.0" standalone="no"?><!DOCTYPE svg PUBLIC "-//W3C//DTD SVG 1.1//EN" "http://www.w3.org/Graphics/SVG/1.1/DTD/svg11.dtd"><svg class="icon" width="200px" height="200.00px" viewBox="0 0 1024 1024" version="1.1" xmlns="http://www.w3.org/2000/svg"><path d="M763.733333 512a251.733333 251.733333 0 1 0-503.466666 0 251.733333 251.733333 0 0 0 503.466666 0z m-273.066666-108.629333a21.333333 21.333333 0 0 1 42.666666 0v127.36l87.808 29.269333 3.968 1.792a21.333333 21.333333 0 0 1-13.226666 39.68l-4.266667-0.938667-102.357333-34.133333a21.333333 21.333333 0 0 1-14.592-20.266667V403.370667zM806.4 512a294.4 294.4 0 1 1-588.8 0 294.4 294.4 0 0 1 588.8 0z" fill="currentColor" /></svg>