<?xml version="1.0" standalone="no"?><!DOCTYPE svg PUBLIC "-//W3C//DTD SVG 1.1//EN" "http://www.w3.org/Graphics/SVG/1.1/DTD/svg11.dtd"><svg class="icon" width="200px" height="200.00px" viewBox="0 0 1024 1024" version="1.1" xmlns="http://www.w3.org/2000/svg"><path d="M512 1024a512.584777 512.584777 0 0 1-511.999634-511.999634v-10.239993A511.999634 511.999634 0 1 1 512 1024z m-0.731428-102.399927H512a409.599707 409.599707 0 1 0-0.731428 0z m51.931391-102.399927H460.800037V716.800219h102.399926v102.399927z m0-153.59989H460.800037a183.442155 183.442155 0 0 1 90.697078-162.742741c33.791976-25.892553 62.902812-48.201108 62.902812-93.257076a102.399927 102.399927 0 0 0-204.799854 0H307.200146v-4.607997a204.799854 204.799854 0 0 1 409.672851 4.607997 174.811304 174.811304 0 0 1-79.871943 135.460475A158.719887 158.719887 0 0 0 563.199963 665.600256z" fill="currentColor" /></svg>