<?xml version="1.0" standalone="no"?><!DOCTYPE svg PUBLIC "-//W3C//DTD SVG 1.1//EN" "http://www.w3.org/Graphics/SVG/1.1/DTD/svg11.dtd"><svg class="icon" width="200px" height="200.00px" viewBox="0 0 1024 1024" version="1.1" xmlns="http://www.w3.org/2000/svg"><path fill="currentColor" d="M213.31968 469.31968H42.63936v469.36064h170.68032V469.31968zM682.63936 138.6496a154.33728 154.33728 0 0 1 115.22048-53.32992 139.34592 139.34592 0 0 1 140.82048 140.82048c0 96.82944-124.19072 209.05984-256 328.4992-131.8912-119.88992-256-232.07936-256-328.4992a139.34592 139.34592 0 0 1 140.77952-140.82048c44.35968 0 87.4496 20.8896 115.22048 53.32992zM853.31968 725.31968h-298.63936l-89.21088-31.1296 14.09024-40.1408 75.07968 28.63104h120.34048c27.72992 0 50.3808-22.65088 50.3808-50.3808 0-20.8896-13.27104-39.64928-32.89088-47.34976l-309.73952-115.63008H298.68032v384.86016l298.63936 84.50048 341.77024-128a85.93408 85.93408 0 0 0-85.77024-85.36064z" /></svg>