<?xml version="1.0" standalone="no"?><!DOCTYPE svg PUBLIC "-//W3C//DTD SVG 1.1//EN" "http://www.w3.org/Graphics/SVG/1.1/DTD/svg11.dtd"><svg class="icon" width="200px" height="200.00px" viewBox="0 0 1024 1024" version="1.1" xmlns="http://www.w3.org/2000/svg"><path fill="currentColor" d="M499.674074 448.853333l110.743704-110.743703a23.931259 23.931259 0 0 1 33.867852 0l16.952889 16.914963a23.969185 23.969185 0 0 1 0 33.867851l-110.819556 110.743704 110.743704 110.819556a23.931259 23.931259 0 0 1 0 33.829926l-16.877037 16.952889a23.931259 23.931259 0 0 1-33.867852 0l-110.743704-110.819556-110.78163 110.743704a23.893333 23.893333 0 0 1-33.867851 0l-16.952889-16.877037a23.931259 23.931259 0 0 1 0-33.867852l110.781629-110.743704-110.743703-110.819555a24.007111 24.007111 0 0 1 0-33.867852l16.914963-16.914963a23.931259 23.931259 0 0 1 33.867851 0l110.743704 110.743703v0.037926z m0 478.625186c236.278519 0 427.804444-191.525926 427.804445-427.804445 0-236.316444-191.525926-427.84237-427.804445-427.84237-236.316444 0-427.84237 191.525926-427.84237 427.804444 0 236.278519 191.525926 427.880296 427.804444 427.880296v-0.037925z m0 71.831703C223.725037 999.310222 0 775.585185 0 499.674074S223.725037 0 499.674074 0c275.949037 0 499.636148 223.725037 499.636148 499.674074 0 275.949037-223.687111 499.636148-499.636148 499.636148z" /></svg>