<?xml version="1.0" standalone="no"?><!DOCTYPE svg PUBLIC "-//W3C//DTD SVG 1.1//EN" "http://www.w3.org/Graphics/SVG/1.1/DTD/svg11.dtd"><svg class="icon" width="200px" height="200.00px" viewBox="0 0 1024 1024" version="1.1" xmlns="http://www.w3.org/2000/svg"><path fill="currentColor" d="M786.7 140.6h6.2c21.2 0 38.3-17.2 38.3-38.3 0-21.2-17.2-38.3-38.3-38.3H230.8c-21.2 0-38.3 17.2-38.3 38.3 0 21.2 17.2 38.3 38.3 38.3h6.2c0 227.5 181.4 236.4 191.7 370.7C418.4 645.5 237 654.4 237 881.9h-6.2c-21.2 0-38.3 17.2-38.3 38.3 0 21.2 17.2 38.3 38.3 38.3h562.1c21.2 0 38.3-17.2 38.3-38.3 0-21.2-17.2-38.3-38.3-38.3h-6.2c0-227.5-181.4-236.4-191.7-370.7 10.3-134.3 191.7-143.1 191.7-370.6z m-77.5 720.1c5.9 8.4-0.2 20-10.5 20H323.1c-9.9 0-16.1-10.8-11-19.3 50-83 110.9-145.3 191.2-206.2 4.9-3.7 12-3.3 16.6 0.8 81.5 74.2 139.5 133.4 189.3 204.7zM510.8 448.8L374.5 313s68.5 27.9 124.2 27.9 103.3-39.5 145.2-39.5c41.8 0-133.1 147.4-133.1 147.4z" /></svg>