<?xml version="1.0" standalone="no"?><!DOCTYPE svg PUBLIC "-//W3C//DTD SVG 1.1//EN" "http://www.w3.org/Graphics/SVG/1.1/DTD/svg11.dtd"><svg class="icon" width="200px" height="200.00px" viewBox="0 0 1024 1024" version="1.1" xmlns="http://www.w3.org/2000/svg"><path fill="currentColor" d="M937 442.2h-89.5v-89.5c0-12.3-10.1-22.4-22.4-22.4h-44.8c-12.3 0-22.4 10.1-22.4 22.4v89.5h-89.5c-12.3 0-22.4 10.1-22.4 22.4v44.8c0 12.3 10.1 22.4 22.4 22.4h89.5v89.5c0 12.3 10.1 22.4 22.4 22.4h44.8c12.3 0 22.4-10.1 22.4-22.4v-89.5H937c12.3 0 22.4-10.1 22.4-22.4v-44.8c-0.1-12.3-10.1-22.4-22.4-22.4z m-559.5 67.2c98.9 0 179-80.1 179-179s-80.1-179-179-179-179 80.1-179 179 80.1 179 179 179z m125.3 44.7h-23.4c-31 14.3-65.6 22.4-102 22.4s-70.8-8.1-102-22.4H252c-103.8 0-188 84.2-188 188v58.2c0 37.1 30.1 67.1 67.1 67.1h492.3c37.1 0 67.1-30.1 67.1-67.1v-58.2c0.3-103.8-83.9-188-187.7-188z" /></svg>