<?xml version="1.0" standalone="no"?><!DOCTYPE svg PUBLIC "-//W3C//DTD SVG 1.1//EN" "http://www.w3.org/Graphics/SVG/1.1/DTD/svg11.dtd"><svg class="icon" width="200px" height="200.00px" viewBox="0 0 1024 1024" version="1.1" xmlns="http://www.w3.org/2000/svg"><path d="M645.71392 70.669653C553.137493 81.032533 453.2224 121.685333 380.122453 178.517333c-103.19872 80.554667-172.755627 190.163627-199.318186 313.6512-6.075733 28.79488-6.57408 36.365653-6.826667 89.654614 0 51.77344 0.750933 60.859733 5.81632 84.097706 25.8048 114.653867 90.555733 201.775787 187.938133 253.044054 79.42144 41.669973 174.523733 47.98464 262.0416 17.42848 46.03904-16.165547 86.50752-42.68032 123.1872-80.561494 61.97248-64.907947 92.576427-140.670293 92.576427-230.065493 0-154.05056-86.002347-258.095787-252.183893-305.322667l-18.466134-5.30432v-15.660373c0-57.070933 19.223893-120.203947 49.07008-161.87392 13.66016-18.944 38.447787-42.939733 57.67168-55.814827 8.096427-5.051733 13.912747-10.356053 13.154987-11.618986-1.522347-2.771627-22.766933-2.525867-49.07008 0.505173z m-45.786453 54.299307c-35.662507 46.967467-57.15968 119.958187-54.8864 187.392l0.75776 26.25536 27.825493 7.072427c92.071253 23.995733 165.92896 72.47872 204.629333 134.3488 14.165333 22.7328 27.32032 58.094933 33.389227 89.402026 5.311147 27.784533 6.068907 83.339947 1.262933 109.602134-14.165333 78.793387-62.225067 152.787627-126.723413 195.720533-57.166507 37.881173-131.529387 56.572587-197.290667 49.50016-104.973653-11.3664-195.781973-75.50976-246.3744-174.004907-71.830187-140.663467-47.04256-315.16672 65.51552-458.861226 33.13664-42.175147 92.071253-93.948587 140.888747-123.4944 24.787627-15.1552 66.27328-34.597547 91.818667-43.185494 19.223893-6.567253 70.068907-18.937173 71.584426-17.681066 0.505173 0.252587-5.05856 8.587947-12.397226 17.933653z" fill="currentColor" /><path d="M684.414293 124.463787c-40.727893 32.576853-65.010347 75.257173-75.380053 132.840106-2.27328 13.380267-3.795627 28.030293-3.283627 32.576854 0.750933 8.082773 1.262933 8.587947 26.05056 16.91648 57.412267 19.449173 106.994347 48.7424 145.442134 85.865813 37.178027 36.113067 61.46048 74.246827 76.642986 120.968533 11.885227 35.86048 14.670507 53.53472 16.186027 102.27712 1.51552 53.036373-1.262933 76.26752-14.670507 117.43232-8.349013 26.514773-8.6016 32.82944-1.010346 32.82944 6.068907 0 9.099947-6.06208 17.701546-35.355306 18.71872-64.90112 18.71872-143.189333-0.252586-209.605974-7.584427-26.5216-26.303147-67.433813-41.22624-89.156266-41.73824-61.35808-106.994347-109.34272-187.180374-137.120427l-23.524693-8.082773 1.774933-15.1552c2.525867-22.473387 12.9024-56.060587 24.7808-78.793387 10.376533-19.94752 38.202027-51.514027 59.446614-67.1744 6.075733-4.293973 8.096427-7.325013 6.826666-10.60864-3.03104-7.318187-10.11712-4.799147-28.330666 9.352533z" fill="currentColor" /><path d="M628.005547 36.57728c-114.0736 17.681067-198.560427 54.299307-285.067947 123.746987C297.41056 196.949333 249.856 246.94784 251.630933 256.546133c2.020693 10.103467 9.352533 5.556907 30.603947-18.691413 48.564907-55.808 128.238933-114.906453 193.754453-143.44192 58.176853-25.757013 145.69472-46.46912 195.017387-46.721707 18.466133 0 23.77728-2.27328 22.254933-9.09312-0.750933-4.287147-3.536213-4.79232-20.992-5.297493-11.127467-0.252587-31.10912 1.256107-44.264106 3.2768zM695.036587 169.417387c-22.514347 22.7328-35.157333 44.701013-42.748587 74.246826-6.57408 25.258667-7.079253 23.988907 22.009173 36.365654 14.165333 6.06208 35.40992 16.411307 47.295147 22.97856 20.998827 11.871573 25.299627 12.88192 25.299627 6.06208 0-3.2768-58.18368-33.839787-80.186027-42.175147l-10.376533-4.041387 2.280106-10.103466c7.08608-32.064853 23.524693-59.849387 48.564907-82.827947 9.35936-8.587947 16.950613-16.67072 16.950613-18.432 0-7.325013-9.864533-1.017173-29.088426 17.926827zM180.046507 367.663787C158.542507 414.378667 143.872 464.889173 135.7824 519.94624 129.706667 562.373973 131.986773 633.582933 140.834133 675.498667c34.658987 163.648853 153.53856 284.112213 311.37792 315.931306 34.146987 6.81984 102.188373 6.06208 137.85088-1.51552 70.826667-14.895787 129.00352-44.701013 177.31584-90.405546 22.002347-20.964693 26.80832-29.55264 18.71872-32.58368-2.525867-1.010347-11.639467 5.809493-26.555733 19.954346-47.049387 44.701013-102.95296 73.741653-170.236587 88.139094-35.40992 7.570773-106.489173 8.075947-138.103466 1.00352-74.87488-16.15872-133.051733-47.977813-187.685547-102.529707-57.67168-57.576107-90.80832-118.695253-109.021867-202.786133-5.051733-22.480213-5.563733-33.334613-5.81632-86.370987 0-53.541547 0.764587-63.8976 5.823147-89.654613 7.33184-35.355307 24.282453-87.381333 38.447787-118.19008 11.127467-23.73632 11.63264-30.808747 2.525866-30.808747-4.3008 0-7.33184 4.799147-15.428266 21.97504z" fill="currentColor" /><path d="M644.44416 2.484907c-27.313493 2.778453-65.76128 10.103467-103.95648 19.954346C396.055893 59.815253 257.447253 166.386347 179.79392 300.2368 144.131413 361.342293 121.357653 423.7312 108.202667 495.957333 101.888 530.295467 100.37248 605.047467 105.43104 642.41664c6.826667 52.026027 27.56608 122.484053 35.915093 122.484053 4.805973 0 5.05856 1.262933-6.57408-32.324266-34.146987-101.266773-33.389227-207.837867 2.525867-316.689067 47.55456-143.947093 152.016213-266.676907 290.884267-341.17632 61.713067-33.088853 159.102293-60.361387 231.191893-64.648533 24.029867-1.26976 28.071253-2.280107 28.83584-6.068907 1.010347-5.051733-4.805973-5.051733-43.758933-1.51552zM827.828907 384.075093c0 1.774933 7.08608 12.88192 15.428266 24.753494 71.584427 99.498667 85.74976 246.729387 35.16416 365.42464-63.488 148.998827-202.103467 240.667307-363.731626 240.667306-105.22624 0-208.42496-46.462293-287.08864-128.791893-14.41792-15.1552-27.825493-27.777707-29.341014-27.777707-7.08608 0-1.017173 8.833707 24.029867 35.10272 62.982827 66.164053 143.6672 109.602133 229.669547 124.49792 39.963307 6.81984 110.277973 5.30432 148.72576-2.778453 52.360533-11.359573 107.246933-35.10272 149.490346-65.153707 27.32032-19.442347 72.594773-64.648533 92.071254-92.42624 33.8944-47.98464 59.1872-109.85472 69.30432-168.700586 4.553387-27.019947 5.317973-37.628587 4.048213-78.0288-1.768107-61.371733-10.622293-102.536533-32.62464-151.278934-18.213547-40.659627-55.145813-91.163307-55.145813-75.502933z" fill="currentColor" /></svg>