<?xml version="1.0" standalone="no"?><!DOCTYPE svg PUBLIC "-//W3C//DTD SVG 1.1//EN" "http://www.w3.org/Graphics/SVG/1.1/DTD/svg11.dtd"><svg class="icon" width="200px" height="200.00px" viewBox="0 0 1024 1024" version="1.1" xmlns="http://www.w3.org/2000/svg"><path fill="currentColor" d="M829.64221194 340.20129393c0 273.76556393-179.83245855 470.90148926-444.32830813 479.55322267-111.85455324 8.65173339-188.48419195-25.33721924-257.08007812-76.62963864 76.62963868 8.65173339 179.83245855-16.6854858 230.50689697-68.59588626-76.62963868 0-119.88830565-43.25866699-145.2255249-101.96685791h68.59588622C213.51519776 546.60693358 161.60479739 495.3145142 161.60479739 410.03314209c16.6854858 8.65173339 33.98895263 16.6854858 68.59588618 16.68548582-59.94415285-33.98895263-93.93310546-145.2255249-51.29241942-213.82141118 76.62963868 85.28137206 170.56274413 162.5289917 325.67596437 170.5627442-43.25866699-170.56274413 179.83245855-257.0800782 273.76556397-145.22552491 43.25866699-8.65173339 68.59588624-25.33721924 101.9668579-43.25866697-8.65173339 43.25866699-33.98895263 68.59588624-68.59588624 85.2813721 33.98895263 0 59.94415285-8.65173339 85.28137208-25.33721927-8.03375245 33.98895263-42.02270515 68.59588624-67.35992433 85.28137205z" /></svg>