<?xml version="1.0" standalone="no"?><!DOCTYPE svg PUBLIC "-//W3C//DTD SVG 1.1//EN" "http://www.w3.org/Graphics/SVG/1.1/DTD/svg11.dtd"><svg class="icon" width="200px" height="200.00px" viewBox="0 0 1024 1024" version="1.1" xmlns="http://www.w3.org/2000/svg"><path fill="currentColor" d="M942.933333 590.762667a21.333333 21.333333 0 0 1-42.666666 0V357.290667l-357.12 343.381333a21.333333 21.333333 0 0 1-29.525334 0l-181.845333-174.848-214.613333 206.336a21.333333 21.333333 0 0 1-29.568-30.72l229.376-220.586667a21.333333 21.333333 0 0 1 29.610666 0l181.76 174.848L868.693333 328.533333h-241.962666a21.333333 21.333333 0 1 1 0-42.666666H921.6a21.333333 21.333333 0 0 1 21.333333 21.333333v283.562667z" /></svg>