<?xml version="1.0" standalone="no"?><!DOCTYPE svg PUBLIC "-//W3C//DTD SVG 1.1//EN" "http://www.w3.org/Graphics/SVG/1.1/DTD/svg11.dtd"><svg class="icon" width="200px" height="200.00px" viewBox="0 0 1024 1024" version="1.1" xmlns="http://www.w3.org/2000/svg"><path fill="currentColor" d="M573.008842 913.650526c-32.296421-11.237053-44.773053-29.372632-61.210947-56.225684-10.213053 26.650947-38.197895 50.351158-65.886316 57.869474-38.130526 10.347789-78.605474-5.12-114.661053-16.788211l-42.994526-14.012631c-22.231579-8.272842-67.866947-23.767579-59.877053-54.851369l0.175158-0.633263c1.306947-4.769684 3.853474-9.377684 5.874527-13.877895 10.792421-24.117895 15.521684-51.792842 15.966315-78.147368l-0.053894-60.389053-6.656-92.065684-12.894316-109.46021-18.849684-120.400843a440.481684 440.481684 0 0 0-12.085895-46.430315l-9.000421-26.206316c-7.208421-21.638737-7.397053-47.225263 8.569263-65.306947l0.619789-0.700632c16.491789-18.553263 23.376842-14.713263 42.078316-20.48l31.663158-11.102316c12.907789-4.783158 28.779789-9.027368 38.629053-19.146105 5.712842-5.861053 6.359579-12.139789 9.391158-19.375158a65.616842 65.616842 0 0 1 56.225684-40.192L614.938947 105.633684c50.351158-0.040421 70.521263 1.751579 91.068632 50.607158 4.823579 11.466105 10.266947 11.789474 21.436632 16.316632l23.525052 9.714526c9.202526 3.866947 18.526316 8.663579 27.998316 11.749053 8.501895 2.775579 17.246316 3.570526 25.6 7.006315 27.944421 11.452632 40.892632 43.829895 31.232 71.720421-4.015158 11.627789-11.897263 21.867789-17.785263 32.579369-10.644211 19.348211-17.488842 43.210105-20.345263 65.104842l-2.021053 15.898947c-1.724632 16.976842-3.813053 34.479158-4.082526 51.56379-0.188632 11.587368 1.077895 24.293053-0.768 35.678316l-1.037474 7.410526c-0.512 3.732211-0.309895 7.599158-0.309895 11.358316l-0.161684 352.794947c0 2.479158 0.269474 5.429895-0.350316 7.855158-1.670737 6.575158-31.353263 23.013053-38.157473 26.489263-41.040842 21.059368-132.688842 48.505263-177.77179 34.169263zM434.122105 133.658947l-31.582316 0.202106c2.506105 8.96 6.858105 17.354105 10.266948 26.00421l41.202526 102.144c3.408842 8.407579 7.410526 16.693895 10.374737 25.249684l45.675789 116.951579c0.485053 1.589895 1.482105 3.152842 2.492632 4.45979l20.938105-55.107369 86.002527-219.715368L434.122105 133.658947z m-62.396631 1.104842c-16.047158 5.793684-21.234526 16.64-27.324632 31.609264-11.856842 29.035789-43.816421 38.4-70.831158 47.872l-26.435368 9.296842c-6.265263 1.994105-12.395789 1.414737-18.378105 4.917894-13.204211 7.706947-17.744842 22.581895-14.915369 36.958316 1.158737 5.874526 4.554105 11.951158 6.602105 17.623579l16.613053 57.721263 17.704421 104.057264c1.980632 11.412211 3.341474 22.905263 4.890947 34.384842l12.328421 114.553263c0.175158 3.354947-0.026947 6.979368 1.28 10.105263 6.346105 1.212632 13.743158 0.404211 20.237474 0.592842 13.662316 0.377263 24.805053 1.859368 39.356632 0.983579l8.865684-0.835368c17.92-1.010526 34.708211-2.533053 52.035368-7.316211 4.244211-1.172211 8.811789-2.896842 13.204211-3.139368 16.289684-0.916211 19.321263 22.258526 3.543579 27.944421-35.112421 12.665263-97.226105 14.767158-136.030316 10.037894 0.134737 2.964211 0.687158 5.874526 0.943158 8.838737l2.465684 73.108211c-0.053895 46.821053-3.045053 77.972211-22.366316 122.206316 22.096842 17.381053 82.917053 37.241263 113.488842 45.338947l27.082106 6.238316c53.840842 11.466105 95.218526-22.204632 101.753263-76.517053 0.943158-7.814737 0.107789-16.734316 0.107789-24.643368V605.130105c0-12.368842 0.970105-22.810947-5.12-33.994105L333.554526 312.939789c-12.570947-20.951579-7.868632-20.749474-1.199158-43.264l10.037895-32.741052c1.347368-4.028632 2.586947-10.051368 5.618526-13.123369 10.482526-10.644211 26.839579 0.404211 22.689685 15.346527l-17.00379 54.514526 44.436211 69.497263 95.865263 156.092632c1.226105 2.048 3.018105 3.934316 4.001684 6.103579l0.067369-67.341474c0-3.530105 0.485053-7.275789-0.808422-10.603789l-125.534315-312.656843z m277.719579 0.134737l-120.441264 308.911158c-0.768 2.196211-1.940211 4.405895-2.546526 6.615579-1.185684 4.432842-0.970105 71.922526 0.134737 74.60379l0.875789 0.727579 137.458527-224.741053c1.589895-2.425263 3.435789-4.756211 4.554105-7.437474-2.182737-8.043789-5.12-15.831579-7.760842-23.727158l-6.063158-19.671579c-2.128842-6.871579-6.009263-13.433263-3.314526-20.776421l0.229052-0.633263c2.452211-6.575158 11.210105-10.644211 17.77179-7.841684 5.901474 2.533053 6.682947 8.569263 8.690526 13.837474l16.020211 47.750737c2.155789 5.834105 4.971789 13.406316 2.128842 19.429052L535.309474 566.096842c-6.211368 10.752-9.350737 10.509474-9.377685 22.568421l0.10779 210.701474c0.754526 29.170526 12.449684 60.698947 36.931368 77.97221l10.024421 6.211369c18.405053 9.579789 37.914947 6.521263 57.492211 2.96421l65.68421-15.292631c11.088842-3.341474 58.88-23.821474 65.751579-31.730527 0.970105-10.320842 0.202105-21.450105 0.202106-31.851789l0.40421-323.772632c0.161684-4.042105 1.091368-8.003368 1.266527-12.072421 0.633263-15.171368-0.741053-30.693053 0.485052-45.783579l3.597474-36.513684c4.176842-37.510737 10.455579-69.200842 28.833684-102.197895 11.102316-19.914105 27.742316-45.352421-3.072-60.106105-3.098947-1.482105-6.790737-1.940211-10.145684-2.627368-18.351158-3.799579-35.301053-13.365895-52.453053-20.601263-15.508211-6.534737-31.434105-10.482526-42.913684-23.686737-14.255158-16.370526-8.838737-35.786105-38.696421-45.379369zM741.389474 632.077474c-7.599158 1.037474-15.831579 0.471579-23.471158 0.458105l-29.776842-0.269474c-17.852632-0.902737-36.015158-3.422316-53.679158-6.022737-11.129263-1.643789-39.127579-3.543579-30.396632-23.053473 2.034526-4.540632 5.551158-6.804211 9.930105-8.609684 4.648421-0.431158 7.612632 0.633263 12.032 1.522526l50.566737 6.777263c4.082526 0.336842 8.016842 1.077895 12.13979 1.253053h47.346526c20.762947-0.336842 18.499368 24.306526 5.308632 27.944421z" /></svg> 