<?xml version="1.0" standalone="no"?><!DOCTYPE svg PUBLIC "-//W3C//DTD SVG 1.1//EN" "http://www.w3.org/Graphics/SVG/1.1/DTD/svg11.dtd"><svg class="icon" width="200px" height="200.00px" viewBox="0 0 1024 1024" version="1.1" xmlns="http://www.w3.org/2000/svg"><path fill="currentColor" d="M397.537 512.001c0 61.883 51.265 112.163 114.367 112.163s114.367-50.284 114.367-112.163v-0.932c-12.212 12.147-28.965 19.627-47.654 19.627-36.802 0-66.714-29.348-66.714-65.433 0-25.985 15.617-48.606 37.937-59.07-11.821-4.117-24.589-6.364-37.937-6.364-63.102 0.001-114.367 50.291-114.367 112.174z m546.303-63.747c-70.923-88.434-243.611-235.369-431.748-235.369-188.323 0-361.199 146.937-432.122 235.369-16.007 20.187-24.778 42.066-25.351 63.747 0.575 21.687 9.342 43.557 25.351 63.755 70.924 88.421 243.613 235.36 431.936 235.36s361.012-146.937 431.935-235.36c16.195-20.194 24.959-42.066 25.537-63.755-0.579-21.681-9.343-43.562-25.538-63.747zM511.905 698.949c-105.206 0-190.614-83.753-190.614-186.946s85.405-186.946 190.614-186.946 190.612 83.753 190.612 186.946-85.403 186.946-190.612 186.946z" /></svg>