<?xml version="1.0" standalone="no"?><!DOCTYPE svg PUBLIC "-//W3C//DTD SVG 1.1//EN" "http://www.w3.org/Graphics/SVG/1.1/DTD/svg11.dtd"><svg class="icon" width="200px" height="200.00px" viewBox="0 0 1024 1024" version="1.1" xmlns="http://www.w3.org/2000/svg"><path fill="currentColor" d="M845.397333 254.08l42.410667-42.410667a31.189333 31.189333 0 0 1 44.074667 0l5.12 5.12a31.146667 31.146667 0 0 1 0 44.032L890.581333 307.2a451.712 451.712 0 1 1-396.885333-185.6V64.853333h-20.992a31.146667 31.146667 0 1 1 0-62.293333h104.234667a31.146667 31.146667 0 1 1 0 62.293333h-20.906667v56.746667a450.176 450.176 0 0 1 289.365333 132.437333v0.042667z m-351.701333 252.501333a104.32 104.32 0 1 0 119.808 44.245334 104.234667 104.234667 0 0 0-57.472-44.245334V363.008a31.146667 31.146667 0 0 0-62.293333 0v143.573333z m31.146667 455.168a389.461333 389.461333 0 1 0 0-778.922666 389.461333 389.461333 0 0 0 0 778.922666z m0-31.146666a358.272 358.272 0 1 1 0-716.586667 358.272 358.272 0 0 1 0 716.544z m0-282.581334a41.984 41.984 0 1 1 0-83.968 41.984 41.984 0 0 1 0 83.968z" /></svg>