<?xml version="1.0" standalone="no"?><!DOCTYPE svg PUBLIC "-//W3C//DTD SVG 1.1//EN" "http://www.w3.org/Graphics/SVG/1.1/DTD/svg11.dtd"><svg class="icon" width="200px" height="200.00px" viewBox="0 0 1024 1024" version="1.1" xmlns="http://www.w3.org/2000/svg"><path fill="currentColor" d="M337.066667 76.8a21.333333 21.333333 0 0 1 21.333333-21.333333h307.2a21.333333 21.333333 0 0 1 0 42.666666H358.4a21.333333 21.333333 0 0 1-21.333333-21.333333z m-256 153.6a21.333333 21.333333 0 0 1 21.333333-21.333333h819.2a21.333333 21.333333 0 0 1 0 42.666666h-89.642667c4.522667 9.984 6.826667 21.162667 6.357334 32.853334L814.933333 845.226667a123.733333 123.733333 0 0 1-123.733333 123.306666H332.8a123.733333 123.733333 0 0 1-123.733333-123.306666L185.728 284.586667A72.192 72.192 0 0 1 192 251.733333H102.4a21.333333 21.333333 0 0 1-21.333333-21.333333z m177.109333 21.333333a29.866667 29.866667 0 0 0-29.866667 31.146667L251.733333 844.373333v0.426667c0 44.8 36.266667 81.066667 81.066667 81.066667h358.4a81.066667 81.066667 0 0 0 81.066667-81.066667v-0.426667l23.381333-561.493333a29.866667 29.866667 0 0 0-29.824-31.146667H258.176zM409.6 413.866667a21.333333 21.333333 0 0 1 21.333333 21.333333v307.2a21.333333 21.333333 0 0 1-42.666666 0v-307.2a21.333333 21.333333 0 0 1 21.333333-21.333333z m204.8 0a21.333333 21.333333 0 0 1 21.333333 21.333333v307.2a21.333333 21.333333 0 0 1-42.666666 0v-307.2a21.333333 21.333333 0 0 1 21.333333-21.333333z" /></svg>