<?xml version="1.0" standalone="no"?><!DOCTYPE svg PUBLIC "-//W3C//DTD SVG 1.1//EN" "http://www.w3.org/Graphics/SVG/1.1/DTD/svg11.dtd"><svg class="icon" width="200px" height="184.67px" viewBox="0 0 1109 1024" version="1.1" xmlns="http://www.w3.org/2000/svg"><path d="M1087.598532 697.372965h-39.48586v-44.355783h17.189511V44.355809H44.355783v608.661373H748.915148v44.355783H22.16473A22.191053 22.191053 0 0 1 0 675.181911V22.164756A22.16473 22.16473 0 0 1 22.16473 0.000026h1065.433802a22.16473 22.16473 0 0 1 22.191054 22.16473v653.017155a22.191053 22.191053 0 0 1-22.191054 22.191054zM726.724094 834.836406H383.039168a22.191053 22.191053 0 0 1 0-44.355783h343.684926a22.191053 22.191053 0 1 1 0 44.355783z" fill="currentColor" /><path d="M446.79567 721.748902h44.355783v95.897993h-44.355783zM618.638133 721.748902h44.355783v95.897993h-44.355783zM417.41819 473.961968a22.16473 22.16473 0 0 1-22.16473-22.16473V245.575753a22.16473 22.16473 0 1 1 44.329459 0v206.221485a22.16473 22.16473 0 0 1-22.164729 22.16473z" fill="currentColor" /><path d="M503.339422 267.740482h-171.842464a22.191053 22.191053 0 1 1 0-44.355783h171.842464a22.191053 22.191053 0 0 1 0 44.355783zM692.318748 473.961968a22.191053 22.191053 0 0 1-20.479999-13.635784L585.970165 254.104698a22.16473 22.16473 0 1 1 40.933675-17.057891L692.318748 394.121559l65.441233-157.074752a22.191053 22.191053 0 1 1 40.959998 17.057891l-85.947555 206.221486a22.112082 22.112082 0 0 1-20.453676 13.635784zM1001.677301 1024h-206.195162a22.16473 22.16473 0 0 1-22.191053-22.191053V520.528959a22.191053 22.191053 0 0 1 22.191053-22.191053h206.195162a22.217377 22.217377 0 0 1 22.191053 22.191053v481.148368a22.191053 22.191053 0 0 1-22.191053 22.322673z m-184.030433-44.487402h161.865703V542.693688h-161.865703z" fill="currentColor" /><path d="M847.024348 721.748902h34.379023v44.355783h-34.379023zM915.756069 721.748902h34.379022v44.355783h-34.379022zM847.024348 790.480623h34.379023v44.355783h-34.379023zM915.756069 790.480623h34.379022v44.355783h-34.379022zM847.024348 859.212344h34.379023v44.355782h-34.379023zM915.756069 859.212344h34.379022v44.355782h-34.379022z" fill="currentColor" /></svg>