<?xml version="1.0" standalone="no"?><!DOCTYPE svg PUBLIC "-//W3C//DTD SVG 1.1//EN" "http://www.w3.org/Graphics/SVG/1.1/DTD/svg11.dtd"><svg class="icon" width="200px" height="183.35px" viewBox="0 0 1117 1024" version="1.1" xmlns="http://www.w3.org/2000/svg"><path fill="currentColor" d="M870.446545 507.345455a176.872727 176.872727 0 1 1-67.770181 340.340363l-0.651637 0.465455a394.007273 394.007273 0 0 1-248.087272 87.505454 394.24 394.24 0 0 1-162.909091-35.002182c21.038545-16.104727 39.098182-36.119273 52.782545-58.88 34.443636 12.567273 71.493818 19.409455 110.126546 19.409455 68.421818 0 131.909818-21.410909 184.040727-57.902545 3.723636 3.397818 7.447273 6.656 11.357091 9.867636a176.872727 176.872727 0 0 1 121.111272-305.803636zM304.174545 233.146182c6.330182 25.739636 17.408 49.664 32.116364 70.749091l-2.327273 2.187636a320.232727 320.232727 0 0 0-100.491636 211.595636 176.872727 176.872727 0 1 1-69.166545 21.969455 185.809455 185.809455 0 0 0-6.05091 3.165091v-2.792727c0-123.810909 56.785455-234.309818 145.92-306.874182zM549.236364 9.309091a176.872727 176.872727 0 0 1 176.779636 170.542545v3.723637a396.567273 396.567273 0 0 1 209.128727 250.181818l1.489455 5.585454a214.574545 214.574545 0 0 0-79.220364-4.654545 322.094545 322.094545 0 0 0-146.152727-174.731636c3.584-8.936727 6.516364-18.152727 8.843636-27.694546A177.012364 177.012364 0 1 1 549.236364 9.309091z" /></svg>
