<?xml version="1.0" standalone="no"?><!DOCTYPE svg PUBLIC "-//W3C//DTD SVG 1.1//EN" "http://www.w3.org/Graphics/SVG/1.1/DTD/svg11.dtd"><svg class="icon" width="200px" height="200.00px" viewBox="0 0 1024 1024" version="1.1" xmlns="http://www.w3.org/2000/svg"><path fill="currentColor" d="M800 96H224C171.093333 96 128 139.093333 128 192v640c0 52.906667 43.093333 96 96 96h576c52.906667 0 96-43.093333 96-96v-640c0-52.906667-43.093333-96-96-96z m-127.018667 416.853333a32 32 0 0 1-32 32H287.786667a32 32 0 0 1 0-64h353.194666a32 32 0 0 1 32 32zM511.146667 256a48 48 0 1 1 0 96 48 48 0 0 1 0-96z m-207.36 0a48 48 0 1 1 0 96 48 48 0 0 1 0-96z m431.146666 479.530667H287.658667a32 32 0 1 1 0-64h447.232a32 32 0 1 1 0 64z m-15.658666-383.488a48 48 0 1 1 0-96 48 48 0 0 1 0 96z" /></svg>