<?xml version="1.0" standalone="no"?><!DOCTYPE svg PUBLIC "-//W3C//DTD SVG 1.1//EN" "http://www.w3.org/Graphics/SVG/1.1/DTD/svg11.dtd"><svg class="icon" width="200px" height="200.00px" viewBox="0 0 1024 1024" version="1.1" xmlns="http://www.w3.org/2000/svg"><path fill="currentColor" d="M800 64a32 32 0 0 1 32 32v405.845333a192.042667 192.042667 0 0 0-352.853333 55.808 192 192 0 0 0 26.624 146.602667c-69.12 28.757333-118.058667 73.685333-121.6 122.154667L384 832v128H160a32 32 0 0 1-32-32V96a32 32 0 0 1 32-32h640z m-128 672c120.704 0 219.093333 40.917333 223.786667 92.16l0.213333 3.84V896a64 64 0 0 1-64 64H512a64 64 0 0 1-64-64v-64l0.213333-3.84c4.693333-51.285333 103.082667-92.16 223.786667-92.16z m0-256a112 112 0 1 1 0 224 112 112 0 0 1 0-224z m-256-128h-128a32 32 0 0 0-3.754667 63.786667l3.754667 0.213333h128a32 32 0 1 0 0-64z m64-128h-192a32 32 0 0 0-3.754667 63.786667l3.754667 0.213333h192a32 32 0 1 0 0-64z" /></svg>
