<?xml version="1.0" standalone="no"?><!DOCTYPE svg PUBLIC "-//W3C//DTD SVG 1.1//EN" "http://www.w3.org/Graphics/SVG/1.1/DTD/svg11.dtd"><svg class="icon" width="200px" height="200.00px" viewBox="0 0 1024 1024" version="1.1" xmlns="http://www.w3.org/2000/svg"><path fill="currentColor" d="M918.741333 637.44l-135.808-75.434667a38.954667 38.954667 0 0 0-37.632 0l-135.808 75.392a38.784 38.784 0 0 0-19.925333 33.962667v148.309333c0 14.08 7.637333 27.050667 19.925333 33.92l135.808 75.434667c11.648 6.485333 25.984 6.485333 37.632 0l135.808-75.434667a38.784 38.784 0 0 0 19.925334-33.92v-148.394666a38.613333 38.613333 0 0 0-19.925334-33.877334z m-154.666666 166.186667a58.282667 58.282667 0 1 1 0-116.48 58.282667 58.282667 0 0 1 0 116.48zM720.981333 489.856a424.874667 424.874667 0 0 0-42.965333-21.205333c-12.288-5.205333-26.197333-2.56-37.205333 4.864a231.253333 231.253333 0 0 1-128.810667 38.954666 231.68 231.68 0 0 1-127.914667-38.4c-11.136-7.466667-25.173333-9.984-37.461333-4.778666-140.117333 59.477333-242.048 191.36-258.090667 349.013333a39.253333 39.253333 0 0 0 38.741334 43.477333h384.853333a38.698667 38.698667 0 0 0 38.698667-38.954666v-174.592a38.4 38.4 0 0 1 19.754666-33.536l150.101334-83.456a23.765333 23.765333 0 0 0 0.298666-41.386667zM317.866667 279.722667a194.005333 194.005333 0 1 0 388.053333 0 194.005333 194.005333 0 0 0-388.010667 0z" /></svg>
